<svg width="28" height="28" viewBox="0 0 28 28" fill="none" xmlns="http://www.w3.org/2000/svg">
<path d="M27.4998 14.0165C27.513 16.6867 26.734 19.3009 25.2613 21.5283C23.7886 23.7558 21.6885 25.4965 19.2265 26.5303C16.7644 27.564 14.0511 27.8445 11.4297 27.3361C8.80829 26.8277 6.39652 25.5533 4.49943 23.6741C2.60234 21.7949 1.30515 19.3953 0.771916 16.7789C0.238684 14.1624 0.493365 11.4465 1.50375 8.97481C2.51413 6.50309 4.23483 4.38652 6.44822 2.8928C8.66161 1.39908 11.2683 0.595306 13.9385 0.583139C17.5178 0.56739 20.957 1.97355 23.5 4.49253C26.0429 7.01151 27.4816 10.4372 27.4998 14.0165Z" fill="#EDEDF2"/>
<path d="M20.8454 9.25049C19.866 8.96702 18.8505 8.56507 17.8224 8.1589C17.7632 7.90081 17.5347 7.57926 17.0725 7.18683C16.4008 6.60401 15.1389 6.61882 14.0484 6.87691C12.8447 6.59344 11.6558 6.49295 10.5145 6.77114C1.17985 9.34252 6.47281 15.616 3.04572 21.9223C3.53334 22.9567 8.78927 28.9922 16.3945 27.3728C16.3945 27.3728 13.7935 21.1226 19.6629 18.1229C24.4238 15.6805 27.8636 11.1618 20.8454 9.25049Z" fill="#E6007A"/>
<path d="M21.9987 13.3557C21.9993 13.4676 21.9667 13.5772 21.9051 13.6706C21.8434 13.764 21.7554 13.837 21.6523 13.8805C21.5491 13.9239 21.4354 13.9357 21.3255 13.9145C21.2156 13.8933 21.1145 13.8399 21.0349 13.7612C20.9553 13.6825 20.9008 13.582 20.8784 13.4724C20.8559 13.3627 20.8665 13.2489 20.9088 13.1452C20.951 13.0416 21.023 12.9528 21.1157 12.8901C21.2085 12.8274 21.3177 12.7936 21.4296 12.793C21.5796 12.7924 21.7237 12.8513 21.8304 12.9568C21.937 13.0623 21.9975 13.2057 21.9987 13.3557Z" fill="#EDEDF2"/>
<path d="M14.0485 6.87319C14.7287 6.92185 17.1879 7.71939 17.8226 8.15518C17.2937 6.62145 15.5135 6.4173 14.0485 6.87319Z" fill="#E6007A"/>
<path d="M14.6957 10.752C14.6959 11.2683 14.543 11.7731 14.2563 12.2025C13.9697 12.6319 13.5621 12.9667 13.0852 13.1645C12.6082 13.3623 12.0834 13.4142 11.5769 13.3137C11.0705 13.2131 10.6053 12.9647 10.24 12.5998C9.87479 12.2348 9.62597 11.7698 9.52504 11.2634C9.42411 10.7571 9.47559 10.2322 9.67298 9.75507C9.87037 9.27798 10.2048 8.87014 10.634 8.58312C11.0632 8.2961 11.5678 8.14279 12.0841 8.14258C12.7761 8.14258 13.4398 8.41732 13.9293 8.90643C14.4188 9.39554 14.6941 10.059 14.6946 10.751L14.6957 10.752Z" fill="#EDEDF2"/>
<path d="M13.9214 10.7757C13.9214 11.1389 13.8137 11.4939 13.6119 11.7959C13.4102 12.0978 13.1234 12.3332 12.7878 12.4722C12.4523 12.6111 12.0831 12.6475 11.7269 12.5767C11.3707 12.5058 11.0435 12.3309 10.7867 12.0741C10.5299 11.8173 10.355 11.4901 10.2842 11.1339C10.2133 10.7777 10.2497 10.4085 10.3887 10.073C10.5277 9.73747 10.763 9.45068 11.065 9.24892C11.367 9.04715 11.722 8.93945 12.0851 8.93945C12.5721 8.93945 13.0392 9.13291 13.3836 9.47728C13.7279 9.82164 13.9214 10.2887 13.9214 10.7757Z" fill="#E6007A"/>
<path d="M24.1124 14.507C21.9969 15.9974 19.5916 17.1281 16.1793 17.1281C14.5821 17.1281 14.2585 15.4357 13.2028 16.2629C12.6581 16.6923 10.7372 17.6528 9.21301 17.5798C7.6888 17.5068 5.21791 16.6141 4.52932 13.3594C4.25642 16.6141 4.1168 19.0098 2.89087 21.7568C5.32368 25.6525 11.1244 28.6575 16.3898 27.3629C15.8281 23.4122 19.2859 19.543 21.2258 17.566C21.9662 16.8161 23.373 15.5923 24.1124 14.5081V14.507Z" fill="#E6007A"/>
<path d="M24.0299 14.6051C23.3731 15.2037 22.5914 15.6469 21.796 16.0383C20.9907 16.4202 20.1514 16.7258 19.2891 16.9511C18.426 17.1743 17.5258 17.3425 16.6141 17.26C15.7023 17.1775 14.7704 16.8676 14.1664 16.1843L14.195 16.1515C14.9354 16.6317 15.7901 16.8009 16.6405 16.8253C17.5025 16.8518 18.3648 16.7808 19.2108 16.6137C20.0655 16.4346 20.9015 16.1761 21.7082 15.8416C22.5152 15.5084 23.3138 15.1223 24.0014 14.5723L24.0299 14.6051Z" fill="#EDEDF2"/>
</svg>
