<svg width="22" height="24" viewBox="0 0 22 24" fill="none" xmlns="http://www.w3.org/2000/svg">
<path d="M19.1257 14.3475C18.9516 14.4699 18.7484 14.5422 18.5374 14.5566C18.3265 14.5711 18.1157 14.5272 17.9271 14.4297C17.4845 14.1744 17.2459 13.576 17.2459 12.7604V10.2609C17.2459 9.06107 16.7802 8.20738 16.0013 7.97562C14.6849 7.58251 13.7019 9.22829 13.3224 9.84729L10.9943 13.6933V8.99947C10.9684 7.91695 10.6235 7.26861 9.971 7.07499C9.53985 6.94591 8.89313 6.99871 8.26365 7.97855L3.05827 16.5067C2.36567 15.1542 2.00656 13.6499 2.01202 12.1238C2.01202 6.98405 6.03606 2.80358 10.9943 2.80358C15.9524 2.80358 19.9909 6.98405 19.9909 12.1238V12.1502C19.9909 12.1502 19.9909 12.1678 19.9909 12.1766C20.0397 13.1711 19.7235 13.9632 19.1286 14.3475H19.1257ZM22 12.1267V12.0769C21.9598 5.81351 17.0389 0.732422 10.9943 0.732422C4.94957 0.732422 0 5.84285 0 12.1238C0 18.4048 4.93232 23.5181 10.9943 23.5181C13.7745 23.518 16.449 22.4303 18.4675 20.4789C18.6634 20.2905 18.7787 20.0309 18.7884 19.7563C18.7981 19.4817 18.7013 19.2143 18.5192 19.012C18.432 18.9136 18.3267 18.8338 18.2092 18.7771C18.0917 18.7204 17.9643 18.688 17.8345 18.6817C17.7047 18.6755 17.5749 18.6955 17.4527 18.7406C17.3305 18.7857 17.2182 18.855 17.1223 18.9446C16.2533 19.7859 15.2266 20.4394 14.104 20.8657C12.9814 21.292 11.786 21.4823 10.5895 21.4253C9.39301 21.3684 8.22014 21.0652 7.14131 20.534C6.06248 20.0029 5.09994 19.2547 4.31147 18.3344L8.9966 10.6482V14.195C8.9966 15.8994 9.64332 16.451 10.1866 16.6123C10.7298 16.7737 11.5605 16.6622 12.4314 15.2188L15.0183 10.9445C15.0988 10.8066 15.1764 10.6893 15.2454 10.5866V12.7604C15.2454 14.3534 15.872 15.6266 16.97 16.2544C17.4692 16.5295 18.0318 16.6624 18.5987 16.6392C19.1657 16.6159 19.716 16.4374 20.1921 16.1224C21.3993 15.3215 22.0575 13.8723 21.9885 12.1267H22Z" fill="#E6007A"/>
</svg>
