<svg width="18" height="22" viewBox="0 0 18 22" fill="none" xmlns="http://www.w3.org/2000/svg">
<path d="M9.08627 0.804688C9.93054 1.28752 10.83 1.66689 11.6963 2.10834C12.124 2.3263 12.5585 2.53254 13.0483 2.77257C12.6303 2.98502 12.2592 3.17677 11.8853 3.36163L10.0374 4.27349L9.10489 3.88516L8.0668 4.27349C8.0668 4.27349 5.90578 3.26575 5.02289 2.83396C5.06496 2.66152 5.1974 2.65394 5.29258 2.60772C6.43138 2.04074 8.82554 0.844004 8.87934 0.804688H9.08627Z" fill="#E6007A"/>
<path d="M11.9198 5.24667L13.9952 4.22307C14.0263 4.20789 14.9244 3.74023 14.9244 3.74023L15.9659 4.18789L18 5.10458V7.92363C18 7.92363 10.5644 11.8553 6.97003 13.6217C5.70363 14.2425 4.4393 14.8716 3.10323 15.5324L6.06162 17.003C5.44083 17.314 3.06185 18.5625 3.06185 18.5625L0 17.1202V13.9473C0 13.9473 6.89761 10.6365 10.2271 9.00104C11.6986 8.27633 13.1701 7.54978 14.6416 6.8214C14.6912 6.79656 14.7388 6.76828 14.8637 6.7L11.9198 5.24667Z" fill="#E6007A"/>
<path d="M0.00620786 8.65726C0.00620786 7.61228 0 5.52299 0 5.52299V5.1857C0 5.1857 2.48935 3.99241 2.99632 3.71582C5.23942 4.82771 9.9629 7.20946 9.9629 7.20946C9.9629 7.20946 7.91362 8.25582 7.00107 8.71934C5.78847 8.10477 2.95149 6.84526 2.95149 6.84526L3.03771 10.7141L0.00275897 12.1668C0.00275897 12.1668 0.00620786 9.72501 0.00620786 8.65726Z" fill="#E6007A"/>
<path d="M7.97156 15.0142C8.7365 14.6355 10.8796 13.5464 10.8796 13.5464L14.8802 15.3922L14.9161 11.5778L15.1285 11.4853L17.9165 10.1748L17.9807 16.8876L14.9161 18.5644C14.9161 18.5644 10.2885 16.2116 8.05778 15.1087C8.04053 15.0976 8.02881 15.0769 7.97156 15.0142Z" fill="#E6007A"/>
<path d="M4.95868 19.4417C5.97953 18.9409 7.97155 17.918 7.97155 17.918L8.9924 18.3739L9.96565 17.918L12.973 19.4458L8.99999 21.4461L8.8041 21.3675L5.16492 19.5713C5.11594 19.5472 5.07111 19.5127 4.95868 19.4417Z" fill="#E6007A"/>
</svg>
