<svg width="18" height="19" viewBox="0 0 18 19" fill="none" xmlns="http://www.w3.org/2000/svg">
<path d="M17.942 5.43199C17.9319 4.67495 17.7902 3.92543 17.5232 3.21697C17.2917 2.61939 16.938 2.07668 16.4848 1.62351C16.0317 1.17034 15.489 0.816688 14.8914 0.585141C14.192 0.322614 13.4532 0.180662 12.7064 0.165327C11.7448 0.122346 11.4399 0.110352 8.999 0.110352C6.55809 0.110352 6.24522 0.110352 5.29065 0.165327C4.54414 0.180774 3.80566 0.322725 3.10662 0.585141C2.50894 0.816527 1.96615 1.17013 1.51296 1.62331C1.05977 2.0765 0.706175 2.61929 0.474789 3.21697C0.211737 3.91579 0.070092 4.65444 0.0559751 5.401C0.0129942 6.36357 0 6.66844 0 9.10935C0 11.5503 -7.44727e-09 11.8621 0.0559751 12.8177C0.0709685 13.5654 0.211906 14.303 0.474789 15.0037C0.706564 15.6012 1.06042 16.1438 1.51376 16.5968C1.9671 17.0498 2.50995 17.4032 3.10762 17.6346C3.80474 17.9076 4.54335 18.0598 5.29165 18.0844C6.25422 18.1273 6.55909 18.1403 9 18.1403C11.4409 18.1403 11.7538 18.1403 12.7084 18.0844C13.4552 18.0697 14.1941 17.928 14.8934 17.6655C15.4908 17.4337 16.0334 17.08 16.4865 16.6269C16.9396 16.1737 17.2934 15.6311 17.5252 15.0337C17.7881 14.334 17.929 13.5964 17.944 12.8477C17.987 11.8861 18 11.5813 18 9.13934C17.998 6.69842 17.998 6.38856 17.942 5.43199ZM8.993 13.7253C6.44014 13.7253 4.37206 11.6572 4.37206 9.10435C4.37206 6.55149 6.44014 4.48341 8.993 4.48341C10.2186 4.48341 11.3939 4.97026 12.2605 5.83685C13.1271 6.70345 13.614 7.8788 13.614 9.10435C13.614 10.3299 13.1271 11.5053 12.2605 12.3719C11.3939 13.2385 10.2186 13.7253 8.993 13.7253ZM13.7979 5.39C13.6563 5.39014 13.5162 5.36236 13.3854 5.30825C13.2546 5.25415 13.1357 5.17478 13.0357 5.0747C12.9356 4.97462 12.8562 4.85578 12.8021 4.72499C12.748 4.5942 12.7202 4.45402 12.7203 4.31248C12.7203 4.17105 12.7482 4.031 12.8023 3.90033C12.8565 3.76966 12.9358 3.65093 13.0358 3.55092C13.1358 3.4509 13.2545 3.37157 13.3852 3.31745C13.5159 3.26332 13.6559 3.23546 13.7974 3.23546C13.9388 3.23546 14.0789 3.26332 14.2095 3.31745C14.3402 3.37157 14.4589 3.4509 14.5589 3.55092C14.6589 3.65093 14.7383 3.76966 14.7924 3.90033C14.8465 4.031 14.8744 4.17105 14.8744 4.31248C14.8744 4.90822 14.3926 5.39 13.7979 5.39Z" fill="#E6007A"/>
<path d="M8.99324 12.1059C10.651 12.1059 11.9949 10.762 11.9949 9.10421C11.9949 7.44643 10.651 6.10254 8.99324 6.10254C7.33547 6.10254 5.99158 7.44643 5.99158 9.10421C5.99158 10.762 7.33547 12.1059 8.99324 12.1059Z" fill="#E6007A"/>
</svg>
