<svg width="20" height="17" viewBox="0 0 20 17" fill="none" xmlns="http://www.w3.org/2000/svg">
<path d="M2.37186 3.42537C2.38402 3.30431 2.36743 3.1821 2.32345 3.06866C2.27947 2.95523 2.20934 2.85377 2.11875 2.77255L0.252057 0.523029V0.185547H6.05041L10.5326 10.0147L14.4727 0.185547H20V0.521974L18.4022 2.05224C18.3354 2.10432 18.2837 2.17336 18.2525 2.25219C18.2214 2.33101 18.2119 2.41673 18.2251 2.50046V13.7491C18.2116 13.8329 18.221 13.9187 18.2522 13.9975C18.2834 14.0764 18.3352 14.1454 18.4022 14.1974L19.962 15.7276V16.0641H12.1198V15.7276L13.7323 14.1594C13.8926 14.0012 13.8926 13.9537 13.8926 13.7122V4.61921L9.40097 16.0271H8.79456L3.5657 4.61921V12.2642C3.52246 12.5859 3.62898 12.9097 3.85573 13.1427L5.95655 15.6918V16.0282H0V15.6918L2.10082 13.1427C2.21134 13.0276 2.29341 12.8881 2.34047 12.7356C2.38753 12.5831 2.39828 12.4216 2.37186 12.2642V3.42537Z" fill="#E6007A"/>
</svg>
