<svg width="22" height="20" viewBox="0 0 22 20" fill="none" xmlns="http://www.w3.org/2000/svg">
<path d="M21.999 10.2958C21.944 8.97568 20.8439 7.93061 19.4963 7.95812C18.8913 7.98562 18.3412 8.23313 17.9287 8.61816C16.0586 7.32557 13.8309 6.63803 11.5483 6.58302L12.6208 1.44018L16.1686 2.15523C16.2786 3.06279 17.0761 3.72283 17.9837 3.61283C18.8913 3.50282 19.5513 2.70527 19.4413 1.79771C19.3313 0.890146 18.5337 0.230102 17.6262 0.340109C17.1036 0.395113 16.6361 0.697633 16.3886 1.13766L12.3458 0.340109C12.0708 0.285106 11.7958 0.450117 11.7408 0.725135L10.5307 6.47302C8.22054 6.50052 5.9929 7.21557 4.06777 8.50815C3.1052 7.60059 1.5651 7.62809 0.657541 8.61816C-0.25002 9.58072 -0.222518 11.1208 0.767548 12.0284C0.960061 12.1934 1.18008 12.3584 1.42759 12.4684C1.40009 12.7159 1.40009 12.9634 1.42759 13.1835C1.42759 16.8962 5.74538 19.9214 11.0807 19.9214C16.4161 19.9214 20.7339 16.9237 20.7339 13.1835C20.7614 12.9359 20.7614 12.6884 20.7339 12.4684C21.5039 12.0834 22.0265 11.2308 21.999 10.2958ZM5.41536 11.9734C5.41536 11.0658 6.15791 10.3233 7.06547 10.3233C7.97303 10.3233 8.71558 11.0658 8.71558 11.9734C8.71558 12.8809 7.97303 13.6235 7.06547 13.6235C6.15791 13.6235 5.41536 12.8809 5.41536 11.9734ZM15.041 16.5387C13.8584 17.4187 12.4283 17.8863 10.9707 17.8038C9.51313 17.8588 8.05553 17.4187 6.90046 16.5387C6.73545 16.3462 6.76295 16.0712 6.95546 15.9061C7.12047 15.7686 7.34049 15.7686 7.533 15.9061C8.52307 16.6212 9.73315 17.0062 10.9707 16.9512C12.2083 17.0062 13.4184 16.6762 14.436 15.9336C14.6285 15.7686 14.9035 15.7686 15.096 15.9336C15.261 16.1262 15.261 16.4012 15.096 16.5937V16.5387H15.041ZM14.766 13.706C13.8584 13.706 13.1159 12.9634 13.1159 12.0559C13.1159 11.1483 13.8584 10.4058 14.766 10.4058C15.6735 10.4058 16.4161 11.1483 16.4161 12.0559C16.4436 12.9634 15.756 13.7335 14.821 13.761C14.7935 13.761 14.766 13.761 14.7385 13.761L14.766 13.706Z" fill="#E6007A"/>
</svg>
