<svg width="18" height="16" viewBox="0 0 18 16" fill="none" xmlns="http://www.w3.org/2000/svg">
<path d="M16.1507 4.45805C16.1626 4.61834 16.1626 4.77771 16.1626 4.93709C16.1626 9.81445 12.4503 15.4346 5.66599 15.4346C3.57582 15.4346 1.63403 14.8292 0 13.7777C0.296764 13.8116 0.582536 13.8235 0.891207 13.8235C2.55179 13.8275 4.16536 13.2722 5.47181 12.2472C4.70189 12.2332 3.95554 11.9792 3.33698 11.5206C2.71841 11.062 2.2585 10.4216 2.02147 9.68897C2.24954 9.72286 2.47853 9.74576 2.7185 9.74576C3.04916 9.74576 3.38164 9.69996 3.69031 9.62028C2.85476 9.45157 2.10343 8.99867 1.56407 8.33859C1.02472 7.67851 0.730637 6.85199 0.731834 5.99957V5.95378C1.22369 6.22764 1.79432 6.39892 2.39884 6.42182C1.89241 6.08529 1.47715 5.62864 1.19011 5.09261C0.903077 4.55657 0.753187 3.95782 0.753816 3.34977C0.753816 2.66465 0.936088 2.03631 1.25575 1.48858C2.18281 2.62894 3.33905 3.56186 4.64961 4.22692C5.96016 4.89198 7.39579 5.27435 8.86353 5.34926C8.80674 5.07448 8.77193 4.78962 8.77193 4.50385C8.77169 4.01928 8.86696 3.53942 9.05228 3.09169C9.2376 2.64397 9.50935 2.23716 9.85199 1.89452C10.1946 1.55188 10.6014 1.28013 11.0492 1.0948C11.4969 0.909478 11.9768 0.814213 12.4613 0.814454C13.5238 0.814454 14.4828 1.2596 15.1569 1.97953C15.9829 1.8198 16.775 1.51828 17.4981 1.08832C17.2227 1.94089 16.646 2.66383 15.8759 3.1217C16.6085 3.03815 17.3244 2.8455 18 2.55015C17.4954 3.28574 16.8702 3.93079 16.1507 4.45805Z" fill="#E6007A"/>
</svg>
