<svg width="20" height="15" viewBox="0 0 20 15" fill="none" xmlns="http://www.w3.org/2000/svg">
<path d="M19.5931 2.32547C19.4793 1.90317 19.2569 1.51805 18.948 1.20843C18.639 0.898814 18.2544 0.675501 17.8324 0.560722C16.2675 0.131026 10.0069 0.124031 10.0069 0.124031C10.0069 0.124031 3.74735 0.117036 2.18146 0.527745C1.75968 0.647807 1.37585 0.874277 1.06681 1.18541C0.757775 1.49655 0.533909 1.88191 0.416707 2.30449C0.00399882 3.86938 1.46411e-06 7.11509 1.46411e-06 7.11509C1.46411e-06 7.11509 -0.00399569 10.3768 0.405714 11.9257C0.635552 12.7821 1.31008 13.4586 2.16747 13.6894C3.74835 14.1191 9.99193 14.1261 9.99193 14.1261C9.99193 14.1261 16.2525 14.1331 17.8174 13.7234C18.2396 13.6088 18.6246 13.386 18.9343 13.077C19.2439 12.7681 19.4676 12.3836 19.5831 11.9617C19.9969 10.3978 19.9999 7.15306 19.9999 7.15306C19.9999 7.15306 20.0198 3.89037 19.5931 2.32547ZM8.00434 10.122L8.00934 4.1262L13.2127 7.12908L8.00434 10.122Z" fill="#E6007A"/>
</svg>
