<svg width="16" height="16" viewBox="0 0 16 16" fill="none" xmlns="http://www.w3.org/2000/svg">
<path d="M15.1668 7.99996C15.1668 11.9533 11.9535 15.1666 8.00016 15.1666C4.04683 15.1666 0.833496 11.9533 0.833496 7.99996C0.833496 4.04663 4.04683 0.833292 8.00016 0.833292C11.9535 0.833292 15.1668 4.04663 15.1668 7.99996ZM1.8335 7.99996C1.8335 11.4 4.60016 14.1666 8.00016 14.1666C11.4002 14.1666 14.1668 11.4 14.1668 7.99996C14.1668 4.59996 11.4002 1.83329 8.00016 1.83329C4.60016 1.83329 1.8335 4.59996 1.8335 7.99996Z" fill="#E6007A"/>
<path d="M10.8534 7.15999C10.8534 7.28666 10.8068 7.41332 10.7068 7.51332L8.35344 9.86666C8.1601 10.06 7.8401 10.06 7.64677 9.86666L5.29344 7.51332C5.1001 7.31999 5.1001 6.99999 5.29344 6.80666C5.48677 6.61332 5.80677 6.61332 6.0001 6.80666L8.0001 8.80666L10.0001 6.80666C10.1934 6.61332 10.5134 6.61332 10.7068 6.80666C10.8068 6.89999 10.8534 7.02666 10.8534 7.15999Z" fill="#E6007A"/>
</svg>
