<svg width="16" height="16" viewBox="0 0 16 16" fill="none" xmlns="http://www.w3.org/2000/svg">
<path d="M15.1668 8.00008C15.1668 11.9534 11.9535 15.1667 8.00016 15.1667C4.04683 15.1667 0.833496 11.9534 0.833496 8.00008C0.833496 4.04675 4.04683 0.833414 8.00016 0.833414C11.9535 0.833414 15.1668 4.04675 15.1668 8.00008ZM1.8335 8.00008C1.8335 11.4001 4.60016 14.1667 8.00016 14.1667C11.4002 14.1667 14.1668 11.4001 14.1668 8.00008C14.1668 4.60008 11.4002 1.83341 8.00016 1.83341C4.60016 1.83341 1.8335 4.60008 1.8335 8.00008Z" fill="#E6007A"/>
<path d="M10.8534 7.16005C10.8534 7.28672 10.8068 7.41339 10.7068 7.51339L8.35344 9.86672C8.1601 10.0601 7.8401 10.0601 7.64677 9.86672L5.29344 7.51339C5.1001 7.32005 5.1001 7.00005 5.29344 6.80672C5.48677 6.61338 5.80677 6.61338 6.0001 6.80672L8.0001 8.80672L10.0001 6.80672C10.1934 6.61338 10.5134 6.61338 10.7068 6.80672C10.8068 6.90005 10.8534 7.02672 10.8534 7.16005Z" fill="#E6007A"/>
</svg>
