<svg width="44" height="46" viewBox="0 0 44 46" fill="none" xmlns="http://www.w3.org/2000/svg">
<rect y="1" width="44" height="44" rx="22" fill="#23262F"/>
<path d="M43.9997 22.8222C44.0212 27.1736 42.7517 31.4337 40.3518 35.0637C37.9519 38.6936 34.5294 41.5303 30.5172 43.2149C26.505 44.8996 22.0833 45.3566 17.8114 44.5281C13.5394 43.6996 9.60914 41.6228 6.51759 38.5604C3.42604 35.4981 1.31209 31.5877 0.443122 27.3238C-0.425849 23.0599 -0.0108123 18.6341 1.63574 14.6061C3.28229 10.5781 6.0864 7.12886 9.6934 4.69464C13.3004 2.26043 17.5483 0.950583 21.8998 0.930755C27.7328 0.90509 33.3373 3.19661 37.4814 7.30161C41.6255 11.4066 43.9701 16.9892 43.9997 22.8222Z" fill="#23262F"/>
<path d="M33.1554 15.0567C31.5592 14.5948 29.9044 13.9398 28.229 13.2778C28.1325 12.8573 27.7601 12.3332 27.0069 11.6937C25.9123 10.744 23.8559 10.7681 22.0787 11.1887C20.1171 10.7267 18.1796 10.563 16.3197 11.0163C1.10777 15.2067 9.73333 25.4302 4.14844 35.7071C4.94308 37.3929 13.5083 47.2285 25.9019 44.5894C25.9019 44.5894 21.6633 34.4039 31.2283 29.5154C38.9868 25.5353 44.5924 18.1715 33.1554 15.0567Z" fill="#FCFCFD"/>
<path d="M35.0348 21.7466C35.0358 21.929 34.9827 22.1076 34.8823 22.2598C34.7818 22.412 34.6384 22.531 34.4703 22.6018C34.3022 22.6725 34.1169 22.6918 33.9378 22.6572C33.7587 22.6227 33.5939 22.5358 33.4642 22.4075C33.3345 22.2793 33.2458 22.1154 33.2092 21.9368C33.1726 21.7581 33.1898 21.5726 33.2587 21.4037C33.3275 21.2348 33.4449 21.0901 33.596 20.9879C33.7471 20.8857 33.9251 20.8306 34.1074 20.8296C34.3519 20.8287 34.5867 20.9247 34.7606 21.0965C34.9344 21.2684 35.033 21.5022 35.0348 21.7466Z" fill="#23262F"/>
<path d="M22.0791 11.1819C23.1875 11.2612 27.1951 12.5609 28.2294 13.2711C27.3675 10.7716 24.4665 10.439 22.0791 11.1819Z" fill="#FCFCFD"/>
<path d="M23.1333 17.5027C23.1337 18.3441 22.8845 19.1667 22.4173 19.8665C21.9502 20.5663 21.286 21.1118 20.5088 21.4341C19.7315 21.7564 18.8762 21.841 18.0509 21.6772C17.2256 21.5134 16.4674 21.1085 15.8722 20.5138C15.277 19.9191 14.8716 19.1612 14.7071 18.3361C14.5426 17.5109 14.6265 16.6555 14.9482 15.878C15.2698 15.1005 15.8148 14.4359 16.5142 13.9682C17.2137 13.5004 18.0361 13.2506 18.8775 13.2502C20.0051 13.2502 21.0867 13.698 21.8844 14.495C22.6821 15.2921 23.1307 16.3733 23.1316 17.501L23.1333 17.5027Z" fill="#23262F"/>
<path d="M21.8715 17.5406C21.8715 18.1325 21.696 18.711 21.3672 19.2031C21.0384 19.6952 20.5711 20.0787 20.0243 20.3052C19.4775 20.5317 18.8758 20.591 18.2953 20.4755C17.7149 20.3601 17.1817 20.0751 16.7632 19.6566C16.3447 19.2381 16.0597 18.7049 15.9442 18.1244C15.8288 17.5439 15.888 16.9423 16.1145 16.3955C16.341 15.8487 16.7245 15.3813 17.2166 15.0525C17.7087 14.7237 18.2873 14.5482 18.8791 14.5482C19.6728 14.5482 20.4339 14.8635 20.9951 15.4247C21.5562 15.9859 21.8715 16.747 21.8715 17.5406Z" fill="#FCFCFD"/>
<path d="M38.4797 23.622C35.0323 26.0507 31.1125 27.8934 25.5517 27.8934C22.9489 27.8934 22.4214 25.1354 20.7012 26.4834C19.8134 27.1832 16.6831 28.7483 14.1992 28.6294C11.7153 28.5105 7.6887 27.0556 6.56655 21.7517C6.12182 27.0556 5.89429 30.9599 3.89648 35.4364C7.86107 41.7849 17.314 46.682 25.8948 44.5722C24.9795 38.1341 30.6143 31.8286 33.7757 28.607C34.9823 27.3849 37.2748 25.3905 38.4797 23.6237V23.622Z" fill="#FCFCFD"/>
<path d="M38.3453 23.7806C37.2748 24.7562 36.001 25.4785 34.7048 26.1163C33.3925 26.7386 32.0247 27.2367 30.6195 27.6038C29.213 27.9676 27.7461 28.2416 26.2602 28.1072C24.7743 27.9727 23.2557 27.4677 22.2715 26.3541L22.318 26.3007C23.5246 27.0833 24.9174 27.3591 26.3033 27.3987C27.708 27.4419 29.1132 27.3262 30.492 27.054C31.8847 26.762 33.2472 26.3408 34.5617 25.7957C35.8769 25.2527 37.1783 24.6235 38.2987 23.7272L38.3453 23.7806Z" fill="#23262F"/>
</svg>
