<svg width="44" height="44" viewBox="0 0 44 44" fill="none" xmlns="http://www.w3.org/2000/svg">
<rect width="44" height="44" rx="22" fill="#23262F"/>
<path d="M32.3418 24.8283C32.1202 24.9841 31.8616 25.0761 31.5931 25.0945C31.3246 25.1129 31.0563 25.057 30.8163 24.9329C30.2529 24.608 29.9493 23.8463 29.9493 22.8084V19.6272C29.9493 18.1001 29.3567 17.0136 28.3653 16.7186C26.6898 16.2183 25.4387 18.3129 24.9558 19.1007L21.9927 23.9957V18.0217C21.9598 16.6439 21.5208 15.8188 20.6904 15.5724C20.1416 15.4081 19.3185 15.4753 18.5174 16.7224L11.8923 27.5763C11.0109 25.855 10.5538 23.9404 10.5608 21.9981C10.5608 15.4566 15.6823 10.136 21.9927 10.136C28.3031 10.136 33.4429 15.4566 33.4429 21.9981V22.0317C33.4429 22.0317 33.4429 22.0541 33.4429 22.0653C33.5051 23.3311 33.1027 24.3392 32.3454 24.8283H32.3418ZM36 22.0019V21.9384C35.9488 13.9668 29.6859 7.5 21.9927 7.5C14.2995 7.5 8 14.0042 8 21.9981C8 29.9921 14.2775 36.5 21.9927 36.5C25.5312 36.4998 28.9351 35.1155 31.504 32.6318C31.7534 32.3921 31.9001 32.0616 31.9125 31.7122C31.9248 31.3628 31.8017 31.0224 31.5699 30.765C31.459 30.6397 31.3249 30.5381 31.1753 30.466C31.0257 30.3938 30.8637 30.3526 30.6985 30.3446C30.5332 30.3366 30.3681 30.3621 30.2125 30.4195C30.0569 30.4769 29.914 30.5651 29.792 30.6791C28.686 31.7499 27.3794 32.5816 25.9506 33.1241C24.5218 33.6667 23.0003 33.909 21.4775 33.8364C19.9547 33.7639 18.462 33.378 17.0889 32.702C15.7159 32.026 14.4908 31.0738 13.4873 29.9025L19.4502 20.1201V24.6342C19.4502 26.8035 20.2733 27.5054 20.9647 27.7108C21.6561 27.9161 22.7134 27.7742 23.8218 25.9372L27.1142 20.4972C27.2166 20.3217 27.3154 20.1723 27.4032 20.0417V22.8084C27.4032 24.8358 28.2007 26.4562 29.5981 27.2552C30.2336 27.6054 30.9496 27.7745 31.6711 27.7449C32.3926 27.7154 33.0931 27.4882 33.699 27.0872C35.2354 26.0679 36.0732 24.2234 35.9854 22.0019H36Z" fill="#FCFCFD"/>
</svg>
