<svg width="44" height="44" viewBox="0 0 44 44" fill="none" xmlns="http://www.w3.org/2000/svg">
<rect width="44" height="44" rx="22" fill="#23262F"/>
<g clip-path="url(#clip0_262_693)">
<path d="M22.0811 9.84424C23.0735 10.4118 24.1308 10.8578 25.1492 11.3767C25.6519 11.6329 26.1627 11.8753 26.7384 12.1575C26.2471 12.4072 25.8108 12.6326 25.3714 12.8499L23.1992 13.9218L22.103 13.4653L20.8827 13.9218C20.8827 13.9218 18.3425 12.7372 17.3046 12.2296C17.3541 12.0269 17.5098 12.018 17.6217 11.9637C18.9603 11.2972 21.7746 9.89045 21.8379 9.84424H22.0811Z" fill="white"/>
<path d="M25.4119 15.0667L27.8516 13.8635C27.8881 13.8456 28.9438 13.2959 28.9438 13.2959L30.1681 13.8221L32.5592 14.8997V18.2135C32.5592 18.2135 23.8186 22.8351 19.5935 24.9116C18.1049 25.6413 16.6186 26.3808 15.0481 27.1575L18.5257 28.8862C17.7959 29.2518 14.9995 30.7194 14.9995 30.7194L11.4003 29.024V25.2943C11.4003 25.2943 19.5084 21.4024 23.4222 19.48C25.1519 18.6281 26.8816 17.774 28.6113 16.9178C28.6697 16.8886 28.7257 16.8554 28.8724 16.7751L25.4119 15.0667Z" fill="white"/>
<path d="M11.4076 19.0745C11.4076 17.8461 11.4003 15.3902 11.4003 15.3902V14.9937C11.4003 14.9937 14.3265 13.591 14.9224 13.2659C17.5592 14.5729 23.1116 17.3726 23.1116 17.3726C23.1116 17.3726 20.7027 18.6026 19.63 19.1475C18.2046 18.4251 14.8697 16.9445 14.8697 16.9445L14.9711 21.4924L11.4035 23.1999C11.4035 23.1999 11.4076 20.3296 11.4076 19.0745Z" fill="white"/>
<path d="M20.7708 26.5475C21.67 26.1024 24.1892 24.8221 24.1892 24.8221L28.8919 26.9919L28.9341 22.5081L29.1838 22.3994L32.4611 20.8589L32.5365 28.7497L28.9341 30.7208C28.9341 30.7208 23.4943 27.9551 20.8722 26.6586C20.8519 26.6456 20.8381 26.6213 20.7708 26.5475Z" fill="white"/>
<path d="M17.2292 31.7515C18.4292 31.1629 20.7708 29.9604 20.7708 29.9604L21.9708 30.4964L23.1149 29.9604L26.65 31.7564L21.9797 34.1077L21.7495 34.0153L17.4716 31.904C17.4141 31.8756 17.3613 31.835 17.2292 31.7515Z" fill="white"/>
</g>
<defs>
<clipPath id="clip0_262_693">
<rect width="24" height="24.3243" fill="white" transform="translate(10 9.83789)"/>
</clipPath>
</defs>
</svg>
