<svg width="45" height="44" viewBox="0 0 45 44" fill="none" xmlns="http://www.w3.org/2000/svg">
<rect x="0.652832" width="44" height="44" rx="22" fill="#23262F"/>
<path d="M33.5636 17.4934C33.5513 16.5697 33.3783 15.6551 33.0525 14.7907C32.77 14.0615 32.3385 13.3993 31.7855 12.8463C31.2326 12.2934 30.5704 11.8619 29.8412 11.5793C28.9879 11.259 28.0864 11.0858 27.1751 11.0671C26.0018 11.0146 25.6298 11 22.6514 11C19.673 11 19.2913 11 18.1265 11.0671C17.2156 11.0859 16.3145 11.2591 15.4616 11.5793C14.7323 11.8617 14.07 12.2931 13.517 12.8461C12.964 13.3991 12.5326 14.0614 12.2502 14.7907C11.9293 15.6434 11.7564 16.5447 11.7392 17.4556C11.6868 18.6301 11.6709 19.0021 11.6709 21.9805C11.6709 24.9589 11.6709 25.3394 11.7392 26.5054C11.7575 27.4177 11.9295 28.3178 12.2502 29.1727C12.533 29.9018 12.9648 30.5639 13.518 31.1166C14.0711 31.6693 14.7335 32.1006 15.4628 32.3829C16.3134 32.7161 17.2147 32.9017 18.1277 32.9317C19.3022 32.9841 19.6742 33 22.6526 33C25.631 33 26.0127 33 27.1775 32.9317C28.0888 32.9138 28.9903 32.7409 29.8436 32.4207C30.5726 32.1378 31.2347 31.7062 31.7876 31.1533C32.3405 30.6004 32.7721 29.9383 33.055 29.2093C33.3757 28.3556 33.5477 27.4555 33.566 26.542C33.6185 25.3687 33.6343 24.9967 33.6343 22.0171C33.6319 19.0387 33.6319 18.6606 33.5636 17.4934ZM22.6441 27.6128C19.5291 27.6128 17.0056 25.0894 17.0056 21.9744C17.0056 18.8594 19.5291 16.336 22.6441 16.336C24.1395 16.336 25.5736 16.93 26.631 17.9874C27.6885 19.0448 28.2825 20.479 28.2825 21.9744C28.2825 23.4698 27.6885 24.9039 26.631 25.9614C25.5736 27.0188 24.1395 27.6128 22.6441 27.6128ZM28.5069 17.4422C28.3342 17.4423 28.1632 17.4084 28.0036 17.3424C27.844 17.2764 27.699 17.1796 27.5769 17.0574C27.4547 16.9353 27.3579 16.7903 27.2919 16.6307C27.2259 16.4711 27.192 16.3001 27.1921 16.1274C27.1921 15.9548 27.2261 15.7839 27.2922 15.6245C27.3582 15.465 27.455 15.3202 27.577 15.1981C27.6991 15.0761 27.844 14.9793 28.0034 14.9133C28.1628 14.8472 28.3337 14.8132 28.5063 14.8132C28.6789 14.8132 28.8498 14.8472 29.0092 14.9133C29.1687 14.9793 29.3135 15.0761 29.4356 15.1981C29.5576 15.3202 29.6544 15.465 29.7204 15.6245C29.7865 15.7839 29.8205 15.9548 29.8205 16.1274C29.8205 16.8543 29.2326 17.4422 28.5069 17.4422Z" fill="white"/>
<path d="M22.6445 25.6367C24.6673 25.6367 26.3071 23.9969 26.3071 21.9741C26.3071 19.9513 24.6673 18.3115 22.6445 18.3115C20.6217 18.3115 18.9819 19.9513 18.9819 21.9741C18.9819 23.9969 20.6217 25.6367 22.6445 25.6367Z" fill="white"/>
</svg>
