<svg width="44" height="44" viewBox="0 0 44 44" fill="none" xmlns="http://www.w3.org/2000/svg">
<rect width="44" height="44" rx="22" fill="#23262F"/>
<path d="M12.8462 16.3607C12.8608 16.2154 12.8409 16.0688 12.7881 15.9326C12.7354 15.7965 12.6512 15.6748 12.5425 15.5773L10.3025 12.8779V12.4729H17.2605L22.6391 24.2679L27.3672 12.4729H34V12.8766L32.0827 14.7129C32.0024 14.7754 31.9404 14.8583 31.903 14.9529C31.8656 15.0475 31.8542 15.1503 31.8701 15.2508V28.7492C31.854 28.8497 31.8652 28.9527 31.9026 29.0473C31.94 29.1419 32.0022 29.2248 32.0827 29.2871L33.9544 31.1234V31.5271H24.5438V31.1234L26.4788 29.2415C26.6712 29.0517 26.6712 28.9947 26.6712 28.7049V17.7933L21.2812 31.4828H20.5535L14.2788 17.7933V26.9673C14.227 27.3533 14.3548 27.7418 14.6269 28.0215L17.1479 31.0804V31.4841H10V31.0804L12.521 28.0215C12.6536 27.8833 12.7521 27.716 12.8086 27.533C12.865 27.3499 12.8779 27.1562 12.8462 26.9673V16.3607Z" fill="#FCFCFD"/>
</svg>
