<svg width="44" height="44" viewBox="0 0 44 44" fill="none" xmlns="http://www.w3.org/2000/svg">
<rect width="44" height="44" rx="22" fill="#23262F"/>
<path d="M36.4202 22.2242C36.3481 20.4935 34.9059 19.1234 33.1392 19.1595C32.346 19.1955 31.6249 19.52 31.084 20.0248C28.6322 18.3302 25.7117 17.4288 22.7191 17.3567L24.1253 10.6143L28.7765 11.5517C28.9207 12.7416 29.9663 13.6069 31.1561 13.4627C32.346 13.3185 33.2113 12.2729 33.0671 11.083C32.9228 9.89319 31.8772 9.02786 30.6874 9.17208C30.0024 9.24419 29.3894 9.64081 29.0649 10.2177L23.7647 9.17208C23.4042 9.09997 23.0436 9.31631 22.9715 9.67686L21.3851 17.2125C18.3564 17.2485 15.4359 18.186 12.912 19.8806C11.6501 18.6907 9.63098 18.7268 8.44115 20.0248C7.25132 21.2867 7.28738 23.3058 8.58537 24.4957C8.83776 24.712 9.12621 24.9283 9.45071 25.0726C9.41465 25.3971 9.41465 25.7216 9.45071 26.01C9.45071 30.8775 15.1114 34.8436 22.1062 34.8436C29.101 34.8436 34.7617 30.9136 34.7617 26.01C34.7977 25.6855 34.7977 25.361 34.7617 25.0726C35.7712 24.5678 36.4563 23.4501 36.4202 22.2242ZM14.6788 24.4236C14.6788 23.2337 15.6523 22.2602 16.8421 22.2602C18.0319 22.2602 19.0054 23.2337 19.0054 24.4236C19.0054 25.6134 18.0319 26.5869 16.8421 26.5869C15.6523 26.5869 14.6788 25.6134 14.6788 24.4236ZM27.2982 30.4088C25.7478 31.5626 23.8729 32.1755 21.962 32.0673C20.051 32.1395 18.1401 31.5626 16.6258 30.4088C16.4094 30.1564 16.4455 29.7958 16.6979 29.5795C16.9142 29.3992 17.2026 29.3992 17.455 29.5795C18.753 30.517 20.3395 31.0217 21.962 30.9496C23.5845 31.0217 25.1709 30.5891 26.505 29.6156C26.7574 29.3992 27.1179 29.3992 27.3703 29.6156C27.5866 29.868 27.5866 30.2285 27.3703 30.4809V30.4088H27.2982ZM26.9376 26.6951C25.7478 26.6951 24.7743 25.7216 24.7743 24.5317C24.7743 23.3419 25.7478 22.3684 26.9376 22.3684C28.1275 22.3684 29.101 23.3419 29.101 24.5317C29.137 25.7216 28.2356 26.7311 27.0097 26.7672C26.9737 26.7672 26.9376 26.7672 26.9016 26.7672L26.9376 26.6951Z" fill="#FCFCFD"/>
</svg>
