<svg width="44" height="44" viewBox="0 0 44 44" fill="none" xmlns="http://www.w3.org/2000/svg">
<rect width="44" height="44" rx="22" fill="#23262F"/>
<path d="M31.5343 17.1113C31.5502 17.325 31.5502 17.5375 31.5502 17.75C31.5502 24.2532 26.6004 31.7468 17.5547 31.7468C14.7678 31.7468 12.1787 30.9395 10 29.5375C10.3957 29.5827 10.7767 29.5986 11.1883 29.5986C13.4024 29.6039 15.5538 28.8636 17.2957 27.4968C16.2692 27.4782 15.2741 27.1395 14.4493 26.528C13.6245 25.9165 13.0113 25.0627 12.6953 24.0859C12.9994 24.1311 13.3047 24.1616 13.6247 24.1616C14.0655 24.1616 14.5089 24.1005 14.9204 23.9943C13.8063 23.7693 12.8046 23.1655 12.0854 22.2854C11.3663 21.4052 10.9742 20.3032 10.9758 19.1667V19.1056C11.6316 19.4708 12.3924 19.6991 13.1985 19.7297C12.5232 19.281 11.9695 18.6721 11.5868 17.9574C11.2041 17.2427 11.0042 16.4443 11.0051 15.6336C11.0051 14.7201 11.2481 13.8823 11.6743 13.152C12.9104 14.6725 14.4521 15.9164 16.1995 16.8031C17.9469 17.6899 19.8611 18.1997 21.818 18.2996C21.7423 17.9332 21.6959 17.5534 21.6959 17.1724C21.6956 16.5263 21.8226 15.8865 22.0697 15.2895C22.3168 14.6925 22.6791 14.1501 23.136 13.6933C23.5928 13.2364 24.1353 12.8741 24.7322 12.627C25.3292 12.3799 25.969 12.2529 26.6151 12.2532C28.0318 12.2532 29.3104 12.8467 30.2092 13.8066C31.3105 13.5936 32.3666 13.1916 33.3308 12.6183C32.9637 13.7551 32.1947 14.719 31.1679 15.3295C32.1447 15.2181 33.0992 14.9612 34 14.5674C33.3272 15.5482 32.4936 16.4083 31.5343 17.1113Z" fill="#FFF4F4"/>
</svg>
