<svg width="44" height="44" viewBox="0 0 44 44" fill="none" xmlns="http://www.w3.org/2000/svg">
<rect width="44" height="44" rx="22" fill="#23262F"/>
<path d="M34.6073 15.6924C34.4577 15.1374 34.1654 14.6313 33.7594 14.2244C33.3535 13.8175 32.848 13.5241 32.2934 13.3732C30.2368 12.8085 22.0093 12.7993 22.0093 12.7993C22.0093 12.7993 13.7831 12.7901 11.7252 13.3299C11.1709 13.4877 10.6665 13.7853 10.2604 14.1942C9.85425 14.6031 9.56005 15.1095 9.40603 15.6648C8.86365 17.7214 8.8584 21.9868 8.8584 21.9868C8.8584 21.9868 8.85315 26.2733 9.39158 28.3088C9.69363 29.4343 10.5801 30.3233 11.7068 30.6267C13.7844 31.1914 21.9896 31.2006 21.9896 31.2006C21.9896 31.2006 30.2171 31.2098 32.2737 30.6714C32.8285 30.5208 33.3344 30.228 33.7414 29.8219C34.1484 29.4159 34.4423 28.9106 34.5942 28.3561C35.1379 26.3009 35.1418 22.0367 35.1418 22.0367C35.1418 22.0367 35.1681 17.749 34.6073 15.6924ZM19.3775 25.9384L19.3841 18.0589L26.2222 22.0052L19.3775 25.9384Z" fill="#FCFCFD"/>
</svg>
