<svg width="210" height="46" viewBox="0 0 210 46" fill="none" xmlns="http://www.w3.org/2000/svg">
<path d="M23.5899 2.96996C23.5899 1.01249 22.3075 0.202497 21.7 0C21.0925 0.134998 19.8101 1.01249 19.8101 2.96996C19.8101 4.92744 21.0925 5.53493 21.7 5.53493C22.3075 5.46743 23.5899 4.92744 23.5899 2.96996Z" fill="#E6007A"/>
<path d="M15.0181 2.76746C14.6131 2.36247 13.9381 2.36247 13.5331 2.76746C13.1281 3.17246 13.1281 3.84745 13.5331 4.25244L20.6204 11.3398V17.4823L9.34826 6.14242C8.94328 5.73742 8.2683 5.73742 7.86331 6.14242C7.45832 6.54741 7.45832 7.2224 7.86331 7.6274L20.6204 20.3847V44.8869C20.6204 45.4269 21.0929 45.8994 21.6329 45.8994C22.1728 45.8994 22.6453 45.4269 22.6453 44.8869V20.5197L35.5374 7.6274C35.9424 7.2224 35.9424 6.54741 35.5374 6.14242C35.1324 5.73742 34.4575 5.73742 34.0525 6.14242L22.7128 17.6173V11.3398L29.8001 4.25244C30.2051 3.84745 30.2051 3.17246 29.8001 2.76746C29.3951 2.36247 28.7201 2.36247 28.3152 2.76746L21.7004 9.44987L15.0181 2.76746Z" fill="#E6007A"/>
<path d="M33.9855 17.4146C34.3905 17.8196 34.3905 18.4946 33.9855 18.8996L29.0581 23.7595V30.0369L41.4777 17.6171C41.8827 17.2121 42.5577 17.2121 42.9627 17.6171C43.3677 18.0221 43.3677 18.6971 42.9627 19.1021L29.0581 32.9394V38.9468C29.0581 39.4868 28.5857 39.9593 28.0457 39.9593C27.5057 39.9593 27.0332 39.4868 27.0332 38.9468V23.3545C27.0332 23.0845 27.1682 22.8145 27.3032 22.612L32.5005 17.4146C32.973 17.0096 33.5805 17.0096 33.9855 17.4146Z" fill="#E6007A"/>
<path d="M9.34845 17.4146C8.94346 17.8196 8.94346 18.4946 9.34845 18.8996L14.2758 23.827V30.1044L1.78869 17.6171C1.38371 17.2121 0.708727 17.2121 0.30374 17.6171C-0.101247 18.0221 -0.101247 18.6971 0.30374 19.1021L14.2758 33.0744V39.0143C14.2758 39.5543 14.7483 40.0268 15.2883 40.0268C15.8282 40.0268 16.3007 39.5543 16.3007 39.0143V23.3545C16.3007 23.0845 16.1657 22.8145 16.0307 22.612L10.8334 17.4146C10.4284 17.0096 9.75343 17.0096 9.34845 17.4146Z" fill="#E6007A"/>
<path d="M38.7781 12.3523C39.0481 12.8922 39.3856 14.3772 38.0357 15.7947C36.6182 17.2122 35.3358 16.6722 34.8633 16.2672C34.4583 15.7947 33.9858 14.5122 35.3358 13.0947C36.7532 11.7448 38.2382 12.0148 38.7781 12.3523Z" fill="#E6007A"/>
<path d="M4.75869 15.7273C3.34123 14.3098 3.67872 12.8248 4.01621 12.2848C4.55619 11.9473 6.04115 11.6773 7.4586 13.0273C8.87605 14.4448 8.33607 15.7273 7.93108 16.1998C7.4586 16.6723 6.10864 17.1447 4.75869 15.7273Z" fill="#E6007A"/>
<path fill-rule="evenodd" clip-rule="evenodd" d="M120.11 29.1711C120.934 29.8119 121.849 30.2696 122.856 30.5442C124.046 30.9104 125.328 31.0934 126.518 31.0934C127.799 31.0934 129.172 30.9104 130.362 30.4527C131.369 30.0865 132.284 29.4457 132.925 28.6219C133.566 27.798 133.841 26.8826 133.841 25.8757C133.841 25.1434 133.657 24.3195 133.108 23.7703C132.651 23.221 132.101 22.8549 131.369 22.5802C130.545 22.2141 129.63 21.9395 128.806 21.7564C127.982 21.4818 127.341 21.2987 126.884 21.1156C126.518 20.9325 126.06 20.7495 125.785 20.4748C125.602 20.3833 125.511 20.2002 125.419 20.0171C125.328 19.8341 125.328 19.651 125.328 19.4679C125.328 18.7356 125.694 18.1863 126.426 17.7286C127.158 17.2709 128.165 17.0879 129.355 17.0879C130.179 17.0879 131.003 17.1794 131.827 17.454C132.559 17.6371 133.291 18.0033 133.932 18.3694L135.122 15.9894C134.39 15.5317 133.474 15.1655 132.651 14.9824C131.644 14.7078 130.637 14.6163 129.538 14.6163C128.257 14.6163 126.975 14.7994 125.785 15.2571C124.778 15.6232 123.863 16.264 123.222 17.0879C122.581 17.9117 122.307 18.8271 122.307 19.8341C122.307 20.6579 122.49 21.3902 123.039 22.031C123.497 22.5802 124.046 23.0379 124.778 23.3126C125.602 23.6787 126.518 23.9533 127.433 24.228C128.257 24.411 128.806 24.5941 129.264 24.7772C129.63 24.9603 129.996 25.1434 130.362 25.418C130.545 25.5095 130.637 25.6926 130.728 25.8757C130.82 26.0588 130.82 26.2418 130.82 26.4249C130.82 27.1572 130.454 27.7065 129.721 28.0726C128.989 28.5303 127.982 28.7134 126.792 28.7134C125.785 28.7134 124.778 28.5303 123.863 28.2557C122.948 27.9811 122.124 27.5234 121.391 26.9742L120.11 29.1711ZM153.796 30.9104L162.675 14.6163H159.563L152.697 27.1572L151.05 14.6163H148.12L141.347 26.9742L139.699 14.6163H136.587L138.784 30.9104H142.079L148.761 19.0102L150.409 30.9104H153.796ZM169.998 27.0657H161.577L159.197 30.8188H155.901L166.794 14.5247H169.907L174.026 30.8188H170.913L169.998 27.0657ZM169.449 24.6857L167.71 17.5456L163.133 24.6857H169.449ZM191.326 19.4679C191.326 17.9117 190.777 16.7217 189.679 15.8063C188.58 14.9824 187.024 14.5247 185.01 14.5247H178.603L175.216 30.9104H178.328L179.335 26.2418H183.454C184.919 26.2418 186.383 25.9672 187.665 25.418C188.763 24.9603 189.77 24.1364 190.411 23.1295C190.96 21.9395 191.326 20.7495 191.326 19.4679ZM188.214 19.7425C188.214 21.0241 187.848 21.9395 187.024 22.5802C186.2 23.221 185.01 23.5872 183.546 23.5872H179.884L181.166 17.0879H184.644C185.834 17.0879 186.658 17.2709 187.299 17.7286C187.848 18.2779 188.214 18.9187 188.214 19.7425Z" fill="#0D0922"/>
<path fill-rule="evenodd" clip-rule="evenodd" d="M65.4612 30.8188V29.3542H55.3921V23.3126H63.9966V21.8479H55.3921V16.0809H65.0951V14.6163H53.6528V30.8188H65.4612ZM75.0727 14.5247H68.2989V30.8188H75.0727C76.7204 30.8188 78.2765 30.4527 79.7412 29.8119C81.0227 29.1711 82.1211 28.1642 82.8534 26.9741C83.5857 25.6926 83.9519 24.228 83.9519 22.7633C83.9519 21.2987 83.5857 19.8341 82.8534 18.5525C82.1211 17.3625 81.0227 16.3555 79.7412 15.7148C78.2765 14.7994 76.7204 14.5247 75.0727 14.5247ZM78.8258 28.4388C77.6358 28.988 76.3542 29.3542 74.9812 29.2626H70.0381V15.9894H74.9812C76.3542 15.9894 77.6358 16.264 78.8258 16.8132C79.9242 17.3625 80.7481 18.1863 81.3888 19.1933C81.9381 20.2918 82.3042 21.4818 82.3042 22.6718C82.3042 23.8618 82.0296 25.0518 81.3888 26.1503C80.7481 27.1572 79.8327 27.9811 78.8258 28.4388ZM86.6065 14.5247H93.3803C95.028 14.5247 96.5841 14.8909 98.0487 15.5317C99.3303 16.1725 100.429 17.1794 101.161 18.3694C101.893 19.651 102.259 21.1156 102.259 22.5802C102.259 24.0449 101.893 25.5095 101.161 26.7911C100.429 27.9811 99.3303 28.988 98.0487 29.6288C96.5841 30.3611 95.028 30.7273 93.3803 30.6357H86.6065V14.5247ZM93.2888 29.3542C94.6618 29.3542 95.9434 29.0796 97.1334 28.5303C98.2318 27.9811 99.0557 27.1572 99.6964 26.1503C100.246 25.0518 100.612 23.8618 100.612 22.6718C100.612 21.4818 100.337 20.2918 99.6964 19.1933C99.0557 18.1863 98.2318 17.3625 97.1334 16.8132C95.9434 16.264 94.6618 15.8978 93.2888 15.9894H88.3457V29.2626H93.2888V29.3542ZM105.921 26.4249H115.258L117.272 30.8188H119.102L111.505 14.5247H109.766L102.076 30.8188H103.907L105.921 26.4249ZM110.589 16.264L114.617 25.0518H106.562L110.589 16.264Z" fill="#E6007A"/>
<path d="M196.727 13.0597H194.347V11.6866H200.846V13.0597H198.466V19.1013H196.727V13.0597Z" fill="#0D0922"/>
<path d="M208.444 19.1009V14.6155L206.247 18.277H205.514L203.317 14.707V19.1009H201.761V11.6862H203.134L205.88 16.2632L208.627 11.6862H210V19.1009H208.444Z" fill="#0D0922"/>
</svg>
