<svg width="80" height="80" viewBox="0 0 80 80" fill="none" xmlns="http://www.w3.org/2000/svg">
<circle cx="40" cy="40" r="40" fill="#1B1B20"/>
<path d="M49.5718 41.17C49.2282 40.7589 48.8087 40.4488 48.352 40.2384C48.7646 38.3848 48.9909 36.3652 48.9909 34.2514C48.9909 25.2757 39.8834 18 39.8834 18C39.8834 18 30.7759 25.2757 30.7759 34.2514C30.7759 36.4053 31.0119 38.461 31.4383 40.3422C31.0629 40.5457 30.718 40.8212 30.4268 41.17C29.1849 42.6567 26 51.8815 26 51.8815C26 51.8815 31.6328 48.6631 34.4175 46.7251H45.5825C48.3685 48.6631 54 51.8815 54 51.8815C54 51.8815 50.8151 42.6567 49.5718 41.17ZM45.134 45.7561H34.6342C32.7961 42.8491 31.7488 38.6797 31.7488 34.2071C31.7488 31.5133 32.6402 28.9828 33.8545 26.7555C35.6457 27.7231 37.7004 28.2852 39.8848 28.2852C42.0692 28.2852 44.1239 27.7411 45.9137 26.7735C47.128 29.0008 48.0194 31.5119 48.0194 34.2057C48.0194 38.6769 46.9721 42.8491 45.134 45.7561ZM39.8848 29.3068C37.532 29.3068 35.6236 31.2198 35.6236 33.5814C35.6236 35.9416 37.532 37.856 39.8848 37.856C42.2375 37.856 44.146 35.943 44.146 33.5814C44.1446 31.2198 42.2375 29.3068 39.8848 29.3068ZM39.8848 36.6434C38.1985 36.6434 36.8324 35.273 36.8324 33.5814C36.8324 31.8898 38.1985 30.5194 39.8848 30.5194C41.571 30.5194 42.9372 31.8898 42.9372 33.5814C42.9372 35.273 41.5697 36.6434 39.8848 36.6434ZM44.542 48.1758C44.542 47.6802 44.1418 47.2788 43.6478 47.2788H36.4667C35.9727 47.2788 35.5725 47.6802 35.5725 48.1758V48.3198C35.5725 48.8153 35.9727 49.2168 36.4667 49.2168H43.6478C44.1418 49.2168 44.542 48.8153 44.542 48.3198V48.1758ZM41.9312 49.6833C41.9312 49.6833 43.1552 51.7901 42.0775 53.3253C40.9998 54.8605 40.801 55.7035 41.066 55.9028C41.3323 56.1035 39.0706 54.902 39.4032 53.2339C39.4032 53.2339 38.4773 53.9344 38.3393 55.4363C38.3393 55.4363 36.21 53.3793 37.9405 49.6431C37.9405 49.6431 34.9902 51.1658 35.2814 54.8729C35.5587 58.407 38.6442 58.0388 39.4032 63C39.4032 63 48.61 55.518 41.9312 49.6833Z" fill="#E6007A"/>
</svg>
