<svg width="40" height="40" viewBox="0 0 40 40" fill="none" xmlns="http://www.w3.org/2000/svg">
<path d="M20 40C31.0457 40 40 31.0457 40 20C40 8.95431 31.0457 0 20 0C8.95431 0 0 8.95431 0 20C0 31.0457 8.95431 40 20 40Z" fill="#020313"/>
<path d="M25 11.5H15C12 11.5 10 13 10 16.5V23.5C10 27 12 28.5 15 28.5H25C28 28.5 30 27 30 23.5V16.5C30 13 28 11.5 25 11.5ZM25.47 17.59L22.34 20.09C21.68 20.62 20.84 20.88 20 20.88C19.16 20.88 18.31 20.62 17.66 20.09L14.53 17.59C14.21 17.33 14.16 16.85 14.41 16.53C14.67 16.21 15.14 16.15 15.46 16.41L18.59 18.91C19.35 19.52 20.64 19.52 21.4 18.91L24.53 16.41C24.85 16.15 25.33 16.2 25.58 16.53C25.84 16.85 25.79 17.33 25.47 17.59Z" fill="white"/>
</svg>
