<svg width="40" height="40" viewBox="0 0 40 40" fill="none" xmlns="http://www.w3.org/2000/svg">
<path d="M20 40C31.0457 40 40 31.0457 40 20C40 8.95431 31.0457 0 20 0C8.95431 0 0 8.95431 0 20C0 31.0457 8.95431 40 20 40Z" fill="#23262F"/>
<path fill-rule="evenodd" clip-rule="evenodd" d="M9.05295 19.7889C14.8834 17.2487 18.7712 15.574 20.7165 14.7649C26.2707 12.4547 27.4248 12.0534 28.1771 12.0402C28.3425 12.0373 28.7125 12.0783 28.9521 12.2727C29.1544 12.4369 29.2101 12.6587 29.2367 12.8143C29.2634 12.97 29.2965 13.3246 29.2702 13.6017C28.9692 16.7641 27.6668 24.4386 27.0043 27.9806C26.7239 29.4794 26.1719 29.9819 25.6374 30.0311C24.476 30.138 23.5941 29.2635 22.4692 28.5262C20.7089 27.3723 19.7145 26.654 18.0058 25.528C16.0312 24.2268 17.3113 23.5116 18.4366 22.3428C18.7311 22.0369 23.8484 17.3823 23.9475 16.96C23.9599 16.9072 23.9713 16.7104 23.8544 16.6065C23.7375 16.5025 23.5649 16.5381 23.4403 16.5663C23.2638 16.6064 20.4517 18.465 15.0042 22.1423C14.206 22.6904 13.483 22.9574 12.8353 22.9434C12.1212 22.928 10.7475 22.5397 9.72636 22.2077C8.47386 21.8006 7.47839 21.5853 7.56508 20.8939C7.61023 20.5337 8.10618 20.1654 9.05295 19.7889Z" fill="white"/>
</svg>
