<svg width="281" height="67" viewBox="0 0 281 67" fill="none" xmlns="http://www.w3.org/2000/svg">
<path d="M277.099 40.8146C277.099 38.3961 277.13 35.9775 277.099 33.559C277.068 31.7778 276.461 30.2062 275.039 29.0561C273.858 28.0991 272.519 27.4908 270.958 27.7233C268.151 28.1385 266.05 30.391 266 33.2019C265.959 35.5519 266.831 37.4577 268.952 38.4957C271.166 39.5815 273.381 39.2992 275.376 37.7733C275.511 37.6716 275.606 37.466 275.805 37.5387C276.005 37.6114 275.918 37.8397 275.92 37.9933C275.932 38.8632 275.92 39.7351 275.932 40.607C275.948 40.7463 275.916 40.8869 275.84 41.0049C275.764 41.1229 275.65 41.2112 275.517 41.2548C274.479 41.7239 273.441 42.0852 272.289 42.1205C270.568 42.1744 268.869 42.0997 267.306 41.2361C265.23 40.0818 263.806 38.394 263.154 36.0855C262.906 35.2595 262.776 34.4026 262.768 33.5403C262.812 28.5433 266.519 24.2999 272.096 24.5927C274.222 24.7009 276.232 25.5926 277.74 27.0958C279.247 28.5989 280.144 30.607 280.258 32.7327C280.466 36.9076 280.3 41.0887 280.344 45.2677C280.344 46.3348 280.321 47.4039 280.356 48.471C280.371 48.9443 280.202 49.0626 279.76 49.0398C279.064 49.0045 278.366 49.0045 277.67 49.0398C277.207 49.0647 277.086 48.9132 277.09 48.4585C277.111 45.9113 277.099 43.3619 277.099 40.8146Z" fill="white"/>
<path d="M245.516 42.1265C241.977 41.977 239.394 40.3535 237.872 37.1191C237.216 35.7261 237.214 34.2355 237.233 32.7367C237.255 31.0184 237.858 29.3582 238.944 28.0262C240.849 25.5993 243.372 24.3599 246.448 24.5966C249.978 24.8706 252.546 26.6456 253.98 29.9486C254.078 30.1728 254.08 30.2537 253.849 30.3783C250.251 32.3048 246.662 34.2425 243.083 36.1911C242.766 36.3635 242.602 36.3489 242.431 36.0105C242.164 35.4624 241.863 34.9307 241.532 34.4182C241.275 34.0321 241.344 33.8556 241.74 33.6314C244.132 32.2862 246.515 30.916 248.89 29.55C249.577 29.1555 249.575 29.1514 248.942 28.6822C245.873 26.4152 241.389 28.186 240.43 32.037C239.874 34.2999 240.721 36.7703 242.492 38.0575C243.424 38.7127 244.53 39.0758 245.67 39.1006C246.809 39.1254 247.93 38.8107 248.89 38.1966C250.241 37.3392 250.98 36.0562 251.323 34.5449C251.433 34.0591 251.622 33.9615 252.064 34.0009C252.735 34.0632 253.411 34.0964 254.086 34.0923C254.501 34.0923 254.557 34.2542 254.501 34.6051C253.937 37.8686 252.234 40.2539 249.129 41.5473C247.985 42.0141 246.749 42.2123 245.516 42.1265Z" fill="white"/>
<path d="M176.615 42.1266C173.063 41.9875 170.448 40.3806 168.961 37.113C168.309 35.6847 168.233 34.1298 168.338 32.5811C168.546 29.3404 170.159 26.9385 173.026 25.5226C176.211 23.949 179.343 24.2645 182.258 26.326C183.518 27.2166 184.39 28.4353 185.028 29.8303C185.16 30.1189 185.117 30.285 184.82 30.4531C181.316 32.3271 177.817 34.2128 174.326 36.1103C173.91 36.3428 173.657 36.3781 173.441 35.8798C173.257 35.438 173.021 35.0198 172.737 34.6342C172.291 34.0488 172.53 33.8038 173.082 33.4841C175.44 32.1721 177.77 30.7998 180.126 29.4816C180.61 29.2096 180.516 29.0664 180.161 28.782C177.093 26.3115 172.256 28.2463 171.475 32.2634C170.823 35.612 172.798 38.5787 176.142 39.0665C178.662 39.434 181.442 38.0721 182.335 34.9C182.594 33.9782 182.603 33.9782 183.581 34.0239C184.104 34.0467 184.619 34.0986 185.148 34.0862C185.578 34.0862 185.667 34.2356 185.596 34.6301C185.011 37.8936 183.313 40.2789 180.184 41.5536C179.054 42.0139 177.833 42.2099 176.615 42.1266Z" fill="white"/>
<path d="M144.614 29.6124C144.614 25.776 144.614 21.9312 144.603 18.103C144.603 17.6338 144.691 17.4408 145.205 17.4802C145.858 17.5228 146.513 17.5228 147.165 17.4802C147.626 17.4532 147.755 17.611 147.751 18.0656C147.728 20.3991 147.751 22.7305 147.73 25.0618C147.73 25.6846 147.856 25.6514 148.353 25.4085C151.218 24.028 154.637 24.4702 156.908 26.8949C158.161 28.2308 158.852 29.998 158.837 31.8296C158.861 34.925 158.837 38.0203 158.855 41.1156C158.855 41.6367 158.712 41.7986 158.199 41.7675C157.524 41.7281 156.848 41.7281 156.173 41.7675C155.7 41.7945 155.598 41.618 155.6 41.1738C155.617 38.122 155.656 35.0703 155.6 32.0206C155.556 29.8802 154.371 28.5122 152.515 28.1198C149.916 27.5696 147.74 29.137 147.74 31.8566C147.74 34.952 147.74 38.0473 147.751 41.1426C147.751 41.6222 147.645 41.8069 147.128 41.7654C146.475 41.7239 145.821 41.7239 145.168 41.7654C144.699 41.7945 144.593 41.6305 144.595 41.1821C144.622 37.3311 144.614 33.4697 144.614 29.6124Z" fill="white"/>
<path d="M87.7704 37.5137C87.7704 38.5974 87.7579 39.6209 87.7704 40.6443C87.7704 41.0263 87.5316 41.1488 87.2576 41.2962C85.6881 42.1474 83.9983 42.2242 82.2752 42.0809C79.4206 41.8422 77.2782 40.4637 75.8105 38.0161C74.8555 36.4279 74.7081 34.6799 74.7455 32.88C74.8493 27.8976 79.2047 24.2314 84.0502 24.5864C85.8771 24.7025 87.6172 25.4076 89.0098 26.5959C89.9946 27.4075 90.7888 28.4257 91.3363 29.5784C91.8838 30.7311 92.171 31.9901 92.1778 33.2662C92.24 35.8799 92.1778 38.4957 92.2027 41.1094C92.2027 41.5432 92.0802 41.6782 91.6525 41.6595C90.9135 41.6284 90.1702 41.6242 89.4312 41.6595C89.016 41.6823 88.9309 41.537 88.935 41.1488C88.9516 38.6202 88.9848 36.0916 88.935 33.5651C88.8977 31.9043 88.4098 30.3577 87.0957 29.2221C85.8501 28.1467 84.4155 27.4616 82.736 27.7378C80.2282 28.153 78.2083 29.9882 77.8844 32.7202C77.546 35.5539 79.1757 38.232 81.8184 38.888C83.7055 39.3551 85.4805 39.0956 87.0583 37.8812C87.1221 37.8206 87.1917 37.7664 87.2659 37.7192C87.3967 37.6507 87.5379 37.6051 87.7704 37.5137Z" fill="white"/>
<path d="M101.889 30.8829C101.889 29.139 101.902 27.3952 101.879 25.6534C101.879 25.2236 101.997 25.0825 102.431 25.1032C103.15 25.1406 103.87 25.1406 104.588 25.1032C105.072 25.0762 105.155 25.2714 105.153 25.7032C105.136 28.7978 105.136 31.8918 105.153 34.9851C105.153 36.9137 106.301 38.396 108.099 38.8485C109.99 39.3239 112.043 38.0991 112.622 36.239C112.796 35.598 112.87 34.9344 112.844 34.2709C112.844 31.4372 112.861 28.6034 112.832 25.7717C112.832 25.2133 112.998 25.0659 113.527 25.1032C114.2 25.1489 114.879 25.1281 115.554 25.1032C115.932 25.1032 116.108 25.1946 116.106 25.6119C116.093 28.8151 116.129 32.0184 116.087 35.2217C116.074 36.1645 115.875 37.0954 115.502 37.9613C115.129 38.8273 114.59 39.6112 113.914 40.2685C113.168 41.036 112.231 41.5888 111.198 41.8691C110.544 42.0456 109.897 42.3134 109.228 42.3113C107.509 42.3113 105.906 41.8484 104.54 40.7564C103.182 39.6676 102.251 38.135 101.91 36.4279C101.808 35.9732 101.896 35.4771 101.896 34.9996L101.889 30.8829Z" fill="white"/>
<path d="M209.703 36.158C209.703 37.8188 209.688 39.4796 209.713 41.1259C209.713 41.5888 209.576 41.7279 209.124 41.7051C208.427 41.6677 207.73 41.6677 207.033 41.7051C206.562 41.732 206.456 41.5618 206.46 41.1155C206.477 38.0866 206.496 35.0577 206.46 32.0288C206.433 29.7327 204.99 28.2234 203.062 27.9618C202.528 27.8791 201.983 27.9137 201.464 28.0632C200.946 28.2127 200.466 28.4735 200.058 28.8274C199.65 29.1814 199.325 29.6199 199.104 30.1126C198.883 30.6052 198.772 31.1401 198.779 31.68C198.779 34.794 198.764 37.908 198.791 41.022C198.791 41.5701 198.65 41.7383 198.106 41.7009C197.41 41.6656 196.712 41.6656 196.016 41.7009C195.667 41.7113 195.513 41.6345 195.515 41.238C195.532 37.9703 195.515 34.7006 195.534 31.4329C195.559 27.8456 198.142 25.2526 201.299 24.744C205.503 24.0652 209.344 26.82 209.659 31.2544C209.776 32.8799 209.678 34.522 209.678 36.1559L209.703 36.158Z" fill="white"/>
<path d="M220.098 30.0962C220.098 27.2874 220.112 24.4785 220.098 21.6697C220.098 21.1735 220.228 21.0241 220.72 21.0469C221.394 21.0936 222.071 21.0936 222.745 21.0469C223.303 21.0033 223.392 21.2379 223.367 21.7195C223.336 22.6973 223.382 23.6793 223.349 24.6592C223.334 25.0972 223.477 25.2093 223.901 25.2031C225.622 25.1823 227.343 25.2031 229.062 25.1823C229.552 25.1823 229.712 25.3027 229.685 25.8051C229.636 26.3909 229.636 26.9798 229.685 27.5656C229.734 28.1199 229.494 28.205 229.014 28.1884C227.339 28.1655 225.661 28.1884 223.984 28.1697C223.521 28.1697 223.361 28.2569 223.361 28.7717C223.39 31.6013 223.361 34.433 223.378 37.2647C223.378 38.3235 223.824 38.7698 224.889 38.7761C226.218 38.7761 227.546 38.7927 228.875 38.7761C229.276 38.7761 229.467 38.8404 229.44 39.3013C229.398 39.9739 229.419 40.6507 229.44 41.3254C229.44 41.6098 229.39 41.7717 229.051 41.7614C227.029 41.7012 225.003 41.8652 222.983 41.6576C221.621 41.5185 220.179 39.9116 220.177 38.5851C220.177 35.7554 220.177 32.9238 220.177 30.0942L220.098 30.0962Z" fill="white"/>
<path d="M126.81 29.9322C126.81 27.1856 126.824 24.4411 126.797 21.6946C126.797 21.1631 126.955 21.024 127.458 21.0551C128.11 21.0956 128.765 21.0956 129.417 21.0551C129.893 21.0261 130.071 21.1506 130.051 21.6613C130.009 22.662 130.05 23.6668 130.03 24.6674C130.017 25.1034 130.158 25.2155 130.586 25.2113C132.307 25.1864 134.028 25.2113 135.749 25.1906C136.218 25.1906 136.424 25.2715 136.372 25.7905C136.322 26.3555 136.322 26.9237 136.372 27.4887C136.43 28.0991 136.164 28.2132 135.623 28.2008C133.991 28.1696 132.355 28.2008 130.721 28.1779C130.2 28.1779 130.011 28.2776 130.017 28.8464C130.048 31.6345 130.03 34.4247 130.034 37.2128C130.034 38.3546 130.464 38.7781 131.618 38.7843C132.926 38.7843 134.234 38.8051 135.542 38.7739C136.009 38.7739 136.139 38.9151 136.112 39.3656C136.077 39.9884 136.088 40.6278 136.112 41.2589C136.125 41.6077 136.04 41.7758 135.652 41.7655C133.692 41.7115 131.732 41.7883 129.77 41.7073C128.678 41.6617 126.993 40.1109 126.883 38.8819C126.741 37.3145 126.835 35.7471 126.812 34.1797C126.793 32.7639 126.81 31.348 126.81 29.9322Z" fill="white"/>
<path d="M45.6335 47.9436C45.6335 43.1376 45.6584 38.3316 45.6211 33.5277C45.631 31.3653 45.1129 29.2331 44.1118 27.3163C43.0379 25.2764 41.4317 23.5655 39.4636 22.365C38.3621 21.7058 37.1743 21.2027 35.9344 20.8703C35.6615 20.7847 35.4269 20.6067 35.2712 20.3668C35.1155 20.1269 35.0482 19.8403 35.0811 19.5562C35.2285 18.9334 35.8119 18.5908 36.5094 18.761C38.7638 19.3128 40.8519 20.4002 42.5963 21.9311C44.9993 23.9906 46.6738 26.7703 47.3711 29.8573C47.6284 30.9353 47.7594 32.0396 47.7614 33.1478C47.7614 42.775 47.7614 52.4008 47.7614 62.0252C47.7614 62.3823 47.6846 62.5857 47.3192 62.7123C46.8475 62.8876 46.3901 63.0993 45.9512 63.3455C45.6522 63.5033 45.619 63.3787 45.6231 63.1234C45.6231 62.5732 45.6231 62.0231 45.6231 61.473L45.6335 47.9436Z" fill="white"/>
<path d="M41.2511 56.2226C41.2511 53.5238 41.2158 50.8083 41.2656 48.1033C41.2863 46.9802 40.3501 46.1975 39.1418 46.7767C38.2757 47.1874 37.3719 47.5135 36.443 47.7504C34.9337 48.1427 33.385 48.1801 31.828 48.122C29.4559 48.0198 27.1486 47.3169 25.1225 46.0792C23.0272 44.8404 21.2745 43.0977 20.0238 41.0095C19.0986 39.5352 18.4709 37.8941 18.1762 36.1787C18.1056 35.7427 17.9686 35.3192 18.2903 34.9144C18.4152 34.7546 18.5833 34.6341 18.7747 34.5671C18.9661 34.5002 19.1726 34.4895 19.3699 34.5365C19.5726 34.5602 19.762 34.6495 19.9093 34.7908C20.0565 34.9321 20.1536 35.1176 20.1857 35.3192C20.3293 36.1032 20.5376 36.874 20.8085 37.6236C21.3251 39.0341 22.0862 40.3426 23.0569 41.4891C24.8031 43.5535 27.1597 45.0103 29.787 45.6494C32.4144 46.2885 35.1768 46.077 37.6762 45.0453C38.2136 44.7884 38.7765 44.5887 39.3556 44.4495C39.8431 44.3513 40.3462 44.3624 40.8288 44.4819C41.3114 44.6014 41.7616 44.8264 42.1469 45.1406C42.5322 45.4548 42.8431 45.8506 43.0572 46.2993C43.2713 46.748 43.3833 47.2386 43.3852 47.7358C43.3852 53.1501 43.3852 58.5622 43.3956 63.9765C43.4137 64.1001 43.3832 64.2259 43.3104 64.3273C43.2376 64.4288 43.1282 64.498 43.0053 64.5204C42.5631 64.6429 42.1126 64.7467 41.6787 64.892C41.332 65.0083 41.2635 64.9107 41.2635 64.5598C41.2552 61.7821 41.2511 59.0065 41.2511 56.2226Z" fill="white"/>
<path d="M0.17088 36.814C-0.00350505 36.2929 0.0940676 35.7345 0.0546233 35.1781C-0.0246175 33.6025 -0.0176871 32.0238 0.0753835 30.4489C0.147269 29.1973 0.322247 27.9537 0.598539 26.7308C0.870992 25.3619 1.23511 24.0129 1.68845 22.6929C2.28634 20.9823 2.93406 19.2945 3.85373 17.7209C4.01981 17.4344 4.15475 17.1271 4.33744 16.8469C4.48082 16.6359 4.69163 16.4799 4.9353 16.4045C5.17897 16.329 5.44104 16.3386 5.67855 16.4317C5.90132 16.5259 6.08486 16.6939 6.19829 16.9075C6.31172 17.1211 6.34811 17.3673 6.30135 17.6046C6.19542 17.9233 6.05258 18.2284 5.87577 18.5139C4.33417 21.3249 3.25271 24.3646 2.67248 27.5176C2.14552 30.3414 2.00861 33.2242 2.26558 36.0853C2.54131 39.2682 3.33146 42.3853 4.60525 45.3153C5.69852 47.8708 7.14204 50.2617 8.89429 52.4194C9.987 53.7902 11.2084 55.0534 12.5419 56.1915C12.7111 56.3102 12.8411 56.4768 12.915 56.6699C12.989 56.863 13.0036 57.0737 12.9571 57.2752C12.9056 57.5165 12.7826 57.7367 12.6041 57.9071C12.4256 58.0775 12.1999 58.19 11.9564 58.2301C11.8034 58.2425 11.6496 58.2208 11.506 58.1666C11.3624 58.1124 11.2326 58.0271 11.126 57.9167C9.29953 56.3035 7.6571 54.4933 6.22869 52.519C5.43479 51.4507 4.71414 50.3299 4.07171 49.1642C3.39242 47.9371 2.78857 46.6698 2.2635 45.3692C1.70347 43.9499 1.24354 42.4932 0.887105 41.0096C0.577241 39.8323 0.357927 38.633 0.231085 37.4222C0.216552 37.2292 0.0919916 37.0506 0.17088 36.814Z" fill="white"/>
<path d="M32.4031 0.377894C35.9429 0.335287 39.4668 0.85882 42.8413 1.92868C43.5368 2.15081 43.8544 2.69057 43.6717 3.31545C43.489 3.94033 42.9036 4.20191 42.206 3.99016C40.5101 3.46455 38.7744 3.07715 37.016 2.83174C34.8958 2.5174 32.7454 2.46024 30.6115 2.66151C29.5631 2.77154 28.5106 2.92309 27.4622 3.08917C26.3284 3.27825 25.2078 3.53967 24.1073 3.87183C21.7478 4.56427 19.4814 5.54167 17.3582 6.7824C15.8458 7.65224 14.4127 8.65326 13.0754 9.77393C12.0957 10.5632 11.1832 11.4326 10.3475 12.3731C9.93232 12.863 9.49013 13.3405 9.02717 13.791C8.52478 14.283 8.04937 14.3183 7.62794 13.928C7.0425 13.3883 6.974 12.9046 7.42034 12.344C8.48387 11.0332 9.65463 9.81315 10.9205 8.69648C12.1154 7.61867 13.3911 6.63384 14.7362 5.75062C18.7198 3.14318 23.2218 1.43122 27.9314 0.732893C29.4103 0.497013 30.9055 0.378312 32.4031 0.377894Z" fill="white"/>
<path d="M4.60109 36.5774C4.51598 36.1082 4.5741 35.6307 4.53881 35.1616C4.44564 33.6022 4.45396 32.0384 4.56372 30.4801C4.626 29.465 4.70904 28.4228 5.05782 27.4429C5.098 27.3093 5.16506 27.1852 5.25488 27.0783C5.3447 26.9715 5.45538 26.8841 5.58016 26.8215C5.70494 26.7589 5.84118 26.7225 5.98054 26.7144C6.1199 26.7063 6.25944 26.7267 6.39062 26.7745C6.65582 26.8543 6.88049 27.0325 7.01865 27.2725C7.15681 27.5126 7.19801 27.7963 7.13383 28.0657C6.75519 29.9357 6.58944 31.8426 6.63974 33.7499C6.6828 37.1741 7.41275 40.5549 8.78634 43.6919C11.3677 49.6347 16.0505 54.4164 21.9379 57.1216C22.1683 57.2254 22.405 57.3147 22.6271 57.431C22.8464 57.5479 23.0186 57.737 23.1147 57.9662C23.2107 58.1954 23.2248 58.4507 23.1544 58.689C23.0679 58.9225 22.9025 59.1184 22.6867 59.2428C22.471 59.3671 22.2186 59.4121 21.9732 59.37C21.8219 59.3397 21.6743 59.2931 21.5331 59.2309C17.3229 57.5099 13.8518 54.8048 10.9454 51.3254C9.21927 49.2589 7.80503 46.9508 6.74769 44.4746C5.87343 42.4788 5.24599 40.3839 4.87928 38.2361C4.80039 37.6839 4.69867 37.1234 4.60109 36.5774Z" fill="white"/>
<path d="M32.9761 4.83496C42.1624 5.04256 49.6153 8.74617 55.3555 15.9126C55.7935 16.4565 56.1859 17.0461 56.57 17.6274C56.954 18.2086 56.7942 18.7962 56.2067 19.2155C55.7043 19.5726 55.015 19.3152 54.7327 18.8709C52.7081 15.6757 49.9879 12.979 46.7753 10.982C43.7327 9.07561 40.3288 7.81891 36.7773 7.29089C36.2313 7.20785 35.6562 7.27635 35.1164 7.16217C33.958 6.9172 32.7934 6.98571 31.6329 7.02308C30.2784 7.08525 28.9317 7.26305 27.6075 7.55454C26.8065 7.69908 26.0137 7.88619 25.2325 8.11506C25.0763 8.15014 24.9132 8.13673 24.7648 8.07664C24.6164 8.01655 24.4899 7.91263 24.4021 7.77875C24.1613 7.45489 23.9641 7.10404 24.1239 6.69507C24.1883 6.51069 24.2981 6.34553 24.4433 6.21488C24.5885 6.08424 24.7642 5.99235 24.9544 5.9477C27.5673 5.22383 30.2647 4.84965 32.9761 4.83496Z" fill="white"/>
<path d="M8.97109 32.2447C8.94825 30.1147 9.36553 28.0615 10.0091 26.0416C11.0146 22.8463 12.6798 19.8979 14.8971 17.387C17.1143 14.8762 19.8341 12.8589 22.8804 11.4659C24.9555 10.5313 27.151 9.89128 29.4032 9.56424C30.1361 9.45629 30.6488 9.74693 30.7609 10.3116C30.927 11.1815 30.4537 11.6216 29.6337 11.7254C27.8607 11.9613 26.128 12.4369 24.4831 13.1391C22.7144 13.8607 21.0533 14.8219 19.5463 15.9957C15.4021 19.2084 12.5466 23.8 11.4976 28.9376C11.222 30.3589 11.0878 31.8039 11.0969 33.2516C11.1155 33.5272 11.0367 33.8006 10.8743 34.024C10.712 34.2475 10.4763 34.4069 10.2084 34.4743C9.68731 34.6446 8.96278 34.1505 8.96278 33.5962C8.97316 33.1457 8.97109 32.6952 8.97109 32.2447Z" fill="white"/>
<path d="M35.0355 9.4626C37.021 9.63681 38.9752 10.0702 40.8483 10.7518C44.7599 12.1555 48.2359 14.5586 50.931 17.722C53.6261 20.8854 55.4463 24.6992 56.2108 28.7841C56.2793 29.1453 56.4018 29.5148 56.2336 29.8989C56.1597 30.0875 56.0361 30.2527 55.8761 30.3769C55.716 30.5011 55.5254 30.5798 55.3243 30.6047C55.1063 30.6141 54.8909 30.5546 54.7087 30.4346C54.5264 30.3146 54.3866 30.1402 54.3092 29.9363C54.0497 29.247 54.004 28.5059 53.8109 27.7959C53.4592 26.4679 52.9924 25.1731 52.4158 23.9262C51.0777 21.0612 49.1149 18.5324 46.6715 16.5252C44.6251 14.8244 42.2802 13.5192 39.7563 12.6763C38.67 12.3156 37.5601 12.0298 36.4347 11.821C35.9055 11.7351 35.3717 11.6803 34.8362 11.6569C34.543 11.6171 34.2758 11.4678 34.0883 11.2391C33.9007 11.0103 33.8067 10.719 33.8251 10.4238C33.8355 9.85289 34.3296 9.45222 35.0355 9.4626Z" fill="white"/>
<path d="M38.8906 55.0061C38.8906 56.0067 38.9031 57.0074 38.8906 58.008C38.8782 58.8384 38.0602 59.4155 37.371 59.0771C37.1997 59.0145 37.0511 58.9018 36.9445 58.7538C36.8379 58.6057 36.7782 58.4291 36.7731 58.2467C36.7731 56.4427 36.7523 54.6386 36.7731 52.8346C36.7731 52.4194 36.6568 52.2824 36.252 52.3467C35.6296 52.4644 35.0009 52.5462 34.3691 52.5917C33.4577 52.6249 32.538 52.6124 31.6267 52.5605C28.2906 52.3639 25.061 51.3138 22.2472 49.5109C20.6079 48.4563 19.138 47.1593 17.8876 45.664C17.4122 45.1097 17.4724 44.5014 17.981 44.0385C18.3962 43.6627 19.1104 43.7312 19.5526 44.2461C20.7256 45.6418 22.103 46.852 23.6382 47.8355C25.6209 49.0829 27.8391 49.909 30.1548 50.2624C31.7935 50.5162 33.4602 50.5337 35.104 50.3143C35.6632 50.2042 36.228 50.1252 36.7959 50.0776C38.0249 50.0548 38.8719 50.8603 38.8989 52.0997C38.9197 53.0712 38.8989 54.0449 38.8989 55.0061H38.8906Z" fill="white"/>
<path d="M59.0674 52.8367V51.7572C59.0674 51.0513 59.0799 50.3475 59.0674 49.6417C59.0528 49.2772 59.1451 48.9163 59.3331 48.6037C61.1718 45.4586 62.4232 42.0054 63.0264 38.4125C63.2175 37.3693 63.3464 36.3156 63.4125 35.257C63.4665 34.192 63.5848 33.1229 63.454 32.035C63.3149 30.8953 63.2464 29.7514 63.1053 28.6013C62.9757 27.6194 62.7759 26.6481 62.5074 25.6949C62.4642 25.4447 62.5045 25.1874 62.6219 24.9623C62.7393 24.7373 62.9273 24.557 63.1572 24.4493C63.4078 24.3519 63.6847 24.3465 63.939 24.4339C64.1932 24.5213 64.4082 24.6959 64.546 24.9267C64.8346 25.4665 64.8886 26.0769 65.0069 26.6602C65.506 29.1092 65.7323 31.606 65.6816 34.1048C65.5965 37.7351 64.9024 41.3253 63.6284 44.7257C62.7094 47.2239 61.4775 49.5956 59.9622 51.7841C59.8355 51.9689 59.7027 52.1474 59.5719 52.3301L59.1878 52.8595L59.0674 52.8367Z" fill="white"/>
<path d="M45.8453 21.4454C45.7071 21.4486 45.5699 21.4213 45.4436 21.3653C45.3173 21.3093 45.2049 21.2261 45.1145 21.1215C43.5703 19.5465 41.7379 18.2828 39.7169 17.3992C38.4028 16.8055 37.01 16.4042 35.5815 16.2076C34.5206 16.0685 33.466 15.8692 32.3927 15.9252C31.0855 15.9929 29.7873 16.1813 28.5147 16.4878C26.4156 17.0023 24.4397 17.9289 22.7019 19.2136C22.5902 19.3036 22.4612 19.3694 22.3229 19.407C22.1845 19.4446 22.0399 19.4531 21.8981 19.432C21.7563 19.411 21.6205 19.3608 21.499 19.2846C21.3776 19.2084 21.2733 19.1079 21.1926 18.9894C21.1032 18.8717 21.0384 18.7371 21.0021 18.5938C20.9658 18.4505 20.9588 18.3013 20.9815 18.1552C21.0042 18.0091 21.0561 17.869 21.1341 17.7434C21.2121 17.6178 21.3146 17.5092 21.4355 17.4241C24.2711 15.3988 27.5968 14.1687 31.0678 13.8613C34.5389 13.554 38.029 14.1805 41.1763 15.6761C42.8616 16.4788 44.4177 17.5284 45.7934 18.7901C46.0716 19.0434 46.3601 19.2884 46.6113 19.5666C46.9435 19.9112 47.122 20.3077 46.9144 20.7935C46.7068 21.2793 46.4452 21.4163 45.8453 21.4454Z" fill="white"/>
<path d="M9.54617 38.612C9.54617 37.9892 9.84512 37.6238 10.3973 37.5553C10.6704 37.4981 10.955 37.5518 11.1886 37.7044C11.4222 37.8569 11.5856 38.096 11.6429 38.3691C12.2772 41.0303 13.4207 43.5435 15.0102 45.7701C17.8625 49.8488 22.0468 52.8064 26.8435 54.1343C27.2587 54.2547 27.6739 54.3834 27.8566 54.8153C27.9546 54.9972 27.9961 55.2042 27.9758 55.4098C27.9555 55.6155 27.8742 55.8103 27.7424 55.9695C27.4373 56.3432 27.0304 56.3847 26.5903 56.2726C25.3831 55.9352 24.1993 55.5191 23.0465 55.027C19.8972 53.7212 17.2689 51.7054 14.9936 49.1934C13.8761 47.9603 12.9011 46.6051 12.0872 45.1535C10.9892 43.2542 10.1513 41.216 9.596 39.0936C9.54617 38.9151 9.59392 38.7552 9.54617 38.612Z" fill="white"/>
<path d="M50.1509 39.407C50.1509 37.5386 50.1322 35.6867 50.1509 33.8266C50.2146 30.7426 49.4794 27.6946 48.0168 24.9787C47.6991 24.3912 47.8092 23.8867 48.2742 23.5379C48.3909 23.446 48.5257 23.38 48.6698 23.344C48.8138 23.308 48.9639 23.303 49.1101 23.3293C49.2562 23.3556 49.3951 23.4126 49.5176 23.4965C49.6402 23.5804 49.7435 23.6893 49.8208 23.8161C50.6486 25.2487 51.2633 26.7943 51.6457 28.4041C52.088 30.1582 52.3043 31.9616 52.2892 33.7706C52.2747 37.9828 52.2892 42.1951 52.2892 46.4073C52.2909 46.5899 52.2791 46.7724 52.2539 46.9533C52.1667 47.5325 51.6581 47.8916 50.9917 47.8522C50.5765 47.8294 50.1613 47.3062 50.1613 46.8142L50.1509 39.407Z" fill="white"/>
<path d="M54.5645 57.8337C54.5645 50.0016 54.5645 42.1944 54.5645 34.4122C54.5645 34.0862 54.4773 33.7541 54.7576 33.4634C54.8954 33.2951 55.0818 33.1733 55.2913 33.1146C55.5008 33.0559 55.7233 33.0632 55.9285 33.1354C56.1455 33.1969 56.3378 33.3249 56.4782 33.5014C56.6186 33.678 56.7001 33.8941 56.7111 34.1194C56.7111 34.217 56.7111 34.3167 56.7111 34.4142C56.7111 41.4215 56.7111 48.428 56.7111 55.4339C56.7201 55.5719 56.6972 55.7101 56.6443 55.8379C56.5914 55.9657 56.5099 56.0796 56.406 56.1709C55.8247 56.6982 55.3223 57.3085 54.6912 57.786C54.6508 57.8063 54.6083 57.8223 54.5645 57.8337Z" fill="white"/>
<path d="M47.6556 3.93628C47.996 3.95081 48.3759 4.27259 48.787 4.49473C50.4865 5.41664 52.0925 6.50124 53.5826 7.73331C55.3064 9.15268 56.8838 10.7411 58.291 12.4749C60.0428 14.646 61.5209 17.0243 62.6921 19.5562C62.9205 20.0441 63.1488 20.5361 62.7233 21.0406C62.1005 21.7796 61.2804 21.6634 60.9171 20.8579C59.8859 18.5744 58.5989 16.4154 57.0807 14.4222C54.4121 10.9257 51.011 8.05534 47.1158 6.01229C46.493 5.68428 46.2854 5.18189 46.493 4.62344C46.6778 4.20409 47.0535 3.94043 47.6556 3.93628Z" fill="white"/>
<path d="M19.511 21.8087C19.5123 22.0347 19.4251 22.2523 19.2681 22.4149C17.3941 24.7212 16.168 27.485 15.7161 30.4221C15.3036 32.9701 15.4653 35.5781 16.1894 38.0556C16.3779 38.7418 16.6194 39.4123 16.9119 40.061C17.2731 40.8291 16.7437 41.4436 16.2019 41.645C15.7057 41.8277 15.1223 41.4499 14.8774 40.8416C14.4245 39.7357 14.0594 38.5959 13.7854 37.4328C13.3889 35.6723 13.3702 33.8786 13.4075 32.0808C13.4657 29.2844 14.2732 26.6936 15.496 24.2169C16.0461 23.1177 16.7114 22.0801 17.4807 21.1215C18.064 20.3887 19.0854 20.4697 19.4425 21.2669C19.4948 21.4425 19.518 21.6256 19.511 21.8087Z" fill="white"/>
<path d="M6.43213 22.9837C6.32626 22.5436 6.61275 22.2197 6.76014 21.8793C7.70832 19.6793 8.93789 17.6116 10.4181 15.728C11.6738 14.132 13.0963 12.6747 14.6615 11.3808C16.2128 10.1176 17.8812 9.00535 19.6439 8.05923C19.9347 7.86258 20.2845 7.77238 20.6341 7.80388C21.1739 7.89522 21.4646 8.17756 21.5621 8.67165C21.6017 8.90813 21.5641 9.15107 21.455 9.36455C21.3458 9.57803 21.1708 9.75071 20.9559 9.85705C20.1401 10.2723 19.3512 10.7311 18.5789 11.221C17.6272 11.8208 16.7204 12.489 15.8655 13.2202C15.3465 13.6645 14.8275 14.1025 14.3459 14.5924C12.9627 15.9788 11.7329 17.51 10.6776 19.1597C9.85126 20.4799 9.14069 21.869 8.55382 23.3117C8.13862 24.3497 7.0321 24.2854 6.57123 23.6086C6.50689 23.5193 6.46139 23.4178 6.43748 23.3104C6.41356 23.203 6.41175 23.0918 6.43213 22.9837Z" fill="white"/>
<path d="M34.7262 65.0146C34.7262 65.1557 34.7262 65.2969 34.7262 65.4298C34.7262 66.1564 34.7262 66.1481 34.0141 66.1294C32.6771 66.0962 31.3402 66.1107 30.0074 66.0256C29.3846 65.9861 28.7472 65.8782 28.1224 65.7951C27.1861 65.6685 26.2705 65.463 25.353 65.2637C23.5163 64.8483 21.7209 64.2681 19.9885 63.5302C18.5845 62.931 17.2187 62.246 15.8988 61.4791C15.5645 61.2881 15.2511 61.0639 15.1307 60.6861C15.0781 60.4736 15.0839 60.251 15.1475 60.0416C15.2111 59.8322 15.3301 59.6439 15.4919 59.4965C15.6956 59.3585 15.9361 59.2848 16.1822 59.2848C16.4282 59.2848 16.6687 59.3585 16.8724 59.4965C18.92 60.7303 21.1041 61.7217 23.3807 62.4507C25.475 63.112 27.6314 63.5572 29.8164 63.7793C31.3149 63.9339 32.8228 63.9755 34.3276 63.9039C34.6576 63.8894 34.7428 63.989 34.7262 64.3004C34.7095 64.5267 34.7262 64.7737 34.7262 65.0146Z" fill="white"/>
<path d="M32.3699 19.4003C32.3864 19.6787 32.2927 19.9525 32.1089 20.1623C31.9251 20.3721 31.6661 20.5011 31.3879 20.5214C28.8052 20.821 26.3743 21.8974 24.4166 23.6084C22.6875 25.0922 21.3956 27.0193 20.6798 29.1825C20.5031 29.6827 20.3643 30.1956 20.2646 30.7167C20.1587 31.3125 19.5733 31.8668 19.0979 31.7713C18.932 31.7442 18.7733 31.6839 18.6314 31.5939C18.4894 31.504 18.3671 31.3862 18.2719 31.2477C18.1767 31.1092 18.1104 30.9529 18.0772 30.7881C18.044 30.6234 18.0444 30.4536 18.0786 30.289C18.7241 27.0893 20.3927 24.1864 22.8326 22.0182C25.0385 20.0172 27.8166 18.7589 30.7755 18.4204C31.2322 18.3644 31.664 18.2772 32.0377 18.6446C32.1495 18.7348 32.2381 18.8505 32.2959 18.982C32.3537 19.1135 32.3791 19.257 32.3699 19.4003Z" fill="white"/>
<path d="M59.0155 43.7666V32.525C59.0155 31.7133 58.8494 30.9202 58.7809 30.1168C58.647 28.8613 58.4152 27.6181 58.0875 26.3987C57.7878 25.2987 57.4274 24.2161 57.008 23.1559C56.7568 22.4688 56.981 21.9643 57.5644 21.7173C57.701 21.6588 57.8481 21.6289 57.9967 21.6294C58.1453 21.63 58.2923 21.6609 58.4284 21.7205C58.5646 21.78 58.6871 21.8668 58.7885 21.9755C58.8898 22.0842 58.9678 22.2125 59.0176 22.3525C60.642 26.1881 61.367 30.3445 61.1372 34.5034C60.9931 37.5849 60.3509 40.6227 59.2356 43.4988C59.1907 43.5975 59.1408 43.6938 59.0861 43.7874L59.0155 43.7666Z" fill="white"/>
<path d="M50.043 61.1804V56.6131C50.043 54.9378 50.0658 53.2625 50.043 51.5892C50.0264 50.7318 50.5246 50.4702 51.0644 50.4391C51.7204 50.4017 52.1771 50.9083 52.1771 51.6369C52.1771 54.1987 52.1771 56.7585 52.1771 59.3182C52.1899 59.4543 52.164 59.5912 52.1023 59.7132C52.0405 59.8351 51.9456 59.9371 51.8284 60.0074C51.2616 60.3998 50.7052 60.7901 50.043 61.1804Z" fill="white"/>
<path d="M32.7 61.5521C30.7118 61.5704 28.7281 61.3615 26.7875 60.9293C26.0837 60.7819 25.7079 60.2421 25.8491 59.6172C25.9903 58.9923 26.5529 58.6768 27.2546 58.8345C29.5526 59.356 31.9143 59.5399 34.2653 59.3805C34.639 59.3556 34.7677 59.4428 34.7345 59.829C34.6971 60.2357 34.6971 60.645 34.7345 61.0517C34.7697 61.4379 34.6057 61.5521 34.2611 61.5479C33.7421 61.5458 33.2127 61.5521 32.7 61.5521Z" fill="white"/>
<path d="M36.8437 64.0018C36.8437 63.4932 36.8437 62.9866 36.8437 62.4801C36.8271 61.7846 37.3938 61.4421 37.9294 61.4794C38.2047 61.4794 38.4688 61.5888 38.6634 61.7835C38.8581 61.9781 38.9674 62.2422 38.9674 62.5175C38.982 63.3479 38.9674 64.1783 38.9674 65.0087C38.9674 65.6813 38.9674 65.7041 38.3156 65.7789L37.3274 65.893C36.8748 65.947 36.8084 65.7809 36.8333 65.3948C36.8665 64.9422 36.8437 64.4668 36.8437 64.0018Z" fill="white"/>
<path d="M33.2605 57.0697C32.9096 57.0697 32.5567 57.0697 32.2058 57.0697C31.929 57.0654 31.6639 56.9578 31.4622 56.7681C31.2606 56.5784 31.1371 56.3202 31.1159 56.0442C31.1063 55.773 31.2007 55.5085 31.3798 55.3047C31.5588 55.1009 31.8091 54.9733 32.0792 54.948C32.8909 54.8878 33.7068 54.8961 34.5227 54.8712C34.7012 54.8712 34.7303 54.9709 34.7303 55.1141C34.7303 55.6622 34.7303 56.2102 34.7303 56.7583C34.7303 56.9846 34.6369 57.0905 34.4002 57.0842C34.0203 57.0739 33.6425 57.0842 33.2625 57.0842L33.2605 57.0697Z" fill="white"/>
</svg>
