<svg width="56" height="67" viewBox="0 0 56 67" fill="none" xmlns="http://www.w3.org/2000/svg">
<path d="M47.9049 32.6155C50.6981 29.0821 52.2143 24.7079 52.2071 20.2039C52.2071 9.12414 43.2302 0.510254 32.1552 0.510254H7.80573V3.01615H31.6153C41.4032 3.01615 49.3381 10.5951 49.3381 20.383C49.3441 24.1882 48.1203 27.8934 45.8492 30.9465L47.9049 32.6155Z" fill="white"/>
<path d="M45.1892 30.541C47.8539 27.832 49.3452 24.1829 49.3405 20.383C49.3405 16.5371 47.8129 12.8486 45.0936 10.1289C42.3744 7.40922 38.6862 5.881 34.8403 5.88037H14.2509V8.38863H35.3754C36.9276 8.3877 38.4647 8.69262 39.899 9.28598C41.3333 9.87933 42.6367 10.7495 43.7346 11.8467C44.8325 12.944 45.7034 14.2468 46.2976 15.6807C46.8918 17.1147 47.1977 18.6517 47.1977 20.2038C47.1997 21.9273 46.8237 23.6302 46.0963 25.1926C45.3688 26.7551 44.3076 28.1389 42.9874 29.2468L45.1892 30.541Z" fill="white"/>
<path d="M41.217 28.6504C44.6046 27.1699 47.1977 23.945 47.1977 20.2038C47.1977 15.0624 42.3132 10.8945 37.1717 10.8945H19.2627V12.3255H36.9878C41.2311 12.3255 45.4014 15.7743 45.4014 20.0247C45.4014 23.4688 42.6715 26.3896 39.3735 27.3679L41.217 28.6504Z" fill="white"/>
<path d="M0.643921 64.247H4.58311V66.7529H0.643921V64.247Z" fill="white"/>
<path d="M4.58319 59.2327H20.3376V61.0219H4.58319V59.2327Z" fill="white"/>
<path d="M4.58319 48.134H21.4126V49.5673H4.58319V48.134Z" fill="white"/>
<path d="M24.6351 48.134H35.3777V49.5673H24.6351V48.134Z" fill="white"/>
<path d="M7.80573 43.12H13.5342V44.5533H7.80573V43.12Z" fill="white"/>
<path d="M16.7568 43.12H35.3754V44.5533H16.7568V43.12Z" fill="white"/>
<path d="M22.8435 20.5621H35.017V21.9954H22.8435V20.5621Z" fill="white"/>
<path d="M8.52237 10.8945H15.3258V12.3278H8.52237V10.8945Z" fill="white"/>
<path d="M10.3116 16.2646H35.3754V17.6979H10.3116V16.2646Z" fill="white"/>
<path d="M3.86652 20.5621H19.2626V21.9954H3.86652V20.5621Z" fill="white"/>
<path d="M8.16403 63.8887V66.3946H35.3753C46.455 66.3946 55.4272 57.776 55.4272 46.701C55.4272 41.3829 53.3146 36.2826 49.5542 32.5221C45.7937 28.7617 40.6934 26.649 35.3753 26.649H17.8317V28.799H34.8402C39.5408 28.7996 44.0487 30.6674 47.3723 33.9914C50.6959 37.3154 52.563 41.8236 52.563 46.5242C52.563 56.3144 44.6281 63.891 34.8402 63.891L8.16403 63.8887Z" fill="white"/>
<path d="M12.4591 32.0192V34.5274H38.5978C40.1496 34.5271 41.6863 34.8325 43.12 35.4261C44.5538 36.0198 45.8566 36.89 46.954 37.9872C48.0514 39.0844 48.9219 40.387 49.5158 41.8206C50.1097 43.2542 50.4154 44.7908 50.4154 46.3426C50.4154 49.4769 49.1703 52.4827 46.9541 54.6989C44.7379 56.9151 41.732 58.1602 38.5978 58.1602H23.2017V61.0244H38.0533C39.9577 61.0244 41.8434 60.6493 43.6028 59.9204C45.3622 59.1916 46.9608 58.1233 48.3073 56.7766C49.6539 55.4298 50.7219 53.8311 51.4505 52.0715C52.179 50.312 52.5539 48.4262 52.5535 46.5218C52.5535 42.6759 51.0259 38.9874 48.3067 36.2677C45.5874 33.548 41.8992 32.0198 38.0533 32.0192H12.4591Z" fill="white"/>
<path d="M19.9793 37.3916V38.8225H40.2104C44.4536 38.8225 48.6239 42.2714 48.6239 46.5218C48.6239 50.765 44.4631 54.221 40.2104 54.221H0.285675V56.0102H40.3895C45.531 56.0102 50.4155 51.8424 50.4155 46.7009C50.4155 41.5595 45.531 37.3916 40.3895 37.3916H19.9793Z" fill="white"/>
</svg>
