<svg width="187" height="52" viewBox="0 0 187 52" fill="none" xmlns="http://www.w3.org/2000/svg">
<path d="M0.298372 26.2441C0.298372 20.223 0.298372 14.2019 0.298372 8.18079C0.298372 3.48434 3.02794 0.769826 7.71436 0.767317C11.7686 0.767317 15.8228 0.792405 19.8795 0.749756C20.8228 0.749756 21.4048 1.06085 21.9367 1.84108C23.7505 4.49789 25.5895 7.14215 27.5338 9.70363C28.2864 10.7071 28.1936 11.3594 27.4987 12.3052C25.0501 15.6394 22.6918 19.0413 20.2859 22.4056C18.2789 25.2205 18.2789 27.2752 20.2859 30.0926C22.7947 33.6049 25.2558 37.1172 27.7772 40.6094C28.2438 41.2567 28.2789 41.7158 27.8047 42.3656C25.7425 45.2055 23.7531 48.0982 21.6733 50.9256C21.4982 51.14 21.2819 51.3172 21.0371 51.4465C20.7923 51.5757 20.5241 51.6545 20.2483 51.6782C15.7751 51.7334 11.3019 51.7635 6.82875 51.6932C3.11574 51.633 0.330986 48.6576 0.305899 44.8016C0.283319 38.625 0.298372 32.4358 0.298372 26.2441Z" fill="white"/>
<path d="M26.8915 0.696366C33.2638 0.696366 39.4028 0.616084 45.5393 0.731489C48.6201 0.789191 51.0311 3.74204 51.0386 7.11887C51.0587 14.8961 51.0386 22.6734 51.0386 30.4506C51.0386 35.3428 51.001 40.2349 51.0511 45.1295C51.0963 49.5977 47.5137 51.9359 44.3853 51.8381C39.039 51.6725 33.6853 51.7929 28.329 51.7929H26.9417C27.2452 51.3162 27.4434 50.97 27.6767 50.6439C32.6073 43.6928 37.5413 36.741 42.4786 29.7883C44.2975 27.2243 44.2924 25.2424 42.4786 22.6684L27.6767 1.81529C27.4484 1.52176 27.2452 1.21067 26.8915 0.696366Z" fill="white"/>
<path d="M135.442 17.1187V24.0003H136.862C141.418 24.0003 145.976 24.0254 150.532 23.9828C151.614 23.9828 152.075 24.3014 151.982 25.4153C151.911 26.25 151.911 27.0893 151.982 27.9241C152.088 29.1107 151.669 29.5372 150.432 29.5197C145.916 29.457 141.4 29.4946 136.884 29.4946H135.449V38.0245H152.231C153.804 38.0245 153.866 38.0947 153.884 39.6351C153.924 43.5338 153.924 43.5338 149.983 43.5338H130.163C128.52 43.5338 128.452 43.4685 128.452 41.8454C128.452 32.312 128.452 22.7786 128.452 13.2452C128.452 11.642 128.55 11.5467 130.163 11.5442H152.241C153.746 11.5442 153.869 11.6772 153.881 13.2C153.881 13.9928 153.834 14.7931 153.894 15.5833C153.987 16.8076 153.437 17.1689 152.263 17.1589C146.706 17.0961 141.147 17.1187 135.442 17.1187Z" fill="white"/>
<path d="M110.372 32.0738C108.239 35.0518 106.107 37.7362 104.313 40.6414C103.016 42.7513 101.485 43.5089 99.0443 43.3358C95.8205 43.1075 95.808 43.2781 95.808 40.0744C95.808 31.1255 95.8306 22.1767 95.7829 13.2303C95.7829 12.006 96.1442 11.5946 97.3459 11.6924C98.4673 11.7853 99.6038 11.71 100.73 11.7125C102.406 11.7075 102.406 11.7075 102.406 13.3507C102.406 18.9136 102.406 24.4756 102.406 30.0367V31.3563L102.677 31.4165C102.945 31.0603 103.224 30.7116 103.48 30.3478C107.549 24.5249 111.633 18.712 115.67 12.8691C116.255 12.0236 116.879 11.6423 117.928 11.6824C120.013 11.7627 122.105 11.7075 124.451 11.7075C124.137 12.2092 123.929 12.5856 123.698 12.9343C120.72 17.2268 117.777 21.5444 114.777 25.8194C114.318 26.4742 114.32 26.9233 114.757 27.5756C117.824 32.2168 120.866 36.8698 123.881 41.5345C124.132 41.9259 124.22 42.4251 124.383 42.8742C123.927 42.9971 123.472 43.2129 123.013 43.2254C121.468 43.2706 119.92 43.1928 118.377 43.263C117.547 43.3032 117.095 42.9921 116.679 42.3072C114.646 38.9504 112.567 35.6238 110.372 32.0738Z" fill="white"/>
<path d="M186.611 43.2983C183.746 43.2983 181.298 43.3309 178.849 43.2581C178.515 43.2581 178.126 42.7564 177.886 42.4001C175.939 39.5276 174.022 36.6299 172.09 33.7548C171.865 33.4162 171.616 33.0925 171.293 32.6485C170.986 33.0549 170.731 33.361 170.51 33.6921C168.55 36.6023 166.631 39.5552 164.624 42.4127C164.43 42.6557 164.189 42.8576 163.916 43.0067C163.643 43.1557 163.343 43.2489 163.034 43.2807C160.831 43.3786 158.623 43.3209 156.134 43.3209C156.366 42.8215 156.622 42.3342 156.902 41.8607C160.053 37.2295 163.194 32.5933 166.393 27.9947C166.972 27.1643 167.045 26.5973 166.433 25.7167C163.593 21.6349 160.841 17.4904 158.061 13.3684C157.788 12.9595 157.537 12.538 157.253 12.0864C157.464 11.9259 157.587 11.7502 157.712 11.7477C159.928 11.7226 162.143 11.68 164.356 11.7477C164.74 11.7477 165.209 12.2219 165.46 12.5957C167.178 15.1672 168.846 17.7713 170.535 20.373C170.786 20.7543 171.037 21.1256 171.395 21.6424C171.691 21.236 171.937 20.9324 172.148 20.6038C173.749 18.095 175.387 15.6313 176.915 13.0774C177.522 12.0739 178.189 11.5897 179.406 11.6775C180.944 11.7904 182.497 11.7001 184.045 11.7076C184.441 11.7076 184.837 11.7578 185.505 11.8004C185.176 12.3925 185.003 12.7839 184.752 13.1376C181.927 17.3825 179.122 21.6399 176.24 25.8446C175.63 26.7352 175.57 27.3173 176.225 28.2355C179.401 32.6936 182.497 37.217 185.603 41.7203C185.864 42.1217 186.117 42.5356 186.611 43.2983Z" fill="white"/>
<path d="M31.583 18.2506C33.3718 20.8021 35.0677 23.1653 36.6809 25.5838C36.7847 25.8008 36.8363 26.039 36.8315 26.2795C36.8267 26.52 36.7657 26.756 36.6533 26.9687C35.0527 29.357 33.3718 31.6927 31.5755 34.2442C29.8193 31.7078 28.1109 29.347 26.5178 26.9185C26.287 26.5672 26.3522 25.7669 26.6006 25.3906C28.1686 23.0374 29.8269 20.7393 31.583 18.2506Z" fill="white"/>
<path d="M86.1141 26.7202C85.979 26.6328 85.8499 26.5364 85.7277 26.4317L86.1141 26.1809C89.0594 24.2591 90.4744 21.6199 89.7744 18.0775C89.1372 14.8787 86.5456 12.2094 82.9856 11.9761C76.8667 11.5797 70.7177 11.6474 64.5812 11.5396C63.8034 11.5396 63.6604 12.0739 63.6629 12.7413C63.6629 22.6092 63.6629 32.4771 63.6629 42.345C63.6629 43.208 64.0217 43.5367 64.8672 43.5241C70.9259 43.4338 76.9871 43.4514 83.0408 43.2582C87.3409 43.1202 90.7503 39.9616 91.4578 35.8046C92.1653 31.6475 90.3439 28.5742 86.1141 26.7202ZM70.4843 17.8893C70.4843 17.1693 70.7854 16.951 71.4653 16.9686C74.2576 17.0388 77.0523 17.0162 79.8396 17.1492C82.0122 17.2521 83.2089 18.4663 83.2641 20.368C83.3268 22.375 82.0749 23.7523 79.9324 24.0158C79.1472 24.1136 78.3519 24.1512 77.5616 24.1763C76.7714 24.2014 75.9786 24.1763 75.1858 24.1763V24.2089C73.9314 24.2089 72.677 24.1813 71.4352 24.2089C70.7252 24.229 70.4743 23.9405 70.4843 23.2531C70.5094 21.4702 70.5094 19.6822 70.4843 17.8893ZM84.5009 34.1437C84.4131 36.1508 83.0408 37.6837 80.9159 37.7915C77.7498 37.9546 74.5737 37.9596 71.4 37.9797C71.104 37.9797 70.5521 37.6059 70.5471 37.3976C70.4868 34.8613 70.5069 32.3274 70.5069 29.5326C74.2199 29.6881 77.7648 29.7132 81.2947 30.0344C83.3896 30.2275 84.5938 32.0288 84.5009 34.1437Z" fill="white"/>
</svg>
