<svg width="255" height="57" viewBox="0 0 255 57" fill="none" xmlns="http://www.w3.org/2000/svg">
<path fill-rule="evenodd" clip-rule="evenodd" d="M15.1056 2.32743V30.9908H28.9881C36.9093 30.9908 43.3198 24.5803 43.3198 16.6591C43.3198 8.7379 36.9093 2.32743 29.0289 2.32743H15.1056ZM37.0727 2.32743C42.054 5.14477 45.443 10.4936 45.443 16.6591C45.443 22.8246 42.054 28.1734 37.0727 30.9908H41.6457C49.5669 30.9908 55.9774 24.5803 55.9774 16.6591C55.9774 8.7379 49.5669 2.32743 41.6457 2.32743H37.0727ZM35.1536 33.0732H29.0289H25.5175L36.7052 54.1419H45.443C45.7288 54.1419 46.0555 54.1419 46.3413 54.1011L35.1536 33.0732ZM37.5626 33.0732L48.5053 53.6928C52.8334 52.3862 55.9774 48.3848 55.9774 43.6076C55.9774 37.8096 51.2818 33.0732 45.443 33.0732H41.6457H37.5626ZM15.1056 33.0732H23.1085L34.2961 54.1419H15.1056V33.0732ZM13.0232 30.95V2.32743H2.48881V30.9908H13.0232V30.95ZM13.0232 0.204224H2.48881H0.365601V2.32743V30.9908V33.114V54.1828V56.306H2.48881H13.0232H15.1464H45.4838C52.4659 56.306 58.1414 50.6305 58.1414 43.6484C58.1414 37.8504 54.2217 32.9507 48.8728 31.4808C54.3442 28.8267 58.1414 23.1921 58.1414 16.6999C58.1414 7.63546 50.7919 0.285886 41.7274 0.285886H29.0698H15.1872H13.0232V0.204224ZM13.0232 33.0732H2.48881V54.1419H13.0232V33.0732Z" fill="white"/>
<path d="M86.3558 18.5374C91.1738 18.5374 93.1745 20.7831 93.1745 24.1312C93.1745 26.4994 92.1538 27.8876 90.2347 28.6634C92.1538 29.4392 93.2562 30.95 93.2562 33.3182C93.2562 36.5846 91.2147 38.912 86.4374 38.912H77.373C76.2297 38.912 75.6989 38.3812 75.6989 37.2379V20.2114C75.6989 19.109 76.2297 18.5374 77.373 18.5374H86.3558ZM79.2103 27.1527H86.4374C88.5606 27.1527 89.5814 26.3769 89.5814 24.7028C89.5814 23.1104 88.6423 22.0488 86.4783 22.0488H79.6187C79.3737 22.0488 79.2103 22.1713 79.2103 22.4163V27.1527ZM79.2103 35.0331C79.2103 35.2781 79.3737 35.3597 79.6187 35.3597H86.5599C88.6831 35.3597 89.7039 34.3798 89.7039 32.7057C89.7039 30.9908 88.6423 30.0925 86.5599 30.0925H79.2103V35.0331Z" fill="white"/>
<path d="M108.404 18.5372C112.978 18.5372 114.937 21.3546 114.937 24.621C114.937 27.1526 113.712 29.8882 110.609 30.7457L115.346 38.9119H111.426L106.771 31.0315H101.463C101.137 31.0315 100.932 31.1948 100.932 31.5623V38.9119H97.3801V30.8274C97.3801 28.5408 98.36 27.6017 100.565 27.6017H108.486C110.528 27.6017 111.303 26.2135 111.303 24.7844C111.303 23.3553 110.446 22.0895 108.486 22.0895H97.3392V18.5372H108.404Z" fill="white"/>
<path d="M136.169 27.806V30.8684H125.39V27.806H136.169Z" fill="white"/>
<path d="M164.425 18.5372V22.0895H156.054C152.134 22.0895 150.42 24.0494 150.42 28.745C150.42 33.3997 152.094 35.3596 156.054 35.3596H159.443C161.444 35.3596 162.261 34.1347 162.261 32.5014C162.261 30.8682 161.403 29.8882 159.77 29.8882H155.238V26.7851H160.137C163.771 26.7851 165.527 29.0308 165.527 32.5423C165.527 36.0946 163.73 38.9119 159.198 38.9119H156.054C150.093 38.9119 146.867 35.5638 146.867 28.745C146.867 21.8854 150.175 18.5372 156.054 18.5372H164.425Z" fill="white"/>
<path d="M180.553 18.5372C185.126 18.5372 187.086 21.3546 187.086 24.621C187.086 27.1526 185.861 29.8882 182.758 30.7457L187.494 38.9119H183.533L178.879 31.0315H173.571C173.244 31.0315 173.04 31.1948 173.04 31.5623V38.9119H169.488V30.8274C169.488 28.5408 170.468 27.6017 172.672 27.6017H180.594C182.635 27.6017 183.411 26.2135 183.411 24.7844C183.411 23.3553 182.554 22.0895 180.594 22.0895H169.447V18.5372H180.553Z" fill="white"/>
<path d="M201.907 18.5372C207.828 18.5372 211.094 21.9262 211.094 28.7858C211.094 35.6046 207.828 38.9119 201.907 38.9119H199.131C193.17 38.9119 189.944 35.6046 189.944 28.7858C189.944 21.9262 193.251 18.5372 199.131 18.5372H201.907ZM199.131 22.0895C195.211 22.0895 193.496 24.0902 193.496 28.745C193.496 33.3997 195.17 35.3188 199.131 35.3188H201.907C205.827 35.3188 207.501 33.3997 207.501 28.7041C207.501 24.0494 205.827 22.0487 201.907 22.0487H199.131V22.0895Z" fill="white"/>
<path d="M218.771 18.5372V32.1339C218.771 34.1755 219.791 35.3188 222.16 35.3188H225.794C228.08 35.3188 229.142 34.1347 229.142 32.1339V18.5372H232.653V32.4198C232.653 36.707 230.408 38.9119 226.039 38.9119H221.751C217.423 38.9119 215.178 36.707 215.178 32.4198V18.5372H218.771Z" fill="white"/>
<path d="M247.761 18.5372C252.334 18.5372 254.294 21.3545 254.294 24.621C254.294 27.6833 252.497 31.0314 247.761 31.0314H241.432C241.105 31.0314 240.901 31.1948 240.901 31.5623V38.9118H237.349V30.8273C237.349 28.5408 238.329 27.6016 240.533 27.6016H247.883C249.925 27.6016 250.7 26.2134 250.7 24.7843C250.7 23.3144 249.843 22.0486 247.883 22.0486H237.308V18.4963H247.761V18.5372Z" fill="white"/>
</svg>
