<svg width="211" height="64" viewBox="0 0 211 64" fill="none" xmlns="http://www.w3.org/2000/svg">
<path d="M31.7183 22.3566C49.1046 22.3566 63.1993 26.5094 63.1993 31.6321C63.1993 14.2457 49.1046 0.151123 31.7183 0.151123C14.332 0.151123 0.237396 14.2457 0.237396 31.6321C0.237396 26.5094 14.332 22.3566 31.7183 22.3566Z" fill="white"/>
<path d="M31.7183 40.9067C14.332 40.9067 0.237377 36.755 0.237377 31.6323C0.237377 49.0186 14.332 63.1122 31.7183 63.1122C49.1046 63.1122 63.1992 49.0208 63.1992 31.6323C63.1992 36.755 49.1046 40.9067 31.7183 40.9067Z" fill="#AAAAAA"/>
<path d="M31.7183 40.9077C49.1047 40.9077 63.1992 36.7549 63.1992 31.6322C63.1992 26.5095 49.1047 22.3567 31.7183 22.3567C14.3319 22.3567 0.237377 26.5095 0.237377 31.6322C0.237377 36.7549 14.3319 40.9077 31.7183 40.9077Z" fill="#EDEDED"/>
<path d="M93.114 21.0003C93.1276 22.2939 92.8873 23.5775 92.4068 24.7785C91.9558 25.9019 91.2792 26.9207 90.4186 27.7721C89.5336 28.6328 88.4815 29.3029 87.3272 29.7408C86.0464 30.226 84.6859 30.4659 83.3164 30.448H75.9817C76.1572 24.1176 75.8343 17.8238 75.9817 11.5666H83.3164C84.6863 11.5488 86.0472 11.7906 87.3272 12.2792C88.48 12.7221 89.5315 13.3932 90.4186 14.2522C91.28 15.1004 91.9568 16.1174 92.4068 17.2393C92.8859 18.4348 93.1262 19.7125 93.114 21.0003ZM88.6296 21.0003C88.6411 20.1444 88.5187 19.292 88.2669 18.474C88.0522 17.7727 87.6974 17.1223 87.2238 16.5622C86.7683 16.0386 86.1986 15.6265 85.5586 15.3577C84.8477 15.0661 84.0847 14.9225 83.3164 14.9358H80.3886V27.0788H83.3164C84.0847 27.0921 84.8477 26.9486 85.5586 26.6569C86.1988 26.3886 86.7686 25.9764 87.2238 25.4524C87.6974 24.8923 88.0522 24.2419 88.2669 23.5407C88.5193 22.7179 88.6417 21.8608 88.6296 21.0003Z" fill="white"/>
<path d="M103.609 11.5668H99.1258L91.8169 30.4482H95.2378C95.5669 30.4588 95.8896 30.3558 96.1517 30.1565C96.3775 29.9879 96.554 29.762 96.663 29.5021L97.7781 26.2104L103.959 23.2298H98.7921L100.528 18.0856C100.658 17.7569 100.796 17.368 100.943 16.9187C101.09 16.4695 101.228 15.9815 101.357 15.4548C101.505 15.9729 101.652 16.4544 101.799 16.8993C101.945 17.3443 102.082 17.7311 102.21 18.0597L103.959 23.2265L104.957 26.2071L106.071 29.4988C106.186 29.7677 106.37 30.0021 106.603 30.1791C106.871 30.3675 107.195 30.461 107.523 30.445H110.918L103.609 11.5668Z" fill="white"/>
<path d="M127.748 30.4482H123.782C123.047 30.4482 122.52 30.1716 122.201 29.6183L119.065 24.1372C118.946 23.91 118.761 23.7241 118.535 23.6038C118.308 23.4836 118.05 23.4346 117.795 23.4633H116.68V30.4482H112.3V11.5668H118.443C119.807 11.5668 120.971 11.7074 121.935 11.9887C122.9 12.27 123.686 12.6608 124.294 13.1609C124.879 13.6308 125.336 14.2415 125.622 14.936C125.903 15.6451 126.044 16.4023 126.036 17.1652C126.04 17.7529 125.957 18.3379 125.791 18.9015C125.629 19.4384 125.384 19.9468 125.065 20.4085C124.737 20.8792 124.337 21.2964 123.881 21.6453C123.385 22.0221 122.837 22.3238 122.253 22.5409C122.542 22.6909 122.812 22.876 123.057 23.092C123.315 23.3219 123.542 23.5854 123.731 23.8756L127.748 30.4482ZM118.443 20.444C118.96 20.4565 119.475 20.3797 119.965 20.2169C120.351 20.0863 120.703 19.8716 120.995 19.5882C121.261 19.3253 121.461 19.0033 121.579 18.6485C121.702 18.2746 121.764 17.883 121.761 17.4892C121.761 16.6604 121.491 16.0124 120.95 15.5452C120.41 15.078 119.574 14.8448 118.443 14.8455H116.68V20.4429L118.443 20.444Z" fill="white"/>
<path d="M133.452 19.2122H134.091C134.683 19.2122 135.109 19.0092 135.37 18.603L139.254 12.4351C139.437 12.1477 139.692 11.9132 139.994 11.7548C140.306 11.6201 140.644 11.5558 140.983 11.5664H144.464L139.346 19.2036C138.984 19.7311 138.593 20.1114 138.174 20.3446C138.473 20.4645 138.75 20.6353 138.991 20.8495C139.26 21.0949 139.491 21.3785 139.678 21.6912L144.889 30.4522H141.313C141.116 30.4552 140.919 30.4379 140.726 30.4005C140.579 30.3706 140.437 30.3179 140.306 30.2444C140.19 30.178 140.086 30.0924 139.998 29.9915C139.905 29.8844 139.822 29.7696 139.749 29.6481L135.841 23.082C135.72 22.8593 135.531 22.6801 135.303 22.5696C135.023 22.4592 134.722 22.4086 134.421 22.421H133.453V30.4554H129.45V11.5664H133.453L133.452 19.2122Z" fill="white"/>
<path d="M152.701 11.5668C153.989 11.5668 155.095 11.7246 156.02 12.0404C156.945 12.3561 157.706 12.7903 158.303 13.3429C158.892 13.8823 159.345 14.5526 159.627 15.2998C159.918 16.0788 160.063 16.9043 160.057 17.7357C160.068 18.6187 159.919 19.4963 159.618 20.3267C159.336 21.097 158.876 21.79 158.276 22.3493C157.673 22.9101 156.898 23.318 155.986 23.6636C154.642 24.1802 151.76 24.1372 150.497 24.1372V30.4482H146.257V11.5668H152.701ZM152.701 20.8326C153.805 20.8326 154.599 20.5606 155.084 20.0167C155.57 19.4727 155.812 18.7124 155.812 17.7357C155.818 17.3331 155.754 16.9326 155.624 16.5517C155.505 16.2078 155.31 15.8953 155.053 15.6378C154.778 15.3715 154.447 15.1702 154.084 15.049C153.638 14.9013 153.169 14.8311 152.698 14.8412H150.489V20.8283L152.701 20.8326Z" fill="white"/>
<path d="M178.617 21.0006C178.628 22.2983 178.412 23.5879 177.979 24.8111C177.581 25.938 176.971 26.9783 176.182 27.8757C175.407 28.7477 174.455 29.4449 173.39 29.9209C172.243 30.4082 171.01 30.6593 169.764 30.6593C168.518 30.6593 167.285 30.4082 166.138 29.9209C165.069 29.4457 164.113 28.7485 163.334 27.8757C162.541 26.98 161.929 25.9393 161.531 24.8111C160.68 22.3424 160.68 19.6598 161.531 17.1911C161.928 16.0644 162.54 15.0257 163.334 14.133C164.115 13.2653 165.071 12.5724 166.138 12.0997C167.281 11.5966 168.518 11.3447 169.767 11.3613C171.014 11.3445 172.25 11.5986 173.39 12.1061C174.453 12.5851 175.405 13.2818 176.182 14.1513C176.972 15.0457 177.582 16.084 177.979 17.2094C178.411 18.4263 178.627 19.7093 178.617 21.0006ZM174.566 21.0006C174.579 20.1495 174.47 19.3011 174.244 18.4807C174.055 17.7931 173.735 17.1484 173.302 16.5819C172.9 16.0713 172.384 15.663 171.795 15.3903C171.159 15.1048 170.467 14.9633 169.77 14.9759C169.066 14.9626 168.368 15.1041 167.725 15.3903C167.135 15.6627 166.619 16.0711 166.218 16.5819C165.785 17.1484 165.465 17.7931 165.276 18.4807C164.837 20.1385 164.837 21.882 165.276 23.5398C165.465 24.2275 165.785 24.8722 166.218 25.4387C166.618 25.9484 167.135 26.3544 167.725 26.6227C168.369 26.9047 169.067 27.0439 169.77 27.0307C170.466 27.0432 171.157 26.904 171.795 26.6227C172.384 26.3541 172.901 25.9481 173.302 25.4387C173.735 24.8722 174.055 24.2275 174.244 23.5398C174.471 22.7131 174.58 21.858 174.566 21.0006Z" fill="white"/>
<path d="M197.688 21.0003C197.699 22.298 197.483 23.5877 197.05 24.8108C196.652 25.9377 196.042 26.978 195.253 27.8754C194.478 28.7475 193.526 29.4447 192.461 29.9206C191.314 30.4079 190.081 30.659 188.835 30.659C187.589 30.659 186.356 30.4079 185.209 29.9206C184.142 29.4448 183.188 28.7476 182.41 27.8754C181.617 26.9797 181.005 25.9391 180.607 24.8108C179.756 22.3421 179.756 19.6596 180.607 17.1909C181.002 16.0647 181.612 15.0261 182.403 14.1328C183.182 13.2653 184.136 12.572 185.201 12.0983C186.344 11.5952 187.582 11.3434 188.83 11.3599C190.077 11.3432 191.314 11.5973 192.453 12.1048C193.517 12.5838 194.468 13.2805 195.246 14.15C196.035 15.0444 196.645 16.0827 197.042 17.2081C197.477 18.4248 197.695 19.7082 197.688 21.0003ZM193.637 21.0003C193.65 20.1493 193.541 19.3008 193.314 18.4804C193.126 17.7928 192.806 17.1481 192.373 16.5816C191.971 16.0711 191.455 15.6628 190.866 15.39C190.229 15.1045 189.538 14.963 188.841 14.9756C188.137 14.9623 187.439 15.1038 186.796 15.39C186.206 15.6625 185.69 16.0708 185.289 16.5816C184.856 17.1481 184.536 17.7928 184.347 18.4804C183.908 20.1383 183.908 21.8817 184.347 23.5396C184.536 24.2272 184.856 24.8719 185.289 25.4384C185.689 25.9481 186.206 26.3542 186.796 26.6224C187.44 26.9045 188.138 27.0436 188.841 27.0304C189.537 27.0429 190.228 26.9037 190.866 26.6224C191.455 26.3539 191.972 25.9478 192.373 25.4384C192.806 24.8719 193.126 24.2272 193.314 23.5396C193.542 22.7127 193.65 21.8577 193.636 21.0003H193.637Z" fill="white"/>
<path d="M210.967 26.9542V30.4536H199.589V11.5668H203.969V26.9542H210.967Z" fill="white"/>
<path d="M87.6953 48.4987V51.9971H76.3176V33.1167H80.6975V48.4987H87.6953Z" fill="white"/>
<path d="M94.9762 51.9971H90.5704V33.1167H94.9762V51.9971Z" fill="white"/>
<path d="M118.344 55.5349H114.741C114.269 55.5419 113.799 55.474 113.348 55.3336C112.911 55.1826 112.518 54.9269 112.202 54.5887L109.852 51.958C109.074 52.1269 108.28 52.2096 107.484 52.2045C106.11 52.222 104.745 51.9712 103.467 51.4661C102.311 51.0124 101.261 50.3248 100.383 49.4462C99.5058 48.5676 98.8193 47.5171 98.3669 46.3606C97.4254 43.9079 97.4254 41.1934 98.3669 38.7406C98.8178 37.5965 99.4968 36.556 100.363 35.6825C101.249 34.8009 102.305 34.1087 103.467 33.6481C104.745 33.1422 106.11 32.891 107.484 32.9086C108.857 32.8906 110.22 33.1442 111.495 33.6546C112.652 34.1207 113.704 34.8164 114.585 35.6998C115.448 36.5747 116.124 37.6149 116.574 38.7579C117.051 39.9663 117.291 41.2553 117.281 42.5544C117.284 43.3411 117.199 44.1256 117.028 44.8934C116.867 45.6206 116.623 46.327 116.302 46.9989C115.989 47.6537 115.597 48.2682 115.136 48.8288C114.675 49.3864 114.147 49.8847 113.563 50.3121L118.344 55.5349ZM102.146 42.5501C102.134 43.4085 102.256 44.2635 102.509 45.084C102.723 45.7813 103.078 46.4272 103.552 46.9817C104.009 47.5019 104.581 47.9074 105.224 48.1658C105.943 48.4487 106.711 48.5873 107.484 48.5737C108.251 48.5871 109.012 48.4484 109.725 48.1658C110.365 47.9062 110.935 47.5007 111.39 46.9817C111.865 46.4275 112.22 45.7815 112.433 45.084C112.917 43.4341 112.917 41.6801 112.433 40.0302C112.22 39.3324 111.865 38.686 111.39 38.1314C110.935 37.6109 110.365 37.2028 109.725 36.9387C109.013 36.6523 108.251 36.5114 107.484 36.5243C106.711 36.5111 105.942 36.652 105.224 36.9387C104.582 37.2016 104.009 37.6098 103.552 38.1314C103.078 38.6863 102.723 39.3325 102.509 40.0302C102.257 40.846 102.134 41.6963 102.146 42.5501Z" fill="white"/>
<path d="M128.17 48.5375C128.709 48.5467 129.244 48.4475 129.745 48.2458C130.194 48.0606 130.595 47.7749 130.917 47.4105C131.25 47.0233 131.5 46.5709 131.649 46.0822C131.825 45.5048 131.911 44.9033 131.902 44.2996V33.1167H136.282V44.2996C136.294 45.3883 136.103 46.4697 135.718 47.488C135.361 48.4256 134.811 49.2776 134.103 49.9885C133.376 50.7059 132.506 51.2622 131.55 51.6214C129.356 52.4003 126.962 52.4003 124.768 51.6214C123.814 51.2618 122.947 50.7058 122.221 49.9896C121.515 49.2788 120.968 48.4261 120.617 47.488C120.236 46.4686 120.047 45.3876 120.06 44.2996V33.1167H124.44V44.2845C124.431 44.8882 124.516 45.4896 124.692 46.0671C124.843 46.5572 125.092 47.0113 125.425 47.4018C125.745 47.7697 126.146 48.0579 126.597 48.2436C127.096 48.446 127.631 48.5459 128.17 48.5375Z" fill="white"/>
<path d="M144.223 51.9971H139.818V33.1167H144.223V51.9971Z" fill="white"/>
<path d="M165.324 42.5502C165.338 43.8433 165.098 45.1265 164.618 46.3274C164.168 47.4513 163.491 48.4703 162.629 49.3209C161.745 50.1823 160.693 50.8528 159.539 51.2907C158.258 51.7754 156.897 52.0149 155.528 51.9969H148.193V33.1165H155.528C156.898 33.0989 158.259 33.3407 159.539 33.8291C160.691 34.271 161.742 34.941 162.629 35.7989C163.491 36.6468 164.168 37.6638 164.618 38.786C165.097 39.9826 165.337 41.2614 165.324 42.5502ZM160.841 42.5502C160.852 41.6944 160.73 40.842 160.478 40.0239C160.264 39.3225 159.909 38.6721 159.435 38.1121C158.979 37.5886 158.41 37.1763 157.77 36.9066C157.059 36.6159 156.296 36.4727 155.528 36.4857H152.599V48.6277H155.528C156.296 48.6412 157.059 48.498 157.77 48.2068C158.41 47.9375 158.98 47.5251 159.435 47.0012C159.909 46.4417 160.264 45.7916 160.478 45.0906C160.73 44.2677 160.853 43.4107 160.841 42.5502Z" fill="white"/>
<path d="M172.645 51.9971H168.239V33.1167H172.645V51.9971Z" fill="white"/>
<path d="M190.513 36.5892H185.202V51.9971H180.822V36.5892H175.508V33.1167H185.218L185.202 36.5892L185.218 33.1167H190.515L190.513 36.5892Z" fill="white"/>
<path d="M203.393 44.8228V52.0015H199.013V44.8228L192.166 33.1168H196.027C196.407 33.1168 196.707 33.2054 196.928 33.3827C197.156 33.5693 197.344 33.8008 197.479 34.063L200.149 39.5527C200.373 39.9833 200.576 40.3873 200.758 40.7647C200.94 41.1422 201.1 41.5114 201.237 41.8724C201.366 41.5014 201.515 41.1279 201.684 40.7518C201.852 40.3758 202.049 39.9761 202.274 39.5527L204.917 34.063C204.98 33.9449 205.052 33.8322 205.133 33.726C205.22 33.6117 205.323 33.5093 205.437 33.4214C205.559 33.328 205.694 33.2536 205.839 33.2008C205.998 33.1433 206.167 33.1148 206.337 33.1168H210.225L203.393 44.8228Z" fill="white"/>
</svg>
