<svg width="98" height="71" viewBox="0 0 98 71" fill="none" xmlns="http://www.w3.org/2000/svg">
<path d="M24.9196 47.0731C24.9196 47.4293 25.078 47.7461 25.3552 47.944C25.6323 48.1816 26.0281 48.2608 26.5033 48.2608C27.1368 48.2608 27.691 48.0628 28.0869 47.7065C28.4828 47.3501 28.7203 46.8751 28.7203 46.3208V45.6082L26.622 45.7269C25.4739 45.8853 24.9196 46.3208 24.9196 47.0731Z" fill="white"/>
<path d="M97.3303 15.4797C97.3303 13.421 96.7365 11.481 95.5488 9.81825L93.4901 7.71997C93.4901 7.79914 93.5296 7.91792 93.5296 7.9971C93.5296 8.07628 93.5692 8.15546 93.5692 8.19506C93.5692 8.31383 93.6088 8.4326 93.6088 8.55137C93.6088 8.63054 93.6088 8.70973 93.6484 8.78891C93.6484 8.90768 93.688 9.06604 93.688 9.18481C93.688 9.264 93.688 9.30358 93.688 9.38277C93.688 9.58071 93.688 9.77867 93.688 9.97662V54.9908C93.688 61.5232 88.3433 66.8679 81.8109 66.8679H10.5483C10.3503 66.8679 10.1524 66.8679 9.91484 66.8679C9.83566 66.8679 9.75649 66.8679 9.6773 66.8679C9.55853 66.8679 9.43976 66.8679 9.32099 66.8283C9.20222 66.8283 9.12303 66.7887 9.00426 66.7887C8.92509 66.7887 8.80632 66.7492 8.72713 66.7492C8.60836 66.7492 8.48959 66.7096 8.37082 66.67C8.29163 66.67 8.21246 66.6304 8.13328 66.6304H8.09369L8.8459 67.3826C10.7462 69.4017 13.3196 70.5102 16.091 70.5102H87.3536C92.8567 70.5102 97.3303 66.0366 97.3303 60.5335V15.4797Z" fill="white"/>
<path d="M8.45009 64.7302C8.48968 64.7302 8.56887 64.7698 8.60845 64.7698C8.72722 64.8094 8.80641 64.8094 8.92518 64.8094C8.96477 64.8094 9.04395 64.849 9.08354 64.849C9.20231 64.849 9.28149 64.8886 9.40026 64.8886C9.43985 64.8886 9.51903 64.8886 9.55862 64.9282C9.67739 64.9282 9.79616 64.9282 9.87535 64.9678C9.91494 64.9678 9.99412 64.9678 10.0337 64.9678C10.1921 64.9678 10.3504 64.9678 10.5484 64.9678H81.811C87.3141 64.9678 91.7877 60.494 91.7877 54.991V9.97677C91.7877 9.81841 91.7877 9.66004 91.7877 9.4621C91.7877 9.4225 91.7877 9.34333 91.7877 9.30373C91.7877 9.18496 91.7877 9.10579 91.7481 8.98701C91.7481 8.90783 91.7481 8.86824 91.7085 8.78906C91.7085 8.67029 91.6691 8.5911 91.6691 8.47233C91.6691 8.39316 91.6295 8.35356 91.6295 8.27439C91.6295 8.15562 91.5899 8.07643 91.5899 7.95766C91.5899 7.91807 91.5503 7.83889 91.5503 7.7993C91.5107 7.68053 91.5107 7.60135 91.4711 7.48258C91.4711 7.44299 91.4315 7.3638 91.4315 7.32422C91.3919 7.20545 91.3919 7.12626 91.3523 7.00749C91.3523 6.9679 91.3127 6.92832 91.3127 6.88872C91.2731 6.76995 91.2335 6.65118 91.1939 6.53241C91.1939 6.49282 91.1543 6.45323 91.1543 6.41363C91.1147 6.29486 91.0752 6.17609 90.996 6.05732C90.996 6.01773 90.9564 6.01773 90.9564 5.97815C90.9168 5.85938 90.8376 5.7406 90.798 5.62183C90.798 5.58224 90.7584 5.58224 90.7584 5.54265C90.6792 5.42388 90.6396 5.30511 90.5604 5.18634C90.5604 5.18634 90.5604 5.14675 90.5208 5.14675C90.4417 5.02798 90.4021 4.90921 90.3229 4.79044C90.3229 4.79044 90.323 4.75084 90.2833 4.75084C90.2042 4.63207 90.125 4.51329 90.0458 4.39454L90.0062 4.35494C89.9271 4.23617 89.8479 4.11739 89.7687 4.03822L89.7291 3.99862C89.6499 3.87985 89.5707 3.80068 89.4915 3.68191C89.4915 3.64231 89.4519 3.64231 89.4519 3.60272C89.3727 3.48395 89.2936 3.40477 89.2144 3.32559C89.1748 3.286 89.1748 3.286 89.1352 3.24641C87.3141 1.2669 84.7011 0 81.811 0H10.5484C5.08491 0 0.611206 4.47371 0.611206 9.97677V54.991C0.611206 57.8811 1.8385 60.494 3.81803 62.3152C3.85761 62.3548 3.85762 62.3548 3.8972 62.3944C3.97639 62.4736 4.09516 62.5528 4.17434 62.632C4.21393 62.632 4.21393 62.6716 4.25352 62.6716C4.37229 62.7508 4.45147 62.8298 4.57024 62.909L4.60983 62.9486C4.7286 63.0278 4.84737 63.107 4.96614 63.1862C4.96614 63.1862 5.00573 63.1862 5.00573 63.2258C5.1245 63.305 5.24327 63.3842 5.36204 63.4633C5.36204 63.4633 5.40164 63.4633 5.40164 63.5029C5.52041 63.5821 5.63918 63.6613 5.79754 63.7405H5.83713C5.9559 63.8197 6.11427 63.8593 6.23304 63.9385H6.27263C6.3914 64.0175 6.54975 64.0571 6.66853 64.0967C6.66853 64.0967 6.70812 64.0967 6.70812 64.1363C6.8269 64.1759 6.94567 64.2551 7.10402 64.2947C7.14361 64.2947 7.14361 64.2947 7.18321 64.3343C7.30198 64.3739 7.42075 64.4135 7.53951 64.4531C7.57911 64.4531 7.6187 64.4927 7.65828 64.4927C7.77705 64.5323 7.89582 64.5719 8.0146 64.6114C8.05419 64.6114 8.09378 64.651 8.13337 64.651C8.25214 64.651 8.33132 64.6906 8.45009 64.7302ZM69.3796 40.6197V42.2429H67.6376V47.0729C67.6376 47.8252 67.994 48.1814 68.7461 48.1814C68.9441 48.1814 69.1421 48.1814 69.3796 48.1418V49.7651C69.1421 49.8047 68.7461 49.8442 68.2711 49.8442C67.2814 49.8442 66.6083 49.6463 66.1728 49.2899C65.7374 48.8941 65.5394 48.2606 65.5394 47.3897V42.2825H64.2725V40.6593H65.5394V38.6006H67.6376V40.6593H69.3796V40.6197ZM78.0104 37.1357H80.1086V49.8047H78.0104V37.1357ZM73.4178 42.2033C73.5762 41.649 73.8138 41.2531 74.2096 40.9365C74.6055 40.6593 75.0807 40.5009 75.5953 40.5009C75.8724 40.5009 76.0704 40.5405 76.2288 40.5801V42.4804C76.0308 42.4013 75.7537 42.3617 75.3974 42.3617C74.8035 42.3617 74.2888 42.5596 73.9722 42.9159C73.6158 43.2723 73.4574 43.787 73.4574 44.46V49.8047H71.3592V40.6197H73.3783V42.2033H73.4178ZM54.2561 22.6853L62.2533 14.688C62.6097 14.3317 63.2432 14.3317 63.5994 14.688L71.5967 22.6853C71.953 23.0416 71.953 23.675 71.5967 24.0313C71.3988 24.2293 71.1612 24.3085 70.9237 24.3085C70.6861 24.3085 70.4486 24.2293 70.2506 24.0313L62.9264 16.7072L55.6022 24.0313C55.2458 24.3877 54.6124 24.3877 54.2561 24.0313C53.8999 23.675 53.8999 23.0416 54.2561 22.6853ZM53.6623 39.1549C54.6916 38.0463 56.0377 37.492 57.7797 37.492C59.205 37.492 60.3927 37.888 61.3428 38.6797C62.2929 39.4716 62.8472 40.5405 63.0056 41.847H60.8677C60.7093 41.0947 60.3531 40.4613 59.7988 40.0258C59.2446 39.5508 58.5715 39.3528 57.7797 39.3528C56.7503 39.3528 55.9189 39.7488 55.2854 40.5405C54.652 41.3323 54.3353 42.4013 54.3353 43.7474C54.3353 45.0935 54.652 46.202 55.2458 46.9937C55.8793 47.7856 56.7107 48.1814 57.7401 48.1814C58.5319 48.1814 59.205 47.9835 59.7592 47.5876C60.3135 47.1917 60.6697 46.5978 60.8281 45.8852H62.966C62.7681 47.1917 62.2138 48.221 61.3032 48.9337C60.3927 49.6463 59.205 50.0422 57.7401 50.0422C55.9981 50.0422 54.652 49.4879 53.6227 48.3794C52.5933 47.2709 52.1183 45.7268 52.1183 43.787C52.1183 41.8074 52.6329 40.2634 53.6623 39.1549ZM43.0125 37.1357H45.1108V44.4996H45.1503L48.6738 40.6593H51.0889L47.3674 44.6183L51.2472 49.8442H48.8322L45.8629 45.8852L45.1108 46.6374V49.8442H43.0125V37.1357ZM33.9067 41.7678C34.6985 40.8969 35.7674 40.5009 37.0739 40.5009C38.2616 40.5009 39.2118 40.8177 39.964 41.4907C40.6766 42.1242 41.0725 42.9159 41.1517 43.8661H39.1722C39.0931 43.3515 38.8951 42.9555 38.5388 42.6784C38.1824 42.3617 37.7073 42.2033 37.1135 42.2033C36.4404 42.2033 35.8862 42.4804 35.4507 42.9951C35.0549 43.5494 34.8173 44.262 34.8173 45.2121C34.8173 46.1624 35.0153 46.9145 35.4507 47.4293C35.8466 47.944 36.4008 48.221 37.1135 48.221C38.2616 48.221 38.9743 47.6668 39.1722 46.5978H41.1517C41.0725 47.5876 40.637 48.419 39.9244 49.0129C39.1722 49.6067 38.2616 49.9234 37.1135 49.9234C35.7674 49.9234 34.6985 49.4879 33.9067 48.6566C33.1149 47.8252 32.719 46.6374 32.719 45.2121C32.6794 43.787 33.1149 42.6388 33.9067 41.7678ZM28.2848 42.5201C27.9682 42.2429 27.5326 42.1242 26.9783 42.1242C26.5033 42.1242 26.1074 42.2429 25.7906 42.4409C25.474 42.6784 25.276 42.9555 25.1968 43.3514H23.2569C23.2965 42.52 23.6528 41.8074 24.3654 41.2927C25.0781 40.7385 25.949 40.5009 27.0575 40.5009C28.2057 40.5009 29.1163 40.7781 29.7892 41.3323C30.4623 41.8866 30.8187 42.5992 30.8187 43.5098V49.8047H28.7995V48.3398H28.7599C28.5224 48.8149 28.1265 49.2109 27.6118 49.4879C27.0971 49.7651 26.5429 49.9234 25.9094 49.9234C24.9989 49.9234 24.2467 49.6859 23.6924 49.1713C23.0985 48.6565 22.8214 48.0231 22.8214 47.1917C22.8214 46.3603 23.1381 45.7268 23.732 45.2913C24.3258 44.8163 25.2364 44.5787 26.3845 44.4996L28.7599 44.3412V43.6682C28.7599 43.1535 28.6016 42.7971 28.2848 42.5201ZM10.5088 37.69H12.6863V42.718H18.5853V37.69H20.7627V49.8047H18.5853V44.5391H12.6863V49.8047H10.5088V37.69Z" fill="white"/>
</svg>
