<svg width="135" height="29" viewBox="0 0 135 29" fill="none" xmlns="http://www.w3.org/2000/svg">
<path d="M0.966766 0.721436H3.90782V25.9986H19.4874V28.5422H0.966766V0.721436Z" fill="white"/>
<path d="M39.4429 28.5422L30.4608 16.3011L21.5184 28.5422H18.1402L28.7121 14.2344L18.8158 0.721436H22.1941L30.58 12.0882L38.9263 0.721436H42.1058L32.2493 14.1549L42.8609 28.5422H39.4429Z" fill="white"/>
<path d="M74.0139 0.721436V28.5422H71.1917V6.28559L60.2621 25.005H58.8711L47.9415 6.40482V28.5422H45.1197V0.721436H47.5441L59.6262 21.3485L71.5892 0.721436H74.0139Z" fill="white"/>
<path d="M81.0913 0.721436H84.0324V28.5422H81.0913V0.721436Z" fill="white"/>
<path d="M90.7789 28.7408C90.1963 28.7408 89.6931 28.5288 89.2687 28.1049C88.8712 27.681 88.6725 27.1643 88.6725 26.5549C88.6725 25.9454 88.8712 25.442 89.2687 25.0446C89.6931 24.6207 90.1963 24.4087 90.7789 24.4087C91.3623 24.4087 91.8655 24.6207 92.2892 25.0446C92.7136 25.442 92.9251 25.9454 92.9251 26.5549C92.9251 27.1643 92.7136 27.681 92.2892 28.1049C91.8655 28.5288 91.3623 28.7408 90.7789 28.7408Z" fill="white"/>
<path d="M97.5325 0.721436H100.474V28.5422H97.5325V0.721436Z" fill="white"/>
<path d="M119.7 28.7805C116.944 28.7805 114.44 28.171 112.188 26.9523C109.962 25.7069 108.214 24.0112 106.942 21.865C105.696 19.7189 105.074 17.3078 105.074 14.6316C105.074 11.9555 105.696 9.54441 106.942 7.39824C108.214 5.25206 109.962 3.56957 112.188 2.35075C114.44 1.10544 116.944 0.482788 119.7 0.482788C122.455 0.482788 124.932 1.0922 127.132 2.31101C129.357 3.52982 131.106 5.22557 132.378 7.39824C133.65 9.54441 134.286 11.9555 134.286 14.6316C134.286 17.3078 133.65 19.7321 132.378 21.9048C131.106 24.051 129.357 25.7335 127.132 26.9523C124.932 28.171 122.455 28.7805 119.7 28.7805ZM119.7 26.1574C121.899 26.1574 123.886 25.6672 125.661 24.6869C127.436 23.68 128.827 22.3022 129.834 20.5535C130.841 18.7783 131.345 16.8043 131.345 14.6316C131.345 12.459 130.841 10.4983 129.834 8.74954C128.827 6.9743 127.436 5.59651 125.661 4.61616C123.886 3.60931 121.899 3.10589 119.7 3.10589C117.5 3.10589 115.5 3.60931 113.698 4.61616C111.923 5.59651 110.519 6.9743 109.485 8.74954C108.478 10.4983 107.975 12.459 107.975 14.6316C107.975 16.8043 108.478 18.7783 109.485 20.5535C110.519 22.3022 111.923 23.68 113.698 24.6869C115.5 25.6672 117.5 26.1574 119.7 26.1574Z" fill="white"/>
</svg>
