<svg width="213" height="47" viewBox="0 0 213 47" fill="none" xmlns="http://www.w3.org/2000/svg">
<path d="M83.2359 15.1932C84.5344 15.9781 85.6333 17.0574 86.3323 18.5292C87.1315 20.001 87.531 21.7672 87.531 23.7295C87.531 25.6919 87.1315 27.36 86.2325 28.8318C85.4334 30.3035 84.2347 31.3829 82.7363 32.0696C81.2381 32.8547 79.44 33.2472 77.5422 33.2472C76.4434 33.2472 75.4444 33.0508 74.4456 32.6585C73.4466 32.3641 72.5476 31.7752 71.8483 31.0886V41.293H66.0548V14.4082H71.0492L71.5488 16.5668C73.7463 14.8007 76.1437 13.9176 78.6409 13.9176C80.3389 13.9176 81.9372 14.3101 83.2359 15.1932ZM80.0394 27.36C81.0382 26.477 81.5376 25.2994 81.5376 23.8276C81.5376 22.3559 81.0382 21.1785 80.1393 20.1973C79.2403 19.216 78.0416 18.8236 76.7431 18.8236C75.6443 18.8236 74.6453 19.0198 73.8461 19.5104C73.047 19.9029 72.4478 20.5897 71.9484 21.4729V25.8881C72.2479 26.7713 72.8473 27.458 73.5466 27.9487C74.3457 28.4392 75.2447 28.7336 76.3435 28.7336C77.8417 28.7336 79.0404 28.2431 80.0394 27.36Z" fill="white"/>
<path d="M90.9269 18.6254C91.826 17.2517 93.0245 16.0743 94.6228 15.2893C96.221 14.5044 98.0191 14.0138 100.017 14.0138C102.015 14.0138 103.813 14.4063 105.411 15.2893C106.909 16.0743 108.108 17.2517 109.007 18.7235C109.906 20.1953 110.305 21.7653 110.305 23.6295C110.305 25.4938 109.906 27.0637 109.007 28.5355C108.108 30.0072 107.009 31.1846 105.411 31.9697C103.912 32.7545 102.015 33.2452 100.017 33.2452C98.0191 33.2452 96.221 32.8527 94.6228 32.0678C93.0245 31.2828 91.826 30.2036 90.9269 28.7316C90.1278 27.2599 89.6284 25.5918 89.6284 23.6295C89.6284 21.7653 90.1278 20.0972 90.9269 18.6254ZM96.8204 27.1617C97.6196 28.1429 98.7184 28.5355 100.017 28.5355C101.315 28.5355 102.414 28.045 103.213 27.1617C104.013 26.2787 104.412 25.0031 104.412 23.6295C104.412 22.1578 104.013 20.9803 103.213 20.0972C102.314 19.116 101.315 18.6254 99.9171 18.6254C98.6184 18.6254 97.6196 19.116 96.7206 19.9991C95.9215 20.9803 95.5219 22.1578 95.5219 23.6295C95.5219 25.0031 95.9215 26.1807 96.8204 27.1617Z" fill="white"/>
<path d="M119.696 0.474487V32.7558H113.903V0.474487H119.696Z" fill="white"/>
<path d="M143.469 14.8975L131.682 41.3897H126.089L130.483 31.8722L122.093 14.8975H128.686L133.48 25.4943L138.275 14.8975H143.469Z" fill="white"/>
<path d="M165.644 14.8969V32.7545C165.644 34.4226 165.144 35.9925 164.145 37.3663C163.147 38.7399 161.848 39.8193 160.15 40.6041C158.452 41.3892 156.654 41.7815 154.656 41.7815C153.157 41.7815 151.859 41.5854 150.76 41.291C149.661 40.8985 148.762 40.5059 148.063 40.1136C147.264 39.6229 146.465 39.0342 145.566 38.2493L148.962 34.3244C149.761 35.1095 150.66 35.6982 151.459 36.0907C152.259 36.4831 153.357 36.7774 154.556 36.7774C156.054 36.7774 157.253 36.3851 158.252 35.6982C159.251 35.0113 159.75 33.9321 159.75 32.6565V30.1054C159.151 30.9884 158.352 31.7735 157.153 32.3622C155.954 32.9509 154.556 33.2452 152.958 33.2452C151.36 33.2452 149.761 32.8527 148.363 31.9697C146.964 31.1846 145.866 30.0072 144.967 28.5355C144.167 27.0637 143.668 25.4938 143.668 23.7277C143.668 21.9614 144.068 20.2934 144.967 18.8216C145.866 17.3499 146.964 16.1724 148.463 15.2893C149.861 14.4063 151.36 14.0138 152.958 14.0138C154.456 14.0138 155.755 14.21 156.953 14.6025C158.152 14.995 159.051 15.5837 159.65 16.2706L160.25 14.8969H165.644ZM159.75 25.8863V21.4709C159.351 20.5878 158.751 19.901 157.852 19.4104C156.953 18.9198 155.954 18.6254 154.756 18.6254C153.357 18.6254 152.159 19.116 151.16 19.9991C150.161 20.8822 149.661 22.0596 149.661 23.5314C149.661 24.9051 150.161 26.1807 151.16 27.1617C152.159 28.1429 153.357 28.6336 154.756 28.6336C157.053 28.5355 158.751 27.6524 159.75 25.8863Z" fill="white"/>
<path d="M170.44 18.6273C171.339 17.1555 172.538 16.0762 174.136 15.1932C175.734 14.4082 177.532 13.9176 179.53 13.9176C181.528 13.9176 183.326 14.3101 184.924 15.1932C186.422 15.9781 187.621 17.1555 188.52 18.6273C189.319 20.0991 189.819 21.669 189.819 23.5333C189.819 25.3976 189.419 26.9675 188.52 28.4392C187.721 29.911 186.522 31.0886 184.924 31.8734C183.426 32.6585 181.528 33.149 179.53 33.149C177.532 33.149 175.734 32.7565 174.136 31.9716C172.538 31.1865 171.339 30.1073 170.44 28.6356C169.541 27.1637 169.141 25.4958 169.141 23.4351C169.141 21.7672 169.541 20.0991 170.44 18.6273ZM176.234 27.1637C177.033 28.1449 178.131 28.5374 179.43 28.5374C180.729 28.5374 181.827 28.0467 182.626 27.1637C183.426 26.2806 183.825 25.005 183.825 23.6315C183.825 22.1595 183.426 20.9822 182.626 20.0991C181.827 19.216 180.729 18.7255 179.43 18.7255C178.131 18.7255 177.133 19.216 176.234 20.0991C175.335 20.9822 174.935 22.2577 174.935 23.6315C175.035 25.005 175.435 26.1824 176.234 27.1637Z" fill="white"/>
<path d="M210.297 15.4856C211.495 16.4668 211.994 17.7423 212.093 19.3123V32.7545H206.2V21.4709C206.101 19.7047 205.202 18.8216 203.503 18.8216C202.205 18.8216 201.106 19.4104 200.307 20.6859C199.508 21.9614 199.108 23.5314 199.108 25.3956V32.7545H193.315V14.8969H198.609L199.008 17.7423C199.708 16.5649 200.606 15.6818 201.805 14.995C203.004 14.3082 204.402 14.0138 206.001 14.0138C207.698 14.0138 209.197 14.5044 210.297 15.4856Z" fill="white"/>
<path d="M41.282 14.6046C40.283 14.0159 38.9845 14.0159 37.8859 14.6046L30.0943 19.1181L24.8002 22.0618L17.0089 26.5752C16.01 27.1639 14.7114 27.1639 13.6127 26.5752L7.41951 23.0428C6.42061 22.4541 5.72139 21.3749 5.72139 20.1974V13.231C5.72139 12.0535 6.32073 10.9742 7.41951 10.3855L13.5128 6.95133C14.5117 6.36262 15.8102 6.36262 16.909 6.95133L23.0023 10.3855C24.0011 10.9742 24.7004 12.0535 24.7004 13.231V17.7445L29.9945 14.7028V10.1893C29.9945 9.01183 29.3953 7.93252 28.2964 7.3438L17.0089 0.867929C16.01 0.279213 14.7114 0.279213 13.6127 0.867929L2.12537 7.3438C1.02658 7.93252 0.427246 9.01183 0.427246 10.1893V23.2392C0.427246 24.4166 1.02658 25.496 2.12537 26.0847L13.6127 32.5605C14.6115 33.1492 15.9101 33.1492 17.0089 32.5605L24.8002 28.1451L30.0943 25.1034L37.8859 20.688C38.8847 20.0993 40.1832 20.0993 41.282 20.688L47.3753 24.1222C48.3741 24.7109 49.0734 25.7903 49.0734 26.9677V33.9341C49.0734 35.1117 48.4741 36.1909 47.3753 36.7796L41.282 40.312C40.283 40.9006 38.9845 40.9006 37.8859 40.312L31.7926 36.8778C30.7936 36.2891 30.0943 35.2097 30.0943 34.0323V29.5189L24.8002 32.5605V37.0739C24.8002 38.2513 25.3997 39.3307 26.4983 39.9194L37.9857 46.3953C38.9845 46.984 40.283 46.984 41.3819 46.3953L52.8693 39.9194C53.8681 39.3307 54.5674 38.2513 54.5674 37.0739V24.024C54.5674 22.8466 53.9679 21.7674 52.8693 21.1787L41.282 14.6046Z" fill="white"/>
</svg>
