<svg width="289" height="1016" viewBox="0 0 289 1016" fill="none" xmlns="http://www.w3.org/2000/svg">
<path d="M103.678 60.16C102.963 60.16 102.302 60.0213 101.694 59.744C101.096 59.456 100.606 59.056 100.222 58.544L101.406 57.12C102.024 57.9733 102.766 58.4 103.63 58.4C104.792 58.4 105.374 57.712 105.374 56.336V50.544H101.39V48.8H107.454V56.224C107.454 57.536 107.134 58.5227 106.494 59.184C105.854 59.8347 104.915 60.16 103.678 60.16ZM115.187 60.16C113.641 60.16 112.435 59.728 111.571 58.864C110.707 57.9893 110.275 56.7413 110.275 55.12V48.8H112.355V55.04C112.355 57.2373 113.305 58.336 115.203 58.336C117.091 58.336 118.035 57.2373 118.035 55.04V48.8H120.083V55.12C120.083 56.7413 119.651 57.9893 118.787 58.864C117.934 59.728 116.734 60.16 115.187 60.16ZM132.948 48.8V60H131.236L125.06 52.416V60H122.996V48.8H124.708L130.884 56.384V48.8H132.948ZM144.349 58.256V60H135.949V48.8H144.125V50.544H138.029V53.456H143.437V55.168H138.029V58.256H144.349ZM158.402 58.24V60H150.146V58.608L154.594 54.384C155.095 53.904 155.431 53.488 155.602 53.136C155.783 52.7733 155.874 52.416 155.874 52.064C155.874 51.5413 155.698 51.1413 155.346 50.864C154.994 50.5867 154.477 50.448 153.794 50.448C152.653 50.448 151.778 50.8373 151.17 51.616L149.714 50.496C150.151 49.9093 150.738 49.456 151.474 49.136C152.221 48.8053 153.053 48.64 153.97 48.64C155.186 48.64 156.157 48.928 156.882 49.504C157.607 50.08 157.97 50.864 157.97 51.856C157.97 52.464 157.842 53.0347 157.586 53.568C157.33 54.1013 156.839 54.7093 156.114 55.392L153.122 58.24H158.402ZM164.228 60.16C163.332 60.16 162.532 59.936 161.828 59.488C161.124 59.0293 160.569 58.368 160.164 57.504C159.758 56.6293 159.556 55.5947 159.556 54.4C159.556 53.2053 159.758 52.176 160.164 51.312C160.569 50.4373 161.124 49.776 161.828 49.328C162.532 48.8693 163.332 48.64 164.228 48.64C165.124 48.64 165.924 48.8693 166.628 49.328C167.342 49.776 167.902 50.4373 168.308 51.312C168.713 52.176 168.916 53.2053 168.916 54.4C168.916 55.5947 168.713 56.6293 168.308 57.504C167.902 58.368 167.342 59.0293 166.628 59.488C165.924 59.936 165.124 60.16 164.228 60.16ZM164.228 58.352C165.028 58.352 165.657 58.0213 166.116 57.36C166.585 56.6987 166.82 55.712 166.82 54.4C166.82 53.088 166.585 52.1013 166.116 51.44C165.657 50.7787 165.028 50.448 164.228 50.448C163.438 50.448 162.809 50.7787 162.34 51.44C161.881 52.1013 161.652 53.088 161.652 54.4C161.652 55.712 161.881 56.6987 162.34 57.36C162.809 58.0213 163.438 58.352 164.228 58.352ZM178.355 58.24V60H170.099V58.608L174.547 54.384C175.048 53.904 175.384 53.488 175.555 53.136C175.736 52.7733 175.827 52.416 175.827 52.064C175.827 51.5413 175.651 51.1413 175.299 50.864C174.947 50.5867 174.43 50.448 173.747 50.448C172.606 50.448 171.731 50.8373 171.123 51.616L169.667 50.496C170.104 49.9093 170.691 49.456 171.427 49.136C172.174 48.8053 173.006 48.64 173.923 48.64C175.139 48.64 176.11 48.928 176.835 49.504C177.56 50.08 177.923 50.864 177.923 51.856C177.923 52.464 177.795 53.0347 177.539 53.568C177.283 54.1013 176.792 54.7093 176.067 55.392L173.075 58.24H178.355ZM184.181 60.16C183.285 60.16 182.485 59.936 181.781 59.488C181.077 59.0293 180.522 58.368 180.117 57.504C179.711 56.6293 179.509 55.5947 179.509 54.4C179.509 53.2053 179.711 52.176 180.117 51.312C180.522 50.4373 181.077 49.776 181.781 49.328C182.485 48.8693 183.285 48.64 184.181 48.64C185.077 48.64 185.877 48.8693 186.581 49.328C187.295 49.776 187.855 50.4373 188.261 51.312C188.666 52.176 188.869 53.2053 188.869 54.4C188.869 55.5947 188.666 56.6293 188.261 57.504C187.855 58.368 187.295 59.0293 186.581 59.488C185.877 59.936 185.077 60.16 184.181 60.16ZM184.181 58.352C184.981 58.352 185.61 58.0213 186.069 57.36C186.538 56.6987 186.773 55.712 186.773 54.4C186.773 53.088 186.538 52.1013 186.069 51.44C185.61 50.7787 184.981 50.448 184.181 50.448C183.391 50.448 182.762 50.7787 182.293 51.44C181.834 52.1013 181.605 53.088 181.605 54.4C181.605 55.712 181.834 56.6987 182.293 57.36C182.762 58.0213 183.391 58.352 184.181 58.352Z" fill="#040404"/>
<path d="M77.688 84.128C76.568 84.128 75.5547 83.8827 74.648 83.392C73.752 82.8907 73.048 82.208 72.536 81.344C72.024 80.4693 71.768 79.488 71.768 78.4C71.768 77.312 72.024 76.336 72.536 75.472C73.048 74.5973 73.7573 73.9147 74.664 73.424C75.5707 72.9227 76.584 72.672 77.704 72.672C78.5787 72.672 79.3787 72.8213 80.104 73.12C80.8293 73.408 81.448 73.84 81.96 74.416L80.92 75.424C80.0773 74.5387 79.0267 74.096 77.768 74.096C76.936 74.096 76.184 74.2827 75.512 74.656C74.84 75.0293 74.312 75.5467 73.928 76.208C73.5547 76.8587 73.368 77.5893 73.368 78.4C73.368 79.2107 73.5547 79.9467 73.928 80.608C74.312 81.2587 74.84 81.7707 75.512 82.144C76.184 82.5173 76.936 82.704 77.768 82.704C79.016 82.704 80.0667 82.256 80.92 81.36L81.96 82.368C81.448 82.944 80.824 83.3813 80.088 83.68C79.3627 83.9787 78.5627 84.128 77.688 84.128ZM87.2911 84.096C86.4485 84.096 85.6911 83.9093 85.0191 83.536C84.3471 83.1627 83.8191 82.6507 83.4351 82C83.0618 81.3387 82.8751 80.592 82.8751 79.76C82.8751 78.928 83.0618 78.1867 83.4351 77.536C83.8191 76.8747 84.3471 76.3627 85.0191 76C85.6911 75.6267 86.4485 75.44 87.2911 75.44C88.1338 75.44 88.8858 75.6267 89.5471 76C90.2191 76.3627 90.7418 76.8747 91.1151 77.536C91.4991 78.1867 91.6911 78.928 91.6911 79.76C91.6911 80.592 91.4991 81.3387 91.1151 82C90.7418 82.6507 90.2191 83.1627 89.5471 83.536C88.8858 83.9093 88.1338 84.096 87.2911 84.096ZM87.2911 82.752C87.8351 82.752 88.3205 82.6293 88.7471 82.384C89.1845 82.128 89.5258 81.776 89.7711 81.328C90.0165 80.8693 90.1391 80.3467 90.1391 79.76C90.1391 79.1733 90.0165 78.656 89.7711 78.208C89.5258 77.7493 89.1845 77.3973 88.7471 77.152C88.3205 76.9067 87.8351 76.784 87.2911 76.784C86.7471 76.784 86.2565 76.9067 85.8191 77.152C85.3925 77.3973 85.0511 77.7493 84.7951 78.208C84.5498 78.656 84.4271 79.1733 84.4271 79.76C84.4271 80.3467 84.5498 80.8693 84.7951 81.328C85.0511 81.776 85.3925 82.128 85.8191 82.384C86.2565 82.6293 86.7471 82.752 87.2911 82.752ZM98.3434 75.44C99.4207 75.44 100.274 75.7547 100.903 76.384C101.543 77.0027 101.863 77.9147 101.863 79.12V84H100.327V79.296C100.327 78.4747 100.13 77.856 99.7354 77.44C99.3407 77.024 98.7754 76.816 98.0394 76.816C97.2074 76.816 96.5514 77.0613 96.0714 77.552C95.5914 78.032 95.3514 78.7253 95.3514 79.632V84H93.8154V75.52H95.2874V76.8C95.5967 76.3627 96.0127 76.0267 96.5354 75.792C97.0687 75.5573 97.6714 75.44 98.3434 75.44ZM108.449 84.096C107.585 84.096 106.812 83.9093 106.129 83.536C105.457 83.1627 104.929 82.6507 104.545 82C104.161 81.3387 103.969 80.592 103.969 79.76C103.969 78.928 104.161 78.1867 104.545 77.536C104.929 76.8747 105.457 76.3627 106.129 76C106.812 75.6267 107.585 75.44 108.449 75.44C109.217 75.44 109.9 75.5947 110.497 75.904C111.105 76.2133 111.574 76.6613 111.905 77.248L110.737 78C110.47 77.5947 110.14 77.2907 109.745 77.088C109.35 76.8853 108.913 76.784 108.433 76.784C107.878 76.784 107.377 76.9067 106.929 77.152C106.492 77.3973 106.145 77.7493 105.889 78.208C105.644 78.656 105.521 79.1733 105.521 79.76C105.521 80.3573 105.644 80.8853 105.889 81.344C106.145 81.792 106.492 82.1387 106.929 82.384C107.377 82.6293 107.878 82.752 108.433 82.752C108.913 82.752 109.35 82.6507 109.745 82.448C110.14 82.2453 110.47 81.9413 110.737 81.536L111.905 82.272C111.574 82.8587 111.105 83.312 110.497 83.632C109.9 83.9413 109.217 84.096 108.449 84.096ZM121.433 79.808C121.433 79.9253 121.422 80.08 121.401 80.272H114.521C114.617 81.0187 114.942 81.6213 115.497 82.08C116.062 82.528 116.761 82.752 117.593 82.752C118.606 82.752 119.422 82.4107 120.041 81.728L120.889 82.72C120.505 83.168 120.025 83.5093 119.449 83.744C118.883 83.9787 118.249 84.096 117.545 84.096C116.649 84.096 115.854 83.9147 115.161 83.552C114.467 83.1787 113.929 82.6613 113.545 82C113.171 81.3387 112.985 80.592 112.985 79.76C112.985 78.9387 113.166 78.1973 113.529 77.536C113.902 76.8747 114.409 76.3627 115.049 76C115.699 75.6267 116.43 75.44 117.241 75.44C118.051 75.44 118.771 75.6267 119.401 76C120.041 76.3627 120.537 76.8747 120.889 77.536C121.251 78.1973 121.433 78.9547 121.433 79.808ZM117.241 76.736C116.505 76.736 115.886 76.96 115.385 77.408C114.894 77.856 114.606 78.4427 114.521 79.168H119.961C119.875 78.4533 119.582 77.872 119.081 77.424C118.59 76.9653 117.977 76.736 117.241 76.736ZM128.061 75.44C128.883 75.44 129.619 75.6213 130.269 75.984C130.92 76.3467 131.427 76.8533 131.789 77.504C132.163 78.1547 132.349 78.9067 132.349 79.76C132.349 80.6133 132.163 81.3707 131.789 82.032C131.427 82.6827 130.92 83.1893 130.269 83.552C129.619 83.9147 128.883 84.096 128.061 84.096C127.453 84.096 126.893 83.9787 126.381 83.744C125.88 83.5093 125.453 83.168 125.101 82.72V87.104H123.565V75.52H125.037V76.864C125.379 76.3947 125.811 76.0427 126.333 75.808C126.856 75.5627 127.432 75.44 128.061 75.44ZM127.933 82.752C128.477 82.752 128.963 82.6293 129.389 82.384C129.827 82.128 130.168 81.776 130.413 81.328C130.669 80.8693 130.797 80.3467 130.797 79.76C130.797 79.1733 130.669 78.656 130.413 78.208C130.168 77.7493 129.827 77.3973 129.389 77.152C128.963 76.9067 128.477 76.784 127.933 76.784C127.4 76.784 126.915 76.912 126.477 77.168C126.051 77.4133 125.709 77.76 125.453 78.208C125.208 78.656 125.085 79.1733 125.085 79.76C125.085 80.3467 125.208 80.8693 125.453 81.328C125.699 81.776 126.04 82.128 126.477 82.384C126.915 82.6293 127.4 82.752 127.933 82.752ZM139.24 83.504C139.016 83.696 138.738 83.8453 138.408 83.952C138.077 84.048 137.736 84.096 137.384 84.096C136.53 84.096 135.869 83.8667 135.4 83.408C134.93 82.9493 134.696 82.2933 134.696 81.44V76.784H133.256V75.52H134.696V73.664H136.232V75.52H138.664V76.784H136.232V81.376C136.232 81.8347 136.344 82.1867 136.568 82.432C136.802 82.6773 137.133 82.8 137.56 82.8C138.029 82.8 138.429 82.6667 138.76 82.4L139.24 83.504ZM149.001 75.52V84H147.545V82.72C147.235 83.1573 146.825 83.4987 146.313 83.744C145.811 83.9787 145.262 84.096 144.665 84.096C143.534 84.096 142.643 83.7867 141.993 83.168C141.342 82.5387 141.017 81.616 141.017 80.4V75.52H142.553V80.224C142.553 81.0453 142.75 81.6693 143.145 82.096C143.539 82.512 144.105 82.72 144.841 82.72C145.651 82.72 146.291 82.4747 146.761 81.984C147.23 81.4933 147.465 80.8 147.465 79.904V75.52H149.001ZM155.013 75.44C156.186 75.44 157.082 75.728 157.701 76.304C158.33 76.88 158.645 77.7387 158.645 78.88V84H157.189V82.88C156.933 83.2747 156.565 83.5787 156.085 83.792C155.615 83.9947 155.055 84.096 154.405 84.096C153.455 84.096 152.693 83.8667 152.117 83.408C151.551 82.9493 151.269 82.3467 151.269 81.6C151.269 80.8533 151.541 80.256 152.085 79.808C152.629 79.3493 153.493 79.12 154.677 79.12H157.109V78.816C157.109 78.1547 156.917 77.648 156.533 77.296C156.149 76.944 155.583 76.768 154.837 76.768C154.335 76.768 153.845 76.8533 153.365 77.024C152.885 77.184 152.479 77.4027 152.149 77.68L151.509 76.528C151.946 76.176 152.469 75.9093 153.077 75.728C153.685 75.536 154.33 75.44 155.013 75.44ZM154.661 82.912C155.247 82.912 155.754 82.784 156.181 82.528C156.607 82.2613 156.917 81.888 157.109 81.408V80.224H154.741C153.439 80.224 152.789 80.6613 152.789 81.536C152.789 81.9627 152.954 82.2987 153.285 82.544C153.615 82.7893 154.074 82.912 154.661 82.912ZM161.487 72.128H163.023V84H161.487V72.128ZM165.956 75.52H167.492V84H165.956V75.52ZM166.724 73.888C166.425 73.888 166.175 73.792 165.972 73.6C165.78 73.408 165.684 73.1733 165.684 72.896C165.684 72.6187 165.78 72.384 165.972 72.192C166.175 71.9893 166.425 71.888 166.724 71.888C167.023 71.888 167.268 71.984 167.46 72.176C167.663 72.3573 167.764 72.5867 167.764 72.864C167.764 73.152 167.663 73.3973 167.46 73.6C167.268 73.792 167.023 73.888 166.724 73.888ZM172.857 84.096C172.163 84.096 171.497 84.0053 170.857 83.824C170.217 83.632 169.715 83.392 169.353 83.104L169.993 81.888C170.366 82.1547 170.819 82.368 171.353 82.528C171.886 82.688 172.425 82.768 172.969 82.768C174.313 82.768 174.985 82.384 174.985 81.616C174.985 81.36 174.894 81.1573 174.713 81.008C174.531 80.8587 174.302 80.752 174.025 80.688C173.758 80.6133 173.374 80.5333 172.873 80.448C172.19 80.3413 171.63 80.2187 171.193 80.08C170.766 79.9413 170.398 79.7067 170.089 79.376C169.779 79.0453 169.625 78.5813 169.625 77.984C169.625 77.216 169.945 76.6027 170.585 76.144C171.225 75.6747 172.083 75.44 173.161 75.44C173.726 75.44 174.291 75.5093 174.857 75.648C175.422 75.7867 175.886 75.9733 176.249 76.208L175.593 77.424C174.899 76.976 174.083 76.752 173.145 76.752C172.494 76.752 171.998 76.8587 171.657 77.072C171.315 77.2853 171.145 77.568 171.145 77.92C171.145 78.1973 171.241 78.416 171.433 78.576C171.625 78.736 171.859 78.8533 172.137 78.928C172.425 79.0027 172.825 79.088 173.337 79.184C174.019 79.3013 174.569 79.4293 174.985 79.568C175.411 79.696 175.774 79.92 176.073 80.24C176.371 80.56 176.521 81.008 176.521 81.584C176.521 82.352 176.19 82.9653 175.529 83.424C174.878 83.872 173.987 84.096 172.857 84.096ZM181.528 75.44C182.702 75.44 183.598 75.728 184.216 76.304C184.846 76.88 185.16 77.7387 185.16 78.88V84H183.704V82.88C183.448 83.2747 183.08 83.5787 182.6 83.792C182.131 83.9947 181.571 84.096 180.92 84.096C179.971 84.096 179.208 83.8667 178.632 83.408C178.067 82.9493 177.784 82.3467 177.784 81.6C177.784 80.8533 178.056 80.256 178.6 79.808C179.144 79.3493 180.008 79.12 181.192 79.12H183.624V78.816C183.624 78.1547 183.432 77.648 183.048 77.296C182.664 76.944 182.099 76.768 181.352 76.768C180.851 76.768 180.36 76.8533 179.88 77.024C179.4 77.184 178.995 77.4027 178.664 77.68L178.024 76.528C178.462 76.176 178.984 75.9093 179.592 75.728C180.2 75.536 180.846 75.44 181.528 75.44ZM181.176 82.912C181.763 82.912 182.27 82.784 182.696 82.528C183.123 82.2613 183.432 81.888 183.624 81.408V80.224H181.256C179.955 80.224 179.304 80.6613 179.304 81.536C179.304 81.9627 179.47 82.2987 179.8 82.544C180.131 82.7893 180.59 82.912 181.176 82.912ZM192.771 83.504C192.547 83.696 192.27 83.8453 191.939 83.952C191.608 84.048 191.267 84.096 190.915 84.096C190.062 84.096 189.4 83.8667 188.931 83.408C188.462 82.9493 188.227 82.2933 188.227 81.44V76.784H186.787V75.52H188.227V73.664H189.763V75.52H192.195V76.784H189.763V81.376C189.763 81.8347 189.875 82.1867 190.099 82.432C190.334 82.6773 190.664 82.8 191.091 82.8C191.56 82.8 191.96 82.6667 192.291 82.4L192.771 83.504ZM194.628 75.52H196.164V84H194.628V75.52ZM195.396 73.888C195.097 73.888 194.847 73.792 194.644 73.6C194.452 73.408 194.356 73.1733 194.356 72.896C194.356 72.6187 194.452 72.384 194.644 72.192C194.847 71.9893 195.097 71.888 195.396 71.888C195.695 71.888 195.94 71.984 196.132 72.176C196.335 72.3573 196.436 72.5867 196.436 72.864C196.436 73.152 196.335 73.3973 196.132 73.6C195.94 73.792 195.695 73.888 195.396 73.888ZM202.729 84.096C201.886 84.096 201.129 83.9093 200.457 83.536C199.785 83.1627 199.257 82.6507 198.873 82C198.499 81.3387 198.313 80.592 198.313 79.76C198.313 78.928 198.499 78.1867 198.873 77.536C199.257 76.8747 199.785 76.3627 200.457 76C201.129 75.6267 201.886 75.44 202.729 75.44C203.571 75.44 204.323 75.6267 204.985 76C205.657 76.3627 206.179 76.8747 206.553 77.536C206.937 78.1867 207.129 78.928 207.129 79.76C207.129 80.592 206.937 81.3387 206.553 82C206.179 82.6507 205.657 83.1627 204.985 83.536C204.323 83.9093 203.571 84.096 202.729 84.096ZM202.729 82.752C203.273 82.752 203.758 82.6293 204.185 82.384C204.622 82.128 204.963 81.776 205.209 81.328C205.454 80.8693 205.577 80.3467 205.577 79.76C205.577 79.1733 205.454 78.656 205.209 78.208C204.963 77.7493 204.622 77.3973 204.185 77.152C203.758 76.9067 203.273 76.784 202.729 76.784C202.185 76.784 201.694 76.9067 201.257 77.152C200.83 77.3973 200.489 77.7493 200.233 78.208C199.987 78.656 199.865 79.1733 199.865 79.76C199.865 80.3467 199.987 80.8693 200.233 81.328C200.489 81.776 200.83 82.128 201.257 82.384C201.694 82.6293 202.185 82.752 202.729 82.752ZM213.781 75.44C214.858 75.44 215.712 75.7547 216.341 76.384C216.981 77.0027 217.301 77.9147 217.301 79.12V84H215.765V79.296C215.765 78.4747 215.568 77.856 215.173 77.44C214.778 77.024 214.213 76.816 213.477 76.816C212.645 76.816 211.989 77.0613 211.509 77.552C211.029 78.032 210.789 78.7253 210.789 79.632V84H209.253V75.52H210.725V76.8C211.034 76.3627 211.45 76.0267 211.973 75.792C212.506 75.5573 213.109 75.44 213.781 75.44Z" fill="#777E90"/>
<circle cx="145" cy="9" r="9" fill="#E6007A"/>
<rect width="72" height="4" transform="matrix(-4.37114e-08 1 1 4.37114e-08 143 106)" fill="url(#paint0_linear_226_1552)"/>
<rect width="72" height="4" transform="matrix(-4.37114e-08 1 1 4.37114e-08 143 284)" fill="url(#paint1_linear_226_1552)"/>
<rect width="72" height="4" transform="matrix(-4.37114e-08 1 1 4.37114e-08 143 462)" fill="url(#paint2_linear_226_1552)"/>
<rect width="72" height="4" transform="matrix(-4.37114e-08 1 1 4.37114e-08 143 842)" fill="url(#paint3_linear_226_1552)"/>
<rect width="72" height="4" transform="matrix(-4.37114e-08 1 1 4.37114e-08 143 652)" fill="url(#paint4_linear_226_1552)"/>
<path d="M104.248 238.16C103.533 238.16 102.872 238.021 102.264 237.744C101.667 237.456 101.176 237.056 100.792 236.544L101.976 235.12C102.595 235.973 103.336 236.4 104.2 236.4C105.363 236.4 105.944 235.712 105.944 234.336V228.544H101.96V226.8H108.024V234.224C108.024 235.536 107.704 236.523 107.064 237.184C106.424 237.835 105.485 238.16 104.248 238.16ZM115.758 238.16C114.211 238.16 113.006 237.728 112.142 236.864C111.278 235.989 110.846 234.741 110.846 233.12V226.8H112.926V233.04C112.926 235.237 113.875 236.336 115.774 236.336C117.662 236.336 118.606 235.237 118.606 233.04V226.8H120.654V233.12C120.654 234.741 120.222 235.989 119.358 236.864C118.504 237.728 117.304 238.16 115.758 238.16ZM123.567 226.8H125.647V236.24H131.503V238H123.567V226.8ZM136.805 234.048V238H134.725V234.08L130.325 226.8H132.549L135.829 232.256L139.141 226.8H141.189L136.805 234.048ZM154.285 236.24V238H146.029V236.608L150.477 232.384C150.978 231.904 151.314 231.488 151.485 231.136C151.666 230.773 151.757 230.416 151.757 230.064C151.757 229.541 151.581 229.141 151.229 228.864C150.877 228.587 150.359 228.448 149.677 228.448C148.535 228.448 147.661 228.837 147.053 229.616L145.597 228.496C146.034 227.909 146.621 227.456 147.357 227.136C148.103 226.805 148.935 226.64 149.853 226.64C151.069 226.64 152.039 226.928 152.765 227.504C153.49 228.08 153.853 228.864 153.853 229.856C153.853 230.464 153.725 231.035 153.469 231.568C153.213 232.101 152.722 232.709 151.997 233.392L149.005 236.24H154.285ZM160.11 238.16C159.214 238.16 158.414 237.936 157.71 237.488C157.006 237.029 156.452 236.368 156.046 235.504C155.641 234.629 155.438 233.595 155.438 232.4C155.438 231.205 155.641 230.176 156.046 229.312C156.452 228.437 157.006 227.776 157.71 227.328C158.414 226.869 159.214 226.64 160.11 226.64C161.006 226.64 161.806 226.869 162.51 227.328C163.225 227.776 163.785 228.437 164.19 229.312C164.596 230.176 164.798 231.205 164.798 232.4C164.798 233.595 164.596 234.629 164.19 235.504C163.785 236.368 163.225 237.029 162.51 237.488C161.806 237.936 161.006 238.16 160.11 238.16ZM160.11 236.352C160.91 236.352 161.54 236.021 161.998 235.36C162.468 234.699 162.702 233.712 162.702 232.4C162.702 231.088 162.468 230.101 161.998 229.44C161.54 228.779 160.91 228.448 160.11 228.448C159.321 228.448 158.692 228.779 158.222 229.44C157.764 230.101 157.534 231.088 157.534 232.4C157.534 233.712 157.764 234.699 158.222 235.36C158.692 236.021 159.321 236.352 160.11 236.352ZM174.238 236.24V238H165.982V236.608L170.43 232.384C170.931 231.904 171.267 231.488 171.438 231.136C171.619 230.773 171.71 230.416 171.71 230.064C171.71 229.541 171.534 229.141 171.182 228.864C170.83 228.587 170.313 228.448 169.63 228.448C168.489 228.448 167.614 228.837 167.006 229.616L165.55 228.496C165.987 227.909 166.574 227.456 167.31 227.136C168.057 226.805 168.889 226.64 169.806 226.64C171.022 226.64 171.993 226.928 172.718 227.504C173.443 228.08 173.806 228.864 173.806 229.856C173.806 230.464 173.678 231.035 173.422 231.568C173.166 232.101 172.675 232.709 171.95 233.392L168.958 236.24H174.238ZM180.064 238.16C179.168 238.16 178.368 237.936 177.664 237.488C176.96 237.029 176.405 236.368 176 235.504C175.594 234.629 175.392 233.595 175.392 232.4C175.392 231.205 175.594 230.176 176 229.312C176.405 228.437 176.96 227.776 177.664 227.328C178.368 226.869 179.168 226.64 180.064 226.64C180.96 226.64 181.76 226.869 182.464 227.328C183.178 227.776 183.738 228.437 184.144 229.312C184.549 230.176 184.752 231.205 184.752 232.4C184.752 233.595 184.549 234.629 184.144 235.504C183.738 236.368 183.178 237.029 182.464 237.488C181.76 237.936 180.96 238.16 180.064 238.16ZM180.064 236.352C180.864 236.352 181.493 236.021 181.952 235.36C182.421 234.699 182.656 233.712 182.656 232.4C182.656 231.088 182.421 230.101 181.952 229.44C181.493 228.779 180.864 228.448 180.064 228.448C179.274 228.448 178.645 228.779 178.176 229.44C177.717 230.101 177.488 231.088 177.488 232.4C177.488 233.712 177.717 234.699 178.176 235.36C178.645 236.021 179.274 236.352 180.064 236.352Z" fill="#040404"/>
<path d="M60.68 250.8H65.4C66.584 250.8 67.6347 251.035 68.552 251.504C69.4693 251.973 70.1787 252.635 70.68 253.488C71.192 254.331 71.448 255.301 71.448 256.4C71.448 257.499 71.192 258.475 70.68 259.328C70.1787 260.171 69.4693 260.827 68.552 261.296C67.6347 261.765 66.584 262 65.4 262H60.68V250.8ZM65.304 260.608C66.2107 260.608 67.0053 260.432 67.688 260.08C68.3813 259.728 68.9147 259.237 69.288 258.608C69.6613 257.968 69.848 257.232 69.848 256.4C69.848 255.568 69.6613 254.837 69.288 254.208C68.9147 253.568 68.3813 253.072 67.688 252.72C67.0053 252.368 66.2107 252.192 65.304 252.192H62.28V260.608H65.304ZM81.3388 257.808C81.3388 257.925 81.3281 258.08 81.3068 258.272H74.4268C74.5228 259.019 74.8481 259.621 75.4028 260.08C75.9681 260.528 76.6668 260.752 77.4988 260.752C78.5121 260.752 79.3281 260.411 79.9468 259.728L80.7948 260.72C80.4108 261.168 79.9308 261.509 79.3548 261.744C78.7894 261.979 78.1548 262.096 77.4508 262.096C76.5548 262.096 75.7601 261.915 75.0668 261.552C74.3734 261.179 73.8348 260.661 73.4508 260C73.0774 259.339 72.8908 258.592 72.8908 257.76C72.8908 256.939 73.0721 256.197 73.4348 255.536C73.8081 254.875 74.3148 254.363 74.9548 254C75.6054 253.627 76.3361 253.44 77.1468 253.44C77.9574 253.44 78.6774 253.627 79.3068 254C79.9468 254.363 80.4428 254.875 80.7948 255.536C81.1574 256.197 81.3388 256.955 81.3388 257.808ZM77.1468 254.736C76.4108 254.736 75.7921 254.96 75.2908 255.408C74.8001 255.856 74.5121 256.443 74.4268 257.168H79.8668C79.7814 256.453 79.4881 255.872 78.9868 255.424C78.4961 254.965 77.8828 254.736 77.1468 254.736ZM90.8194 253.52L87.1074 262H85.5394L81.8274 253.52H83.4274L86.3394 260.32L89.3154 253.52H90.8194ZM99.6825 257.808C99.6825 257.925 99.6718 258.08 99.6505 258.272H92.7705C92.8665 259.019 93.1918 259.621 93.7465 260.08C94.3118 260.528 95.0105 260.752 95.8425 260.752C96.8558 260.752 97.6718 260.411 98.2905 259.728L99.1385 260.72C98.7545 261.168 98.2745 261.509 97.6985 261.744C97.1332 261.979 96.4985 262.096 95.7945 262.096C94.8985 262.096 94.1038 261.915 93.4105 261.552C92.7172 261.179 92.1785 260.661 91.7945 260C91.4212 259.339 91.2345 258.592 91.2345 257.76C91.2345 256.939 91.4158 256.197 91.7785 255.536C92.1518 254.875 92.6585 254.363 93.2985 254C93.9492 253.627 94.6798 253.44 95.4905 253.44C96.3012 253.44 97.0212 253.627 97.6505 254C98.2905 254.363 98.7865 254.875 99.1385 255.536C99.5012 256.197 99.6825 256.955 99.6825 257.808ZM95.4905 254.736C94.7545 254.736 94.1358 254.96 93.6345 255.408C93.1438 255.856 92.8558 256.443 92.7705 257.168H98.2105C98.1252 256.453 97.8318 255.872 97.3305 255.424C96.8398 254.965 96.2265 254.736 95.4905 254.736ZM101.815 250.128H103.351V262H101.815V250.128ZM109.916 262.096C109.073 262.096 108.316 261.909 107.644 261.536C106.972 261.163 106.444 260.651 106.06 260C105.687 259.339 105.5 258.592 105.5 257.76C105.5 256.928 105.687 256.187 106.06 255.536C106.444 254.875 106.972 254.363 107.644 254C108.316 253.627 109.073 253.44 109.916 253.44C110.759 253.44 111.511 253.627 112.172 254C112.844 254.363 113.367 254.875 113.74 255.536C114.124 256.187 114.316 256.928 114.316 257.76C114.316 258.592 114.124 259.339 113.74 260C113.367 260.651 112.844 261.163 112.172 261.536C111.511 261.909 110.759 262.096 109.916 262.096ZM109.916 260.752C110.46 260.752 110.945 260.629 111.372 260.384C111.809 260.128 112.151 259.776 112.396 259.328C112.641 258.869 112.764 258.347 112.764 257.76C112.764 257.173 112.641 256.656 112.396 256.208C112.151 255.749 111.809 255.397 111.372 255.152C110.945 254.907 110.46 254.784 109.916 254.784C109.372 254.784 108.881 254.907 108.444 255.152C108.017 255.397 107.676 255.749 107.42 256.208C107.175 256.656 107.052 257.173 107.052 257.76C107.052 258.347 107.175 258.869 107.42 259.328C107.676 259.776 108.017 260.128 108.444 260.384C108.881 260.629 109.372 260.752 109.916 260.752ZM120.936 253.44C121.758 253.44 122.494 253.621 123.144 253.984C123.795 254.347 124.302 254.853 124.664 255.504C125.038 256.155 125.224 256.907 125.224 257.76C125.224 258.613 125.038 259.371 124.664 260.032C124.302 260.683 123.795 261.189 123.144 261.552C122.494 261.915 121.758 262.096 120.936 262.096C120.328 262.096 119.768 261.979 119.256 261.744C118.755 261.509 118.328 261.168 117.976 260.72V265.104H116.44V253.52H117.912V254.864C118.254 254.395 118.686 254.043 119.208 253.808C119.731 253.563 120.307 253.44 120.936 253.44ZM120.808 260.752C121.352 260.752 121.838 260.629 122.264 260.384C122.702 260.128 123.043 259.776 123.288 259.328C123.544 258.869 123.672 258.347 123.672 257.76C123.672 257.173 123.544 256.656 123.288 256.208C123.043 255.749 122.702 255.397 122.264 255.152C121.838 254.907 121.352 254.784 120.808 254.784C120.275 254.784 119.79 254.912 119.352 255.168C118.926 255.413 118.584 255.76 118.328 256.208C118.083 256.656 117.96 257.173 117.96 257.76C117.96 258.347 118.083 258.869 118.328 259.328C118.574 259.776 118.915 260.128 119.352 260.384C119.79 260.629 120.275 260.752 120.808 260.752ZM137.955 253.44C139.021 253.44 139.864 253.749 140.483 254.368C141.112 254.987 141.427 255.904 141.427 257.12V262H139.891V257.296C139.891 256.475 139.699 255.856 139.315 255.44C138.941 255.024 138.403 254.816 137.699 254.816C136.92 254.816 136.301 255.061 135.843 255.552C135.384 256.032 135.155 256.725 135.155 257.632V262H133.619V257.296C133.619 256.475 133.427 255.856 133.043 255.44C132.669 255.024 132.131 254.816 131.427 254.816C130.648 254.816 130.029 255.061 129.571 255.552C129.112 256.032 128.883 256.725 128.883 257.632V262H127.347V253.52H128.819V254.784C129.128 254.347 129.533 254.016 130.035 253.792C130.536 253.557 131.107 253.44 131.747 253.44C132.408 253.44 132.995 253.573 133.507 253.84C134.019 254.107 134.413 254.496 134.691 255.008C135.011 254.517 135.453 254.133 136.019 253.856C136.595 253.579 137.24 253.44 137.955 253.44ZM151.964 257.808C151.964 257.925 151.953 258.08 151.932 258.272H145.052C145.148 259.019 145.473 259.621 146.028 260.08C146.593 260.528 147.292 260.752 148.124 260.752C149.137 260.752 149.953 260.411 150.572 259.728L151.42 260.72C151.036 261.168 150.556 261.509 149.98 261.744C149.414 261.979 148.78 262.096 148.076 262.096C147.18 262.096 146.385 261.915 145.692 261.552C144.998 261.179 144.46 260.661 144.076 260C143.702 259.339 143.516 258.592 143.516 257.76C143.516 256.939 143.697 256.197 144.06 255.536C144.433 254.875 144.94 254.363 145.58 254C146.23 253.627 146.961 253.44 147.772 253.44C148.582 253.44 149.302 253.627 149.932 254C150.572 254.363 151.068 254.875 151.42 255.536C151.782 256.197 151.964 256.955 151.964 257.808ZM147.772 254.736C147.036 254.736 146.417 254.96 145.916 255.408C145.425 255.856 145.137 256.443 145.052 257.168H150.492C150.406 256.453 150.113 255.872 149.612 255.424C149.121 254.965 148.508 254.736 147.772 254.736ZM158.625 253.44C159.702 253.44 160.555 253.755 161.185 254.384C161.825 255.003 162.145 255.915 162.145 257.12V262H160.609V257.296C160.609 256.475 160.411 255.856 160.017 255.44C159.622 255.024 159.057 254.816 158.321 254.816C157.489 254.816 156.833 255.061 156.353 255.552C155.873 256.032 155.633 256.725 155.633 257.632V262H154.097V253.52H155.569V254.8C155.878 254.363 156.294 254.027 156.817 253.792C157.35 253.557 157.953 253.44 158.625 253.44ZM169.755 261.504C169.531 261.696 169.254 261.845 168.923 261.952C168.593 262.048 168.251 262.096 167.899 262.096C167.046 262.096 166.385 261.867 165.915 261.408C165.446 260.949 165.211 260.293 165.211 259.44V254.784H163.771V253.52H165.211V251.664H166.747V253.52H169.179V254.784H166.747V259.376C166.747 259.835 166.859 260.187 167.083 260.432C167.318 260.677 167.649 260.8 168.075 260.8C168.545 260.8 168.945 260.667 169.275 260.4L169.755 261.504ZM183.669 256.192C184.32 256.373 184.832 256.704 185.205 257.184C185.578 257.653 185.765 258.251 185.765 258.976C185.765 259.947 185.397 260.693 184.661 261.216C183.936 261.739 182.874 262 181.477 262H176.133V250.8H181.157C182.437 250.8 183.424 251.056 184.117 251.568C184.821 252.08 185.173 252.789 185.173 253.696C185.173 254.283 185.034 254.789 184.757 255.216C184.49 255.643 184.128 255.968 183.669 256.192ZM177.733 252.096V255.68H181.013C181.834 255.68 182.464 255.531 182.901 255.232C183.349 254.923 183.573 254.475 183.573 253.888C183.573 253.301 183.349 252.859 182.901 252.56C182.464 252.251 181.834 252.096 181.013 252.096H177.733ZM181.413 260.704C182.32 260.704 183.002 260.555 183.461 260.256C183.92 259.957 184.149 259.488 184.149 258.848C184.149 257.6 183.237 256.976 181.413 256.976H177.733V260.704H181.413ZM195.683 257.808C195.683 257.925 195.672 258.08 195.651 258.272H188.771C188.867 259.019 189.192 259.621 189.747 260.08C190.312 260.528 191.011 260.752 191.843 260.752C192.856 260.752 193.672 260.411 194.291 259.728L195.139 260.72C194.755 261.168 194.275 261.509 193.699 261.744C193.133 261.979 192.499 262.096 191.795 262.096C190.899 262.096 190.104 261.915 189.411 261.552C188.717 261.179 188.179 260.661 187.795 260C187.421 259.339 187.235 258.592 187.235 257.76C187.235 256.939 187.416 256.197 187.779 255.536C188.152 254.875 188.659 254.363 189.299 254C189.949 253.627 190.68 253.44 191.491 253.44C192.301 253.44 193.021 253.627 193.651 254C194.291 254.363 194.787 254.875 195.139 255.536C195.501 256.197 195.683 256.955 195.683 257.808ZM191.491 254.736C190.755 254.736 190.136 254.96 189.635 255.408C189.144 255.856 188.856 256.443 188.771 257.168H194.211C194.125 256.453 193.832 255.872 193.331 255.424C192.84 254.965 192.227 254.736 191.491 254.736ZM205.927 253.52V260.848C205.927 262.331 205.559 263.424 204.823 264.128C204.087 264.843 202.989 265.2 201.527 265.2C200.727 265.2 199.965 265.088 199.239 264.864C198.514 264.651 197.927 264.341 197.479 263.936L198.215 262.752C198.61 263.093 199.095 263.36 199.671 263.552C200.258 263.755 200.861 263.856 201.479 263.856C202.471 263.856 203.202 263.621 203.671 263.152C204.151 262.683 204.391 261.968 204.391 261.008V260.336C204.029 260.773 203.581 261.104 203.047 261.328C202.525 261.541 201.954 261.648 201.335 261.648C200.525 261.648 199.789 261.477 199.127 261.136C198.477 260.784 197.965 260.299 197.591 259.68C197.218 259.051 197.031 258.336 197.031 257.536C197.031 256.736 197.218 256.027 197.591 255.408C197.965 254.779 198.477 254.293 199.127 253.952C199.789 253.611 200.525 253.44 201.335 253.44C201.975 253.44 202.567 253.557 203.111 253.792C203.666 254.027 204.119 254.373 204.471 254.832V253.52H205.927ZM201.511 260.304C202.066 260.304 202.562 260.187 202.999 259.952C203.447 259.717 203.794 259.392 204.039 258.976C204.295 258.549 204.423 258.069 204.423 257.536C204.423 256.715 204.151 256.053 203.607 255.552C203.063 255.04 202.365 254.784 201.511 254.784C200.647 254.784 199.943 255.04 199.399 255.552C198.855 256.053 198.583 256.715 198.583 257.536C198.583 258.069 198.706 258.549 198.951 258.976C199.207 259.392 199.554 259.717 199.991 259.952C200.439 260.187 200.946 260.304 201.511 260.304ZM208.862 253.52H210.398V262H208.862V253.52ZM209.63 251.888C209.332 251.888 209.081 251.792 208.878 251.6C208.686 251.408 208.59 251.173 208.59 250.896C208.59 250.619 208.686 250.384 208.878 250.192C209.081 249.989 209.332 249.888 209.63 249.888C209.929 249.888 210.174 249.984 210.366 250.176C210.569 250.357 210.67 250.587 210.67 250.864C210.67 251.152 210.569 251.397 210.366 251.6C210.174 251.792 209.929 251.888 209.63 251.888ZM217.859 253.44C218.936 253.44 219.79 253.755 220.419 254.384C221.059 255.003 221.379 255.915 221.379 257.12V262H219.843V257.296C219.843 256.475 219.646 255.856 219.251 255.44C218.856 255.024 218.291 254.816 217.555 254.816C216.723 254.816 216.067 255.061 215.587 255.552C215.107 256.032 214.867 256.725 214.867 257.632V262H213.331V253.52H214.803V254.8C215.112 254.363 215.528 254.027 216.051 253.792C216.584 253.557 217.187 253.44 217.859 253.44ZM226.654 262.096C225.96 262.096 225.294 262.005 224.654 261.824C224.014 261.632 223.512 261.392 223.15 261.104L223.79 259.888C224.163 260.155 224.616 260.368 225.15 260.528C225.683 260.688 226.222 260.768 226.766 260.768C228.11 260.768 228.782 260.384 228.782 259.616C228.782 259.36 228.691 259.157 228.51 259.008C228.328 258.859 228.099 258.752 227.822 258.688C227.555 258.613 227.171 258.533 226.67 258.448C225.987 258.341 225.427 258.219 224.99 258.08C224.563 257.941 224.195 257.707 223.886 257.376C223.576 257.045 223.422 256.581 223.422 255.984C223.422 255.216 223.742 254.603 224.382 254.144C225.022 253.675 225.88 253.44 226.958 253.44C227.523 253.44 228.088 253.509 228.654 253.648C229.219 253.787 229.683 253.973 230.046 254.208L229.39 255.424C228.696 254.976 227.88 254.752 226.942 254.752C226.291 254.752 225.795 254.859 225.454 255.072C225.112 255.285 224.942 255.568 224.942 255.92C224.942 256.197 225.038 256.416 225.23 256.576C225.422 256.736 225.656 256.853 225.934 256.928C226.222 257.003 226.622 257.088 227.134 257.184C227.816 257.301 228.366 257.429 228.782 257.568C229.208 257.696 229.571 257.92 229.87 258.24C230.168 258.56 230.318 259.008 230.318 259.584C230.318 260.352 229.987 260.965 229.326 261.424C228.675 261.872 227.784 262.096 226.654 262.096Z" fill="#777E90"/>
<circle cx="145" cy="203" r="9" fill="#040404"/>
<path d="M109.128 416L109.112 408.576L105.432 414.72H104.504L100.824 408.672V416H98.8399V404.8H100.552L105 412.224L109.368 404.8H111.08L111.096 416H109.128ZM121.385 413.408H115.785L114.681 416H112.537L117.577 404.8H119.625L124.681 416H122.505L121.385 413.408ZM120.697 411.776L118.585 406.88L116.489 411.776H120.697ZM133.434 416L131.146 412.72C131.05 412.731 130.906 412.736 130.714 412.736H128.186V416H126.106V404.8H130.714C131.684 404.8 132.527 404.96 133.242 405.28C133.967 405.6 134.522 406.059 134.906 406.656C135.29 407.253 135.482 407.963 135.482 408.784C135.482 409.627 135.274 410.352 134.858 410.96C134.452 411.568 133.866 412.021 133.098 412.32L135.674 416H133.434ZM133.386 408.784C133.386 408.069 133.151 407.52 132.682 407.136C132.212 406.752 131.524 406.56 130.618 406.56H128.186V411.024H130.618C131.524 411.024 132.212 410.832 132.682 410.448C133.151 410.053 133.386 409.499 133.386 408.784ZM142.993 416.16C141.862 416.16 140.838 415.915 139.921 415.424C139.014 414.923 138.299 414.235 137.777 413.36C137.265 412.485 137.009 411.499 137.009 410.4C137.009 409.301 137.27 408.315 137.793 407.44C138.315 406.565 139.03 405.883 139.937 405.392C140.854 404.891 141.878 404.64 143.009 404.64C143.926 404.64 144.763 404.8 145.521 405.12C146.278 405.44 146.918 405.904 147.441 406.512L146.097 407.776C145.286 406.901 144.289 406.464 143.105 406.464C142.337 406.464 141.649 406.635 141.041 406.976C140.433 407.307 139.958 407.771 139.617 408.368C139.275 408.965 139.105 409.643 139.105 410.4C139.105 411.157 139.275 411.835 139.617 412.432C139.958 413.029 140.433 413.499 141.041 413.84C141.649 414.171 142.337 414.336 143.105 414.336C144.289 414.336 145.286 413.893 146.097 413.008L147.441 414.288C146.918 414.896 146.273 415.36 145.505 415.68C144.747 416 143.91 416.16 142.993 416.16ZM159.386 404.8V416H157.306V411.2H151.514V416H149.434V404.8H151.514V409.424H157.306V404.8H159.386ZM174.121 414.24V416H165.865V414.608L170.313 410.384C170.814 409.904 171.15 409.488 171.321 409.136C171.502 408.773 171.593 408.416 171.593 408.064C171.593 407.541 171.417 407.141 171.065 406.864C170.713 406.587 170.195 406.448 169.513 406.448C168.371 406.448 167.497 406.837 166.889 407.616L165.433 406.496C165.87 405.909 166.457 405.456 167.193 405.136C167.939 404.805 168.771 404.64 169.689 404.64C170.905 404.64 171.875 404.928 172.601 405.504C173.326 406.08 173.689 406.864 173.689 407.856C173.689 408.464 173.561 409.035 173.305 409.568C173.049 410.101 172.558 410.709 171.833 411.392L168.841 414.24H174.121ZM179.946 416.16C179.05 416.16 178.25 415.936 177.546 415.488C176.842 415.029 176.288 414.368 175.882 413.504C175.477 412.629 175.274 411.595 175.274 410.4C175.274 409.205 175.477 408.176 175.882 407.312C176.288 406.437 176.842 405.776 177.546 405.328C178.25 404.869 179.05 404.64 179.946 404.64C180.842 404.64 181.642 404.869 182.346 405.328C183.061 405.776 183.621 406.437 184.026 407.312C184.432 408.176 184.634 409.205 184.634 410.4C184.634 411.595 184.432 412.629 184.026 413.504C183.621 414.368 183.061 415.029 182.346 415.488C181.642 415.936 180.842 416.16 179.946 416.16ZM179.946 414.352C180.746 414.352 181.376 414.021 181.834 413.36C182.304 412.699 182.538 411.712 182.538 410.4C182.538 409.088 182.304 408.101 181.834 407.44C181.376 406.779 180.746 406.448 179.946 406.448C179.157 406.448 178.528 406.779 178.058 407.44C177.6 408.101 177.37 409.088 177.37 410.4C177.37 411.712 177.6 412.699 178.058 413.36C178.528 414.021 179.157 414.352 179.946 414.352ZM194.074 414.24V416H185.818V414.608L190.266 410.384C190.767 409.904 191.103 409.488 191.274 409.136C191.455 408.773 191.546 408.416 191.546 408.064C191.546 407.541 191.37 407.141 191.018 406.864C190.666 406.587 190.148 406.448 189.466 406.448C188.324 406.448 187.45 406.837 186.842 407.616L185.386 406.496C185.823 405.909 186.41 405.456 187.146 405.136C187.892 404.805 188.724 404.64 189.642 404.64C190.858 404.64 191.828 404.928 192.554 405.504C193.279 406.08 193.642 406.864 193.642 407.856C193.642 408.464 193.514 409.035 193.258 409.568C193.002 410.101 192.511 410.709 191.786 411.392L188.794 414.24H194.074ZM199.146 404.8V416H197.066V406.544H194.698V404.8H199.146Z" fill="#040404"/>
<path d="M80.944 440.128C80.1013 440.128 79.2853 440 78.496 439.744C77.7173 439.477 77.104 439.136 76.656 438.72L77.248 437.472C77.6747 437.856 78.2187 438.171 78.88 438.416C79.552 438.651 80.24 438.768 80.944 438.768C81.872 438.768 82.5653 438.613 83.024 438.304C83.4827 437.984 83.712 437.563 83.712 437.04C83.712 436.656 83.584 436.347 83.328 436.112C83.0827 435.867 82.7733 435.68 82.4 435.552C82.0373 435.424 81.52 435.28 80.848 435.12C80.0053 434.917 79.3227 434.715 78.8 434.512C78.288 434.309 77.8453 434 77.472 433.584C77.1093 433.157 76.928 432.587 76.928 431.872C76.928 431.275 77.0827 430.736 77.392 430.256C77.712 429.776 78.192 429.392 78.832 429.104C79.472 428.816 80.2667 428.672 81.216 428.672C81.8773 428.672 82.528 428.757 83.168 428.928C83.808 429.099 84.3573 429.344 84.816 429.664L84.288 430.944C83.8187 430.645 83.3173 430.421 82.784 430.272C82.2507 430.112 81.728 430.032 81.216 430.032C80.3093 430.032 79.6267 430.197 79.168 430.528C78.72 430.859 78.496 431.285 78.496 431.808C78.496 432.192 78.624 432.507 78.88 432.752C79.136 432.987 79.4507 433.173 79.824 433.312C80.208 433.44 80.7253 433.579 81.376 433.728C82.2187 433.931 82.896 434.133 83.408 434.336C83.92 434.539 84.3573 434.848 84.72 435.264C85.0933 435.68 85.28 436.24 85.28 436.944C85.28 437.531 85.12 438.069 84.8 438.56C84.48 439.04 83.9947 439.424 83.344 439.712C82.6933 439.989 81.8933 440.128 80.944 440.128ZM92.1615 439.504C91.9375 439.696 91.6602 439.845 91.3295 439.952C90.9988 440.048 90.6575 440.096 90.3055 440.096C89.4522 440.096 88.7908 439.867 88.3215 439.408C87.8522 438.949 87.6175 438.293 87.6175 437.44V432.784H86.1775V431.52H87.6175V429.664H89.1535V431.52H91.5855V432.784H89.1535V437.376C89.1535 437.835 89.2655 438.187 89.4895 438.432C89.7242 438.677 90.0548 438.8 90.4815 438.8C90.9508 438.8 91.3508 438.667 91.6815 438.4L92.1615 439.504ZM97.1065 431.44C98.2798 431.44 99.1758 431.728 99.7945 432.304C100.424 432.88 100.739 433.739 100.739 434.88V440H99.2825V438.88C99.0265 439.275 98.6585 439.579 98.1785 439.792C97.7092 439.995 97.1492 440.096 96.4985 440.096C95.5492 440.096 94.7865 439.867 94.2105 439.408C93.6452 438.949 93.3625 438.347 93.3625 437.6C93.3625 436.853 93.6345 436.256 94.1785 435.808C94.7225 435.349 95.5865 435.12 96.7705 435.12H99.2025V434.816C99.2025 434.155 99.0105 433.648 98.6265 433.296C98.2425 432.944 97.6772 432.768 96.9305 432.768C96.4292 432.768 95.9385 432.853 95.4585 433.024C94.9785 433.184 94.5732 433.403 94.2425 433.68L93.6025 432.528C94.0398 432.176 94.5625 431.909 95.1705 431.728C95.7785 431.536 96.4238 431.44 97.1065 431.44ZM96.7545 438.912C97.3412 438.912 97.8478 438.784 98.2745 438.528C98.7012 438.261 99.0105 437.888 99.2025 437.408V436.224H96.8345C95.5332 436.224 94.8825 436.661 94.8825 437.536C94.8825 437.963 95.0478 438.299 95.3785 438.544C95.7092 438.789 96.1678 438.912 96.7545 438.912ZM106.877 436.048L105.117 437.68V440H103.581V428.128H105.117V435.744L109.741 431.52H111.597L108.029 435.024L111.949 440H110.061L106.877 436.048ZM113.331 431.52H114.867V440H113.331V431.52ZM114.099 429.888C113.8 429.888 113.55 429.792 113.347 429.6C113.155 429.408 113.059 429.173 113.059 428.896C113.059 428.619 113.155 428.384 113.347 428.192C113.55 427.989 113.8 427.888 114.099 427.888C114.398 427.888 114.643 427.984 114.835 428.176C115.038 428.357 115.139 428.587 115.139 428.864C115.139 429.152 115.038 429.397 114.835 429.6C114.643 429.792 114.398 429.888 114.099 429.888ZM122.328 431.44C123.405 431.44 124.258 431.755 124.888 432.384C125.528 433.003 125.848 433.915 125.848 435.12V440H124.312V435.296C124.312 434.475 124.114 433.856 123.72 433.44C123.325 433.024 122.76 432.816 122.024 432.816C121.192 432.816 120.536 433.061 120.056 433.552C119.576 434.032 119.336 434.725 119.336 435.632V440H117.8V431.52H119.272V432.8C119.581 432.363 119.997 432.027 120.52 431.792C121.053 431.557 121.656 431.44 122.328 431.44ZM136.849 431.52V438.848C136.849 440.331 136.481 441.424 135.745 442.128C135.009 442.843 133.911 443.2 132.449 443.2C131.649 443.2 130.887 443.088 130.161 442.864C129.436 442.651 128.849 442.341 128.401 441.936L129.137 440.752C129.532 441.093 130.017 441.36 130.593 441.552C131.18 441.755 131.783 441.856 132.401 441.856C133.393 441.856 134.124 441.621 134.593 441.152C135.073 440.683 135.313 439.968 135.313 439.008V438.336C134.951 438.773 134.503 439.104 133.969 439.328C133.447 439.541 132.876 439.648 132.257 439.648C131.447 439.648 130.711 439.477 130.049 439.136C129.399 438.784 128.887 438.299 128.513 437.68C128.14 437.051 127.953 436.336 127.953 435.536C127.953 434.736 128.14 434.027 128.513 433.408C128.887 432.779 129.399 432.293 130.049 431.952C130.711 431.611 131.447 431.44 132.257 431.44C132.897 431.44 133.489 431.557 134.033 431.792C134.588 432.027 135.041 432.373 135.393 432.832V431.52H136.849ZM132.433 438.304C132.988 438.304 133.484 438.187 133.921 437.952C134.369 437.717 134.716 437.392 134.961 436.976C135.217 436.549 135.345 436.069 135.345 435.536C135.345 434.715 135.073 434.053 134.529 433.552C133.985 433.04 133.287 432.784 132.433 432.784C131.569 432.784 130.865 433.04 130.321 433.552C129.777 434.053 129.505 434.715 129.505 435.536C129.505 436.069 129.628 436.549 129.873 436.976C130.129 437.392 130.476 437.717 130.913 437.952C131.361 438.187 131.868 438.304 132.433 438.304ZM148.673 428.8C150.124 428.8 151.265 429.147 152.097 429.84C152.929 430.533 153.345 431.488 153.345 432.704C153.345 433.92 152.929 434.875 152.097 435.568C151.265 436.261 150.124 436.608 148.673 436.608H145.905V440H144.305V428.8H148.673ZM148.625 435.216C149.638 435.216 150.412 435.003 150.945 434.576C151.478 434.139 151.745 433.515 151.745 432.704C151.745 431.893 151.478 431.275 150.945 430.848C150.412 430.411 149.638 430.192 148.625 430.192H145.905V435.216H148.625ZM155.628 428.128H157.164V440H155.628V428.128ZM163.185 431.44C164.358 431.44 165.254 431.728 165.873 432.304C166.502 432.88 166.817 433.739 166.817 434.88V440H165.361V438.88C165.105 439.275 164.737 439.579 164.257 439.792C163.787 439.995 163.227 440.096 162.577 440.096C161.627 440.096 160.865 439.867 160.289 439.408C159.723 438.949 159.441 438.347 159.441 437.6C159.441 436.853 159.713 436.256 160.257 435.808C160.801 435.349 161.665 435.12 162.849 435.12H165.281V434.816C165.281 434.155 165.089 433.648 164.705 433.296C164.321 432.944 163.755 432.768 163.009 432.768C162.507 432.768 162.017 432.853 161.537 433.024C161.057 433.184 160.651 433.403 160.321 433.68L159.681 432.528C160.118 432.176 160.641 431.909 161.249 431.728C161.857 431.536 162.502 431.44 163.185 431.44ZM162.833 438.912C163.419 438.912 163.926 438.784 164.353 438.528C164.779 438.261 165.089 437.888 165.281 437.408V436.224H162.913C161.611 436.224 160.961 436.661 160.961 437.536C160.961 437.963 161.126 438.299 161.457 438.544C161.787 438.789 162.246 438.912 162.833 438.912ZM174.427 439.504C174.203 439.696 173.926 439.845 173.595 439.952C173.264 440.048 172.923 440.096 172.571 440.096C171.718 440.096 171.056 439.867 170.587 439.408C170.118 438.949 169.883 438.293 169.883 437.44V432.784H168.443V431.52H169.883V429.664H171.419V431.52H173.851V432.784H171.419V437.376C171.419 437.835 171.531 438.187 171.755 438.432C171.99 438.677 172.32 438.8 172.747 438.8C173.216 438.8 173.616 438.667 173.947 438.4L174.427 439.504ZM179.388 429.296C178.471 429.296 178.012 429.792 178.012 430.784V431.52H180.476V432.784H178.044V440H176.508V432.784H175.068V431.52H176.508V430.768C176.508 429.925 176.753 429.259 177.244 428.768C177.735 428.277 178.423 428.032 179.308 428.032C179.649 428.032 179.969 428.075 180.268 428.16C180.567 428.245 180.823 428.368 181.036 428.528L180.572 429.696C180.22 429.429 179.825 429.296 179.388 429.296ZM185.432 440.096C184.589 440.096 183.832 439.909 183.16 439.536C182.488 439.163 181.96 438.651 181.576 438C181.202 437.339 181.016 436.592 181.016 435.76C181.016 434.928 181.202 434.187 181.576 433.536C181.96 432.875 182.488 432.363 183.16 432C183.832 431.627 184.589 431.44 185.432 431.44C186.274 431.44 187.026 431.627 187.688 432C188.36 432.363 188.882 432.875 189.256 433.536C189.64 434.187 189.832 434.928 189.832 435.76C189.832 436.592 189.64 437.339 189.256 438C188.882 438.651 188.36 439.163 187.688 439.536C187.026 439.909 186.274 440.096 185.432 440.096ZM185.432 438.752C185.976 438.752 186.461 438.629 186.888 438.384C187.325 438.128 187.666 437.776 187.912 437.328C188.157 436.869 188.28 436.347 188.28 435.76C188.28 435.173 188.157 434.656 187.912 434.208C187.666 433.749 187.325 433.397 186.888 433.152C186.461 432.907 185.976 432.784 185.432 432.784C184.888 432.784 184.397 432.907 183.96 433.152C183.533 433.397 183.192 433.749 182.936 434.208C182.69 434.656 182.568 435.173 182.568 435.76C182.568 436.347 182.69 436.869 182.936 437.328C183.192 437.776 183.533 438.128 183.96 438.384C184.397 438.629 184.888 438.752 185.432 438.752ZM193.428 432.944C193.695 432.453 194.089 432.08 194.612 431.824C195.135 431.568 195.769 431.44 196.516 431.44V432.928C196.431 432.917 196.313 432.912 196.164 432.912C195.332 432.912 194.676 433.163 194.196 433.664C193.727 434.155 193.492 434.859 193.492 435.776V440H191.956V431.52H193.428V432.944ZM209.017 431.44C210.084 431.44 210.926 431.749 211.545 432.368C212.174 432.987 212.489 433.904 212.489 435.12V440H210.953V435.296C210.953 434.475 210.761 433.856 210.377 433.44C210.004 433.024 209.465 432.816 208.761 432.816C207.982 432.816 207.364 433.061 206.905 433.552C206.446 434.032 206.217 434.725 206.217 435.632V440H204.681V435.296C204.681 434.475 204.489 433.856 204.105 433.44C203.732 433.024 203.193 432.816 202.489 432.816C201.71 432.816 201.092 433.061 200.633 433.552C200.174 434.032 199.945 434.725 199.945 435.632V440H198.409V431.52H199.881V432.784C200.19 432.347 200.596 432.016 201.097 431.792C201.598 431.557 202.169 431.44 202.809 431.44C203.47 431.44 204.057 431.573 204.569 431.84C205.081 432.107 205.476 432.496 205.753 433.008C206.073 432.517 206.516 432.133 207.081 431.856C207.657 431.579 208.302 431.44 209.017 431.44Z" fill="#777E90"/>
<circle cx="145" cy="381" r="9" fill="#E6007A"/>
<path d="M105.128 594L105.112 586.576L101.432 592.72H100.504L96.8239 586.672V594H94.8399V582.8H96.5519L101 590.224L105.368 582.8H107.08L107.096 594H105.128ZM117.385 591.408H111.785L110.681 594H108.537L113.577 582.8H115.625L120.681 594H118.505L117.385 591.408ZM116.697 589.776L114.585 584.88L112.489 589.776H116.697ZM129.434 594L127.146 590.72C127.05 590.731 126.906 590.736 126.714 590.736H124.186V594H122.106V582.8H126.714C127.684 582.8 128.527 582.96 129.242 583.28C129.967 583.6 130.522 584.059 130.906 584.656C131.29 585.253 131.482 585.963 131.482 586.784C131.482 587.627 131.274 588.352 130.858 588.96C130.452 589.568 129.866 590.021 129.098 590.32L131.674 594H129.434ZM129.386 586.784C129.386 586.069 129.151 585.52 128.682 585.136C128.212 584.752 127.524 584.56 126.618 584.56H124.186V589.024H126.618C127.524 589.024 128.212 588.832 128.682 588.448C129.151 588.053 129.386 587.499 129.386 586.784ZM138.993 594.16C137.862 594.16 136.838 593.915 135.921 593.424C135.014 592.923 134.299 592.235 133.777 591.36C133.265 590.485 133.009 589.499 133.009 588.4C133.009 587.301 133.27 586.315 133.793 585.44C134.315 584.565 135.03 583.883 135.937 583.392C136.854 582.891 137.878 582.64 139.009 582.64C139.926 582.64 140.763 582.8 141.521 583.12C142.278 583.44 142.918 583.904 143.441 584.512L142.097 585.776C141.286 584.901 140.289 584.464 139.105 584.464C138.337 584.464 137.649 584.635 137.041 584.976C136.433 585.307 135.958 585.771 135.617 586.368C135.275 586.965 135.105 587.643 135.105 588.4C135.105 589.157 135.275 589.835 135.617 590.432C135.958 591.029 136.433 591.499 137.041 591.84C137.649 592.171 138.337 592.336 139.105 592.336C140.289 592.336 141.286 591.893 142.097 591.008L143.441 592.288C142.918 592.896 142.273 593.36 141.505 593.68C140.747 594 139.91 594.16 138.993 594.16ZM155.386 582.8V594H153.306V589.2H147.514V594H145.434V582.8H147.514V587.424H153.306V582.8H155.386ZM170.121 592.24V594H161.865V592.608L166.313 588.384C166.814 587.904 167.15 587.488 167.321 587.136C167.502 586.773 167.593 586.416 167.593 586.064C167.593 585.541 167.417 585.141 167.065 584.864C166.713 584.587 166.195 584.448 165.513 584.448C164.371 584.448 163.497 584.837 162.889 585.616L161.433 584.496C161.87 583.909 162.457 583.456 163.193 583.136C163.939 582.805 164.771 582.64 165.689 582.64C166.905 582.64 167.875 582.928 168.601 583.504C169.326 584.08 169.689 584.864 169.689 585.856C169.689 586.464 169.561 587.035 169.305 587.568C169.049 588.101 168.558 588.709 167.833 589.392L164.841 592.24H170.121ZM175.946 594.16C175.05 594.16 174.25 593.936 173.546 593.488C172.842 593.029 172.288 592.368 171.882 591.504C171.477 590.629 171.274 589.595 171.274 588.4C171.274 587.205 171.477 586.176 171.882 585.312C172.288 584.437 172.842 583.776 173.546 583.328C174.25 582.869 175.05 582.64 175.946 582.64C176.842 582.64 177.642 582.869 178.346 583.328C179.061 583.776 179.621 584.437 180.026 585.312C180.432 586.176 180.634 587.205 180.634 588.4C180.634 589.595 180.432 590.629 180.026 591.504C179.621 592.368 179.061 593.029 178.346 593.488C177.642 593.936 176.842 594.16 175.946 594.16ZM175.946 592.352C176.746 592.352 177.376 592.021 177.834 591.36C178.304 590.699 178.538 589.712 178.538 588.4C178.538 587.088 178.304 586.101 177.834 585.44C177.376 584.779 176.746 584.448 175.946 584.448C175.157 584.448 174.528 584.779 174.058 585.44C173.6 586.101 173.37 587.088 173.37 588.4C173.37 589.712 173.6 590.699 174.058 591.36C174.528 592.021 175.157 592.352 175.946 592.352ZM190.074 592.24V594H181.818V592.608L186.266 588.384C186.767 587.904 187.103 587.488 187.274 587.136C187.455 586.773 187.546 586.416 187.546 586.064C187.546 585.541 187.37 585.141 187.018 584.864C186.666 584.587 186.148 584.448 185.466 584.448C184.324 584.448 183.45 584.837 182.842 585.616L181.386 584.496C181.823 583.909 182.41 583.456 183.146 583.136C183.892 582.805 184.724 582.64 185.642 582.64C186.858 582.64 187.828 582.928 188.554 583.504C189.279 584.08 189.642 584.864 189.642 585.856C189.642 586.464 189.514 587.035 189.258 587.568C189.002 588.101 188.511 588.709 187.786 589.392L184.794 592.24H190.074ZM195.146 582.8V594H193.066V584.544H190.698V582.8H195.146Z" fill="#040404"/>
<path d="M11.312 618.8V630H10L3.28 621.648V630H1.68V618.8H2.992L9.712 627.152V618.8H11.312ZM18.0724 630.096C17.2297 630.096 16.4724 629.909 15.8004 629.536C15.1284 629.163 14.6004 628.651 14.2164 628C13.843 627.339 13.6564 626.592 13.6564 625.76C13.6564 624.928 13.843 624.187 14.2164 623.536C14.6004 622.875 15.1284 622.363 15.8004 622C16.4724 621.627 17.2297 621.44 18.0724 621.44C18.915 621.44 19.667 621.627 20.3284 622C21.0004 622.363 21.523 622.875 21.8964 623.536C22.2804 624.187 22.4724 624.928 22.4724 625.76C22.4724 626.592 22.2804 627.339 21.8964 628C21.523 628.651 21.0004 629.163 20.3284 629.536C19.667 629.909 18.915 630.096 18.0724 630.096ZM18.0724 628.752C18.6164 628.752 19.1017 628.629 19.5284 628.384C19.9657 628.128 20.307 627.776 20.5524 627.328C20.7977 626.869 20.9204 626.347 20.9204 625.76C20.9204 625.173 20.7977 624.656 20.5524 624.208C20.307 623.749 19.9657 623.397 19.5284 623.152C19.1017 622.907 18.6164 622.784 18.0724 622.784C17.5284 622.784 17.0377 622.907 16.6004 623.152C16.1737 623.397 15.8324 623.749 15.5764 624.208C15.331 624.656 15.2084 625.173 15.2084 625.76C15.2084 626.347 15.331 626.869 15.5764 627.328C15.8324 627.776 16.1737 628.128 16.6004 628.384C17.0377 628.629 17.5284 628.752 18.0724 628.752ZM29.1246 621.44C30.202 621.44 31.0553 621.755 31.6846 622.384C32.3246 623.003 32.6446 623.915 32.6446 625.12V630H31.1086V625.296C31.1086 624.475 30.9113 623.856 30.5166 623.44C30.122 623.024 29.5566 622.816 28.8206 622.816C27.9886 622.816 27.3326 623.061 26.8526 623.552C26.3726 624.032 26.1326 624.725 26.1326 625.632V630H24.5966V621.52H26.0686V622.8C26.378 622.363 26.794 622.027 27.3166 621.792C27.85 621.557 28.4526 621.44 29.1246 621.44ZM34.9433 624.944H39.2473V626.272H34.9433V624.944ZM43.4363 620.192V624.096H49.0523V625.472H43.4363V630H41.8363V618.8H49.7403V620.192H43.4363ZM59.4069 621.52V630H57.9509V628.72C57.6415 629.157 57.2309 629.499 56.7189 629.744C56.2175 629.979 55.6682 630.096 55.0709 630.096C53.9402 630.096 53.0495 629.787 52.3989 629.168C51.7482 628.539 51.4229 627.616 51.4229 626.4V621.52H52.9589V626.224C52.9589 627.045 53.1562 627.669 53.5509 628.096C53.9455 628.512 54.5109 628.72 55.2469 628.72C56.0575 628.72 56.6975 628.475 57.1669 627.984C57.6362 627.493 57.8709 626.8 57.8709 625.904V621.52H59.4069ZM66.859 621.44C67.9363 621.44 68.7897 621.755 69.419 622.384C70.059 623.003 70.379 623.915 70.379 625.12V630H68.843V625.296C68.843 624.475 68.6457 623.856 68.251 623.44C67.8563 623.024 67.291 622.816 66.555 622.816C65.723 622.816 65.067 623.061 64.587 623.552C64.107 624.032 63.867 624.725 63.867 625.632V630H62.331V621.52H63.803V622.8C64.1123 622.363 64.5283 622.027 65.051 621.792C65.5843 621.557 66.187 621.44 66.859 621.44ZM81.3805 621.52V628.848C81.3805 630.331 81.0125 631.424 80.2765 632.128C79.5405 632.843 78.4418 633.2 76.9805 633.2C76.1805 633.2 75.4178 633.088 74.6925 632.864C73.9672 632.651 73.3805 632.341 72.9325 631.936L73.6685 630.752C74.0632 631.093 74.5485 631.36 75.1245 631.552C75.7112 631.755 76.3138 631.856 76.9325 631.856C77.9245 631.856 78.6552 631.621 79.1245 631.152C79.6045 630.683 79.8445 629.968 79.8445 629.008V628.336C79.4818 628.773 79.0338 629.104 78.5005 629.328C77.9778 629.541 77.4072 629.648 76.7885 629.648C75.9778 629.648 75.2418 629.477 74.5805 629.136C73.9298 628.784 73.4178 628.299 73.0445 627.68C72.6712 627.051 72.4845 626.336 72.4845 625.536C72.4845 624.736 72.6712 624.027 73.0445 623.408C73.4178 622.779 73.9298 622.293 74.5805 621.952C75.2418 621.611 75.9778 621.44 76.7885 621.44C77.4285 621.44 78.0205 621.557 78.5645 621.792C79.1192 622.027 79.5725 622.373 79.9245 622.832V621.52H81.3805ZM76.9645 628.304C77.5192 628.304 78.0152 628.187 78.4525 627.952C78.9005 627.717 79.2472 627.392 79.4925 626.976C79.7485 626.549 79.8765 626.069 79.8765 625.536C79.8765 624.715 79.6045 624.053 79.0605 623.552C78.5165 623.04 77.8178 622.784 76.9645 622.784C76.1005 622.784 75.3965 623.04 74.8525 623.552C74.3085 624.053 74.0365 624.715 74.0365 625.536C74.0365 626.069 74.1592 626.549 74.4045 626.976C74.6605 627.392 75.0072 627.717 75.4445 627.952C75.8925 628.187 76.3992 628.304 76.9645 628.304ZM84.3154 621.52H85.8514V630H84.3154V621.52ZM85.0834 619.888C84.7847 619.888 84.534 619.792 84.3314 619.6C84.1394 619.408 84.0434 619.173 84.0434 618.896C84.0434 618.619 84.1394 618.384 84.3314 618.192C84.534 617.989 84.7847 617.888 85.0834 617.888C85.382 617.888 85.6274 617.984 85.8194 618.176C86.022 618.357 86.1234 618.587 86.1234 618.864C86.1234 619.152 86.022 619.397 85.8194 619.6C85.6274 619.792 85.382 619.888 85.0834 619.888ZM93.2801 621.44C94.1015 621.44 94.8375 621.621 95.4881 621.984C96.1388 622.347 96.6455 622.853 97.0081 623.504C97.3815 624.155 97.5681 624.907 97.5681 625.76C97.5681 626.613 97.3815 627.371 97.0081 628.032C96.6455 628.683 96.1388 629.189 95.4881 629.552C94.8375 629.915 94.1015 630.096 93.2801 630.096C92.6508 630.096 92.0748 629.973 91.5521 629.728C91.0295 629.483 90.5975 629.125 90.2561 628.656V630H88.7841V618.128H90.3201V622.8C90.6615 622.352 91.0881 622.016 91.6001 621.792C92.1121 621.557 92.6721 621.44 93.2801 621.44ZM93.1521 628.752C93.6961 628.752 94.1815 628.629 94.6081 628.384C95.0455 628.128 95.3868 627.776 95.6321 627.328C95.8881 626.869 96.0161 626.347 96.0161 625.76C96.0161 625.173 95.8881 624.656 95.6321 624.208C95.3868 623.749 95.0455 623.397 94.6081 623.152C94.1815 622.907 93.6961 622.784 93.1521 622.784C92.6188 622.784 92.1335 622.907 91.6961 623.152C91.2588 623.397 90.9175 623.749 90.6721 624.208C90.4268 624.656 90.3041 625.173 90.3041 625.76C90.3041 626.347 90.4268 626.869 90.6721 627.328C90.9175 627.776 91.2588 628.128 91.6961 628.384C92.1335 628.629 92.6188 628.752 93.1521 628.752ZM99.6904 618.128H101.226V630H99.6904V618.128ZM111.823 625.808C111.823 625.925 111.812 626.08 111.791 626.272H104.911C105.007 627.019 105.332 627.621 105.887 628.08C106.452 628.528 107.151 628.752 107.983 628.752C108.996 628.752 109.812 628.411 110.431 627.728L111.279 628.72C110.895 629.168 110.415 629.509 109.839 629.744C109.274 629.979 108.639 630.096 107.935 630.096C107.039 630.096 106.244 629.915 105.551 629.552C104.858 629.179 104.319 628.661 103.935 628C103.562 627.339 103.375 626.592 103.375 625.76C103.375 624.939 103.556 624.197 103.919 623.536C104.292 622.875 104.799 622.363 105.439 622C106.09 621.627 106.82 621.44 107.631 621.44C108.442 621.44 109.162 621.627 109.791 622C110.431 622.363 110.927 622.875 111.279 623.536C111.642 624.197 111.823 624.955 111.823 625.808ZM107.631 622.736C106.895 622.736 106.276 622.96 105.775 623.408C105.284 623.856 104.996 624.443 104.911 625.168H110.351C110.266 624.453 109.972 623.872 109.471 623.424C108.98 622.965 108.367 622.736 107.631 622.736ZM120.701 620.192H116.861V618.8H126.125V620.192H122.285V630H120.701V620.192ZM130.401 630.096C129.558 630.096 128.801 629.909 128.129 629.536C127.457 629.163 126.929 628.651 126.545 628C126.171 627.339 125.985 626.592 125.985 625.76C125.985 624.928 126.171 624.187 126.545 623.536C126.929 622.875 127.457 622.363 128.129 622C128.801 621.627 129.558 621.44 130.401 621.44C131.243 621.44 131.995 621.627 132.657 622C133.329 622.363 133.851 622.875 134.225 623.536C134.609 624.187 134.801 624.928 134.801 625.76C134.801 626.592 134.609 627.339 134.225 628C133.851 628.651 133.329 629.163 132.657 629.536C131.995 629.909 131.243 630.096 130.401 630.096ZM130.401 628.752C130.945 628.752 131.43 628.629 131.857 628.384C132.294 628.128 132.635 627.776 132.881 627.328C133.126 626.869 133.249 626.347 133.249 625.76C133.249 625.173 133.126 624.656 132.881 624.208C132.635 623.749 132.294 623.397 131.857 623.152C131.43 622.907 130.945 622.784 130.401 622.784C129.857 622.784 129.366 622.907 128.929 623.152C128.502 623.397 128.161 623.749 127.905 624.208C127.659 624.656 127.537 625.173 127.537 625.76C127.537 626.347 127.659 626.869 127.905 627.328C128.161 627.776 128.502 628.128 128.929 628.384C129.366 628.629 129.857 628.752 130.401 628.752ZM140.221 626.048L138.461 627.68V630H136.925V618.128H138.461V625.744L143.085 621.52H144.941L141.373 625.024L145.293 630H143.405L140.221 626.048ZM154.089 625.808C154.089 625.925 154.078 626.08 154.057 626.272H147.177C147.273 627.019 147.598 627.621 148.153 628.08C148.718 628.528 149.417 628.752 150.249 628.752C151.262 628.752 152.078 628.411 152.697 627.728L153.545 628.72C153.161 629.168 152.681 629.509 152.105 629.744C151.539 629.979 150.905 630.096 150.201 630.096C149.305 630.096 148.51 629.915 147.817 629.552C147.123 629.179 146.585 628.661 146.201 628C145.827 627.339 145.641 626.592 145.641 625.76C145.641 624.939 145.822 624.197 146.185 623.536C146.558 622.875 147.065 622.363 147.705 622C148.355 621.627 149.086 621.44 149.897 621.44C150.707 621.44 151.427 621.627 152.057 622C152.697 622.363 153.193 622.875 153.545 623.536C153.907 624.197 154.089 624.955 154.089 625.808ZM149.897 622.736C149.161 622.736 148.542 622.96 148.041 623.408C147.55 623.856 147.262 624.443 147.177 625.168H152.617C152.531 624.453 152.238 623.872 151.737 623.424C151.246 622.965 150.633 622.736 149.897 622.736ZM160.75 621.44C161.827 621.44 162.68 621.755 163.31 622.384C163.95 623.003 164.27 623.915 164.27 625.12V630H162.734V625.296C162.734 624.475 162.536 623.856 162.142 623.44C161.747 623.024 161.182 622.816 160.446 622.816C159.614 622.816 158.958 623.061 158.478 623.552C157.998 624.032 157.758 624.725 157.758 625.632V630H156.222V621.52H157.694V622.8C158.003 622.363 158.419 622.027 158.942 621.792C159.475 621.557 160.078 621.44 160.75 621.44ZM173.377 633.104C172.769 632.123 172.3 630.997 171.969 629.728C171.638 628.448 171.473 627.077 171.473 625.616C171.473 624.155 171.638 622.784 171.969 621.504C172.3 620.213 172.769 619.088 173.377 618.128H174.833C174.193 619.248 173.724 620.421 173.425 621.648C173.126 622.875 172.977 624.197 172.977 625.616C172.977 627.035 173.126 628.357 173.425 629.584C173.724 630.811 174.193 631.984 174.833 633.104H173.377ZM186.656 618.8V630H185.344L178.624 621.648V630H177.024V618.8H178.336L185.056 627.152V618.8H186.656ZM191.608 620.192V624.096H197.224V625.472H191.608V630H190.008V618.8H197.912V620.192H191.608ZM202.467 620.192H198.627V618.8H207.891V620.192H204.051V630H202.467V620.192ZM208.465 633.104C209.105 631.984 209.574 630.811 209.873 629.584C210.182 628.357 210.337 627.035 210.337 625.616C210.337 624.197 210.182 622.875 209.873 621.648C209.574 620.421 209.105 619.248 208.465 618.128H209.921C210.54 619.088 211.014 620.208 211.345 621.488C211.676 622.768 211.841 624.144 211.841 625.616C211.841 627.077 211.676 628.448 211.345 629.728C211.014 631.008 210.54 632.133 209.921 633.104H208.465ZM223.704 618.8C225.155 618.8 226.296 619.147 227.128 619.84C227.96 620.533 228.376 621.488 228.376 622.704C228.376 623.92 227.96 624.875 227.128 625.568C226.296 626.261 225.155 626.608 223.704 626.608H220.936V630H219.336V618.8H223.704ZM223.656 625.216C224.67 625.216 225.443 625.003 225.976 624.576C226.51 624.139 226.776 623.515 226.776 622.704C226.776 621.893 226.51 621.275 225.976 620.848C225.443 620.411 224.67 620.192 223.656 620.192H220.936V625.216H223.656ZM230.659 618.128H232.195V630H230.659V618.128ZM238.216 621.44C239.389 621.44 240.285 621.728 240.904 622.304C241.533 622.88 241.848 623.739 241.848 624.88V630H240.392V628.88C240.136 629.275 239.768 629.579 239.288 629.792C238.819 629.995 238.259 630.096 237.608 630.096C236.659 630.096 235.896 629.867 235.32 629.408C234.755 628.949 234.472 628.347 234.472 627.6C234.472 626.853 234.744 626.256 235.288 625.808C235.832 625.349 236.696 625.12 237.88 625.12H240.312V624.816C240.312 624.155 240.12 623.648 239.736 623.296C239.352 622.944 238.787 622.768 238.04 622.768C237.539 622.768 237.048 622.853 236.568 623.024C236.088 623.184 235.683 623.403 235.352 623.68L234.712 622.528C235.149 622.176 235.672 621.909 236.28 621.728C236.888 621.536 237.533 621.44 238.216 621.44ZM237.864 628.912C238.451 628.912 238.957 628.784 239.384 628.528C239.811 628.261 240.12 627.888 240.312 627.408V626.224H237.944C236.643 626.224 235.992 626.661 235.992 627.536C235.992 627.963 236.157 628.299 236.488 628.544C236.819 628.789 237.277 628.912 237.864 628.912ZM249.458 629.504C249.234 629.696 248.957 629.845 248.626 629.952C248.296 630.048 247.954 630.096 247.602 630.096C246.749 630.096 246.088 629.867 245.618 629.408C245.149 628.949 244.914 628.293 244.914 627.44V622.784H243.474V621.52H244.914V619.664H246.45V621.52H248.882V622.784H246.45V627.376C246.45 627.835 246.562 628.187 246.786 628.432C247.021 628.677 247.352 628.8 247.778 628.8C248.248 628.8 248.648 628.667 248.978 628.4L249.458 629.504ZM254.419 619.296C253.502 619.296 253.043 619.792 253.043 620.784V621.52H255.507V622.784H253.075V630H251.539V622.784H250.099V621.52H251.539V620.768C251.539 619.925 251.785 619.259 252.275 618.768C252.766 618.277 253.454 618.032 254.339 618.032C254.681 618.032 255.001 618.075 255.299 618.16C255.598 618.245 255.854 618.368 256.067 618.528L255.603 619.696C255.251 619.429 254.857 619.296 254.419 619.296ZM260.463 630.096C259.62 630.096 258.863 629.909 258.191 629.536C257.519 629.163 256.991 628.651 256.607 628C256.234 627.339 256.047 626.592 256.047 625.76C256.047 624.928 256.234 624.187 256.607 623.536C256.991 622.875 257.519 622.363 258.191 622C258.863 621.627 259.62 621.44 260.463 621.44C261.306 621.44 262.058 621.627 262.719 622C263.391 622.363 263.914 622.875 264.287 623.536C264.671 624.187 264.863 624.928 264.863 625.76C264.863 626.592 264.671 627.339 264.287 628C263.914 628.651 263.391 629.163 262.719 629.536C262.058 629.909 261.306 630.096 260.463 630.096ZM260.463 628.752C261.007 628.752 261.492 628.629 261.919 628.384C262.356 628.128 262.698 627.776 262.943 627.328C263.188 626.869 263.311 626.347 263.311 625.76C263.311 625.173 263.188 624.656 262.943 624.208C262.698 623.749 262.356 623.397 261.919 623.152C261.492 622.907 261.007 622.784 260.463 622.784C259.919 622.784 259.428 622.907 258.991 623.152C258.564 623.397 258.223 623.749 257.967 624.208C257.722 624.656 257.599 625.173 257.599 625.76C257.599 626.347 257.722 626.869 257.967 627.328C258.223 627.776 258.564 628.128 258.991 628.384C259.428 628.629 259.919 628.752 260.463 628.752ZM268.459 622.944C268.726 622.453 269.121 622.08 269.643 621.824C270.166 621.568 270.801 621.44 271.547 621.44V622.928C271.462 622.917 271.345 622.912 271.195 622.912C270.363 622.912 269.707 623.163 269.227 623.664C268.758 624.155 268.523 624.859 268.523 625.776V630H266.987V621.52H268.459V622.944ZM284.048 621.44C285.115 621.44 285.958 621.749 286.576 622.368C287.206 622.987 287.52 623.904 287.52 625.12V630H285.984V625.296C285.984 624.475 285.792 623.856 285.408 623.44C285.035 623.024 284.496 622.816 283.792 622.816C283.014 622.816 282.395 623.061 281.936 623.552C281.478 624.032 281.248 624.725 281.248 625.632V630H279.712V625.296C279.712 624.475 279.52 623.856 279.136 623.44C278.763 623.024 278.224 622.816 277.52 622.816C276.742 622.816 276.123 623.061 275.664 623.552C275.206 624.032 274.976 624.725 274.976 625.632V630H273.44V621.52H274.912V622.784C275.222 622.347 275.627 622.016 276.128 621.792C276.63 621.557 277.2 621.44 277.84 621.44C278.502 621.44 279.088 621.573 279.6 621.84C280.112 622.107 280.507 622.496 280.784 623.008C281.104 622.517 281.547 622.133 282.112 621.856C282.688 621.579 283.334 621.44 284.048 621.44Z" fill="#777E90"/>
<circle cx="145" cy="559" r="9" fill="#040404"/>
<path d="M127.625 975.12C127.252 975.557 126.814 975.888 126.313 976.112C125.822 976.336 125.284 976.448 124.697 976.448C123.929 976.448 123.225 976.272 122.585 975.92C121.945 975.579 121.214 974.981 120.393 974.128C119.358 974.043 118.43 973.744 117.609 973.232C116.788 972.709 116.148 972.032 115.689 971.2C115.23 970.357 115.001 969.424 115.001 968.4C115.001 967.312 115.262 966.331 115.785 965.456C116.308 964.571 117.028 963.883 117.945 963.392C118.862 962.891 119.892 962.64 121.033 962.64C122.174 962.64 123.204 962.891 124.121 963.392C125.038 963.883 125.758 964.565 126.281 965.44C126.804 966.315 127.065 967.301 127.065 968.4C127.065 969.285 126.889 970.107 126.537 970.864C126.185 971.611 125.694 972.251 125.065 972.784C124.436 973.307 123.705 973.685 122.873 973.92C123.182 974.251 123.486 974.491 123.785 974.64C124.084 974.789 124.404 974.864 124.745 974.864C125.481 974.864 126.121 974.565 126.665 973.968L127.625 975.12ZM117.097 968.4C117.097 969.147 117.268 969.824 117.609 970.432C117.95 971.029 118.42 971.499 119.017 971.84C119.614 972.171 120.286 972.336 121.033 972.336C121.78 972.336 122.452 972.171 123.049 971.84C123.646 971.499 124.116 971.029 124.457 970.432C124.798 969.824 124.969 969.147 124.969 968.4C124.969 967.653 124.798 966.981 124.457 966.384C124.116 965.776 123.646 965.307 123.049 964.976C122.452 964.635 121.78 964.464 121.033 964.464C120.286 964.464 119.614 964.635 119.017 964.976C118.42 965.307 117.95 965.776 117.609 966.384C117.268 966.981 117.097 967.653 117.097 968.4ZM132.185 962.8V974H130.105V964.544H127.737V962.8H132.185ZM146.941 972.24V974H138.685V972.608L143.133 968.384C143.634 967.904 143.97 967.488 144.141 967.136C144.322 966.773 144.413 966.416 144.413 966.064C144.413 965.541 144.237 965.141 143.885 964.864C143.533 964.587 143.016 964.448 142.333 964.448C141.192 964.448 140.317 964.837 139.709 965.616L138.253 964.496C138.69 963.909 139.277 963.456 140.013 963.136C140.76 962.805 141.592 962.64 142.509 962.64C143.725 962.64 144.696 962.928 145.421 963.504C146.146 964.08 146.509 964.864 146.509 965.856C146.509 966.464 146.381 967.035 146.125 967.568C145.869 968.101 145.378 968.709 144.653 969.392L141.661 972.24H146.941ZM152.767 974.16C151.871 974.16 151.071 973.936 150.367 973.488C149.663 973.029 149.108 972.368 148.703 971.504C148.297 970.629 148.095 969.595 148.095 968.4C148.095 967.205 148.297 966.176 148.703 965.312C149.108 964.437 149.663 963.776 150.367 963.328C151.071 962.869 151.871 962.64 152.767 962.64C153.663 962.64 154.463 962.869 155.167 963.328C155.881 963.776 156.441 964.437 156.847 965.312C157.252 966.176 157.455 967.205 157.455 968.4C157.455 969.595 157.252 970.629 156.847 971.504C156.441 972.368 155.881 973.029 155.167 973.488C154.463 973.936 153.663 974.16 152.767 974.16ZM152.767 972.352C153.567 972.352 154.196 972.021 154.655 971.36C155.124 970.699 155.359 969.712 155.359 968.4C155.359 967.088 155.124 966.101 154.655 965.44C154.196 964.779 153.567 964.448 152.767 964.448C151.977 964.448 151.348 964.779 150.879 965.44C150.42 966.101 150.191 967.088 150.191 968.4C150.191 969.712 150.42 970.699 150.879 971.36C151.348 972.021 151.977 972.352 152.767 972.352ZM166.894 972.24V974H158.638V972.608L163.086 968.384C163.587 967.904 163.923 967.488 164.094 967.136C164.275 966.773 164.366 966.416 164.366 966.064C164.366 965.541 164.19 965.141 163.838 964.864C163.486 964.587 162.969 964.448 162.286 964.448C161.145 964.448 160.27 964.837 159.662 965.616L158.206 964.496C158.643 963.909 159.23 963.456 159.966 963.136C160.713 962.805 161.545 962.64 162.462 962.64C163.678 962.64 164.649 962.928 165.374 963.504C166.099 964.08 166.462 964.864 166.462 965.856C166.462 966.464 166.334 967.035 166.078 967.568C165.822 968.101 165.331 968.709 164.606 969.392L161.614 972.24H166.894ZM176.207 972.24V974H167.951V972.608L172.399 968.384C172.9 967.904 173.236 967.488 173.407 967.136C173.588 966.773 173.679 966.416 173.679 966.064C173.679 965.541 173.503 965.141 173.151 964.864C172.799 964.587 172.281 964.448 171.599 964.448C170.457 964.448 169.583 964.837 168.975 965.616L167.519 964.496C167.956 963.909 168.543 963.456 169.279 963.136C170.025 962.805 170.857 962.64 171.775 962.64C172.991 962.64 173.961 962.928 174.687 963.504C175.412 964.08 175.775 964.864 175.775 965.856C175.775 966.464 175.647 967.035 175.391 967.568C175.135 968.101 174.644 968.709 173.919 969.392L170.927 972.24H176.207Z" fill="#040404"/>
<path d="M108.261 1008.61V1010H100.133V998.8H108.037V1000.19H101.733V1003.63H107.349V1004.99H101.733V1008.61H108.261ZM110.852 998.8H115.572C116.756 998.8 117.807 999.035 118.724 999.504C119.641 999.973 120.351 1000.63 120.852 1001.49C121.364 1002.33 121.62 1003.3 121.62 1004.4C121.62 1005.5 121.364 1006.47 120.852 1007.33C120.351 1008.17 119.641 1008.83 118.724 1009.3C117.807 1009.77 116.756 1010 115.572 1010H110.852V998.8ZM115.476 1008.61C116.383 1008.61 117.177 1008.43 117.86 1008.08C118.553 1007.73 119.087 1007.24 119.46 1006.61C119.833 1005.97 120.02 1005.23 120.02 1004.4C120.02 1003.57 119.833 1002.84 119.46 1002.21C119.087 1001.57 118.553 1001.07 117.86 1000.72C117.177 1000.37 116.383 1000.19 115.476 1000.19H112.452V1008.61H115.476ZM124.071 998.8H128.791C129.975 998.8 131.025 999.035 131.943 999.504C132.86 999.973 133.569 1000.63 134.071 1001.49C134.583 1002.33 134.839 1003.3 134.839 1004.4C134.839 1005.5 134.583 1006.47 134.071 1007.33C133.569 1008.17 132.86 1008.83 131.943 1009.3C131.025 1009.77 129.975 1010 128.791 1010H124.071V998.8ZM128.695 1008.61C129.601 1008.61 130.396 1008.43 131.079 1008.08C131.772 1007.73 132.305 1007.24 132.679 1006.61C133.052 1005.97 133.239 1005.23 133.239 1004.4C133.239 1003.57 133.052 1002.84 132.679 1002.21C132.305 1001.57 131.772 1001.07 131.079 1000.72C130.396 1000.37 129.601 1000.19 128.695 1000.19H125.671V1008.61H128.695ZM144.269 1007.2H138.317L137.085 1010H135.437L140.509 998.8H142.093L147.181 1010H145.501L144.269 1007.2ZM143.709 1005.92L141.293 1000.43L138.877 1005.92H143.709ZM152.116 1010.13C151.273 1010.13 150.457 1010 149.668 1009.74C148.889 1009.48 148.276 1009.14 147.828 1008.72L148.42 1007.47C148.847 1007.86 149.391 1008.17 150.052 1008.42C150.724 1008.65 151.412 1008.77 152.116 1008.77C153.044 1008.77 153.737 1008.61 154.196 1008.3C154.655 1007.98 154.884 1007.56 154.884 1007.04C154.884 1006.66 154.756 1006.35 154.5 1006.11C154.255 1005.87 153.945 1005.68 153.572 1005.55C153.209 1005.42 152.692 1005.28 152.02 1005.12C151.177 1004.92 150.495 1004.71 149.972 1004.51C149.46 1004.31 149.017 1004 148.644 1003.58C148.281 1003.16 148.1 1002.59 148.1 1001.87C148.1 1001.27 148.255 1000.74 148.564 1000.26C148.884 999.776 149.364 999.392 150.004 999.104C150.644 998.816 151.439 998.672 152.388 998.672C153.049 998.672 153.7 998.757 154.34 998.928C154.98 999.099 155.529 999.344 155.988 999.664L155.46 1000.94C154.991 1000.65 154.489 1000.42 153.956 1000.27C153.423 1000.11 152.9 1000.03 152.388 1000.03C151.481 1000.03 150.799 1000.2 150.34 1000.53C149.892 1000.86 149.668 1001.29 149.668 1001.81C149.668 1002.19 149.796 1002.51 150.052 1002.75C150.308 1002.99 150.623 1003.17 150.996 1003.31C151.38 1003.44 151.897 1003.58 152.548 1003.73C153.391 1003.93 154.068 1004.13 154.58 1004.34C155.092 1004.54 155.529 1004.85 155.892 1005.26C156.265 1005.68 156.452 1006.24 156.452 1006.94C156.452 1007.53 156.292 1008.07 155.972 1008.56C155.652 1009.04 155.167 1009.42 154.516 1009.71C153.865 1009.99 153.065 1010.13 152.116 1010.13ZM171.241 1001.52L168.073 1010H166.601L164.153 1003.57L161.673 1010H160.201L157.049 1001.52H158.505L160.969 1008.27L163.529 1001.52H164.825L167.337 1008.3L169.865 1001.52H171.241ZM175.622 1001.44C176.795 1001.44 177.691 1001.73 178.31 1002.3C178.939 1002.88 179.254 1003.74 179.254 1004.88V1010H177.798V1008.88C177.542 1009.27 177.174 1009.58 176.694 1009.79C176.225 1009.99 175.665 1010.1 175.014 1010.1C174.065 1010.1 173.302 1009.87 172.726 1009.41C172.161 1008.95 171.878 1008.35 171.878 1007.6C171.878 1006.85 172.15 1006.26 172.694 1005.81C173.238 1005.35 174.102 1005.12 175.286 1005.12H177.718V1004.82C177.718 1004.15 177.526 1003.65 177.142 1003.3C176.758 1002.94 176.193 1002.77 175.446 1002.77C174.945 1002.77 174.454 1002.85 173.974 1003.02C173.494 1003.18 173.089 1003.4 172.758 1003.68L172.118 1002.53C172.555 1002.18 173.078 1001.91 173.686 1001.73C174.294 1001.54 174.939 1001.44 175.622 1001.44ZM175.27 1008.91C175.857 1008.91 176.363 1008.78 176.79 1008.53C177.217 1008.26 177.526 1007.89 177.718 1007.41V1006.22H175.35C174.049 1006.22 173.398 1006.66 173.398 1007.54C173.398 1007.96 173.563 1008.3 173.894 1008.54C174.225 1008.79 174.683 1008.91 175.27 1008.91ZM186.593 1001.44C187.414 1001.44 188.15 1001.62 188.801 1001.98C189.451 1002.35 189.958 1002.85 190.321 1003.5C190.694 1004.15 190.881 1004.91 190.881 1005.76C190.881 1006.61 190.694 1007.37 190.321 1008.03C189.958 1008.68 189.451 1009.19 188.801 1009.55C188.15 1009.91 187.414 1010.1 186.593 1010.1C185.985 1010.1 185.425 1009.98 184.913 1009.74C184.411 1009.51 183.985 1009.17 183.633 1008.72V1013.1H182.097V1001.52H183.569V1002.86C183.91 1002.39 184.342 1002.04 184.865 1001.81C185.387 1001.56 185.963 1001.44 186.593 1001.44ZM186.465 1008.75C187.009 1008.75 187.494 1008.63 187.921 1008.38C188.358 1008.13 188.699 1007.78 188.945 1007.33C189.201 1006.87 189.329 1006.35 189.329 1005.76C189.329 1005.17 189.201 1004.66 188.945 1004.21C188.699 1003.75 188.358 1003.4 187.921 1003.15C187.494 1002.91 187.009 1002.78 186.465 1002.78C185.931 1002.78 185.446 1002.91 185.009 1003.17C184.582 1003.41 184.241 1003.76 183.985 1004.21C183.739 1004.66 183.617 1005.17 183.617 1005.76C183.617 1006.35 183.739 1006.87 183.985 1007.33C184.23 1007.78 184.571 1008.13 185.009 1008.38C185.446 1008.63 185.931 1008.75 186.465 1008.75Z" fill="#E6007A"/>
<circle cx="145" cy="939" r="9" fill="#040404"/>
<path d="M124.328 785.12C123.955 785.557 123.517 785.888 123.016 786.112C122.525 786.336 121.987 786.448 121.4 786.448C120.632 786.448 119.928 786.272 119.288 785.92C118.648 785.579 117.917 784.981 117.096 784.128C116.061 784.043 115.133 783.744 114.312 783.232C113.491 782.709 112.851 782.032 112.392 781.2C111.933 780.357 111.704 779.424 111.704 778.4C111.704 777.312 111.965 776.331 112.488 775.456C113.011 774.571 113.731 773.883 114.648 773.392C115.565 772.891 116.595 772.64 117.736 772.64C118.877 772.64 119.907 772.891 120.824 773.392C121.741 773.883 122.461 774.565 122.984 775.44C123.507 776.315 123.768 777.301 123.768 778.4C123.768 779.285 123.592 780.107 123.24 780.864C122.888 781.611 122.397 782.251 121.768 782.784C121.139 783.307 120.408 783.685 119.576 783.92C119.885 784.251 120.189 784.491 120.488 784.64C120.787 784.789 121.107 784.864 121.448 784.864C122.184 784.864 122.824 784.565 123.368 783.968L124.328 785.12ZM113.8 778.4C113.8 779.147 113.971 779.824 114.312 780.432C114.653 781.029 115.123 781.499 115.72 781.84C116.317 782.171 116.989 782.336 117.736 782.336C118.483 782.336 119.155 782.171 119.752 781.84C120.349 781.499 120.819 781.029 121.16 780.432C121.501 779.824 121.672 779.147 121.672 778.4C121.672 777.653 121.501 776.981 121.16 776.384C120.819 775.776 120.349 775.307 119.752 774.976C119.155 774.635 118.483 774.464 117.736 774.464C116.989 774.464 116.317 774.635 115.72 774.976C115.123 775.307 114.653 775.776 114.312 776.384C113.971 776.981 113.8 777.653 113.8 778.4ZM133.128 782.24V784H124.873V782.608L129.321 778.384C129.822 777.904 130.158 777.488 130.329 777.136C130.51 776.773 130.601 776.416 130.601 776.064C130.601 775.541 130.425 775.141 130.073 774.864C129.721 774.587 129.203 774.448 128.521 774.448C127.379 774.448 126.505 774.837 125.897 775.616L124.441 774.496C124.878 773.909 125.465 773.456 126.201 773.136C126.947 772.805 127.779 772.64 128.697 772.64C129.913 772.64 130.883 772.928 131.609 773.504C132.334 774.08 132.697 774.864 132.697 775.856C132.697 776.464 132.569 777.035 132.312 777.568C132.057 778.101 131.566 778.709 130.841 779.392L127.849 782.24H133.128ZM146.863 782.24V784H138.607V782.608L143.055 778.384C143.556 777.904 143.892 777.488 144.063 777.136C144.244 776.773 144.335 776.416 144.335 776.064C144.335 775.541 144.159 775.141 143.807 774.864C143.455 774.587 142.938 774.448 142.255 774.448C141.114 774.448 140.239 774.837 139.631 775.616L138.175 774.496C138.612 773.909 139.199 773.456 139.935 773.136C140.682 772.805 141.514 772.64 142.431 772.64C143.647 772.64 144.618 772.928 145.343 773.504C146.068 774.08 146.431 774.864 146.431 775.856C146.431 776.464 146.303 777.035 146.047 777.568C145.791 778.101 145.3 778.709 144.575 779.392L141.583 782.24H146.863ZM152.689 784.16C151.793 784.16 150.993 783.936 150.289 783.488C149.585 783.029 149.03 782.368 148.625 781.504C148.219 780.629 148.017 779.595 148.017 778.4C148.017 777.205 148.219 776.176 148.625 775.312C149.03 774.437 149.585 773.776 150.289 773.328C150.993 772.869 151.793 772.64 152.689 772.64C153.585 772.64 154.385 772.869 155.089 773.328C155.803 773.776 156.363 774.437 156.769 775.312C157.174 776.176 157.377 777.205 157.377 778.4C157.377 779.595 157.174 780.629 156.769 781.504C156.363 782.368 155.803 783.029 155.089 783.488C154.385 783.936 153.585 784.16 152.689 784.16ZM152.689 782.352C153.489 782.352 154.118 782.021 154.577 781.36C155.046 780.699 155.281 779.712 155.281 778.4C155.281 777.088 155.046 776.101 154.577 775.44C154.118 774.779 153.489 774.448 152.689 774.448C151.899 774.448 151.27 774.779 150.801 775.44C150.342 776.101 150.113 777.088 150.113 778.4C150.113 779.712 150.342 780.699 150.801 781.36C151.27 782.021 151.899 782.352 152.689 782.352ZM166.816 782.24V784H158.56V782.608L163.008 778.384C163.509 777.904 163.845 777.488 164.016 777.136C164.197 776.773 164.288 776.416 164.288 776.064C164.288 775.541 164.112 775.141 163.76 774.864C163.408 774.587 162.891 774.448 162.208 774.448C161.067 774.448 160.192 774.837 159.584 775.616L158.128 774.496C158.565 773.909 159.152 773.456 159.888 773.136C160.635 772.805 161.467 772.64 162.384 772.64C163.6 772.64 164.571 772.928 165.296 773.504C166.021 774.08 166.384 774.864 166.384 775.856C166.384 776.464 166.256 777.035 166 777.568C165.744 778.101 165.253 778.709 164.528 779.392L161.536 782.24H166.816ZM171.889 772.8V784H169.809V774.544H167.441V772.8H171.889Z" fill="#040404"/>
<path d="M22.68 808.8H27.4C28.584 808.8 29.6347 809.035 30.552 809.504C31.4693 809.973 32.1787 810.635 32.68 811.488C33.192 812.331 33.448 813.301 33.448 814.4C33.448 815.499 33.192 816.475 32.68 817.328C32.1787 818.171 31.4693 818.827 30.552 819.296C29.6347 819.765 28.584 820 27.4 820H22.68V808.8ZM27.304 818.608C28.2107 818.608 29.0053 818.432 29.688 818.08C30.3813 817.728 30.9147 817.237 31.288 816.608C31.6613 815.968 31.848 815.232 31.848 814.4C31.848 813.568 31.6613 812.837 31.288 812.208C30.9147 811.568 30.3813 811.072 29.688 810.72C29.0053 810.368 28.2107 810.192 27.304 810.192H24.28V818.608H27.304ZM43.3388 815.808C43.3388 815.925 43.3281 816.08 43.3068 816.272H36.4268C36.5228 817.019 36.8481 817.621 37.4028 818.08C37.9681 818.528 38.6668 818.752 39.4988 818.752C40.5121 818.752 41.3281 818.411 41.9468 817.728L42.7948 818.72C42.4108 819.168 41.9308 819.509 41.3548 819.744C40.7894 819.979 40.1548 820.096 39.4508 820.096C38.5548 820.096 37.7601 819.915 37.0668 819.552C36.3734 819.179 35.8348 818.661 35.4508 818C35.0774 817.339 34.8908 816.592 34.8908 815.76C34.8908 814.939 35.0721 814.197 35.4348 813.536C35.8081 812.875 36.3148 812.363 36.9548 812C37.6054 811.627 38.3361 811.44 39.1468 811.44C39.9574 811.44 40.6774 811.627 41.3068 812C41.9468 812.363 42.4428 812.875 42.7948 813.536C43.1574 814.197 43.3388 814.955 43.3388 815.808ZM39.1468 812.736C38.4108 812.736 37.7921 812.96 37.2908 813.408C36.8001 813.856 36.5121 814.443 36.4268 815.168H41.8668C41.7814 814.453 41.4881 813.872 40.9868 813.424C40.4961 812.965 39.8828 812.736 39.1468 812.736ZM49.1676 820.096C48.3036 820.096 47.5303 819.909 46.8476 819.536C46.1756 819.163 45.6476 818.651 45.2636 818C44.8796 817.339 44.6876 816.592 44.6876 815.76C44.6876 814.928 44.8796 814.187 45.2636 813.536C45.6476 812.875 46.1756 812.363 46.8476 812C47.5303 811.627 48.3036 811.44 49.1676 811.44C49.9356 811.44 50.6183 811.595 51.2156 811.904C51.8236 812.213 52.293 812.661 52.6236 813.248L51.4556 814C51.189 813.595 50.8583 813.291 50.4636 813.088C50.069 812.885 49.6316 812.784 49.1516 812.784C48.597 812.784 48.0956 812.907 47.6476 813.152C47.2103 813.397 46.8636 813.749 46.6076 814.208C46.3623 814.656 46.2396 815.173 46.2396 815.76C46.2396 816.357 46.3623 816.885 46.6076 817.344C46.8636 817.792 47.2103 818.139 47.6476 818.384C48.0956 818.629 48.597 818.752 49.1516 818.752C49.6316 818.752 50.069 818.651 50.4636 818.448C50.8583 818.245 51.189 817.941 51.4556 817.536L52.6236 818.272C52.293 818.859 51.8236 819.312 51.2156 819.632C50.6183 819.941 49.9356 820.096 49.1676 820.096ZM62.1513 815.808C62.1513 815.925 62.1406 816.08 62.1193 816.272H55.2393C55.3353 817.019 55.6606 817.621 56.2153 818.08C56.7806 818.528 57.4793 818.752 58.3113 818.752C59.3246 818.752 60.1406 818.411 60.7593 817.728L61.6073 818.72C61.2233 819.168 60.7433 819.509 60.1673 819.744C59.6019 819.979 58.9673 820.096 58.2633 820.096C57.3673 820.096 56.5726 819.915 55.8793 819.552C55.1859 819.179 54.6473 818.661 54.2633 818C53.8899 817.339 53.7033 816.592 53.7033 815.76C53.7033 814.939 53.8846 814.197 54.2473 813.536C54.6206 812.875 55.1273 812.363 55.7673 812C56.4179 811.627 57.1486 811.44 57.9593 811.44C58.7699 811.44 59.4899 811.627 60.1193 812C60.7593 812.363 61.2553 812.875 61.6073 813.536C61.9699 814.197 62.1513 814.955 62.1513 815.808ZM57.9593 812.736C57.2233 812.736 56.6046 812.96 56.1033 813.408C55.6126 813.856 55.3246 814.443 55.2393 815.168H60.6793C60.5939 814.453 60.3006 813.872 59.7993 813.424C59.3086 812.965 58.6953 812.736 57.9593 812.736ZM68.8121 811.44C69.8895 811.44 70.7428 811.755 71.3721 812.384C72.0121 813.003 72.3321 813.915 72.3321 815.12V820H70.7961V815.296C70.7961 814.475 70.5988 813.856 70.2041 813.44C69.8095 813.024 69.2441 812.816 68.5081 812.816C67.6761 812.816 67.0201 813.061 66.5401 813.552C66.0601 814.032 65.8201 814.725 65.8201 815.632V820H64.2841V811.52H65.7561V812.8C66.0655 812.363 66.4815 812.027 67.0041 811.792C67.5375 811.557 68.1401 811.44 68.8121 811.44ZM79.9428 819.504C79.7188 819.696 79.4414 819.845 79.1108 819.952C78.7801 820.048 78.4388 820.096 78.0868 820.096C77.2334 820.096 76.5721 819.867 76.1028 819.408C75.6334 818.949 75.3988 818.293 75.3988 817.44V812.784H73.9588V811.52H75.3988V809.664H76.9348V811.52H79.3668V812.784H76.9348V817.376C76.9348 817.835 77.0468 818.187 77.2708 818.432C77.5054 818.677 77.8361 818.8 78.2628 818.8C78.7321 818.8 79.1321 818.667 79.4628 818.4L79.9428 819.504ZM83.2718 812.944C83.5384 812.453 83.9331 812.08 84.4557 811.824C84.9784 811.568 85.6131 811.44 86.3598 811.44V812.928C86.2744 812.917 86.1571 812.912 86.0078 812.912C85.1758 812.912 84.5198 813.163 84.0398 813.664C83.5704 814.155 83.3358 814.859 83.3358 815.776V820H81.7998V811.52H83.2718V812.944ZM91.3253 811.44C92.4986 811.44 93.3946 811.728 94.0133 812.304C94.6426 812.88 94.9573 813.739 94.9573 814.88V820H93.5013V818.88C93.2453 819.275 92.8773 819.579 92.3973 819.792C91.9279 819.995 91.3679 820.096 90.7173 820.096C89.7679 820.096 89.0053 819.867 88.4293 819.408C87.8639 818.949 87.5813 818.347 87.5813 817.6C87.5813 816.853 87.8533 816.256 88.3973 815.808C88.9413 815.349 89.8053 815.12 90.9893 815.12H93.4213V814.816C93.4213 814.155 93.2293 813.648 92.8453 813.296C92.4613 812.944 91.8959 812.768 91.1493 812.768C90.6479 812.768 90.1573 812.853 89.6773 813.024C89.1973 813.184 88.7919 813.403 88.4613 813.68L87.8213 812.528C88.2586 812.176 88.7813 811.909 89.3893 811.728C89.9973 811.536 90.6426 811.44 91.3253 811.44ZM90.9733 818.912C91.5599 818.912 92.0666 818.784 92.4933 818.528C92.9199 818.261 93.2293 817.888 93.4213 817.408V816.224H91.0533C89.7519 816.224 89.1013 816.661 89.1013 817.536C89.1013 817.963 89.2666 818.299 89.5973 818.544C89.9279 818.789 90.3866 818.912 90.9733 818.912ZM97.7998 808.128H99.3358V820H97.7998V808.128ZM102.269 811.52H103.805V820H102.269V811.52ZM103.037 809.888C102.738 809.888 102.487 809.792 102.285 809.6C102.093 809.408 101.997 809.173 101.997 808.896C101.997 808.619 102.093 808.384 102.285 808.192C102.487 807.989 102.738 807.888 103.037 807.888C103.335 807.888 103.581 807.984 103.773 808.176C103.975 808.357 104.077 808.587 104.077 808.864C104.077 809.152 103.975 809.397 103.773 809.6C103.581 809.792 103.335 809.888 103.037 809.888ZM113.025 818.736V820H105.921V819.008L110.929 812.784H106.017V811.52H112.897V812.528L107.889 818.736H113.025ZM122.62 815.808C122.62 815.925 122.609 816.08 122.588 816.272H115.708C115.804 817.019 116.129 817.621 116.684 818.08C117.249 818.528 117.948 818.752 118.78 818.752C119.793 818.752 120.609 818.411 121.228 817.728L122.076 818.72C121.692 819.168 121.212 819.509 120.636 819.744C120.071 819.979 119.436 820.096 118.732 820.096C117.836 820.096 117.041 819.915 116.348 819.552C115.655 819.179 115.116 818.661 114.732 818C114.359 817.339 114.172 816.592 114.172 815.76C114.172 814.939 114.353 814.197 114.716 813.536C115.089 812.875 115.596 812.363 116.236 812C116.887 811.627 117.617 811.44 118.428 811.44C119.239 811.44 119.959 811.627 120.588 812C121.228 812.363 121.724 812.875 122.076 813.536C122.439 814.197 122.62 814.955 122.62 815.808ZM118.428 812.736C117.692 812.736 117.073 812.96 116.572 813.408C116.081 813.856 115.793 814.443 115.708 815.168H121.148C121.063 814.453 120.769 813.872 120.268 813.424C119.777 812.965 119.164 812.736 118.428 812.736ZM132.753 808.128V820H131.281V818.656C130.94 819.125 130.508 819.483 129.985 819.728C129.462 819.973 128.886 820.096 128.257 820.096C127.436 820.096 126.7 819.915 126.049 819.552C125.398 819.189 124.886 818.683 124.513 818.032C124.15 817.371 123.969 816.613 123.969 815.76C123.969 814.907 124.15 814.155 124.513 813.504C124.886 812.853 125.398 812.347 126.049 811.984C126.7 811.621 127.436 811.44 128.257 811.44C128.865 811.44 129.425 811.557 129.937 811.792C130.449 812.016 130.876 812.352 131.217 812.8V808.128H132.753ZM128.385 818.752C128.918 818.752 129.404 818.629 129.841 818.384C130.278 818.128 130.62 817.776 130.865 817.328C131.11 816.869 131.233 816.347 131.233 815.76C131.233 815.173 131.11 814.656 130.865 814.208C130.62 813.749 130.278 813.397 129.841 813.152C129.404 812.907 128.918 812.784 128.385 812.784C127.841 812.784 127.35 812.907 126.913 813.152C126.486 813.397 126.145 813.749 125.889 814.208C125.644 814.656 125.521 815.173 125.521 815.76C125.521 816.347 125.644 816.869 125.889 817.328C126.145 817.776 126.486 818.128 126.913 818.384C127.35 818.629 127.841 818.752 128.385 818.752ZM148.308 818.608V820H140.18V808.8H148.084V810.192H141.78V813.632H147.396V814.992H141.78V818.608H148.308ZM155.895 820L153.447 816.752L150.967 820H149.255L152.599 815.664L149.415 811.52H151.127L153.463 814.576L155.783 811.52H157.463L154.263 815.664L157.639 820H155.895ZM162.73 820.096C161.866 820.096 161.093 819.909 160.41 819.536C159.738 819.163 159.21 818.651 158.826 818C158.442 817.339 158.25 816.592 158.25 815.76C158.25 814.928 158.442 814.187 158.826 813.536C159.21 812.875 159.738 812.363 160.41 812C161.093 811.627 161.866 811.44 162.73 811.44C163.498 811.44 164.181 811.595 164.778 811.904C165.386 812.213 165.855 812.661 166.186 813.248L165.018 814C164.751 813.595 164.421 813.291 164.026 813.088C163.631 812.885 163.194 812.784 162.714 812.784C162.159 812.784 161.658 812.907 161.21 813.152C160.773 813.397 160.426 813.749 160.17 814.208C159.925 814.656 159.802 815.173 159.802 815.76C159.802 816.357 159.925 816.885 160.17 817.344C160.426 817.792 160.773 818.139 161.21 818.384C161.658 818.629 162.159 818.752 162.714 818.752C163.194 818.752 163.631 818.651 164.026 818.448C164.421 818.245 164.751 817.941 165.018 817.536L166.186 818.272C165.855 818.859 165.386 819.312 164.778 819.632C164.181 819.941 163.498 820.096 162.73 820.096ZM172.593 811.44C173.671 811.44 174.524 811.755 175.153 812.384C175.793 813.003 176.113 813.915 176.113 815.12V820H174.577V815.296C174.577 814.475 174.38 813.856 173.985 813.44C173.591 813.024 173.025 812.816 172.289 812.816C171.457 812.816 170.801 813.061 170.321 813.552C169.841 814.032 169.601 814.725 169.601 815.632V820H168.065V808.128H169.601V812.72C169.921 812.315 170.337 812 170.849 811.776C171.372 811.552 171.953 811.44 172.593 811.44ZM182.044 811.44C183.217 811.44 184.113 811.728 184.732 812.304C185.361 812.88 185.676 813.739 185.676 814.88V820H184.22V818.88C183.964 819.275 183.596 819.579 183.116 819.792C182.647 819.995 182.087 820.096 181.436 820.096C180.487 820.096 179.724 819.867 179.148 819.408C178.583 818.949 178.3 818.347 178.3 817.6C178.3 816.853 178.572 816.256 179.116 815.808C179.66 815.349 180.524 815.12 181.708 815.12H184.14V814.816C184.14 814.155 183.948 813.648 183.564 813.296C183.18 812.944 182.615 812.768 181.868 812.768C181.367 812.768 180.876 812.853 180.396 813.024C179.916 813.184 179.511 813.403 179.18 813.68L178.54 812.528C178.977 812.176 179.5 811.909 180.108 811.728C180.716 811.536 181.361 811.44 182.044 811.44ZM181.692 818.912C182.279 818.912 182.785 818.784 183.212 818.528C183.639 818.261 183.948 817.888 184.14 817.408V816.224H181.772C180.471 816.224 179.82 816.661 179.82 817.536C179.82 817.963 179.985 818.299 180.316 818.544C180.647 818.789 181.105 818.912 181.692 818.912ZM193.047 811.44C194.124 811.44 194.977 811.755 195.607 812.384C196.247 813.003 196.567 813.915 196.567 815.12V820H195.031V815.296C195.031 814.475 194.833 813.856 194.439 813.44C194.044 813.024 193.479 812.816 192.743 812.816C191.911 812.816 191.255 813.061 190.775 813.552C190.295 814.032 190.055 814.725 190.055 815.632V820H188.519V811.52H189.991V812.8C190.3 812.363 190.716 812.027 191.239 811.792C191.772 811.557 192.375 811.44 193.047 811.44ZM207.568 811.52V818.848C207.568 820.331 207.2 821.424 206.464 822.128C205.728 822.843 204.629 823.2 203.168 823.2C202.368 823.2 201.605 823.088 200.88 822.864C200.155 822.651 199.568 822.341 199.12 821.936L199.856 820.752C200.251 821.093 200.736 821.36 201.312 821.552C201.899 821.755 202.501 821.856 203.12 821.856C204.112 821.856 204.843 821.621 205.312 821.152C205.792 820.683 206.032 819.968 206.032 819.008V818.336C205.669 818.773 205.221 819.104 204.688 819.328C204.165 819.541 203.595 819.648 202.976 819.648C202.165 819.648 201.429 819.477 200.768 819.136C200.117 818.784 199.605 818.299 199.232 817.68C198.859 817.051 198.672 816.336 198.672 815.536C198.672 814.736 198.859 814.027 199.232 813.408C199.605 812.779 200.117 812.293 200.768 811.952C201.429 811.611 202.165 811.44 202.976 811.44C203.616 811.44 204.208 811.557 204.752 811.792C205.307 812.027 205.76 812.373 206.112 812.832V811.52H207.568ZM203.152 818.304C203.707 818.304 204.203 818.187 204.64 817.952C205.088 817.717 205.435 817.392 205.68 816.976C205.936 816.549 206.064 816.069 206.064 815.536C206.064 814.715 205.792 814.053 205.248 813.552C204.704 813.04 204.005 812.784 203.152 812.784C202.288 812.784 201.584 813.04 201.04 813.552C200.496 814.053 200.224 814.715 200.224 815.536C200.224 816.069 200.347 816.549 200.592 816.976C200.848 817.392 201.195 817.717 201.632 817.952C202.08 818.187 202.587 818.304 203.152 818.304ZM218.167 815.808C218.167 815.925 218.156 816.08 218.135 816.272H211.255C211.351 817.019 211.676 817.621 212.231 818.08C212.796 818.528 213.495 818.752 214.327 818.752C215.34 818.752 216.156 818.411 216.775 817.728L217.623 818.72C217.239 819.168 216.759 819.509 216.183 819.744C215.618 819.979 214.983 820.096 214.279 820.096C213.383 820.096 212.588 819.915 211.895 819.552C211.202 819.179 210.663 818.661 210.279 818C209.906 817.339 209.719 816.592 209.719 815.76C209.719 814.939 209.9 814.197 210.263 813.536C210.636 812.875 211.143 812.363 211.783 812C212.434 811.627 213.164 811.44 213.975 811.44C214.786 811.44 215.506 811.627 216.135 812C216.775 812.363 217.271 812.875 217.623 813.536C217.986 814.197 218.167 814.955 218.167 815.808ZM213.975 812.736C213.239 812.736 212.62 812.96 212.119 813.408C211.628 813.856 211.34 814.443 211.255 815.168H216.695C216.61 814.453 216.316 813.872 215.815 813.424C215.324 812.965 214.711 812.736 213.975 812.736ZM226.565 823.104C225.957 822.123 225.487 820.997 225.157 819.728C224.826 818.448 224.661 817.077 224.661 815.616C224.661 814.155 224.826 812.784 225.157 811.504C225.487 810.213 225.957 809.088 226.565 808.128H228.021C227.381 809.248 226.911 810.421 226.613 811.648C226.314 812.875 226.165 814.197 226.165 815.616C226.165 817.035 226.314 818.357 226.613 819.584C226.911 820.811 227.381 821.984 228.021 823.104H226.565ZM230.211 808.8H234.931C236.115 808.8 237.166 809.035 238.083 809.504C239.001 809.973 239.71 810.635 240.211 811.488C240.723 812.331 240.979 813.301 240.979 814.4C240.979 815.499 240.723 816.475 240.211 817.328C239.71 818.171 239.001 818.827 238.083 819.296C237.166 819.765 236.115 820 234.931 820H230.211V808.8ZM234.835 818.608C235.742 818.608 236.537 818.432 237.219 818.08C237.913 817.728 238.446 817.237 238.819 816.608C239.193 815.968 239.379 815.232 239.379 814.4C239.379 813.568 239.193 812.837 238.819 812.208C238.446 811.568 237.913 811.072 237.219 810.72C236.537 810.368 235.742 810.192 234.835 810.192H231.811V818.608H234.835ZM251.558 818.608V820H243.43V808.8H251.334V810.192H245.03V813.632H250.646V814.992H245.03V818.608H251.558ZM261.064 820L257.704 815.376L254.392 820H252.552L256.76 814.256L252.808 808.8H254.632L257.768 813.104L260.872 808.8H262.616L258.664 814.208L262.904 820H261.064ZM263.621 823.104C264.261 821.984 264.731 820.811 265.029 819.584C265.339 818.357 265.493 817.035 265.493 815.616C265.493 814.197 265.339 812.875 265.029 811.648C264.731 810.421 264.261 809.248 263.621 808.128H265.077C265.696 809.088 266.171 810.208 266.501 811.488C266.832 812.768 266.997 814.144 266.997 815.616C266.997 817.077 266.832 818.448 266.501 819.728C266.171 821.008 265.696 822.133 265.077 823.104H263.621Z" fill="#777E90"/>
<circle cx="145" cy="749" r="9" fill="#E6007A"/>
<defs>
<linearGradient id="paint0_linear_226_1552" x1="0" y1="4" x2="72" y2="4" gradientUnits="userSpaceOnUse">
<stop stop-color="#FF59F8"/>
<stop offset="0.197917" stop-color="#AE72FF"/>
<stop offset="0.40625" stop-color="#90E9ED"/>
<stop offset="0.619792" stop-color="#5CD167"/>
<stop offset="0.825321" stop-color="#FFEE00"/>
</linearGradient>
<linearGradient id="paint1_linear_226_1552" x1="0" y1="4" x2="72" y2="4" gradientUnits="userSpaceOnUse">
<stop stop-color="#FF59F8"/>
<stop offset="0.197917" stop-color="#AE72FF"/>
<stop offset="0.40625" stop-color="#90E9ED"/>
<stop offset="0.619792" stop-color="#5CD167"/>
<stop offset="0.825321" stop-color="#FFEE00"/>
</linearGradient>
<linearGradient id="paint2_linear_226_1552" x1="0" y1="4" x2="72" y2="4" gradientUnits="userSpaceOnUse">
<stop stop-color="#FF59F8"/>
<stop offset="0.197917" stop-color="#AE72FF"/>
<stop offset="0.40625" stop-color="#90E9ED"/>
<stop offset="0.619792" stop-color="#5CD167"/>
<stop offset="0.825321" stop-color="#FFEE00"/>
</linearGradient>
<linearGradient id="paint3_linear_226_1552" x1="0" y1="4" x2="72" y2="4" gradientUnits="userSpaceOnUse">
<stop stop-color="#FF59F8"/>
<stop offset="0.197917" stop-color="#AE72FF"/>
<stop offset="0.40625" stop-color="#90E9ED"/>
<stop offset="0.619792" stop-color="#5CD167"/>
<stop offset="0.825321" stop-color="#FFEE00"/>
</linearGradient>
<linearGradient id="paint4_linear_226_1552" x1="0" y1="4" x2="72" y2="4" gradientUnits="userSpaceOnUse">
<stop stop-color="#FF59F8"/>
<stop offset="0.197917" stop-color="#AE72FF"/>
<stop offset="0.40625" stop-color="#90E9ED"/>
<stop offset="0.619792" stop-color="#5CD167"/>
<stop offset="0.825321" stop-color="#FFEE00"/>
</linearGradient>
</defs>
</svg>
