<svg width="1438" height="443" viewBox="0 0 1438 443" fill="none" xmlns="http://www.w3.org/2000/svg">
<rect opacity="0.2" width="1438" height="4" transform="matrix(1 0 0 -1 0 213)" fill="url(#paint0_linear_130_473)"/>
<path d="M231.17 27.288C235.13 27.288 237.218 25.248 237.218 21.096V10.2H227.45V13.32H233.354V21.312C233.354 23.16 232.538 24.096 230.978 24.096C229.778 24.096 228.77 23.472 227.858 22.248L225.698 24.84C226.922 26.424 228.914 27.288 231.17 27.288ZM248.522 27.288C253.298 27.288 256.13 24.552 256.13 19.608V10.2H252.29V19.464C252.29 22.656 250.922 23.976 248.546 23.976C246.194 23.976 244.802 22.656 244.802 19.464V10.2H240.914V19.608C240.914 24.552 243.746 27.288 248.522 27.288ZM271.54 10.2V20.4L263.188 10.2H259.972V27H263.812V16.8L272.188 27H275.38V10.2H271.54ZM283.219 23.88V19.992H291.019V16.968H283.219V13.32H292.051V10.2H279.355V27H292.363V23.88H283.219ZM306.526 23.832L310.39 20.184C312.742 18 313.198 16.512 313.198 14.88C313.198 11.832 310.702 9.912 306.958 9.912C303.934 9.912 301.582 11.136 300.286 13.032L303.118 14.856C303.934 13.728 305.158 13.176 306.598 13.176C308.374 13.176 309.286 13.944 309.286 15.264C309.286 16.08 309.022 16.944 307.534 18.36L301.054 24.48V27H313.75V23.832H306.526ZM322.507 27.288C326.659 27.288 329.707 24.144 329.707 18.6C329.707 13.056 326.659 9.912 322.507 9.912C318.379 9.912 315.307 13.056 315.307 18.6C315.307 24.144 318.379 27.288 322.507 27.288ZM322.507 24C320.587 24 319.243 22.416 319.243 18.6C319.243 14.784 320.587 13.2 322.507 13.2C324.451 13.2 325.795 14.784 325.795 18.6C325.795 22.416 324.451 24 322.507 24ZM336.784 23.832L340.648 20.184C343 18 343.456 16.512 343.456 14.88C343.456 11.832 340.96 9.912 337.216 9.912C334.192 9.912 331.84 11.136 330.544 13.032L333.376 14.856C334.192 13.728 335.416 13.176 336.856 13.176C338.632 13.176 339.544 13.944 339.544 15.264C339.544 16.08 339.28 16.944 337.792 18.36L331.312 24.48V27H344.008V23.832H336.784ZM352.765 27.288C356.917 27.288 359.965 24.144 359.965 18.6C359.965 13.056 356.917 9.912 352.765 9.912C348.637 9.912 345.565 13.056 345.565 18.6C345.565 24.144 348.637 27.288 352.765 27.288ZM352.765 24C350.845 24 349.501 22.416 349.501 18.6C349.501 14.784 350.845 13.2 352.765 13.2C354.709 13.2 356.053 14.784 356.053 18.6C356.053 22.416 354.709 24 352.765 24Z" fill="#040404"/>
<path d="M223.688 58.128C222.568 58.128 221.555 57.8827 220.648 57.392C219.752 56.8907 219.048 56.208 218.536 55.344C218.024 54.4693 217.768 53.488 217.768 52.4C217.768 51.312 218.024 50.336 218.536 49.472C219.048 48.5973 219.757 47.9147 220.664 47.424C221.571 46.9227 222.584 46.672 223.704 46.672C224.579 46.672 225.379 46.8213 226.104 47.12C226.829 47.408 227.448 47.84 227.96 48.416L226.92 49.424C226.077 48.5387 225.027 48.096 223.768 48.096C222.936 48.096 222.184 48.2827 221.512 48.656C220.84 49.0293 220.312 49.5467 219.928 50.208C219.555 50.8587 219.368 51.5893 219.368 52.4C219.368 53.2107 219.555 53.9467 219.928 54.608C220.312 55.2587 220.84 55.7707 221.512 56.144C222.184 56.5173 222.936 56.704 223.768 56.704C225.016 56.704 226.067 56.256 226.92 55.36L227.96 56.368C227.448 56.944 226.824 57.3813 226.088 57.68C225.363 57.9787 224.563 58.128 223.688 58.128ZM233.291 58.096C232.448 58.096 231.691 57.9093 231.019 57.536C230.347 57.1627 229.819 56.6507 229.435 56C229.062 55.3387 228.875 54.592 228.875 53.76C228.875 52.928 229.062 52.1867 229.435 51.536C229.819 50.8747 230.347 50.3627 231.019 50C231.691 49.6267 232.448 49.44 233.291 49.44C234.134 49.44 234.886 49.6267 235.547 50C236.219 50.3627 236.742 50.8747 237.115 51.536C237.499 52.1867 237.691 52.928 237.691 53.76C237.691 54.592 237.499 55.3387 237.115 56C236.742 56.6507 236.219 57.1627 235.547 57.536C234.886 57.9093 234.134 58.096 233.291 58.096ZM233.291 56.752C233.835 56.752 234.32 56.6293 234.747 56.384C235.184 56.128 235.526 55.776 235.771 55.328C236.016 54.8693 236.139 54.3467 236.139 53.76C236.139 53.1733 236.016 52.656 235.771 52.208C235.526 51.7493 235.184 51.3973 234.747 51.152C234.32 50.9067 233.835 50.784 233.291 50.784C232.747 50.784 232.256 50.9067 231.819 51.152C231.392 51.3973 231.051 51.7493 230.795 52.208C230.55 52.656 230.427 53.1733 230.427 53.76C230.427 54.3467 230.55 54.8693 230.795 55.328C231.051 55.776 231.392 56.128 231.819 56.384C232.256 56.6293 232.747 56.752 233.291 56.752ZM244.343 49.44C245.421 49.44 246.274 49.7547 246.903 50.384C247.543 51.0027 247.863 51.9147 247.863 53.12V58H246.327V53.296C246.327 52.4747 246.13 51.856 245.735 51.44C245.341 51.024 244.775 50.816 244.039 50.816C243.207 50.816 242.551 51.0613 242.071 51.552C241.591 52.032 241.351 52.7253 241.351 53.632V58H239.815V49.52H241.287V50.8C241.597 50.3627 242.013 50.0267 242.535 49.792C243.069 49.5573 243.671 49.44 244.343 49.44ZM254.449 58.096C253.585 58.096 252.812 57.9093 252.129 57.536C251.457 57.1627 250.929 56.6507 250.545 56C250.161 55.3387 249.969 54.592 249.969 53.76C249.969 52.928 250.161 52.1867 250.545 51.536C250.929 50.8747 251.457 50.3627 252.129 50C252.812 49.6267 253.585 49.44 254.449 49.44C255.217 49.44 255.9 49.5947 256.497 49.904C257.105 50.2133 257.574 50.6613 257.905 51.248L256.737 52C256.47 51.5947 256.14 51.2907 255.745 51.088C255.35 50.8853 254.913 50.784 254.433 50.784C253.878 50.784 253.377 50.9067 252.929 51.152C252.492 51.3973 252.145 51.7493 251.889 52.208C251.644 52.656 251.521 53.1733 251.521 53.76C251.521 54.3573 251.644 54.8853 251.889 55.344C252.145 55.792 252.492 56.1387 252.929 56.384C253.377 56.6293 253.878 56.752 254.433 56.752C254.913 56.752 255.35 56.6507 255.745 56.448C256.14 56.2453 256.47 55.9413 256.737 55.536L257.905 56.272C257.574 56.8587 257.105 57.312 256.497 57.632C255.9 57.9413 255.217 58.096 254.449 58.096ZM267.433 53.808C267.433 53.9253 267.422 54.08 267.401 54.272H260.521C260.617 55.0187 260.942 55.6213 261.497 56.08C262.062 56.528 262.761 56.752 263.593 56.752C264.606 56.752 265.422 56.4107 266.041 55.728L266.889 56.72C266.505 57.168 266.025 57.5093 265.449 57.744C264.883 57.9787 264.249 58.096 263.545 58.096C262.649 58.096 261.854 57.9147 261.161 57.552C260.467 57.1787 259.929 56.6613 259.545 56C259.171 55.3387 258.985 54.592 258.985 53.76C258.985 52.9387 259.166 52.1973 259.529 51.536C259.902 50.8747 260.409 50.3627 261.049 50C261.699 49.6267 262.43 49.44 263.241 49.44C264.051 49.44 264.771 49.6267 265.401 50C266.041 50.3627 266.537 50.8747 266.889 51.536C267.251 52.1973 267.433 52.9547 267.433 53.808ZM263.241 50.736C262.505 50.736 261.886 50.96 261.385 51.408C260.894 51.856 260.606 52.4427 260.521 53.168H265.961C265.875 52.4533 265.582 51.872 265.081 51.424C264.59 50.9653 263.977 50.736 263.241 50.736ZM274.061 49.44C274.883 49.44 275.619 49.6213 276.269 49.984C276.92 50.3467 277.427 50.8533 277.789 51.504C278.163 52.1547 278.349 52.9067 278.349 53.76C278.349 54.6133 278.163 55.3707 277.789 56.032C277.427 56.6827 276.92 57.1893 276.269 57.552C275.619 57.9147 274.883 58.096 274.061 58.096C273.453 58.096 272.893 57.9787 272.381 57.744C271.88 57.5093 271.453 57.168 271.101 56.72V61.104H269.565V49.52H271.037V50.864C271.379 50.3947 271.811 50.0427 272.333 49.808C272.856 49.5627 273.432 49.44 274.061 49.44ZM273.933 56.752C274.477 56.752 274.963 56.6293 275.389 56.384C275.827 56.128 276.168 55.776 276.413 55.328C276.669 54.8693 276.797 54.3467 276.797 53.76C276.797 53.1733 276.669 52.656 276.413 52.208C276.168 51.7493 275.827 51.3973 275.389 51.152C274.963 50.9067 274.477 50.784 273.933 50.784C273.4 50.784 272.915 50.912 272.477 51.168C272.051 51.4133 271.709 51.76 271.453 52.208C271.208 52.656 271.085 53.1733 271.085 53.76C271.085 54.3467 271.208 54.8693 271.453 55.328C271.699 55.776 272.04 56.128 272.477 56.384C272.915 56.6293 273.4 56.752 273.933 56.752ZM285.24 57.504C285.016 57.696 284.738 57.8453 284.408 57.952C284.077 58.048 283.736 58.096 283.384 58.096C282.53 58.096 281.869 57.8667 281.4 57.408C280.93 56.9493 280.696 56.2933 280.696 55.44V50.784H279.256V49.52H280.696V47.664H282.232V49.52H284.664V50.784H282.232V55.376C282.232 55.8347 282.344 56.1867 282.568 56.432C282.802 56.6773 283.133 56.8 283.56 56.8C284.029 56.8 284.429 56.6667 284.76 56.4L285.24 57.504ZM295.001 49.52V58H293.545V56.72C293.235 57.1573 292.825 57.4987 292.313 57.744C291.811 57.9787 291.262 58.096 290.665 58.096C289.534 58.096 288.643 57.7867 287.993 57.168C287.342 56.5387 287.017 55.616 287.017 54.4V49.52H288.553V54.224C288.553 55.0453 288.75 55.6693 289.145 56.096C289.539 56.512 290.105 56.72 290.841 56.72C291.651 56.72 292.291 56.4747 292.761 55.984C293.23 55.4933 293.465 54.8 293.465 53.904V49.52H295.001ZM301.013 49.44C302.186 49.44 303.082 49.728 303.701 50.304C304.33 50.88 304.645 51.7387 304.645 52.88V58H303.189V56.88C302.933 57.2747 302.565 57.5787 302.085 57.792C301.615 57.9947 301.055 58.096 300.405 58.096C299.455 58.096 298.693 57.8667 298.117 57.408C297.551 56.9493 297.269 56.3467 297.269 55.6C297.269 54.8533 297.541 54.256 298.085 53.808C298.629 53.3493 299.493 53.12 300.677 53.12H303.109V52.816C303.109 52.1547 302.917 51.648 302.533 51.296C302.149 50.944 301.583 50.768 300.837 50.768C300.335 50.768 299.845 50.8533 299.365 51.024C298.885 51.184 298.479 51.4027 298.149 51.68L297.509 50.528C297.946 50.176 298.469 49.9093 299.077 49.728C299.685 49.536 300.33 49.44 301.013 49.44ZM300.661 56.912C301.247 56.912 301.754 56.784 302.181 56.528C302.607 56.2613 302.917 55.888 303.109 55.408V54.224H300.741C299.439 54.224 298.789 54.6613 298.789 55.536C298.789 55.9627 298.954 56.2987 299.285 56.544C299.615 56.7893 300.074 56.912 300.661 56.912ZM307.487 46.128H309.023V58H307.487V46.128ZM311.956 49.52H313.492V58H311.956V49.52ZM312.724 47.888C312.425 47.888 312.175 47.792 311.972 47.6C311.78 47.408 311.684 47.1733 311.684 46.896C311.684 46.6187 311.78 46.384 311.972 46.192C312.175 45.9893 312.425 45.888 312.724 45.888C313.023 45.888 313.268 45.984 313.46 46.176C313.663 46.3573 313.764 46.5867 313.764 46.864C313.764 47.152 313.663 47.3973 313.46 47.6C313.268 47.792 313.023 47.888 312.724 47.888ZM318.857 58.096C318.163 58.096 317.497 58.0053 316.857 57.824C316.217 57.632 315.715 57.392 315.353 57.104L315.993 55.888C316.366 56.1547 316.819 56.368 317.353 56.528C317.886 56.688 318.425 56.768 318.969 56.768C320.313 56.768 320.985 56.384 320.985 55.616C320.985 55.36 320.894 55.1573 320.713 55.008C320.531 54.8587 320.302 54.752 320.025 54.688C319.758 54.6133 319.374 54.5333 318.873 54.448C318.19 54.3413 317.63 54.2187 317.193 54.08C316.766 53.9413 316.398 53.7067 316.089 53.376C315.779 53.0453 315.625 52.5813 315.625 51.984C315.625 51.216 315.945 50.6027 316.585 50.144C317.225 49.6747 318.083 49.44 319.161 49.44C319.726 49.44 320.291 49.5093 320.857 49.648C321.422 49.7867 321.886 49.9733 322.249 50.208L321.593 51.424C320.899 50.976 320.083 50.752 319.145 50.752C318.494 50.752 317.998 50.8587 317.657 51.072C317.315 51.2853 317.145 51.568 317.145 51.92C317.145 52.1973 317.241 52.416 317.433 52.576C317.625 52.736 317.859 52.8533 318.137 52.928C318.425 53.0027 318.825 53.088 319.337 53.184C320.019 53.3013 320.569 53.4293 320.985 53.568C321.411 53.696 321.774 53.92 322.073 54.24C322.371 54.56 322.521 55.008 322.521 55.584C322.521 56.352 322.19 56.9653 321.529 57.424C320.878 57.872 319.987 58.096 318.857 58.096ZM327.528 49.44C328.702 49.44 329.598 49.728 330.216 50.304C330.846 50.88 331.16 51.7387 331.16 52.88V58H329.704V56.88C329.448 57.2747 329.08 57.5787 328.6 57.792C328.131 57.9947 327.571 58.096 326.92 58.096C325.971 58.096 325.208 57.8667 324.632 57.408C324.067 56.9493 323.784 56.3467 323.784 55.6C323.784 54.8533 324.056 54.256 324.6 53.808C325.144 53.3493 326.008 53.12 327.192 53.12H329.624V52.816C329.624 52.1547 329.432 51.648 329.048 51.296C328.664 50.944 328.099 50.768 327.352 50.768C326.851 50.768 326.36 50.8533 325.88 51.024C325.4 51.184 324.995 51.4027 324.664 51.68L324.024 50.528C324.462 50.176 324.984 49.9093 325.592 49.728C326.2 49.536 326.846 49.44 327.528 49.44ZM327.176 56.912C327.763 56.912 328.27 56.784 328.696 56.528C329.123 56.2613 329.432 55.888 329.624 55.408V54.224H327.256C325.955 54.224 325.304 54.6613 325.304 55.536C325.304 55.9627 325.47 56.2987 325.8 56.544C326.131 56.7893 326.59 56.912 327.176 56.912ZM338.771 57.504C338.547 57.696 338.27 57.8453 337.939 57.952C337.608 58.048 337.267 58.096 336.915 58.096C336.062 58.096 335.4 57.8667 334.931 57.408C334.462 56.9493 334.227 56.2933 334.227 55.44V50.784H332.787V49.52H334.227V47.664H335.763V49.52H338.195V50.784H335.763V55.376C335.763 55.8347 335.875 56.1867 336.099 56.432C336.334 56.6773 336.664 56.8 337.091 56.8C337.56 56.8 337.96 56.6667 338.291 56.4L338.771 57.504ZM340.628 49.52H342.164V58H340.628V49.52ZM341.396 47.888C341.097 47.888 340.847 47.792 340.644 47.6C340.452 47.408 340.356 47.1733 340.356 46.896C340.356 46.6187 340.452 46.384 340.644 46.192C340.847 45.9893 341.097 45.888 341.396 45.888C341.695 45.888 341.94 45.984 342.132 46.176C342.335 46.3573 342.436 46.5867 342.436 46.864C342.436 47.152 342.335 47.3973 342.132 47.6C341.94 47.792 341.695 47.888 341.396 47.888ZM348.729 58.096C347.886 58.096 347.129 57.9093 346.457 57.536C345.785 57.1627 345.257 56.6507 344.873 56C344.499 55.3387 344.313 54.592 344.313 53.76C344.313 52.928 344.499 52.1867 344.873 51.536C345.257 50.8747 345.785 50.3627 346.457 50C347.129 49.6267 347.886 49.44 348.729 49.44C349.571 49.44 350.323 49.6267 350.985 50C351.657 50.3627 352.179 50.8747 352.553 51.536C352.937 52.1867 353.129 52.928 353.129 53.76C353.129 54.592 352.937 55.3387 352.553 56C352.179 56.6507 351.657 57.1627 350.985 57.536C350.323 57.9093 349.571 58.096 348.729 58.096ZM348.729 56.752C349.273 56.752 349.758 56.6293 350.185 56.384C350.622 56.128 350.963 55.776 351.209 55.328C351.454 54.8693 351.577 54.3467 351.577 53.76C351.577 53.1733 351.454 52.656 351.209 52.208C350.963 51.7493 350.622 51.3973 350.185 51.152C349.758 50.9067 349.273 50.784 348.729 50.784C348.185 50.784 347.694 50.9067 347.257 51.152C346.83 51.3973 346.489 51.7493 346.233 52.208C345.987 52.656 345.865 53.1733 345.865 53.76C345.865 54.3467 345.987 54.8693 346.233 55.328C346.489 55.776 346.83 56.128 347.257 56.384C347.694 56.6293 348.185 56.752 348.729 56.752ZM359.781 49.44C360.858 49.44 361.712 49.7547 362.341 50.384C362.981 51.0027 363.301 51.9147 363.301 53.12V58H361.765V53.296C361.765 52.4747 361.568 51.856 361.173 51.44C360.778 51.024 360.213 50.816 359.477 50.816C358.645 50.816 357.989 51.0613 357.509 51.552C357.029 52.032 356.789 52.7253 356.789 53.632V58H355.253V49.52H356.725V50.8C357.034 50.3627 357.45 50.0267 357.973 49.792C358.506 49.5573 359.109 49.44 359.781 49.44Z" fill="#777E90"/>
<line x1="292.5" y1="80" x2="292.5" y2="186" stroke="url(#paint1_linear_130_473)"/>
<circle cx="292" cy="211" r="9" fill="#E6007A"/>
<path d="M571.692 27L571.668 15.864L566.148 25.08H564.756L559.236 16.008V27H556.26V10.2H558.828L565.5 21.336L572.052 10.2H574.62L574.644 27H571.692ZM590.078 23.112H581.678L580.022 27H576.806L584.366 10.2H587.438L595.022 27H591.758L590.078 23.112ZM589.046 20.664L585.878 13.32L582.734 20.664H589.046ZM608.15 27L604.718 22.08C604.574 22.096 604.358 22.104 604.07 22.104H600.278V27H597.158V10.2H604.07C605.526 10.2 606.79 10.44 607.862 10.92C608.95 11.4 609.782 12.088 610.358 12.984C610.934 13.88 611.222 14.944 611.222 16.176C611.222 17.44 610.91 18.528 610.286 19.44C609.678 20.352 608.798 21.032 607.646 21.48L611.51 27H608.15ZM608.078 16.176C608.078 15.104 607.726 14.28 607.022 13.704C606.318 13.128 605.286 12.84 603.926 12.84H600.278V19.536H603.926C605.286 19.536 606.318 19.248 607.022 18.672C607.726 18.08 608.078 17.248 608.078 16.176ZM622.489 27.24C620.793 27.24 619.257 26.872 617.881 26.136C616.521 25.384 615.449 24.352 614.665 23.04C613.897 21.728 613.513 20.248 613.513 18.6C613.513 16.952 613.905 15.472 614.689 14.16C615.473 12.848 616.545 11.824 617.905 11.088C619.281 10.336 620.817 9.96 622.513 9.96C623.889 9.96 625.145 10.2 626.281 10.68C627.417 11.16 628.377 11.856 629.161 12.768L627.145 14.664C625.929 13.352 624.433 12.696 622.657 12.696C621.505 12.696 620.473 12.952 619.561 13.464C618.649 13.96 617.937 14.656 617.425 15.552C616.913 16.448 616.657 17.464 616.657 18.6C616.657 19.736 616.913 20.752 617.425 21.648C617.937 22.544 618.649 23.248 619.561 23.76C620.473 24.256 621.505 24.504 622.657 24.504C624.433 24.504 625.929 23.84 627.145 22.512L629.161 24.432C628.377 25.344 627.409 26.04 626.257 26.52C625.121 27 623.865 27.24 622.489 27.24ZM647.079 10.2V27H643.959V19.8H635.271V27H632.151V10.2H635.271V17.136H643.959V10.2H647.079ZM669.181 24.36V27H656.797V24.912L663.469 18.576C664.221 17.856 664.725 17.232 664.981 16.704C665.253 16.16 665.389 15.624 665.389 15.096C665.389 14.312 665.125 13.712 664.597 13.296C664.069 12.88 663.293 12.672 662.269 12.672C660.557 12.672 659.245 13.256 658.333 14.424L656.149 12.744C656.805 11.864 657.685 11.184 658.789 10.704C659.909 10.208 661.157 9.96 662.533 9.96C664.357 9.96 665.813 10.392 666.901 11.256C667.989 12.12 668.533 13.296 668.533 14.784C668.533 15.696 668.341 16.552 667.957 17.352C667.573 18.152 666.837 19.064 665.749 20.088L661.261 24.36H669.181ZM677.919 27.24C676.575 27.24 675.375 26.904 674.319 26.232C673.263 25.544 672.431 24.552 671.823 23.256C671.215 21.944 670.911 20.392 670.911 18.6C670.911 16.808 671.215 15.264 671.823 13.968C672.431 12.656 673.263 11.664 674.319 10.992C675.375 10.304 676.575 9.96 677.919 9.96C679.263 9.96 680.463 10.304 681.519 10.992C682.591 11.664 683.431 12.656 684.039 13.968C684.647 15.264 684.951 16.808 684.951 18.6C684.951 20.392 684.647 21.944 684.039 23.256C683.431 24.552 682.591 25.544 681.519 26.232C680.463 26.904 679.263 27.24 677.919 27.24ZM677.919 24.528C679.119 24.528 680.063 24.032 680.751 23.04C681.455 22.048 681.807 20.568 681.807 18.6C681.807 16.632 681.455 15.152 680.751 14.16C680.063 13.168 679.119 12.672 677.919 12.672C676.735 12.672 675.791 13.168 675.087 14.16C674.399 15.152 674.055 16.632 674.055 18.6C674.055 20.568 674.399 22.048 675.087 23.04C675.791 24.032 676.735 24.528 677.919 24.528ZM699.111 24.36V27H686.727V24.912L693.399 18.576C694.151 17.856 694.655 17.232 694.911 16.704C695.183 16.16 695.319 15.624 695.319 15.096C695.319 14.312 695.055 13.712 694.527 13.296C693.999 12.88 693.223 12.672 692.199 12.672C690.487 12.672 689.175 13.256 688.263 14.424L686.079 12.744C686.735 11.864 687.615 11.184 688.719 10.704C689.839 10.208 691.087 9.96 692.463 9.96C694.287 9.96 695.743 10.392 696.831 11.256C697.919 12.12 698.463 13.296 698.463 14.784C698.463 15.696 698.271 16.552 697.887 17.352C697.503 18.152 696.767 19.064 695.679 20.088L691.191 24.36H699.111ZM706.719 10.2V27H703.599V12.816H700.047V10.2H706.719Z" fill="#040404"/>
<path d="M571.944 58.128C571.101 58.128 570.285 58 569.496 57.744C568.717 57.4773 568.104 57.136 567.656 56.72L568.248 55.472C568.675 55.856 569.219 56.1707 569.88 56.416C570.552 56.6507 571.24 56.768 571.944 56.768C572.872 56.768 573.565 56.6133 574.024 56.304C574.483 55.984 574.712 55.5627 574.712 55.04C574.712 54.656 574.584 54.3467 574.328 54.112C574.083 53.8667 573.773 53.68 573.4 53.552C573.037 53.424 572.52 53.28 571.848 53.12C571.005 52.9173 570.323 52.7147 569.8 52.512C569.288 52.3093 568.845 52 568.472 51.584C568.109 51.1573 567.928 50.5867 567.928 49.872C567.928 49.2747 568.083 48.736 568.392 48.256C568.712 47.776 569.192 47.392 569.832 47.104C570.472 46.816 571.267 46.672 572.216 46.672C572.877 46.672 573.528 46.7573 574.168 46.928C574.808 47.0987 575.357 47.344 575.816 47.664L575.288 48.944C574.819 48.6453 574.317 48.4213 573.784 48.272C573.251 48.112 572.728 48.032 572.216 48.032C571.309 48.032 570.627 48.1973 570.168 48.528C569.72 48.8587 569.496 49.2853 569.496 49.808C569.496 50.192 569.624 50.5067 569.88 50.752C570.136 50.9867 570.451 51.1733 570.824 51.312C571.208 51.44 571.725 51.5787 572.376 51.728C573.219 51.9307 573.896 52.1333 574.408 52.336C574.92 52.5387 575.357 52.848 575.72 53.264C576.093 53.68 576.28 54.24 576.28 54.944C576.28 55.5307 576.12 56.0693 575.8 56.56C575.48 57.04 574.995 57.424 574.344 57.712C573.693 57.9893 572.893 58.128 571.944 58.128ZM583.162 57.504C582.938 57.696 582.66 57.8453 582.33 57.952C581.999 58.048 581.658 58.096 581.306 58.096C580.452 58.096 579.791 57.8667 579.322 57.408C578.852 56.9493 578.618 56.2933 578.618 55.44V50.784H577.178V49.52H578.618V47.664H580.154V49.52H582.586V50.784H580.154V55.376C580.154 55.8347 580.266 56.1867 580.49 56.432C580.724 56.6773 581.055 56.8 581.482 56.8C581.951 56.8 582.351 56.6667 582.682 56.4L583.162 57.504ZM588.107 49.44C589.28 49.44 590.176 49.728 590.795 50.304C591.424 50.88 591.739 51.7387 591.739 52.88V58H590.283V56.88C590.027 57.2747 589.659 57.5787 589.179 57.792C588.709 57.9947 588.149 58.096 587.499 58.096C586.549 58.096 585.787 57.8667 585.211 57.408C584.645 56.9493 584.363 56.3467 584.363 55.6C584.363 54.8533 584.635 54.256 585.179 53.808C585.723 53.3493 586.587 53.12 587.771 53.12H590.203V52.816C590.203 52.1547 590.011 51.648 589.627 51.296C589.243 50.944 588.677 50.768 587.931 50.768C587.429 50.768 586.939 50.8533 586.459 51.024C585.979 51.184 585.573 51.4027 585.243 51.68L584.603 50.528C585.04 50.176 585.563 49.9093 586.171 49.728C586.779 49.536 587.424 49.44 588.107 49.44ZM587.755 56.912C588.341 56.912 588.848 56.784 589.275 56.528C589.701 56.2613 590.011 55.888 590.203 55.408V54.224H587.835C586.533 54.224 585.883 54.6613 585.883 55.536C585.883 55.9627 586.048 56.2987 586.379 56.544C586.709 56.7893 587.168 56.912 587.755 56.912ZM597.877 54.048L596.117 55.68V58H594.581V46.128H596.117V53.744L600.741 49.52H602.597L599.029 53.024L602.949 58H601.061L597.877 54.048ZM604.331 49.52H605.867V58H604.331V49.52ZM605.099 47.888C604.8 47.888 604.55 47.792 604.347 47.6C604.155 47.408 604.059 47.1733 604.059 46.896C604.059 46.6187 604.155 46.384 604.347 46.192C604.55 45.9893 604.8 45.888 605.099 45.888C605.398 45.888 605.643 45.984 605.835 46.176C606.038 46.3573 606.139 46.5867 606.139 46.864C606.139 47.152 606.038 47.3973 605.835 47.6C605.643 47.792 605.398 47.888 605.099 47.888ZM613.328 49.44C614.405 49.44 615.258 49.7547 615.888 50.384C616.528 51.0027 616.848 51.9147 616.848 53.12V58H615.312V53.296C615.312 52.4747 615.114 51.856 614.72 51.44C614.325 51.024 613.76 50.816 613.024 50.816C612.192 50.816 611.536 51.0613 611.056 51.552C610.576 52.032 610.336 52.7253 610.336 53.632V58H608.8V49.52H610.272V50.8C610.581 50.3627 610.997 50.0267 611.52 49.792C612.053 49.5573 612.656 49.44 613.328 49.44ZM627.849 49.52V56.848C627.849 58.3307 627.481 59.424 626.745 60.128C626.009 60.8427 624.911 61.2 623.449 61.2C622.649 61.2 621.887 61.088 621.161 60.864C620.436 60.6507 619.849 60.3413 619.401 59.936L620.137 58.752C620.532 59.0933 621.017 59.36 621.593 59.552C622.18 59.7547 622.783 59.856 623.401 59.856C624.393 59.856 625.124 59.6213 625.593 59.152C626.073 58.6827 626.313 57.968 626.313 57.008V56.336C625.951 56.7733 625.503 57.104 624.969 57.328C624.447 57.5413 623.876 57.648 623.257 57.648C622.447 57.648 621.711 57.4773 621.049 57.136C620.399 56.784 619.887 56.2987 619.513 55.68C619.14 55.0507 618.953 54.336 618.953 53.536C618.953 52.736 619.14 52.0267 619.513 51.408C619.887 50.7787 620.399 50.2933 621.049 49.952C621.711 49.6107 622.447 49.44 623.257 49.44C623.897 49.44 624.489 49.5573 625.033 49.792C625.588 50.0267 626.041 50.3733 626.393 50.832V49.52H627.849ZM623.433 56.304C623.988 56.304 624.484 56.1867 624.921 55.952C625.369 55.7173 625.716 55.392 625.961 54.976C626.217 54.5493 626.345 54.0693 626.345 53.536C626.345 52.7147 626.073 52.0533 625.529 51.552C624.985 51.04 624.287 50.784 623.433 50.784C622.569 50.784 621.865 51.04 621.321 51.552C620.777 52.0533 620.505 52.7147 620.505 53.536C620.505 54.0693 620.628 54.5493 620.873 54.976C621.129 55.392 621.476 55.7173 621.913 55.952C622.361 56.1867 622.868 56.304 623.433 56.304ZM639.673 46.8C641.124 46.8 642.265 47.1467 643.097 47.84C643.929 48.5333 644.345 49.488 644.345 50.704C644.345 51.92 643.929 52.8747 643.097 53.568C642.265 54.2613 641.124 54.608 639.673 54.608H636.905V58H635.305V46.8H639.673ZM639.625 53.216C640.638 53.216 641.412 53.0027 641.945 52.576C642.478 52.1387 642.745 51.5147 642.745 50.704C642.745 49.8933 642.478 49.2747 641.945 48.848C641.412 48.4107 640.638 48.192 639.625 48.192H636.905V53.216H639.625ZM646.628 46.128H648.164V58H646.628V46.128ZM654.185 49.44C655.358 49.44 656.254 49.728 656.873 50.304C657.502 50.88 657.817 51.7387 657.817 52.88V58H656.361V56.88C656.105 57.2747 655.737 57.5787 655.257 57.792C654.787 57.9947 654.227 58.096 653.577 58.096C652.627 58.096 651.865 57.8667 651.289 57.408C650.723 56.9493 650.441 56.3467 650.441 55.6C650.441 54.8533 650.713 54.256 651.257 53.808C651.801 53.3493 652.665 53.12 653.849 53.12H656.281V52.816C656.281 52.1547 656.089 51.648 655.705 51.296C655.321 50.944 654.755 50.768 654.009 50.768C653.507 50.768 653.017 50.8533 652.537 51.024C652.057 51.184 651.651 51.4027 651.321 51.68L650.681 50.528C651.118 50.176 651.641 49.9093 652.249 49.728C652.857 49.536 653.502 49.44 654.185 49.44ZM653.833 56.912C654.419 56.912 654.926 56.784 655.353 56.528C655.779 56.2613 656.089 55.888 656.281 55.408V54.224H653.913C652.611 54.224 651.961 54.6613 651.961 55.536C651.961 55.9627 652.126 56.2987 652.457 56.544C652.787 56.7893 653.246 56.912 653.833 56.912ZM665.427 57.504C665.203 57.696 664.926 57.8453 664.595 57.952C664.264 58.048 663.923 58.096 663.571 58.096C662.718 58.096 662.056 57.8667 661.587 57.408C661.118 56.9493 660.883 56.2933 660.883 55.44V50.784H659.443V49.52H660.883V47.664H662.419V49.52H664.851V50.784H662.419V55.376C662.419 55.8347 662.531 56.1867 662.755 56.432C662.99 56.6773 663.32 56.8 663.747 56.8C664.216 56.8 664.616 56.6667 664.947 56.4L665.427 57.504ZM670.388 47.296C669.471 47.296 669.012 47.792 669.012 48.784V49.52H671.476V50.784H669.044V58H667.508V50.784H666.068V49.52H667.508V48.768C667.508 47.9253 667.753 47.2587 668.244 46.768C668.735 46.2773 669.423 46.032 670.308 46.032C670.649 46.032 670.969 46.0747 671.268 46.16C671.567 46.2453 671.823 46.368 672.036 46.528L671.572 47.696C671.22 47.4293 670.825 47.296 670.388 47.296ZM676.432 58.096C675.589 58.096 674.832 57.9093 674.16 57.536C673.488 57.1627 672.96 56.6507 672.576 56C672.202 55.3387 672.016 54.592 672.016 53.76C672.016 52.928 672.202 52.1867 672.576 51.536C672.96 50.8747 673.488 50.3627 674.16 50C674.832 49.6267 675.589 49.44 676.432 49.44C677.274 49.44 678.026 49.6267 678.688 50C679.36 50.3627 679.882 50.8747 680.256 51.536C680.64 52.1867 680.832 52.928 680.832 53.76C680.832 54.592 680.64 55.3387 680.256 56C679.882 56.6507 679.36 57.1627 678.688 57.536C678.026 57.9093 677.274 58.096 676.432 58.096ZM676.432 56.752C676.976 56.752 677.461 56.6293 677.888 56.384C678.325 56.128 678.666 55.776 678.912 55.328C679.157 54.8693 679.28 54.3467 679.28 53.76C679.28 53.1733 679.157 52.656 678.912 52.208C678.666 51.7493 678.325 51.3973 677.888 51.152C677.461 50.9067 676.976 50.784 676.432 50.784C675.888 50.784 675.397 50.9067 674.96 51.152C674.533 51.3973 674.192 51.7493 673.936 52.208C673.69 52.656 673.568 53.1733 673.568 53.76C673.568 54.3467 673.69 54.8693 673.936 55.328C674.192 55.776 674.533 56.128 674.96 56.384C675.397 56.6293 675.888 56.752 676.432 56.752ZM684.428 50.944C684.695 50.4533 685.089 50.08 685.612 49.824C686.135 49.568 686.769 49.44 687.516 49.44V50.928C687.431 50.9173 687.313 50.912 687.164 50.912C686.332 50.912 685.676 51.1627 685.196 51.664C684.727 52.1547 684.492 52.8587 684.492 53.776V58H682.956V49.52H684.428V50.944ZM700.017 49.44C701.084 49.44 701.926 49.7493 702.545 50.368C703.174 50.9867 703.489 51.904 703.489 53.12V58H701.953V53.296C701.953 52.4747 701.761 51.856 701.377 51.44C701.004 51.024 700.465 50.816 699.761 50.816C698.982 50.816 698.364 51.0613 697.905 51.552C697.446 52.032 697.217 52.7253 697.217 53.632V58H695.681V53.296C695.681 52.4747 695.489 51.856 695.105 51.44C694.732 51.024 694.193 50.816 693.489 50.816C692.71 50.816 692.092 51.0613 691.633 51.552C691.174 52.032 690.945 52.7253 690.945 53.632V58H689.409V49.52H690.881V50.784C691.19 50.3467 691.596 50.016 692.097 49.792C692.598 49.5573 693.169 49.44 693.809 49.44C694.47 49.44 695.057 49.5733 695.569 49.84C696.081 50.1067 696.476 50.496 696.753 51.008C697.073 50.5173 697.516 50.1333 698.081 49.856C698.657 49.5787 699.302 49.44 700.017 49.44Z" fill="#777E90"/>
<line x1="634.5" y1="80" x2="634.5" y2="186" stroke="url(#paint2_linear_130_473)"/>
<circle cx="635" cy="211" r="9" fill="#E6007A"/>
<path d="M942.992 28.68C942.432 29.336 941.776 29.832 941.024 30.168C940.288 30.504 939.48 30.672 938.6 30.672C937.448 30.672 936.392 30.408 935.432 29.88C934.472 29.368 933.376 28.472 932.144 27.192C930.592 27.064 929.2 26.616 927.968 25.848C926.736 25.064 925.776 24.048 925.088 22.8C924.4 21.536 924.056 20.136 924.056 18.6C924.056 16.968 924.448 15.496 925.232 14.184C926.016 12.856 927.096 11.824 928.472 11.088C929.848 10.336 931.392 9.96 933.104 9.96C934.816 9.96 936.36 10.336 937.736 11.088C939.112 11.824 940.192 12.848 940.976 14.16C941.76 15.472 942.152 16.952 942.152 18.6C942.152 19.928 941.888 21.16 941.36 22.296C940.832 23.416 940.096 24.376 939.152 25.176C938.208 25.96 937.112 26.528 935.864 26.88C936.328 27.376 936.784 27.736 937.232 27.96C937.68 28.184 938.16 28.296 938.672 28.296C939.776 28.296 940.736 27.848 941.552 26.952L942.992 28.68ZM927.2 18.6C927.2 19.72 927.456 20.736 927.968 21.648C928.48 22.544 929.184 23.248 930.08 23.76C930.976 24.256 931.984 24.504 933.104 24.504C934.224 24.504 935.232 24.256 936.128 23.76C937.024 23.248 937.728 22.544 938.24 21.648C938.752 20.736 939.008 19.72 939.008 18.6C939.008 17.48 938.752 16.472 938.24 15.576C937.728 14.664 937.024 13.96 936.128 13.464C935.232 12.952 934.224 12.696 933.104 12.696C931.984 12.696 930.976 12.952 930.08 13.464C929.184 13.96 928.48 14.664 927.968 15.576C927.456 16.472 927.2 17.48 927.2 18.6ZM956.193 24.36V27H943.809V24.912L950.481 18.576C951.233 17.856 951.737 17.232 951.993 16.704C952.265 16.16 952.401 15.624 952.401 15.096C952.401 14.312 952.137 13.712 951.609 13.296C951.081 12.88 950.305 12.672 949.281 12.672C947.569 12.672 946.257 13.256 945.345 14.424L943.161 12.744C943.817 11.864 944.697 11.184 945.801 10.704C946.921 10.208 948.169 9.96 949.545 9.96C951.369 9.96 952.825 10.392 953.913 11.256C955.001 12.12 955.545 13.296 955.545 14.784C955.545 15.696 955.353 16.552 954.969 17.352C954.585 18.152 953.849 19.064 952.761 20.088L948.273 24.36H956.193ZM976.794 24.36V27H964.41V24.912L971.082 18.576C971.834 17.856 972.338 17.232 972.594 16.704C972.866 16.16 973.002 15.624 973.002 15.096C973.002 14.312 972.738 13.712 972.21 13.296C971.682 12.88 970.906 12.672 969.882 12.672C968.17 12.672 966.858 13.256 965.946 14.424L963.762 12.744C964.418 11.864 965.298 11.184 966.402 10.704C967.522 10.208 968.77 9.96 970.146 9.96C971.97 9.96 973.426 10.392 974.514 11.256C975.602 12.12 976.146 13.296 976.146 14.784C976.146 15.696 975.954 16.552 975.57 17.352C975.186 18.152 974.45 19.064 973.362 20.088L968.874 24.36H976.794ZM985.533 27.24C984.189 27.24 982.989 26.904 981.933 26.232C980.877 25.544 980.045 24.552 979.437 23.256C978.829 21.944 978.525 20.392 978.525 18.6C978.525 16.808 978.829 15.264 979.437 13.968C980.045 12.656 980.877 11.664 981.933 10.992C982.989 10.304 984.189 9.96 985.533 9.96C986.877 9.96 988.077 10.304 989.133 10.992C990.205 11.664 991.045 12.656 991.653 13.968C992.261 15.264 992.565 16.808 992.565 18.6C992.565 20.392 992.261 21.944 991.653 23.256C991.045 24.552 990.205 25.544 989.133 26.232C988.077 26.904 986.877 27.24 985.533 27.24ZM985.533 24.528C986.733 24.528 987.677 24.032 988.365 23.04C989.069 22.048 989.421 20.568 989.421 18.6C989.421 16.632 989.069 15.152 988.365 14.16C987.677 13.168 986.733 12.672 985.533 12.672C984.349 12.672 983.405 13.168 982.701 14.16C982.013 15.152 981.669 16.632 981.669 18.6C981.669 20.568 982.013 22.048 982.701 23.04C983.405 24.032 984.349 24.528 985.533 24.528ZM1006.72 24.36V27H994.34V24.912L1001.01 18.576C1001.76 17.856 1002.27 17.232 1002.52 16.704C1002.8 16.16 1002.93 15.624 1002.93 15.096C1002.93 14.312 1002.67 13.712 1002.14 13.296C1001.61 12.88 1000.84 12.672 999.812 12.672C998.1 12.672 996.788 13.256 995.876 14.424L993.692 12.744C994.348 11.864 995.228 11.184 996.332 10.704C997.452 10.208 998.7 9.96 1000.08 9.96C1001.9 9.96 1003.36 10.392 1004.44 11.256C1005.53 12.12 1006.08 13.296 1006.08 14.784C1006.08 15.696 1005.88 16.552 1005.5 17.352C1005.12 18.152 1004.38 19.064 1003.29 20.088L998.804 24.36H1006.72ZM1014.33 10.2V27H1011.21V12.816H1007.66V10.2H1014.33Z" fill="#040404"/>
<path d="M914.078 42.8H918.798C919.982 42.8 921.033 43.0347 921.95 43.504C922.868 43.9733 923.577 44.6347 924.078 45.488C924.59 46.3307 924.846 47.3013 924.846 48.4C924.846 49.4987 924.59 50.4747 924.078 51.328C923.577 52.1707 922.868 52.8267 921.95 53.296C921.033 53.7653 919.982 54 918.798 54H914.078V42.8ZM918.702 52.608C919.609 52.608 920.404 52.432 921.086 52.08C921.78 51.728 922.313 51.2373 922.686 50.608C923.06 49.968 923.246 49.232 923.246 48.4C923.246 47.568 923.06 46.8373 922.686 46.208C922.313 45.568 921.78 45.072 921.086 44.72C920.404 44.368 919.609 44.192 918.702 44.192H915.678V52.608H918.702ZM934.737 49.808C934.737 49.9253 934.727 50.08 934.705 50.272H927.825C927.921 51.0187 928.247 51.6213 928.801 52.08C929.367 52.528 930.065 52.752 930.897 52.752C931.911 52.752 932.727 52.4107 933.345 51.728L934.193 52.72C933.809 53.168 933.329 53.5093 932.753 53.744C932.188 53.9787 931.553 54.096 930.849 54.096C929.953 54.096 929.159 53.9147 928.465 53.552C927.772 53.1787 927.233 52.6613 926.849 52C926.476 51.3387 926.289 50.592 926.289 49.76C926.289 48.9387 926.471 48.1973 926.833 47.536C927.207 46.8747 927.713 46.3627 928.353 46C929.004 45.6267 929.735 45.44 930.545 45.44C931.356 45.44 932.076 45.6267 932.705 46C933.345 46.3627 933.841 46.8747 934.193 47.536C934.556 48.1973 934.737 48.9547 934.737 49.808ZM930.545 46.736C929.809 46.736 929.191 46.96 928.689 47.408C928.199 47.856 927.911 48.4427 927.825 49.168H933.265C933.18 48.4533 932.887 47.872 932.385 47.424C931.895 46.9653 931.281 46.736 930.545 46.736ZM940.566 54.096C939.702 54.096 938.929 53.9093 938.246 53.536C937.574 53.1627 937.046 52.6507 936.662 52C936.278 51.3387 936.086 50.592 936.086 49.76C936.086 48.928 936.278 48.1867 936.662 47.536C937.046 46.8747 937.574 46.3627 938.246 46C938.929 45.6267 939.702 45.44 940.566 45.44C941.334 45.44 942.017 45.5947 942.614 45.904C943.222 46.2133 943.691 46.6613 944.022 47.248L942.854 48C942.587 47.5947 942.257 47.2907 941.862 47.088C941.467 46.8853 941.03 46.784 940.55 46.784C939.995 46.784 939.494 46.9067 939.046 47.152C938.609 47.3973 938.262 47.7493 938.006 48.208C937.761 48.656 937.638 49.1733 937.638 49.76C937.638 50.3573 937.761 50.8853 938.006 51.344C938.262 51.792 938.609 52.1387 939.046 52.384C939.494 52.6293 939.995 52.752 940.55 52.752C941.03 52.752 941.467 52.6507 941.862 52.448C942.257 52.2453 942.587 51.9413 942.854 51.536L944.022 52.272C943.691 52.8587 943.222 53.312 942.614 53.632C942.017 53.9413 941.334 54.096 940.566 54.096ZM953.55 49.808C953.55 49.9253 953.539 50.08 953.518 50.272H946.638C946.734 51.0187 947.059 51.6213 947.614 52.08C948.179 52.528 948.878 52.752 949.71 52.752C950.723 52.752 951.539 52.4107 952.158 51.728L953.006 52.72C952.622 53.168 952.142 53.5093 951.566 53.744C951 53.9787 950.366 54.096 949.662 54.096C948.766 54.096 947.971 53.9147 947.278 53.552C946.584 53.1787 946.046 52.6613 945.662 52C945.288 51.3387 945.102 50.592 945.102 49.76C945.102 48.9387 945.283 48.1973 945.646 47.536C946.019 46.8747 946.526 46.3627 947.166 46C947.816 45.6267 948.547 45.44 949.358 45.44C950.168 45.44 950.888 45.6267 951.518 46C952.158 46.3627 952.654 46.8747 953.006 47.536C953.368 48.1973 953.55 48.9547 953.55 49.808ZM949.358 46.736C948.622 46.736 948.003 46.96 947.502 47.408C947.011 47.856 946.723 48.4427 946.638 49.168H952.078C951.992 48.4533 951.699 47.872 951.198 47.424C950.707 46.9653 950.094 46.736 949.358 46.736ZM960.211 45.44C961.288 45.44 962.141 45.7547 962.771 46.384C963.411 47.0027 963.731 47.9147 963.731 49.12V54H962.195V49.296C962.195 48.4747 961.997 47.856 961.603 47.44C961.208 47.024 960.643 46.816 959.907 46.816C959.075 46.816 958.419 47.0613 957.939 47.552C957.459 48.032 957.219 48.7253 957.219 49.632V54H955.683V45.52H957.155V46.8C957.464 46.3627 957.88 46.0267 958.403 45.792C958.936 45.5573 959.539 45.44 960.211 45.44ZM971.341 53.504C971.117 53.696 970.84 53.8453 970.509 53.952C970.179 54.048 969.837 54.096 969.485 54.096C968.632 54.096 967.971 53.8667 967.501 53.408C967.032 52.9493 966.797 52.2933 966.797 51.44V46.784H965.357V45.52H966.797V43.664H968.333V45.52H970.765V46.784H968.333V51.376C968.333 51.8347 968.445 52.1867 968.669 52.432C968.904 52.6773 969.235 52.8 969.661 52.8C970.131 52.8 970.531 52.6667 970.861 52.4L971.341 53.504ZM974.67 46.944C974.937 46.4533 975.332 46.08 975.854 45.824C976.377 45.568 977.012 45.44 977.758 45.44V46.928C977.673 46.9173 977.556 46.912 977.406 46.912C976.574 46.912 975.918 47.1627 975.438 47.664C974.969 48.1547 974.734 48.8587 974.734 49.776V54H973.198V45.52H974.67V46.944ZM982.724 45.44C983.897 45.44 984.793 45.728 985.412 46.304C986.041 46.88 986.356 47.7387 986.356 48.88V54H984.9V52.88C984.644 53.2747 984.276 53.5787 983.796 53.792C983.326 53.9947 982.766 54.096 982.116 54.096C981.166 54.096 980.404 53.8667 979.828 53.408C979.262 52.9493 978.98 52.3467 978.98 51.6C978.98 50.8533 979.252 50.256 979.796 49.808C980.34 49.3493 981.204 49.12 982.388 49.12H984.82V48.816C984.82 48.1547 984.628 47.648 984.244 47.296C983.86 46.944 983.294 46.768 982.548 46.768C982.046 46.768 981.556 46.8533 981.076 47.024C980.596 47.184 980.19 47.4027 979.86 47.68L979.22 46.528C979.657 46.176 980.18 45.9093 980.788 45.728C981.396 45.536 982.041 45.44 982.724 45.44ZM982.372 52.912C982.958 52.912 983.465 52.784 983.892 52.528C984.318 52.2613 984.628 51.888 984.82 51.408V50.224H982.452C981.15 50.224 980.5 50.6613 980.5 51.536C980.5 51.9627 980.665 52.2987 980.996 52.544C981.326 52.7893 981.785 52.912 982.372 52.912ZM989.198 42.128H990.734V54H989.198V42.128ZM993.667 45.52H995.203V54H993.667V45.52ZM994.435 43.888C994.136 43.888 993.886 43.792 993.683 43.6C993.491 43.408 993.395 43.1733 993.395 42.896C993.395 42.6187 993.491 42.384 993.683 42.192C993.886 41.9893 994.136 41.888 994.435 41.888C994.734 41.888 994.979 41.984 995.171 42.176C995.374 42.3573 995.475 42.5867 995.475 42.864C995.475 43.152 995.374 43.3973 995.171 43.6C994.979 43.792 994.734 43.888 994.435 43.888ZM1004.42 52.736V54H997.32V53.008L1002.33 46.784H997.416V45.52H1004.3V46.528L999.288 52.736H1004.42ZM1014.02 49.808C1014.02 49.9253 1014.01 50.08 1013.99 50.272H1007.11C1007.2 51.0187 1007.53 51.6213 1008.08 52.08C1008.65 52.528 1009.35 52.752 1010.18 52.752C1011.19 52.752 1012.01 52.4107 1012.63 51.728L1013.47 52.72C1013.09 53.168 1012.61 53.5093 1012.03 53.744C1011.47 53.9787 1010.83 54.096 1010.13 54.096C1009.23 54.096 1008.44 53.9147 1007.75 53.552C1007.05 53.1787 1006.51 52.6613 1006.13 52C1005.76 51.3387 1005.57 50.592 1005.57 49.76C1005.57 48.9387 1005.75 48.1973 1006.11 47.536C1006.49 46.8747 1006.99 46.3627 1007.63 46C1008.29 45.6267 1009.02 45.44 1009.83 45.44C1010.64 45.44 1011.36 45.6267 1011.99 46C1012.63 46.3627 1013.12 46.8747 1013.47 47.536C1013.84 48.1973 1014.02 48.9547 1014.02 49.808ZM1009.83 46.736C1009.09 46.736 1008.47 46.96 1007.97 47.408C1007.48 47.856 1007.19 48.4427 1007.11 49.168H1012.55C1012.46 48.4533 1012.17 47.872 1011.67 47.424C1011.18 46.9653 1010.56 46.736 1009.83 46.736ZM1024.15 42.128V54H1022.68V52.656C1022.34 53.1253 1021.91 53.4827 1021.38 53.728C1020.86 53.9733 1020.28 54.096 1019.66 54.096C1018.83 54.096 1018.1 53.9147 1017.45 53.552C1016.8 53.1893 1016.28 52.6827 1015.91 52.032C1015.55 51.3707 1015.37 50.6133 1015.37 49.76C1015.37 48.9067 1015.55 48.1547 1015.91 47.504C1016.28 46.8533 1016.8 46.3467 1017.45 45.984C1018.1 45.6213 1018.83 45.44 1019.66 45.44C1020.26 45.44 1020.82 45.5573 1021.34 45.792C1021.85 46.016 1022.27 46.352 1022.62 46.8V42.128H1024.15ZM1019.78 52.752C1020.32 52.752 1020.8 52.6293 1021.24 52.384C1021.68 52.128 1022.02 51.776 1022.26 51.328C1022.51 50.8693 1022.63 50.3467 1022.63 49.76C1022.63 49.1733 1022.51 48.656 1022.26 48.208C1022.02 47.7493 1021.68 47.3973 1021.24 47.152C1020.8 46.9067 1020.32 46.784 1019.78 46.784C1019.24 46.784 1018.75 46.9067 1018.31 47.152C1017.88 47.3973 1017.54 47.7493 1017.29 48.208C1017.04 48.656 1016.92 49.1733 1016.92 49.76C1016.92 50.3467 1017.04 50.8693 1017.29 51.328C1017.54 51.776 1017.88 52.128 1018.31 52.384C1018.75 52.6293 1019.24 52.752 1019.78 52.752ZM913.8 76.608V78H905.672V66.8H913.576V68.192H907.272V71.632H912.888V72.992H907.272V76.608H913.8ZM921.387 78L918.939 74.752L916.459 78H914.747L918.091 73.664L914.907 69.52H916.619L918.955 72.576L921.275 69.52H922.955L919.755 73.664L923.131 78H921.387ZM928.222 78.096C927.358 78.096 926.585 77.9093 925.902 77.536C925.23 77.1627 924.702 76.6507 924.318 76C923.934 75.3387 923.742 74.592 923.742 73.76C923.742 72.928 923.934 72.1867 924.318 71.536C924.702 70.8747 925.23 70.3627 925.902 70C926.585 69.6267 927.358 69.44 928.222 69.44C928.99 69.44 929.673 69.5947 930.27 69.904C930.878 70.2133 931.348 70.6613 931.678 71.248L930.51 72C930.244 71.5947 929.913 71.2907 929.518 71.088C929.124 70.8853 928.686 70.784 928.206 70.784C927.652 70.784 927.15 70.9067 926.702 71.152C926.265 71.3973 925.918 71.7493 925.662 72.208C925.417 72.656 925.294 73.1733 925.294 73.76C925.294 74.3573 925.417 74.8853 925.662 75.344C925.918 75.792 926.265 76.1387 926.702 76.384C927.15 76.6293 927.652 76.752 928.206 76.752C928.686 76.752 929.124 76.6507 929.518 76.448C929.913 76.2453 930.244 75.9413 930.51 75.536L931.678 76.272C931.348 76.8587 930.878 77.312 930.27 77.632C929.673 77.9413 928.99 78.096 928.222 78.096ZM938.086 69.44C939.163 69.44 940.016 69.7547 940.646 70.384C941.286 71.0027 941.606 71.9147 941.606 73.12V78H940.07V73.296C940.07 72.4747 939.872 71.856 939.478 71.44C939.083 71.024 938.518 70.816 937.782 70.816C936.95 70.816 936.294 71.0613 935.814 71.552C935.334 72.032 935.094 72.7253 935.094 73.632V78H933.558V66.128H935.094V70.72C935.414 70.3147 935.83 70 936.342 69.776C936.864 69.552 937.446 69.44 938.086 69.44ZM947.536 69.44C948.71 69.44 949.606 69.728 950.224 70.304C950.854 70.88 951.168 71.7387 951.168 72.88V78H949.712V76.88C949.456 77.2747 949.088 77.5787 948.608 77.792C948.139 77.9947 947.579 78.096 946.928 78.096C945.979 78.096 945.216 77.8667 944.64 77.408C944.075 76.9493 943.792 76.3467 943.792 75.6C943.792 74.8533 944.064 74.256 944.608 73.808C945.152 73.3493 946.016 73.12 947.2 73.12H949.632V72.816C949.632 72.1547 949.44 71.648 949.056 71.296C948.672 70.944 948.107 70.768 947.36 70.768C946.859 70.768 946.368 70.8533 945.888 71.024C945.408 71.184 945.003 71.4027 944.672 71.68L944.032 70.528C944.47 70.176 944.992 69.9093 945.6 69.728C946.208 69.536 946.854 69.44 947.536 69.44ZM947.184 76.912C947.771 76.912 948.278 76.784 948.704 76.528C949.131 76.2613 949.44 75.888 949.632 75.408V74.224H947.264C945.963 74.224 945.312 74.6613 945.312 75.536C945.312 75.9627 945.478 76.2987 945.808 76.544C946.139 76.7893 946.598 76.912 947.184 76.912ZM958.539 69.44C959.616 69.44 960.469 69.7547 961.099 70.384C961.739 71.0027 962.059 71.9147 962.059 73.12V78H960.523V73.296C960.523 72.4747 960.325 71.856 959.931 71.44C959.536 71.024 958.971 70.816 958.235 70.816C957.403 70.816 956.747 71.0613 956.267 71.552C955.787 72.032 955.547 72.7253 955.547 73.632V78H954.011V69.52H955.483V70.8C955.792 70.3627 956.208 70.0267 956.731 69.792C957.264 69.5573 957.867 69.44 958.539 69.44ZM973.06 69.52V76.848C973.06 78.3307 972.692 79.424 971.956 80.128C971.22 80.8427 970.122 81.2 968.66 81.2C967.86 81.2 967.098 81.088 966.372 80.864C965.647 80.6507 965.06 80.3413 964.612 79.936L965.348 78.752C965.743 79.0933 966.228 79.36 966.804 79.552C967.391 79.7547 967.994 79.856 968.612 79.856C969.604 79.856 970.335 79.6213 970.804 79.152C971.284 78.6827 971.524 77.968 971.524 77.008V76.336C971.162 76.7733 970.714 77.104 970.18 77.328C969.658 77.5413 969.087 77.648 968.468 77.648C967.658 77.648 966.922 77.4773 966.26 77.136C965.61 76.784 965.098 76.2987 964.724 75.68C964.351 75.0507 964.164 74.336 964.164 73.536C964.164 72.736 964.351 72.0267 964.724 71.408C965.098 70.7787 965.61 70.2933 966.26 69.952C966.922 69.6107 967.658 69.44 968.468 69.44C969.108 69.44 969.7 69.5573 970.244 69.792C970.799 70.0267 971.252 70.3733 971.604 70.832V69.52H973.06ZM968.644 76.304C969.199 76.304 969.695 76.1867 970.132 75.952C970.58 75.7173 970.927 75.392 971.172 74.976C971.428 74.5493 971.556 74.0693 971.556 73.536C971.556 72.7147 971.284 72.0533 970.74 71.552C970.196 71.04 969.498 70.784 968.644 70.784C967.78 70.784 967.076 71.04 966.532 71.552C965.988 72.0533 965.716 72.7147 965.716 73.536C965.716 74.0693 965.839 74.5493 966.084 74.976C966.34 75.392 966.687 75.7173 967.124 75.952C967.572 76.1867 968.079 76.304 968.644 76.304ZM983.659 73.808C983.659 73.9253 983.648 74.08 983.627 74.272H976.747C976.843 75.0187 977.168 75.6213 977.723 76.08C978.288 76.528 978.987 76.752 979.819 76.752C980.832 76.752 981.648 76.4107 982.267 75.728L983.115 76.72C982.731 77.168 982.251 77.5093 981.675 77.744C981.11 77.9787 980.475 78.096 979.771 78.096C978.875 78.096 978.08 77.9147 977.387 77.552C976.694 77.1787 976.155 76.6613 975.771 76C975.398 75.3387 975.211 74.592 975.211 73.76C975.211 72.9387 975.392 72.1973 975.755 71.536C976.128 70.8747 976.635 70.3627 977.275 70C977.926 69.6267 978.656 69.44 979.467 69.44C980.278 69.44 980.998 69.6267 981.627 70C982.267 70.3627 982.763 70.8747 983.115 71.536C983.478 72.1973 983.659 72.9547 983.659 73.808ZM979.467 70.736C978.731 70.736 978.112 70.96 977.611 71.408C977.12 71.856 976.832 72.4427 976.747 73.168H982.187C982.102 72.4533 981.808 71.872 981.307 71.424C980.816 70.9653 980.203 70.736 979.467 70.736ZM992.057 81.104C991.449 80.1227 990.979 78.9973 990.649 77.728C990.318 76.448 990.153 75.0773 990.153 73.616C990.153 72.1547 990.318 70.784 990.649 69.504C990.979 68.2133 991.449 67.088 992.057 66.128H993.513C992.873 67.248 992.403 68.4213 992.105 69.648C991.806 70.8747 991.657 72.1973 991.657 73.616C991.657 75.0347 991.806 76.3573 992.105 77.584C992.403 78.8107 992.873 79.984 993.513 81.104H992.057ZM995.703 66.8H1000.42C1001.61 66.8 1002.66 67.0347 1003.58 67.504C1004.49 67.9733 1005.2 68.6347 1005.7 69.488C1006.22 70.3307 1006.47 71.3013 1006.47 72.4C1006.47 73.4987 1006.22 74.4747 1005.7 75.328C1005.2 76.1707 1004.49 76.8267 1003.58 77.296C1002.66 77.7653 1001.61 78 1000.42 78H995.703V66.8ZM1000.33 76.608C1001.23 76.608 1002.03 76.432 1002.71 76.08C1003.4 75.728 1003.94 75.2373 1004.31 74.608C1004.68 73.968 1004.87 73.232 1004.87 72.4C1004.87 71.568 1004.68 70.8373 1004.31 70.208C1003.94 69.568 1003.4 69.072 1002.71 68.72C1002.03 68.368 1001.23 68.192 1000.33 68.192H997.303V76.608H1000.33ZM1017.05 76.608V78H1008.92V66.8H1016.83V68.192H1010.52V71.632H1016.14V72.992H1010.52V76.608H1017.05ZM1026.56 78L1023.2 73.376L1019.88 78H1018.04L1022.25 72.256L1018.3 66.8H1020.12L1023.26 71.104L1026.36 66.8H1028.11L1024.16 72.208L1028.4 78H1026.56ZM1029.11 81.104C1029.75 79.984 1030.22 78.8107 1030.52 77.584C1030.83 76.3573 1030.99 75.0347 1030.99 73.616C1030.99 72.1973 1030.83 70.8747 1030.52 69.648C1030.22 68.4213 1029.75 67.248 1029.11 66.128H1030.57C1031.19 67.088 1031.66 68.208 1031.99 69.488C1032.32 70.768 1032.49 72.144 1032.49 73.616C1032.49 75.0773 1032.32 76.448 1031.99 77.728C1031.66 79.008 1031.19 80.1333 1030.57 81.104H1029.11Z" fill="#777E90"/>
<path d="M969.5 102.5L969.5 187" stroke="url(#paint3_linear_130_473)"/>
<circle cx="969" cy="212" r="9" fill="#E6007A"/>
<path d="M745.158 386L745.11 369.2H741.918L735.726 379.64L729.438 369.2H726.222V386H729.87V376.136L734.79 384.224H736.542L741.486 375.92L741.51 386H745.158ZM761.696 386H765.776L758.264 369.2H754.424L746.936 386H750.92L752.408 382.4H760.208L761.696 386ZM753.656 379.448L756.32 373.016L758.984 379.448H753.656ZM782.399 386L778.631 380.6C780.815 379.664 782.087 377.816 782.087 375.296C782.087 371.528 779.279 369.2 774.791 369.2H767.519V386H771.407V381.32H774.791H774.983L778.223 386H782.399ZM778.151 375.296C778.151 377.12 776.951 378.224 774.575 378.224H771.407V372.368H774.575C776.951 372.368 778.151 373.448 778.151 375.296ZM793.208 386.288C796.136 386.288 798.56 385.232 800.144 383.288L797.648 380.984C796.52 382.304 795.104 382.976 793.424 382.976C790.28 382.976 788.048 380.768 788.048 377.6C788.048 374.432 790.28 372.224 793.424 372.224C795.104 372.224 796.52 372.896 797.648 374.192L800.144 371.888C798.56 369.968 796.136 368.912 793.232 368.912C788 368.912 784.112 372.536 784.112 377.6C784.112 382.664 788 386.288 793.208 386.288ZM814.289 369.2V375.824H806.657V369.2H802.769V386H806.657V379.112H814.289V386H818.177V369.2H814.289ZM833.221 382.832L837.085 379.184C839.437 377 839.893 375.512 839.893 373.88C839.893 370.832 837.397 368.912 833.653 368.912C830.629 368.912 828.277 370.136 826.981 372.032L829.813 373.856C830.629 372.728 831.853 372.176 833.293 372.176C835.069 372.176 835.981 372.944 835.981 374.264C835.981 375.08 835.717 375.944 834.229 377.36L827.749 383.48V386H840.445V382.832H833.221ZM849.202 386.288C853.354 386.288 856.402 383.144 856.402 377.6C856.402 372.056 853.354 368.912 849.202 368.912C845.074 368.912 842.002 372.056 842.002 377.6C842.002 383.144 845.074 386.288 849.202 386.288ZM849.202 383C847.282 383 845.938 381.416 845.938 377.6C845.938 373.784 847.282 372.2 849.202 372.2C851.146 372.2 852.49 373.784 852.49 377.6C852.49 381.416 851.146 383 849.202 383ZM863.479 382.832L867.343 379.184C869.695 377 870.151 375.512 870.151 373.88C870.151 370.832 867.655 368.912 863.911 368.912C860.887 368.912 858.535 370.136 857.239 372.032L860.071 373.856C860.887 372.728 862.111 372.176 863.551 372.176C865.327 372.176 866.239 372.944 866.239 374.264C866.239 375.08 865.975 375.944 864.487 377.36L858.007 383.48V386H870.703V382.832H863.479ZM871.539 369.2V372.32H874.899V386H878.787V369.2H871.539Z" fill="#040404"/>
<path d="M728.984 401.8V413H727.672L720.952 404.648V413H719.352V401.8H720.664L727.384 410.152V401.8H728.984ZM735.744 413.096C734.902 413.096 734.144 412.909 733.472 412.536C732.8 412.163 732.272 411.651 731.888 411C731.515 410.339 731.328 409.592 731.328 408.76C731.328 407.928 731.515 407.187 731.888 406.536C732.272 405.875 732.8 405.363 733.472 405C734.144 404.627 734.902 404.44 735.744 404.44C736.587 404.44 737.339 404.627 738 405C738.672 405.363 739.195 405.875 739.568 406.536C739.952 407.187 740.144 407.928 740.144 408.76C740.144 409.592 739.952 410.339 739.568 411C739.195 411.651 738.672 412.163 738 412.536C737.339 412.909 736.587 413.096 735.744 413.096ZM735.744 411.752C736.288 411.752 736.774 411.629 737.2 411.384C737.638 411.128 737.979 410.776 738.224 410.328C738.47 409.869 738.592 409.347 738.592 408.76C738.592 408.173 738.47 407.656 738.224 407.208C737.979 406.749 737.638 406.397 737.2 406.152C736.774 405.907 736.288 405.784 735.744 405.784C735.2 405.784 734.71 405.907 734.272 406.152C733.846 406.397 733.504 406.749 733.248 407.208C733.003 407.656 732.88 408.173 732.88 408.76C732.88 409.347 733.003 409.869 733.248 410.328C733.504 410.776 733.846 411.128 734.272 411.384C734.71 411.629 735.2 411.752 735.744 411.752ZM746.797 404.44C747.874 404.44 748.727 404.755 749.357 405.384C749.997 406.003 750.317 406.915 750.317 408.12V413H748.781V408.296C748.781 407.475 748.583 406.856 748.189 406.44C747.794 406.024 747.229 405.816 746.493 405.816C745.661 405.816 745.005 406.061 744.525 406.552C744.045 407.032 743.805 407.725 743.805 408.632V413H742.269V404.52H743.741V405.8C744.05 405.363 744.466 405.027 744.989 404.792C745.522 404.557 746.125 404.44 746.797 404.44ZM752.615 407.944H756.919V409.272H752.615V407.944ZM761.108 403.192V407.096H766.724V408.472H761.108V413H759.508V401.8H767.412V403.192H761.108ZM777.079 404.52V413H775.623V411.72C775.313 412.157 774.903 412.499 774.391 412.744C773.889 412.979 773.34 413.096 772.743 413.096C771.612 413.096 770.721 412.787 770.071 412.168C769.42 411.539 769.095 410.616 769.095 409.4V404.52H770.631V409.224C770.631 410.045 770.828 410.669 771.223 411.096C771.617 411.512 772.183 411.72 772.919 411.72C773.729 411.72 774.369 411.475 774.839 410.984C775.308 410.493 775.543 409.8 775.543 408.904V404.52H777.079ZM784.531 404.44C785.608 404.44 786.462 404.755 787.091 405.384C787.731 406.003 788.051 406.915 788.051 408.12V413H786.515V408.296C786.515 407.475 786.318 406.856 785.923 406.44C785.528 406.024 784.963 405.816 784.227 405.816C783.395 405.816 782.739 406.061 782.259 406.552C781.779 407.032 781.539 407.725 781.539 408.632V413H780.003V404.52H781.475V405.8C781.784 405.363 782.2 405.027 782.723 404.792C783.256 404.557 783.859 404.44 784.531 404.44ZM799.052 404.52V411.848C799.052 413.331 798.684 414.424 797.948 415.128C797.212 415.843 796.114 416.2 794.652 416.2C793.852 416.2 793.09 416.088 792.364 415.864C791.639 415.651 791.052 415.341 790.604 414.936L791.34 413.752C791.735 414.093 792.22 414.36 792.796 414.552C793.383 414.755 793.986 414.856 794.604 414.856C795.596 414.856 796.327 414.621 796.796 414.152C797.276 413.683 797.516 412.968 797.516 412.008V411.336C797.154 411.773 796.706 412.104 796.172 412.328C795.65 412.541 795.079 412.648 794.46 412.648C793.65 412.648 792.914 412.477 792.252 412.136C791.602 411.784 791.09 411.299 790.716 410.68C790.343 410.051 790.156 409.336 790.156 408.536C790.156 407.736 790.343 407.027 790.716 406.408C791.09 405.779 791.602 405.293 792.252 404.952C792.914 404.611 793.65 404.44 794.46 404.44C795.1 404.44 795.692 404.557 796.236 404.792C796.791 405.027 797.244 405.373 797.596 405.832V404.52H799.052ZM794.636 411.304C795.191 411.304 795.687 411.187 796.124 410.952C796.572 410.717 796.919 410.392 797.164 409.976C797.42 409.549 797.548 409.069 797.548 408.536C797.548 407.715 797.276 407.053 796.732 406.552C796.188 406.04 795.49 405.784 794.636 405.784C793.772 405.784 793.068 406.04 792.524 406.552C791.98 407.053 791.708 407.715 791.708 408.536C791.708 409.069 791.831 409.549 792.076 409.976C792.332 410.392 792.679 410.717 793.116 410.952C793.564 411.187 794.071 411.304 794.636 411.304ZM801.987 404.52H803.523V413H801.987V404.52ZM802.755 402.888C802.457 402.888 802.206 402.792 802.003 402.6C801.811 402.408 801.715 402.173 801.715 401.896C801.715 401.619 801.811 401.384 802.003 401.192C802.206 400.989 802.457 400.888 802.755 400.888C803.054 400.888 803.299 400.984 803.491 401.176C803.694 401.357 803.795 401.587 803.795 401.864C803.795 402.152 803.694 402.397 803.491 402.6C803.299 402.792 803.054 402.888 802.755 402.888ZM810.952 404.44C811.773 404.44 812.509 404.621 813.16 404.984C813.811 405.347 814.317 405.853 814.68 406.504C815.053 407.155 815.24 407.907 815.24 408.76C815.24 409.613 815.053 410.371 814.68 411.032C814.317 411.683 813.811 412.189 813.16 412.552C812.509 412.915 811.773 413.096 810.952 413.096C810.323 413.096 809.747 412.973 809.224 412.728C808.701 412.483 808.269 412.125 807.928 411.656V413H806.456V401.128H807.992V405.8C808.333 405.352 808.76 405.016 809.272 404.792C809.784 404.557 810.344 404.44 810.952 404.44ZM810.824 411.752C811.368 411.752 811.853 411.629 812.28 411.384C812.717 411.128 813.059 410.776 813.304 410.328C813.56 409.869 813.688 409.347 813.688 408.76C813.688 408.173 813.56 407.656 813.304 407.208C813.059 406.749 812.717 406.397 812.28 406.152C811.853 405.907 811.368 405.784 810.824 405.784C810.291 405.784 809.805 405.907 809.368 406.152C808.931 406.397 808.589 406.749 808.344 407.208C808.099 407.656 807.976 408.173 807.976 408.76C807.976 409.347 808.099 409.869 808.344 410.328C808.589 410.776 808.931 411.128 809.368 411.384C809.805 411.629 810.291 411.752 810.824 411.752ZM817.362 401.128H818.898V413H817.362V401.128ZM829.495 408.808C829.495 408.925 829.484 409.08 829.463 409.272H822.583C822.679 410.019 823.004 410.621 823.559 411.08C824.124 411.528 824.823 411.752 825.655 411.752C826.668 411.752 827.484 411.411 828.103 410.728L828.951 411.72C828.567 412.168 828.087 412.509 827.511 412.744C826.946 412.979 826.311 413.096 825.607 413.096C824.711 413.096 823.916 412.915 823.223 412.552C822.53 412.179 821.991 411.661 821.607 411C821.234 410.339 821.047 409.592 821.047 408.76C821.047 407.939 821.228 407.197 821.591 406.536C821.964 405.875 822.471 405.363 823.111 405C823.762 404.627 824.492 404.44 825.303 404.44C826.114 404.44 826.834 404.627 827.463 405C828.103 405.363 828.599 405.875 828.951 406.536C829.314 407.197 829.495 407.955 829.495 408.808ZM825.303 405.736C824.567 405.736 823.948 405.96 823.447 406.408C822.956 406.856 822.668 407.443 822.583 408.168H828.023C827.938 407.453 827.644 406.872 827.143 406.424C826.652 405.965 826.039 405.736 825.303 405.736ZM838.373 403.192H834.533V401.8H843.797V403.192H839.957V413H838.373V403.192ZM848.072 413.096C847.23 413.096 846.472 412.909 845.8 412.536C845.128 412.163 844.6 411.651 844.216 411C843.843 410.339 843.656 409.592 843.656 408.76C843.656 407.928 843.843 407.187 844.216 406.536C844.6 405.875 845.128 405.363 845.8 405C846.472 404.627 847.23 404.44 848.072 404.44C848.915 404.44 849.667 404.627 850.328 405C851 405.363 851.523 405.875 851.896 406.536C852.28 407.187 852.472 407.928 852.472 408.76C852.472 409.592 852.28 410.339 851.896 411C851.523 411.651 851 412.163 850.328 412.536C849.667 412.909 848.915 413.096 848.072 413.096ZM848.072 411.752C848.616 411.752 849.102 411.629 849.528 411.384C849.966 411.128 850.307 410.776 850.552 410.328C850.798 409.869 850.92 409.347 850.92 408.76C850.92 408.173 850.798 407.656 850.552 407.208C850.307 406.749 849.966 406.397 849.528 406.152C849.102 405.907 848.616 405.784 848.072 405.784C847.528 405.784 847.038 405.907 846.6 406.152C846.174 406.397 845.832 406.749 845.576 407.208C845.331 407.656 845.208 408.173 845.208 408.76C845.208 409.347 845.331 409.869 845.576 410.328C845.832 410.776 846.174 411.128 846.6 411.384C847.038 411.629 847.528 411.752 848.072 411.752ZM857.893 409.048L856.133 410.68V413H854.597V401.128H856.133V408.744L860.757 404.52H862.613L859.045 408.024L862.965 413H861.077L857.893 409.048ZM871.761 408.808C871.761 408.925 871.75 409.08 871.729 409.272H864.849C864.945 410.019 865.27 410.621 865.825 411.08C866.39 411.528 867.089 411.752 867.921 411.752C868.934 411.752 869.75 411.411 870.369 410.728L871.217 411.72C870.833 412.168 870.353 412.509 869.777 412.744C869.211 412.979 868.577 413.096 867.873 413.096C866.977 413.096 866.182 412.915 865.489 412.552C864.795 412.179 864.257 411.661 863.873 411C863.499 410.339 863.313 409.592 863.313 408.76C863.313 407.939 863.494 407.197 863.857 406.536C864.23 405.875 864.737 405.363 865.377 405C866.027 404.627 866.758 404.44 867.569 404.44C868.379 404.44 869.099 404.627 869.729 405C870.369 405.363 870.865 405.875 871.217 406.536C871.579 407.197 871.761 407.955 871.761 408.808ZM867.569 405.736C866.833 405.736 866.214 405.96 865.713 406.408C865.222 406.856 864.934 407.443 864.849 408.168H870.289C870.203 407.453 869.91 406.872 869.409 406.424C868.918 405.965 868.305 405.736 867.569 405.736ZM878.422 404.44C879.499 404.44 880.352 404.755 880.982 405.384C881.622 406.003 881.942 406.915 881.942 408.12V413H880.406V408.296C880.406 407.475 880.208 406.856 879.814 406.44C879.419 406.024 878.854 405.816 878.118 405.816C877.286 405.816 876.63 406.061 876.15 406.552C875.67 407.032 875.43 407.725 875.43 408.632V413H873.894V404.52H875.366V405.8C875.675 405.363 876.091 405.027 876.614 404.792C877.147 404.557 877.75 404.44 878.422 404.44ZM744.455 440.104C743.847 439.123 743.378 437.997 743.047 436.728C742.717 435.448 742.551 434.077 742.551 432.616C742.551 431.155 742.717 429.784 743.047 428.504C743.378 427.213 743.847 426.088 744.455 425.128H745.911C745.271 426.248 744.802 427.421 744.503 428.648C744.205 429.875 744.055 431.197 744.055 432.616C744.055 434.035 744.205 435.357 744.503 436.584C744.802 437.811 745.271 438.984 745.911 440.104H744.455ZM757.734 425.8V437H756.422L749.702 428.648V437H748.102V425.8H749.414L756.134 434.152V425.8H757.734ZM762.686 427.192V431.096H768.302V432.472H762.686V437H761.086V425.8H768.99V427.192H762.686ZM773.545 427.192H769.705V425.8H778.969V427.192H775.129V437H773.545V427.192ZM779.543 440.104C780.183 438.984 780.653 437.811 780.951 436.584C781.261 435.357 781.415 434.035 781.415 432.616C781.415 431.197 781.261 429.875 780.951 428.648C780.653 427.421 780.183 426.248 779.543 425.128H780.999C781.618 426.088 782.093 427.208 782.423 428.488C782.754 429.768 782.919 431.144 782.919 432.616C782.919 434.077 782.754 435.448 782.423 436.728C782.093 438.008 781.618 439.133 780.999 440.104H779.543ZM794.782 425.8C796.233 425.8 797.374 426.147 798.206 426.84C799.038 427.533 799.454 428.488 799.454 429.704C799.454 430.92 799.038 431.875 798.206 432.568C797.374 433.261 796.233 433.608 794.782 433.608H792.014V437H790.414V425.8H794.782ZM794.734 432.216C795.748 432.216 796.521 432.003 797.054 431.576C797.588 431.139 797.854 430.515 797.854 429.704C797.854 428.893 797.588 428.275 797.054 427.848C796.521 427.411 795.748 427.192 794.734 427.192H792.014V432.216H794.734ZM801.737 425.128H803.273V437H801.737V425.128ZM809.294 428.44C810.467 428.44 811.363 428.728 811.982 429.304C812.611 429.88 812.926 430.739 812.926 431.88V437H811.47V435.88C811.214 436.275 810.846 436.579 810.366 436.792C809.897 436.995 809.337 437.096 808.686 437.096C807.737 437.096 806.974 436.867 806.398 436.408C805.833 435.949 805.55 435.347 805.55 434.6C805.55 433.853 805.822 433.256 806.366 432.808C806.91 432.349 807.774 432.12 808.958 432.12H811.39V431.816C811.39 431.155 811.198 430.648 810.814 430.296C810.43 429.944 809.865 429.768 809.118 429.768C808.617 429.768 808.126 429.853 807.646 430.024C807.166 430.184 806.761 430.403 806.43 430.68L805.79 429.528C806.227 429.176 806.75 428.909 807.358 428.728C807.966 428.536 808.611 428.44 809.294 428.44ZM808.942 435.912C809.529 435.912 810.035 435.784 810.462 435.528C810.889 435.261 811.198 434.888 811.39 434.408V433.224H809.022C807.721 433.224 807.07 433.661 807.07 434.536C807.07 434.963 807.235 435.299 807.566 435.544C807.897 435.789 808.355 435.912 808.942 435.912ZM820.537 436.504C820.313 436.696 820.035 436.845 819.705 436.952C819.374 437.048 819.033 437.096 818.681 437.096C817.827 437.096 817.166 436.867 816.697 436.408C816.227 435.949 815.993 435.293 815.993 434.44V429.784H814.553V428.52H815.993V426.664H817.529V428.52H819.961V429.784H817.529V434.376C817.529 434.835 817.641 435.187 817.865 435.432C818.099 435.677 818.43 435.8 818.857 435.8C819.326 435.8 819.726 435.667 820.057 435.4L820.537 436.504ZM825.498 426.296C824.58 426.296 824.122 426.792 824.122 427.784V428.52H826.586V429.784H824.154V437H822.618V429.784H821.178V428.52H822.618V427.768C822.618 426.925 822.863 426.259 823.354 425.768C823.844 425.277 824.532 425.032 825.418 425.032C825.759 425.032 826.079 425.075 826.378 425.16C826.676 425.245 826.932 425.368 827.146 425.528L826.682 426.696C826.33 426.429 825.935 426.296 825.498 426.296ZM831.541 437.096C830.698 437.096 829.941 436.909 829.269 436.536C828.597 436.163 828.069 435.651 827.685 435C827.312 434.339 827.125 433.592 827.125 432.76C827.125 431.928 827.312 431.187 827.685 430.536C828.069 429.875 828.597 429.363 829.269 429C829.941 428.627 830.698 428.44 831.541 428.44C832.384 428.44 833.136 428.627 833.797 429C834.469 429.363 834.992 429.875 835.365 430.536C835.749 431.187 835.941 431.928 835.941 432.76C835.941 433.592 835.749 434.339 835.365 435C834.992 435.651 834.469 436.163 833.797 436.536C833.136 436.909 832.384 437.096 831.541 437.096ZM831.541 435.752C832.085 435.752 832.57 435.629 832.997 435.384C833.434 435.128 833.776 434.776 834.021 434.328C834.266 433.869 834.389 433.347 834.389 432.76C834.389 432.173 834.266 431.656 834.021 431.208C833.776 430.749 833.434 430.397 832.997 430.152C832.57 429.907 832.085 429.784 831.541 429.784C830.997 429.784 830.506 429.907 830.069 430.152C829.642 430.397 829.301 430.749 829.045 431.208C828.8 431.656 828.677 432.173 828.677 432.76C828.677 433.347 828.8 433.869 829.045 434.328C829.301 434.776 829.642 435.128 830.069 435.384C830.506 435.629 830.997 435.752 831.541 435.752ZM839.537 429.944C839.804 429.453 840.199 429.08 840.721 428.824C841.244 428.568 841.879 428.44 842.625 428.44V429.928C842.54 429.917 842.423 429.912 842.273 429.912C841.441 429.912 840.785 430.163 840.305 430.664C839.836 431.155 839.601 431.859 839.601 432.776V437H838.065V428.52H839.537V429.944ZM855.127 428.44C856.193 428.44 857.036 428.749 857.655 429.368C858.284 429.987 858.599 430.904 858.599 432.12V437H857.063V432.296C857.063 431.475 856.871 430.856 856.487 430.44C856.113 430.024 855.575 429.816 854.871 429.816C854.092 429.816 853.473 430.061 853.015 430.552C852.556 431.032 852.327 431.725 852.327 432.632V437H850.791V432.296C850.791 431.475 850.599 430.856 850.215 430.44C849.841 430.024 849.303 429.816 848.599 429.816C847.82 429.816 847.201 430.061 846.743 430.552C846.284 431.032 846.055 431.725 846.055 432.632V437H844.519V428.52H845.991V429.784C846.3 429.347 846.705 429.016 847.207 428.792C847.708 428.557 848.279 428.44 848.919 428.44C849.58 428.44 850.167 428.573 850.679 428.84C851.191 429.107 851.585 429.496 851.863 430.008C852.183 429.517 852.625 429.133 853.191 428.856C853.767 428.579 854.412 428.44 855.127 428.44Z" fill="#777E90"/>
<line x1="802.5" y1="237" x2="802.5" y2="343" stroke="url(#paint4_linear_130_473)"/>
<circle cx="803" cy="212" r="9" fill="#040404"/>
<path d="M1109.54 385.736C1108.75 386.576 1107.84 386.984 1106.81 386.984C1105.97 386.984 1105.25 386.672 1104.43 385.808C1108.01 384.656 1110.43 381.536 1110.43 377.6C1110.43 372.584 1106.52 368.912 1101.24 368.912C1095.93 368.912 1092.05 372.608 1092.05 377.6C1092.05 382.16 1095.29 385.64 1099.89 386.216C1102.49 388.952 1104.24 389.864 1106.73 389.864C1108.58 389.864 1110.17 389.144 1111.27 387.8L1109.54 385.736ZM1095.98 377.6C1095.98 374.408 1098.24 372.224 1101.24 372.224C1104.24 372.224 1106.49 374.408 1106.49 377.6C1106.49 380.792 1104.24 382.976 1101.24 382.976C1098.24 382.976 1095.98 380.792 1095.98 377.6ZM1111.29 369.2V372.32H1114.65V386H1118.54V369.2H1111.29ZM1133.58 382.832L1137.45 379.184C1139.8 377 1140.26 375.512 1140.26 373.88C1140.26 370.832 1137.76 368.912 1134.02 368.912C1130.99 368.912 1128.64 370.136 1127.34 372.032L1130.18 373.856C1130.99 372.728 1132.22 372.176 1133.66 372.176C1135.43 372.176 1136.34 372.944 1136.34 374.264C1136.34 375.08 1136.08 375.944 1134.59 377.36L1128.11 383.48V386H1140.81V382.832H1133.58ZM1149.57 386.288C1153.72 386.288 1156.77 383.144 1156.77 377.6C1156.77 372.056 1153.72 368.912 1149.57 368.912C1145.44 368.912 1142.37 372.056 1142.37 377.6C1142.37 383.144 1145.44 386.288 1149.57 386.288ZM1149.57 383C1147.65 383 1146.3 381.416 1146.3 377.6C1146.3 373.784 1147.65 372.2 1149.57 372.2C1151.51 372.2 1152.85 373.784 1152.85 377.6C1152.85 381.416 1151.51 383 1149.57 383ZM1163.84 382.832L1167.71 379.184C1170.06 377 1170.51 375.512 1170.51 373.88C1170.51 370.832 1168.02 368.912 1164.27 368.912C1161.25 368.912 1158.9 370.136 1157.6 372.032L1160.43 373.856C1161.25 372.728 1162.47 372.176 1163.91 372.176C1165.69 372.176 1166.6 372.944 1166.6 374.264C1166.6 375.08 1166.34 375.944 1164.85 377.36L1158.37 383.48V386H1171.07V382.832H1163.84ZM1178 382.832L1181.86 379.184C1184.21 377 1184.67 375.512 1184.67 373.88C1184.67 370.832 1182.17 368.912 1178.43 368.912C1175.41 368.912 1173.05 370.136 1171.76 372.032L1174.59 373.856C1175.41 372.728 1176.63 372.176 1178.07 372.176C1179.85 372.176 1180.76 372.944 1180.76 374.264C1180.76 375.08 1180.49 375.944 1179.01 377.36L1172.53 383.48V386H1185.22V382.832H1178Z" fill="#040404"/>
<path d="M1103 411.608V413H1094.87V401.8H1102.77V403.192H1096.47V406.632H1102.08V407.992H1096.47V411.608H1103ZM1113.25 401.128V413H1111.78V411.656C1111.44 412.125 1111.01 412.483 1110.48 412.728C1109.96 412.973 1109.39 413.096 1108.76 413.096C1107.94 413.096 1107.2 412.915 1106.55 412.552C1105.9 412.189 1105.39 411.683 1105.01 411.032C1104.65 410.371 1104.47 409.613 1104.47 408.76C1104.47 407.907 1104.65 407.155 1105.01 406.504C1105.39 405.853 1105.9 405.347 1106.55 404.984C1107.2 404.621 1107.94 404.44 1108.76 404.44C1109.36 404.44 1109.92 404.557 1110.44 404.792C1110.95 405.016 1111.38 405.352 1111.72 405.8V401.128H1113.25ZM1108.88 411.752C1109.42 411.752 1109.9 411.629 1110.34 411.384C1110.78 411.128 1111.12 410.776 1111.36 410.328C1111.61 409.869 1111.73 409.347 1111.73 408.76C1111.73 408.173 1111.61 407.656 1111.36 407.208C1111.12 406.749 1110.78 406.397 1110.34 406.152C1109.9 405.907 1109.42 405.784 1108.88 405.784C1108.34 405.784 1107.85 405.907 1107.41 406.152C1106.99 406.397 1106.64 406.749 1106.39 407.208C1106.14 407.656 1106.02 408.173 1106.02 408.76C1106.02 409.347 1106.14 409.869 1106.39 410.328C1106.64 410.776 1106.99 411.128 1107.41 411.384C1107.85 411.629 1108.34 411.752 1108.88 411.752ZM1124.16 401.128V413H1122.69V411.656C1122.35 412.125 1121.91 412.483 1121.39 412.728C1120.87 412.973 1120.29 413.096 1119.66 413.096C1118.84 413.096 1118.11 412.915 1117.46 412.552C1116.8 412.189 1116.29 411.683 1115.92 411.032C1115.56 410.371 1115.38 409.613 1115.38 408.76C1115.38 407.907 1115.56 407.155 1115.92 406.504C1116.29 405.853 1116.8 405.347 1117.46 404.984C1118.11 404.621 1118.84 404.44 1119.66 404.44C1120.27 404.44 1120.83 404.557 1121.34 404.792C1121.86 405.016 1122.28 405.352 1122.62 405.8V401.128H1124.16ZM1119.79 411.752C1120.32 411.752 1120.81 411.629 1121.25 411.384C1121.68 411.128 1122.03 410.776 1122.27 410.328C1122.52 409.869 1122.64 409.347 1122.64 408.76C1122.64 408.173 1122.52 407.656 1122.27 407.208C1122.03 406.749 1121.68 406.397 1121.25 406.152C1120.81 405.907 1120.32 405.784 1119.79 405.784C1119.25 405.784 1118.76 405.907 1118.32 406.152C1117.89 406.397 1117.55 406.749 1117.3 407.208C1117.05 407.656 1116.93 408.173 1116.93 408.76C1116.93 409.347 1117.05 409.869 1117.3 410.328C1117.55 410.776 1117.89 411.128 1118.32 411.384C1118.76 411.629 1119.25 411.752 1119.79 411.752ZM1130.15 404.44C1131.33 404.44 1132.22 404.728 1132.84 405.304C1133.47 405.88 1133.79 406.739 1133.79 407.88V413H1132.33V411.88C1132.07 412.275 1131.71 412.579 1131.23 412.792C1130.76 412.995 1130.2 413.096 1129.55 413.096C1128.6 413.096 1127.83 412.867 1127.26 412.408C1126.69 411.949 1126.41 411.347 1126.41 410.6C1126.41 409.853 1126.68 409.256 1127.23 408.808C1127.77 408.349 1128.63 408.12 1129.82 408.12H1132.25V407.816C1132.25 407.155 1132.06 406.648 1131.67 406.296C1131.29 405.944 1130.72 405.768 1129.98 405.768C1129.48 405.768 1128.99 405.853 1128.51 406.024C1128.03 406.184 1127.62 406.403 1127.29 406.68L1126.65 405.528C1127.09 405.176 1127.61 404.909 1128.22 404.728C1128.83 404.536 1129.47 404.44 1130.15 404.44ZM1129.8 411.912C1130.39 411.912 1130.89 411.784 1131.32 411.528C1131.75 411.261 1132.06 410.888 1132.25 410.408V409.224H1129.88C1128.58 409.224 1127.93 409.661 1127.93 410.536C1127.93 410.963 1128.09 411.299 1128.43 411.544C1128.76 411.789 1129.21 411.912 1129.8 411.912ZM1146.58 401.8L1141.67 413H1140.08L1135.16 401.8H1136.88L1140.92 411L1144.98 401.8H1146.58ZM1154.81 408.808C1154.81 408.925 1154.8 409.08 1154.78 409.272H1147.9C1147.99 410.019 1148.32 410.621 1148.87 411.08C1149.44 411.528 1150.14 411.752 1150.97 411.752C1151.98 411.752 1152.8 411.411 1153.42 410.728L1154.26 411.72C1153.88 412.168 1153.4 412.509 1152.82 412.744C1152.26 412.979 1151.62 413.096 1150.92 413.096C1150.02 413.096 1149.23 412.915 1148.54 412.552C1147.84 412.179 1147.3 411.661 1146.92 411C1146.55 410.339 1146.36 409.592 1146.36 408.76C1146.36 407.939 1146.54 407.197 1146.9 406.536C1147.28 405.875 1147.78 405.363 1148.42 405C1149.07 404.627 1149.8 404.44 1150.62 404.44C1151.43 404.44 1152.15 404.627 1152.78 405C1153.42 405.363 1153.91 405.875 1154.26 406.536C1154.63 407.197 1154.81 407.955 1154.81 408.808ZM1150.62 405.736C1149.88 405.736 1149.26 405.96 1148.76 406.408C1148.27 406.856 1147.98 407.443 1147.9 408.168H1153.34C1153.25 407.453 1152.96 406.872 1152.46 406.424C1151.96 405.965 1151.35 405.736 1150.62 405.736ZM1158.41 405.944C1158.68 405.453 1159.07 405.08 1159.6 404.824C1160.12 404.568 1160.75 404.44 1161.5 404.44V405.928C1161.42 405.917 1161.3 405.912 1161.15 405.912C1160.32 405.912 1159.66 406.163 1159.18 406.664C1158.71 407.155 1158.48 407.859 1158.48 408.776V413H1156.94V404.52H1158.41V405.944ZM1165.89 413.096C1165.19 413.096 1164.53 413.005 1163.89 412.824C1163.25 412.632 1162.75 412.392 1162.38 412.104L1163.02 410.888C1163.4 411.155 1163.85 411.368 1164.38 411.528C1164.92 411.688 1165.46 411.768 1166 411.768C1167.34 411.768 1168.02 411.384 1168.02 410.616C1168.02 410.36 1167.93 410.157 1167.74 410.008C1167.56 409.859 1167.33 409.752 1167.06 409.688C1166.79 409.613 1166.41 409.533 1165.9 409.448C1165.22 409.341 1164.66 409.219 1164.22 409.08C1163.8 408.941 1163.43 408.707 1163.12 408.376C1162.81 408.045 1162.66 407.581 1162.66 406.984C1162.66 406.216 1162.98 405.603 1163.62 405.144C1164.26 404.675 1165.11 404.44 1166.19 404.44C1166.76 404.44 1167.32 404.509 1167.89 404.648C1168.45 404.787 1168.92 404.973 1169.28 405.208L1168.62 406.424C1167.93 405.976 1167.11 405.752 1166.18 405.752C1165.53 405.752 1165.03 405.859 1164.69 406.072C1164.35 406.285 1164.18 406.568 1164.18 406.92C1164.18 407.197 1164.27 407.416 1164.46 407.576C1164.66 407.736 1164.89 407.853 1165.17 407.928C1165.46 408.003 1165.86 408.088 1166.37 408.184C1167.05 408.301 1167.6 408.429 1168.02 408.568C1168.44 408.696 1168.81 408.92 1169.1 409.24C1169.4 409.56 1169.55 410.008 1169.55 410.584C1169.55 411.352 1169.22 411.965 1168.56 412.424C1167.91 412.872 1167.02 413.096 1165.89 413.096ZM1179.14 408.808C1179.14 408.925 1179.12 409.08 1179.1 409.272H1172.22C1172.32 410.019 1172.64 410.621 1173.2 411.08C1173.76 411.528 1174.46 411.752 1175.3 411.752C1176.31 411.752 1177.12 411.411 1177.74 410.728L1178.59 411.72C1178.21 412.168 1177.73 412.509 1177.15 412.744C1176.59 412.979 1175.95 413.096 1175.25 413.096C1174.35 413.096 1173.56 412.915 1172.86 412.552C1172.17 412.179 1171.63 411.661 1171.25 411C1170.87 410.339 1170.69 409.592 1170.69 408.76C1170.69 407.939 1170.87 407.197 1171.23 406.536C1171.6 405.875 1172.11 405.363 1172.75 405C1173.4 404.627 1174.13 404.44 1174.94 404.44C1175.75 404.44 1176.47 404.627 1177.1 405C1177.74 405.363 1178.24 405.875 1178.59 406.536C1178.95 407.197 1179.14 407.955 1179.14 408.808ZM1174.94 405.736C1174.21 405.736 1173.59 405.96 1173.09 406.408C1172.6 406.856 1172.31 407.443 1172.22 408.168H1177.66C1177.58 407.453 1177.28 406.872 1176.78 406.424C1176.29 405.965 1175.68 405.736 1174.94 405.736Z" fill="#E6007A"/>
<line x1="1138.5" y1="237" x2="1138.5" y2="343" stroke="url(#paint5_linear_130_473)"/>
<circle cx="1139" cy="212" r="9" fill="#040404"/>
<path d="M410.428 386.288C414.388 386.288 416.476 384.248 416.476 380.096V369.2H406.708V372.32H412.612V380.312C412.612 382.16 411.796 383.096 410.236 383.096C409.036 383.096 408.028 382.472 407.116 381.248L404.956 383.84C406.18 385.424 408.172 386.288 410.428 386.288ZM427.78 386.288C432.556 386.288 435.388 383.552 435.388 378.608V369.2H431.548V378.464C431.548 381.656 430.18 382.976 427.804 382.976C425.452 382.976 424.06 381.656 424.06 378.464V369.2H420.172V378.608C420.172 383.552 423.004 386.288 427.78 386.288ZM439.23 386H451.542V382.832H443.118V369.2H439.23V386ZM466.572 369.2H462.756L458.268 376.664L453.78 369.2H449.652L456.156 380V386H460.044V380.048L466.572 369.2ZM479.268 382.832L483.132 379.184C485.484 377 485.94 375.512 485.94 373.88C485.94 370.832 483.444 368.912 479.7 368.912C476.676 368.912 474.324 370.136 473.028 372.032L475.86 373.856C476.676 372.728 477.9 372.176 479.34 372.176C481.116 372.176 482.028 372.944 482.028 374.264C482.028 375.08 481.764 375.944 480.276 377.36L473.796 383.48V386H486.492V382.832H479.268ZM495.249 386.288C499.401 386.288 502.449 383.144 502.449 377.6C502.449 372.056 499.401 368.912 495.249 368.912C491.121 368.912 488.049 372.056 488.049 377.6C488.049 383.144 491.121 386.288 495.249 386.288ZM495.249 383C493.329 383 491.985 381.416 491.985 377.6C491.985 373.784 493.329 372.2 495.249 372.2C497.193 372.2 498.537 373.784 498.537 377.6C498.537 381.416 497.193 383 495.249 383ZM509.526 382.832L513.39 379.184C515.742 377 516.198 375.512 516.198 373.88C516.198 370.832 513.702 368.912 509.958 368.912C506.934 368.912 504.582 370.136 503.286 372.032L506.118 373.856C506.934 372.728 508.158 372.176 509.598 372.176C511.374 372.176 512.286 372.944 512.286 374.264C512.286 375.08 512.022 375.944 510.534 377.36L504.054 383.48V386H516.75V382.832H509.526ZM525.507 386.288C529.659 386.288 532.707 383.144 532.707 377.6C532.707 372.056 529.659 368.912 525.507 368.912C521.379 368.912 518.307 372.056 518.307 377.6C518.307 383.144 521.379 386.288 525.507 386.288ZM525.507 383C523.587 383 522.243 381.416 522.243 377.6C522.243 373.784 523.587 372.2 525.507 372.2C527.451 372.2 528.795 373.784 528.795 377.6C528.795 381.416 527.451 383 525.507 383Z" fill="#040404"/>
<path d="M385.68 401.8H390.4C391.584 401.8 392.635 402.035 393.552 402.504C394.469 402.973 395.179 403.635 395.68 404.488C396.192 405.331 396.448 406.301 396.448 407.4C396.448 408.499 396.192 409.475 395.68 410.328C395.179 411.171 394.469 411.827 393.552 412.296C392.635 412.765 391.584 413 390.4 413H385.68V401.8ZM390.304 411.608C391.211 411.608 392.005 411.432 392.688 411.08C393.381 410.728 393.915 410.237 394.288 409.608C394.661 408.968 394.848 408.232 394.848 407.4C394.848 406.568 394.661 405.837 394.288 405.208C393.915 404.568 393.381 404.072 392.688 403.72C392.005 403.368 391.211 403.192 390.304 403.192H387.28V411.608H390.304ZM406.339 408.808C406.339 408.925 406.328 409.08 406.307 409.272H399.427C399.523 410.019 399.848 410.621 400.403 411.08C400.968 411.528 401.667 411.752 402.499 411.752C403.512 411.752 404.328 411.411 404.947 410.728L405.795 411.72C405.411 412.168 404.931 412.509 404.355 412.744C403.789 412.979 403.155 413.096 402.451 413.096C401.555 413.096 400.76 412.915 400.067 412.552C399.373 412.179 398.835 411.661 398.451 411C398.077 410.339 397.891 409.592 397.891 408.76C397.891 407.939 398.072 407.197 398.435 406.536C398.808 405.875 399.315 405.363 399.955 405C400.605 404.627 401.336 404.44 402.147 404.44C402.957 404.44 403.677 404.627 404.307 405C404.947 405.363 405.443 405.875 405.795 406.536C406.157 407.197 406.339 407.955 406.339 408.808ZM402.147 405.736C401.411 405.736 400.792 405.96 400.291 406.408C399.8 406.856 399.512 407.443 399.427 408.168H404.867C404.781 407.453 404.488 406.872 403.987 406.424C403.496 405.965 402.883 405.736 402.147 405.736ZM415.819 404.52L412.107 413H410.539L406.827 404.52H408.427L411.339 411.32L414.315 404.52H415.819ZM424.683 408.808C424.683 408.925 424.672 409.08 424.651 409.272H417.771C417.867 410.019 418.192 410.621 418.747 411.08C419.312 411.528 420.011 411.752 420.843 411.752C421.856 411.752 422.672 411.411 423.291 410.728L424.139 411.72C423.755 412.168 423.275 412.509 422.699 412.744C422.133 412.979 421.499 413.096 420.795 413.096C419.899 413.096 419.104 412.915 418.411 412.552C417.717 412.179 417.179 411.661 416.795 411C416.421 410.339 416.235 409.592 416.235 408.76C416.235 407.939 416.416 407.197 416.779 406.536C417.152 405.875 417.659 405.363 418.299 405C418.949 404.627 419.68 404.44 420.491 404.44C421.301 404.44 422.021 404.627 422.651 405C423.291 405.363 423.787 405.875 424.139 406.536C424.501 407.197 424.683 407.955 424.683 408.808ZM420.491 405.736C419.755 405.736 419.136 405.96 418.635 406.408C418.144 406.856 417.856 407.443 417.771 408.168H423.211C423.125 407.453 422.832 406.872 422.331 406.424C421.84 405.965 421.227 405.736 420.491 405.736ZM426.815 401.128H428.351V413H426.815V401.128ZM434.916 413.096C434.073 413.096 433.316 412.909 432.644 412.536C431.972 412.163 431.444 411.651 431.06 411C430.687 410.339 430.5 409.592 430.5 408.76C430.5 407.928 430.687 407.187 431.06 406.536C431.444 405.875 431.972 405.363 432.644 405C433.316 404.627 434.073 404.44 434.916 404.44C435.759 404.44 436.511 404.627 437.172 405C437.844 405.363 438.367 405.875 438.74 406.536C439.124 407.187 439.316 407.928 439.316 408.76C439.316 409.592 439.124 410.339 438.74 411C438.367 411.651 437.844 412.163 437.172 412.536C436.511 412.909 435.759 413.096 434.916 413.096ZM434.916 411.752C435.46 411.752 435.945 411.629 436.372 411.384C436.809 411.128 437.151 410.776 437.396 410.328C437.641 409.869 437.764 409.347 437.764 408.76C437.764 408.173 437.641 407.656 437.396 407.208C437.151 406.749 436.809 406.397 436.372 406.152C435.945 405.907 435.46 405.784 434.916 405.784C434.372 405.784 433.881 405.907 433.444 406.152C433.017 406.397 432.676 406.749 432.42 407.208C432.175 407.656 432.052 408.173 432.052 408.76C432.052 409.347 432.175 409.869 432.42 410.328C432.676 410.776 433.017 411.128 433.444 411.384C433.881 411.629 434.372 411.752 434.916 411.752ZM445.936 404.44C446.758 404.44 447.494 404.621 448.144 404.984C448.795 405.347 449.302 405.853 449.664 406.504C450.038 407.155 450.224 407.907 450.224 408.76C450.224 409.613 450.038 410.371 449.664 411.032C449.302 411.683 448.795 412.189 448.144 412.552C447.494 412.915 446.758 413.096 445.936 413.096C445.328 413.096 444.768 412.979 444.256 412.744C443.755 412.509 443.328 412.168 442.976 411.72V416.104H441.44V404.52H442.912V405.864C443.254 405.395 443.686 405.043 444.208 404.808C444.731 404.563 445.307 404.44 445.936 404.44ZM445.808 411.752C446.352 411.752 446.838 411.629 447.264 411.384C447.702 411.128 448.043 410.776 448.288 410.328C448.544 409.869 448.672 409.347 448.672 408.76C448.672 408.173 448.544 407.656 448.288 407.208C448.043 406.749 447.702 406.397 447.264 406.152C446.838 405.907 446.352 405.784 445.808 405.784C445.275 405.784 444.79 405.912 444.352 406.168C443.926 406.413 443.584 406.76 443.328 407.208C443.083 407.656 442.96 408.173 442.96 408.76C442.96 409.347 443.083 409.869 443.328 410.328C443.574 410.776 443.915 411.128 444.352 411.384C444.79 411.629 445.275 411.752 445.808 411.752ZM462.955 404.44C464.021 404.44 464.864 404.749 465.483 405.368C466.112 405.987 466.427 406.904 466.427 408.12V413H464.891V408.296C464.891 407.475 464.699 406.856 464.315 406.44C463.941 406.024 463.403 405.816 462.699 405.816C461.92 405.816 461.301 406.061 460.843 406.552C460.384 407.032 460.155 407.725 460.155 408.632V413H458.619V408.296C458.619 407.475 458.427 406.856 458.043 406.44C457.669 406.024 457.131 405.816 456.427 405.816C455.648 405.816 455.029 406.061 454.571 406.552C454.112 407.032 453.883 407.725 453.883 408.632V413H452.347V404.52H453.819V405.784C454.128 405.347 454.533 405.016 455.035 404.792C455.536 404.557 456.107 404.44 456.747 404.44C457.408 404.44 457.995 404.573 458.507 404.84C459.019 405.107 459.413 405.496 459.691 406.008C460.011 405.517 460.453 405.133 461.019 404.856C461.595 404.579 462.24 404.44 462.955 404.44ZM476.964 408.808C476.964 408.925 476.953 409.08 476.932 409.272H470.052C470.148 410.019 470.473 410.621 471.028 411.08C471.593 411.528 472.292 411.752 473.124 411.752C474.137 411.752 474.953 411.411 475.572 410.728L476.42 411.72C476.036 412.168 475.556 412.509 474.98 412.744C474.414 412.979 473.78 413.096 473.076 413.096C472.18 413.096 471.385 412.915 470.692 412.552C469.998 412.179 469.46 411.661 469.076 411C468.702 410.339 468.516 409.592 468.516 408.76C468.516 407.939 468.697 407.197 469.06 406.536C469.433 405.875 469.94 405.363 470.58 405C471.23 404.627 471.961 404.44 472.772 404.44C473.582 404.44 474.302 404.627 474.932 405C475.572 405.363 476.068 405.875 476.42 406.536C476.782 407.197 476.964 407.955 476.964 408.808ZM472.772 405.736C472.036 405.736 471.417 405.96 470.916 406.408C470.425 406.856 470.137 407.443 470.052 408.168H475.492C475.406 407.453 475.113 406.872 474.612 406.424C474.121 405.965 473.508 405.736 472.772 405.736ZM483.625 404.44C484.702 404.44 485.555 404.755 486.185 405.384C486.825 406.003 487.145 406.915 487.145 408.12V413H485.609V408.296C485.609 407.475 485.411 406.856 485.017 406.44C484.622 406.024 484.057 405.816 483.321 405.816C482.489 405.816 481.833 406.061 481.353 406.552C480.873 407.032 480.633 407.725 480.633 408.632V413H479.097V404.52H480.569V405.8C480.878 405.363 481.294 405.027 481.817 404.792C482.35 404.557 482.953 404.44 483.625 404.44ZM494.755 412.504C494.531 412.696 494.254 412.845 493.923 412.952C493.593 413.048 493.251 413.096 492.899 413.096C492.046 413.096 491.385 412.867 490.915 412.408C490.446 411.949 490.211 411.293 490.211 410.44V405.784H488.771V404.52H490.211V402.664H491.747V404.52H494.179V405.784H491.747V410.376C491.747 410.835 491.859 411.187 492.083 411.432C492.318 411.677 492.649 411.8 493.075 411.8C493.545 411.8 493.945 411.667 494.275 411.4L494.755 412.504ZM508.669 407.192C509.32 407.373 509.832 407.704 510.205 408.184C510.578 408.653 510.765 409.251 510.765 409.976C510.765 410.947 510.397 411.693 509.661 412.216C508.936 412.739 507.874 413 506.477 413H501.133V401.8H506.157C507.437 401.8 508.424 402.056 509.117 402.568C509.821 403.08 510.173 403.789 510.173 404.696C510.173 405.283 510.034 405.789 509.757 406.216C509.49 406.643 509.128 406.968 508.669 407.192ZM502.733 403.096V406.68H506.013C506.834 406.68 507.464 406.531 507.901 406.232C508.349 405.923 508.573 405.475 508.573 404.888C508.573 404.301 508.349 403.859 507.901 403.56C507.464 403.251 506.834 403.096 506.013 403.096H502.733ZM506.413 411.704C507.32 411.704 508.002 411.555 508.461 411.256C508.92 410.957 509.149 410.488 509.149 409.848C509.149 408.6 508.237 407.976 506.413 407.976H502.733V411.704H506.413ZM520.683 408.808C520.683 408.925 520.672 409.08 520.651 409.272H513.771C513.867 410.019 514.192 410.621 514.747 411.08C515.312 411.528 516.011 411.752 516.843 411.752C517.856 411.752 518.672 411.411 519.291 410.728L520.139 411.72C519.755 412.168 519.275 412.509 518.699 412.744C518.133 412.979 517.499 413.096 516.795 413.096C515.899 413.096 515.104 412.915 514.411 412.552C513.717 412.179 513.179 411.661 512.795 411C512.421 410.339 512.235 409.592 512.235 408.76C512.235 407.939 512.416 407.197 512.779 406.536C513.152 405.875 513.659 405.363 514.299 405C514.949 404.627 515.68 404.44 516.491 404.44C517.301 404.44 518.021 404.627 518.651 405C519.291 405.363 519.787 405.875 520.139 406.536C520.501 407.197 520.683 407.955 520.683 408.808ZM516.491 405.736C515.755 405.736 515.136 405.96 514.635 406.408C514.144 406.856 513.856 407.443 513.771 408.168H519.211C519.125 407.453 518.832 406.872 518.331 406.424C517.84 405.965 517.227 405.736 516.491 405.736ZM530.927 404.52V411.848C530.927 413.331 530.559 414.424 529.823 415.128C529.087 415.843 527.989 416.2 526.527 416.2C525.727 416.2 524.965 416.088 524.239 415.864C523.514 415.651 522.927 415.341 522.479 414.936L523.215 413.752C523.61 414.093 524.095 414.36 524.671 414.552C525.258 414.755 525.861 414.856 526.479 414.856C527.471 414.856 528.202 414.621 528.671 414.152C529.151 413.683 529.391 412.968 529.391 412.008V411.336C529.029 411.773 528.581 412.104 528.047 412.328C527.525 412.541 526.954 412.648 526.335 412.648C525.525 412.648 524.789 412.477 524.127 412.136C523.477 411.784 522.965 411.299 522.591 410.68C522.218 410.051 522.031 409.336 522.031 408.536C522.031 407.736 522.218 407.027 522.591 406.408C522.965 405.779 523.477 405.293 524.127 404.952C524.789 404.611 525.525 404.44 526.335 404.44C526.975 404.44 527.567 404.557 528.111 404.792C528.666 405.027 529.119 405.373 529.471 405.832V404.52H530.927ZM526.511 411.304C527.066 411.304 527.562 411.187 527.999 410.952C528.447 410.717 528.794 410.392 529.039 409.976C529.295 409.549 529.423 409.069 529.423 408.536C529.423 407.715 529.151 407.053 528.607 406.552C528.063 406.04 527.365 405.784 526.511 405.784C525.647 405.784 524.943 406.04 524.399 406.552C523.855 407.053 523.583 407.715 523.583 408.536C523.583 409.069 523.706 409.549 523.951 409.976C524.207 410.392 524.554 410.717 524.991 410.952C525.439 411.187 525.946 411.304 526.511 411.304ZM533.862 404.52H535.398V413H533.862V404.52ZM534.63 402.888C534.332 402.888 534.081 402.792 533.878 402.6C533.686 402.408 533.59 402.173 533.59 401.896C533.59 401.619 533.686 401.384 533.878 401.192C534.081 400.989 534.332 400.888 534.63 400.888C534.929 400.888 535.174 400.984 535.366 401.176C535.569 401.357 535.67 401.587 535.67 401.864C535.67 402.152 535.569 402.397 535.366 402.6C535.174 402.792 534.929 402.888 534.63 402.888ZM542.859 404.44C543.936 404.44 544.79 404.755 545.419 405.384C546.059 406.003 546.379 406.915 546.379 408.12V413H544.843V408.296C544.843 407.475 544.646 406.856 544.251 406.44C543.856 406.024 543.291 405.816 542.555 405.816C541.723 405.816 541.067 406.061 540.587 406.552C540.107 407.032 539.867 407.725 539.867 408.632V413H538.331V404.52H539.803V405.8C540.112 405.363 540.528 405.027 541.051 404.792C541.584 404.557 542.187 404.44 542.859 404.44ZM551.654 413.096C550.96 413.096 550.294 413.005 549.654 412.824C549.014 412.632 548.512 412.392 548.15 412.104L548.79 410.888C549.163 411.155 549.616 411.368 550.15 411.528C550.683 411.688 551.222 411.768 551.766 411.768C553.11 411.768 553.782 411.384 553.782 410.616C553.782 410.36 553.691 410.157 553.51 410.008C553.328 409.859 553.099 409.752 552.822 409.688C552.555 409.613 552.171 409.533 551.67 409.448C550.987 409.341 550.427 409.219 549.99 409.08C549.563 408.941 549.195 408.707 548.886 408.376C548.576 408.045 548.422 407.581 548.422 406.984C548.422 406.216 548.742 405.603 549.382 405.144C550.022 404.675 550.88 404.44 551.958 404.44C552.523 404.44 553.088 404.509 553.654 404.648C554.219 404.787 554.683 404.973 555.046 405.208L554.39 406.424C553.696 405.976 552.88 405.752 551.942 405.752C551.291 405.752 550.795 405.859 550.454 406.072C550.112 406.285 549.942 406.568 549.942 406.92C549.942 407.197 550.038 407.416 550.23 407.576C550.422 407.736 550.656 407.853 550.934 407.928C551.222 408.003 551.622 408.088 552.134 408.184C552.816 408.301 553.366 408.429 553.782 408.568C554.208 408.696 554.571 408.92 554.87 409.24C555.168 409.56 555.318 410.008 555.318 410.584C555.318 411.352 554.987 411.965 554.326 412.424C553.675 412.872 552.784 413.096 551.654 413.096Z" fill="#777E90"/>
<line x1="468.5" y1="237" x2="468.5" y2="343" stroke="url(#paint6_linear_130_473)"/>
<circle cx="468" cy="212" r="9" fill="#040404"/>
<defs>
<linearGradient id="paint0_linear_130_473" x1="0" y1="4" x2="1438" y2="4" gradientUnits="userSpaceOnUse">
<stop stop-color="#FF59F8"/>
<stop offset="0.197917" stop-color="#AE72FF"/>
<stop offset="0.40625" stop-color="#90E9ED"/>
<stop offset="0.619792" stop-color="#5CD167"/>
<stop offset="0.825321" stop-color="#FFEE00"/>
</linearGradient>
<linearGradient id="paint1_linear_130_473" x1="291" y1="80" x2="291" y2="186" gradientUnits="userSpaceOnUse">
<stop stop-color="#FF59F8"/>
<stop offset="0.197917" stop-color="#AE72FF"/>
<stop offset="0.40625" stop-color="#90E9ED"/>
<stop offset="0.619792" stop-color="#5CD167"/>
<stop offset="0.825321" stop-color="#FFEE00"/>
</linearGradient>
<linearGradient id="paint2_linear_130_473" x1="633" y1="80" x2="633" y2="186" gradientUnits="userSpaceOnUse">
<stop stop-color="#FF59F8"/>
<stop offset="0.197917" stop-color="#AE72FF"/>
<stop offset="0.40625" stop-color="#90E9ED"/>
<stop offset="0.619792" stop-color="#5CD167"/>
<stop offset="0.825321" stop-color="#FFEE00"/>
</linearGradient>
<linearGradient id="paint3_linear_130_473" x1="969.5" y1="102.5" x2="969.5" y2="187" gradientUnits="userSpaceOnUse">
<stop stop-color="#FF59F8"/>
<stop offset="0.197917" stop-color="#AE72FF"/>
<stop offset="0.40625" stop-color="#90E9ED"/>
<stop offset="0.619792" stop-color="#5CD167"/>
<stop offset="0.825321" stop-color="#FFEE00"/>
</linearGradient>
<linearGradient id="paint4_linear_130_473" x1="801" y1="237" x2="801" y2="343" gradientUnits="userSpaceOnUse">
<stop stop-color="#FF59F8"/>
<stop offset="0.197917" stop-color="#AE72FF"/>
<stop offset="0.40625" stop-color="#90E9ED"/>
<stop offset="0.619792" stop-color="#5CD167"/>
<stop offset="0.825321" stop-color="#FFEE00"/>
</linearGradient>
<linearGradient id="paint5_linear_130_473" x1="1137" y1="237" x2="1137" y2="343" gradientUnits="userSpaceOnUse">
<stop stop-color="#FF59F8"/>
<stop offset="0.197917" stop-color="#AE72FF"/>
<stop offset="0.40625" stop-color="#90E9ED"/>
<stop offset="0.619792" stop-color="#5CD167"/>
<stop offset="0.825321" stop-color="#FFEE00"/>
</linearGradient>
<linearGradient id="paint6_linear_130_473" x1="467" y1="237" x2="467" y2="343" gradientUnits="userSpaceOnUse">
<stop stop-color="#FF59F8"/>
<stop offset="0.197917" stop-color="#AE72FF"/>
<stop offset="0.40625" stop-color="#90E9ED"/>
<stop offset="0.619792" stop-color="#5CD167"/>
<stop offset="0.825321" stop-color="#FFEE00"/>
</linearGradient>
</defs>
</svg>
